<svg width="52" height="44" viewBox="0 0 52 44" fill="none" xmlns="http://www.w3.org/2000/svg">
<g clip-path="url(#clip0_6009_1701)">
<path d="M41.6371 42.4715L41.7996 43.6376C41.8273 43.8306 41.6477 43.9998 41.4166 43.9998L36.7708 43.9836C36.5611 43.9836 36.5033 43.7404 36.698 43.6717L40.7728 42.2372L41.6371 42.4715Z" fill="#53C4CC"/>
<path d="M51.8228 42.4717L51.9969 43.6379C52.0267 43.8308 51.8342 44.0002 51.5866 44.0002L46.609 43.984C46.3843 43.984 46.3224 43.7407 46.5309 43.6723L50.8968 42.2375L51.8226 42.4717H51.8228Z" fill="#53C4CC"/>
<path d="M48.4022 10.4728C48.5136 12.187 49.6011 12.3426 50.1694 12.8012C48.8117 13.3226 45.6608 13.8519 45.9438 13.2317C46.2267 12.6117 46.2508 11.5624 46.0877 11.1224C46.7466 10.2101 48.3133 9.10149 48.4022 10.4728Z" fill="#F1F3F6"/>
<g opacity="0.4">
<g opacity="0.4">
<path d="M47.3914 10.8713C47.9719 10.0538 47.9588 9.21858 47.3623 9.00587C46.7657 8.79315 45.8115 9.28345 45.231 10.101C44.6505 10.9185 44.6636 11.7537 45.2601 11.9664C45.8567 12.1791 46.8109 11.6888 47.3914 10.8713Z" fill="#534A9B"/>
</g>
</g>
<path d="M45.0539 6.55646C45.0539 6.55646 44.6678 7.18209 44.5454 7.5739C44.4229 7.96571 44.3819 8.09638 44.1183 8.3302C43.8546 8.56385 43.5909 8.7975 43.6912 9.08649C43.7917 9.37531 44.0332 9.82229 43.9922 9.95295C43.9512 10.0836 43.6875 10.3173 44.152 10.6613C44.6165 11.0052 45.4041 11.5349 46.6596 11.1777C47.9151 10.8206 48.8033 10.3395 48.8033 10.3395L50.0877 8.13976L48.0889 6.60565L45.7225 6.24731L45.0539 6.55646Z" fill="#F1F3F6"/>
<mask id="mask0_6009_1701" style="mask-type:luminance" maskUnits="userSpaceOnUse" x="44" y="5" width="7" height="6">
<path d="M48.314 10.6636C48.1318 10.636 48.4784 10.4909 48.2552 10.2407C48.1137 10.0824 48.0559 9.75634 48.0559 9.75634L48.502 9.55002C48.7252 9.44686 49.0501 8.97545 48.7471 8.76537C48.4442 8.55546 48.0593 8.52421 47.5721 8.86136C47.085 9.19852 46.6796 9.27401 46.5384 9.11568C46.3969 8.95735 46.6608 8.72336 46.8655 8.06954C47.0699 7.41572 46.2053 7.25039 46.2053 7.25039C45.0303 7.34638 44.7726 7.14262 44.3108 6.79744C43.849 6.45208 44.3373 5.52772 46.1559 5.64865C47.9747 5.76974 48.3302 5.82611 49.0181 6.06727C49.7059 6.30844 50.6358 6.99693 50.7549 7.83674C50.874 8.67656 49.8002 10.032 49.2405 10.3277C48.6809 10.6235 48.496 10.6908 48.3138 10.6633L48.314 10.6636Z" fill="white"/>
</mask>
<g mask="url(#mask0_6009_1701)">
<path d="M43.8492 7.15149L46.514 10.6913H43.8492V7.15149Z" fill="#1B2837"/>
<path d="M43.8492 7.01587L46.6162 10.6913H46.514L43.8492 7.15148V7.01587Z" fill="#1B2837"/>
<path d="M43.8492 6.88013L46.7184 10.6913H46.6162L43.8492 7.01591V6.88013Z" fill="#1B2938"/>
<path d="M43.8492 6.74451L46.8206 10.6913H46.7184L43.8492 6.88012V6.74451Z" fill="#1C2939"/>
<path d="M43.8492 6.6087L46.9228 10.6913H46.8206L43.8492 6.74449V6.6087Z" fill="#1C2A3A"/>
<path d="M43.8492 6.47308L47.025 10.6913H46.9228L43.8492 6.6087V6.47308Z" fill="#1C2B3B"/>
<path d="M43.8492 6.33728L47.1269 10.6913H47.025L43.8492 6.47306V6.33728Z" fill="#1D2B3C"/>
<path d="M43.8492 6.20172L47.2291 10.6913H47.1269L43.8492 6.33733V6.20172Z" fill="#1D2C3D"/>
<path d="M43.8492 6.06592L47.3313 10.6913H47.2291L43.8492 6.2017V6.06592Z" fill="#1D2D3E"/>
<path d="M43.8492 5.9303L47.4335 10.6913H47.3313L43.8492 6.06591V5.9303Z" fill="#1E2D3F"/>
<path d="M43.8492 5.79449L47.5357 10.6913H47.4335L43.8492 5.93028V5.79449Z" fill="#1E2E40"/>
<path d="M43.8492 5.65887L47.6379 10.6913H47.5357L43.8492 5.79449V5.65887Z" fill="#1E2F41"/>
<path d="M43.8529 5.52789L47.7401 10.6913H47.6379L43.8492 5.6589V5.52789H43.8529Z" fill="#1F2F42"/>
<path d="M43.955 5.52789L47.8425 10.6913H47.7403L43.853 5.52789H43.955Z" fill="#1F3043"/>
<path d="M44.057 5.52789L47.9443 10.6913H47.8423L43.9548 5.52789H44.057Z" fill="#1F3044"/>
<path d="M44.1592 5.52789L48.0465 10.6913H47.9443L44.057 5.52789H44.1592Z" fill="#203145"/>
<path d="M44.2614 5.52789L48.1486 10.6913H48.0464L44.1592 5.52789H44.2614Z" fill="#203246"/>
<path d="M44.3636 5.52789L48.2509 10.6913H48.1487L44.2614 5.52789H44.3636Z" fill="#203247"/>
<path d="M44.4658 5.52789L48.353 10.6913H48.2508L44.3636 5.52789H44.4658Z" fill="#213348"/>
<path d="M44.568 5.52789L48.4552 10.6913H48.353L44.4658 5.52789H44.568Z" fill="#213449"/>
<path d="M44.6702 5.52789L48.5574 10.6913H48.4552L44.568 5.52789H44.6702Z" fill="#21344A"/>
<path d="M44.7721 5.52789L48.6596 10.6913H48.5574L44.6702 5.52789H44.7721Z" fill="#22354B"/>
<path d="M44.8744 5.52789L48.7616 10.6913H48.6597L44.7722 5.52789H44.8744Z" fill="#22364C"/>
<path d="M44.9765 5.52789L48.8638 10.6913H48.7616L44.8743 5.52789H44.9765Z" fill="#22364D"/>
<path d="M45.0787 5.52789L48.9659 10.6913H48.8638L44.9765 5.52789H45.0787Z" fill="#23374E"/>
<path d="M45.1809 5.52789L49.0682 10.6913H48.966L45.0787 5.52789H45.1809Z" fill="#23384F"/>
<path d="M45.2831 5.52789L49.1679 10.688L49.1593 10.6913H49.0682L45.1809 5.52789H45.2831Z" fill="#233850"/>
<path d="M45.3853 5.52789L49.2475 10.658L49.1679 10.688L45.2831 5.52789H45.3853Z" fill="#243951"/>
<path d="M45.4875 5.52789L49.327 10.6279L49.2475 10.658L45.3853 5.52789H45.4875Z" fill="#243A52"/>
<path d="M45.5894 5.52789L49.4066 10.5979L49.327 10.6279L45.4875 5.52789H45.5894Z" fill="#243A53"/>
<path d="M45.6916 5.52789L49.4861 10.5678L49.4065 10.5979L45.5894 5.52789H45.6916Z" fill="#253B54"/>
<path d="M45.7938 5.52789L49.5656 10.5377L49.4861 10.5678L45.6917 5.52789H45.7938Z" fill="#253C55"/>
<path d="M45.896 5.52789L49.6452 10.5077L49.5656 10.5377L45.7938 5.52789H45.896Z" fill="#253C56"/>
<path d="M45.9983 5.52789L49.7245 10.4776L49.6452 10.5077L45.8961 5.52789H45.9983Z" fill="#263D57"/>
<path d="M46.1004 5.52789L49.804 10.4474L49.7245 10.4776L45.9982 5.52789H46.1004Z" fill="#263E59"/>
<path d="M46.2026 5.52789L49.8835 10.4173L49.804 10.4474L46.1004 5.52789H46.2026Z" fill="#263E5A"/>
<path d="M46.3046 5.52789L49.9631 10.3873L49.8836 10.4173L46.2026 5.52789H46.3046Z" fill="#273F5B"/>
<path d="M46.4068 5.52789L50.0426 10.3572L49.9631 10.3873L46.3046 5.52789H46.4068Z" fill="#273F5C"/>
<path d="M46.5089 5.52789L50.1221 10.3272L50.0426 10.3572L46.4067 5.52789H46.5089Z" fill="#27405D"/>
<path d="M46.6112 5.52789L50.2017 10.2971L50.1222 10.3272L46.509 5.52789H46.6112Z" fill="#28415E"/>
<path d="M46.7133 5.52789L50.2812 10.267L50.2017 10.2971L46.6111 5.52789H46.7133Z" fill="#28415F"/>
<path d="M46.8155 5.52789L50.3608 10.237L50.2812 10.267L46.7133 5.52789H46.8155Z" fill="#284260"/>
<path d="M46.9177 5.52789L50.4403 10.2069L50.3608 10.237L46.8156 5.52789H46.9177Z" fill="#294361"/>
<path d="M47.0199 5.52789L50.5198 10.1768L50.4403 10.2069L46.9177 5.52789H47.0199Z" fill="#294362"/>
<path d="M47.1219 5.52789L50.5994 10.1468L50.5199 10.1768L47.02 5.52789H47.1219Z" fill="#294463"/>
<path d="M47.2241 5.52789L50.6789 10.1167L50.5994 10.1468L47.1219 5.52789H47.2241Z" fill="#2A4564"/>
<path d="M47.3263 5.52789L50.7585 10.0867L50.6789 10.1167L47.2241 5.52789H47.3263Z" fill="#2A4565"/>
<path d="M47.4285 5.52789L50.838 10.0566L50.7585 10.0867L47.3263 5.52789H47.4285Z" fill="#2A4666"/>
<path d="M47.5307 5.52789L50.8744 9.96916V10.0429L50.838 10.0566L47.4285 5.52789H47.5307Z" fill="#2B4767"/>
<path d="M47.6328 5.52789L50.8744 9.83354V9.96916L47.5306 5.52789H47.6328Z" fill="#2B4768"/>
<path d="M47.7351 5.52789L50.8744 9.69776V9.83354L47.6329 5.52789H47.7351Z" fill="#2B4869"/>
<path d="M47.8372 5.52789L50.8744 9.56215V9.69776L47.735 5.52789H47.8372Z" fill="#2C496A"/>
<path d="M47.9392 5.52789L50.8744 9.42636V9.56215L47.8372 5.52789H47.9392Z" fill="#2C496B"/>
<path d="M48.0414 5.52789L50.8744 9.29075V9.42636L47.9392 5.52789H48.0414Z" fill="#2C4A6C"/>
<path d="M48.1436 5.52789L50.8744 9.15496V9.29075L48.0414 5.52789H48.1436Z" fill="#2D4B6D"/>
<path d="M48.2458 5.52789L50.8744 9.01935V9.15496L48.1436 5.52789H48.2458Z" fill="#2D4B6E"/>
<path d="M48.348 5.52789L50.8744 8.88357V9.01935L48.2458 5.52789H48.348Z" fill="#2D4C6F"/>
<path d="M48.4502 5.52789L50.8744 8.74795V8.88356L48.348 5.52789H48.4502Z" fill="#2E4C70"/>
<path d="M48.5524 5.52789L50.8744 8.61217V8.74795L48.4502 5.52789H48.5524Z" fill="#2E4D71"/>
<path d="M48.6546 5.52789L50.8744 8.47655V8.61217L48.5524 5.52789H48.6546Z" fill="#2E4E72"/>
<path d="M48.7565 5.52789L50.8744 8.34077V8.47655L48.6545 5.52789H48.7565Z" fill="#2F4E73"/>
<path d="M48.8587 5.52789L50.8744 8.20515V8.34077L48.7565 5.52789H48.8587Z" fill="#2F4F74"/>
<path d="M48.9609 5.52789L50.8744 8.06937V8.20515L48.8587 5.52789H48.9609Z" fill="#2F5075"/>
<path d="M49.0631 5.52789L50.8744 7.93376V8.06937L48.9609 5.52789H49.0631Z" fill="#305076"/>
<path d="M49.1653 5.52789L50.8744 7.79797V7.93376L49.0631 5.52789H49.1653Z" fill="#305177"/>
<path d="M49.2675 5.52789L50.8744 7.66236V7.79797L49.1653 5.52789H49.2675Z" fill="#305278"/>
<path d="M49.3697 5.52789L50.8744 7.52657V7.66236L49.2675 5.52789H49.3697Z" fill="#315279"/>
<path d="M49.4716 5.52789L50.8744 7.39096V7.52657L49.3697 5.52789H49.4716Z" fill="#31537A"/>
<path d="M50.8744 7.39096L49.4716 5.52789H50.8744V7.39096Z" fill="#31537A"/>
</g>
<mask id="mask1_6009_1701" style="mask-type:luminance" maskUnits="userSpaceOnUse" x="-16" y="0" width="54" height="18">
<path d="M33.0136 0.792114H-11.6634C-14.0134 0.792114 -15.9184 1.73804 -15.9184 2.90489V15.4495C-15.9184 16.6164 -14.0134 17.5623 -11.6634 17.5623H33.0136C35.3635 17.5623 37.2685 16.6164 37.2685 15.4495V2.90489C37.2685 1.73804 35.3635 0.792114 33.0136 0.792114Z" fill="white"/>
</mask>
<g mask="url(#mask1_6009_1701)">
<path d="M0 7.86505L17.376 17.5623H0V7.86505Z" fill="#1B2837"/>
<path d="M0 7.5144L18.0041 17.5623H17.376L0 7.86505V7.5144Z" fill="#1B2837"/>
<path d="M0 7.16388L18.6322 17.5622H18.0041L0 7.51436V7.16388Z" fill="#1B2938"/>
<path d="M0 6.81342L19.2601 17.5623H18.6322L0 7.16389V6.81342Z" fill="#1C2939"/>
<path d="M0 6.46295L19.8882 17.5623H19.2601L0 6.81343V6.46295Z" fill="#1C2A3A"/>
<path d="M0 6.1123L20.5163 17.5623H19.8882L0 6.46295V6.1123Z" fill="#1C2B3B"/>
<path d="M0 5.76184L21.1444 17.5623H20.5163L0 6.11232V5.76184Z" fill="#1D2B3C"/>
<path d="M0 5.41138L21.7725 17.5623H21.1444L0 5.76186V5.41138Z" fill="#1D2C3D"/>
<path d="M0 5.06091L22.4007 17.5623H21.7725L0 5.41139V5.06091Z" fill="#1D2D3E"/>
<path d="M0 4.71021L23.0288 17.5623H22.4007L0 5.06085V4.71021Z" fill="#1E2D3F"/>
<path d="M0 4.35974L23.6566 17.5623H23.0288L0 4.71022V4.35974Z" fill="#1E2E40"/>
<path d="M0 4.00928L24.2847 17.5623H23.6566L0 4.35976V4.00928Z" fill="#1E2F41"/>
<path d="M0 3.65863L24.9129 17.5623H24.2847L0 4.00928V3.65863Z" fill="#1F2F42"/>
<path d="M0 3.30817L25.541 17.5623H24.9129L0 3.65864V3.30817Z" fill="#1F3043"/>
<path d="M0 2.9577L26.1691 17.5623H25.541L0 3.30818V2.9577Z" fill="#1F3044"/>
<path d="M0 2.60718L26.7972 17.5623H26.1691L0 2.95766V2.60718Z" fill="#203145"/>
<path d="M0 2.25653L27.4253 17.5623H26.7972L0 2.60718V2.25653Z" fill="#203246"/>
<path d="M0 1.90607L28.0534 17.5623H27.4253L0 2.25654V1.90607Z" fill="#203247"/>
<path d="M0 1.5556L28.6813 17.5623H28.0534L0 1.90608V1.5556Z" fill="#213348"/>
<path d="M0 1.38413L0.122923 1.27362L29.3094 17.5623H28.6813L0 1.55561V1.38413Z" fill="#213449"/>
<path d="M0.122925 1.27359L0.363227 1.05719L29.9375 17.5623H29.3094L0.122925 1.27359Z" fill="#21344A"/>
<path d="M0.36322 1.05717L0.603763 0.840942L30.5656 17.5623H29.9375L0.36322 1.05717Z" fill="#22354B"/>
<path d="M0.60376 0.840963L0.65799 0.792114H1.14438L31.1937 17.5623H30.5656L0.60376 0.840963Z" fill="#22364C"/>
<path d="M1.77252 0.792114L31.8219 17.5623H31.1938L1.14441 0.792114H1.77252Z" fill="#22364D"/>
<path d="M2.40063 0.792114L32.45 17.5623H31.8219L1.77252 0.792114H2.40063Z" fill="#23374E"/>
<path d="M3.02875 0.792114L33.0781 17.5623H32.45L2.40063 0.792114H3.02875Z" fill="#23384F"/>
<path d="M3.65686 0.792114L33.706 17.5623H33.0781L3.02875 0.792114H3.65686Z" fill="#233850"/>
<path d="M4.28497 0.792114L34.3341 17.5623H33.706L3.65686 0.792114H4.28497Z" fill="#243951"/>
<path d="M4.91308 0.792114L34.9622 17.5623H34.3341L4.28497 0.792114H4.91308Z" fill="#243A52"/>
<path d="M5.5412 0.792114L35.5903 17.5623H34.9622L4.91309 0.792114H5.5412Z" fill="#243A53"/>
<path d="M6.16907 0.792114L36.2184 17.5623H35.5903L5.5412 0.792114H6.16907Z" fill="#253B54"/>
<path d="M6.79718 0.792114L36.701 17.481L36.6106 17.5623H36.2184L6.16907 0.792114H6.79718Z" fill="#253C55"/>
<path d="M7.42529 0.792114L36.9413 17.2647L36.7009 17.481L6.79718 0.792114H7.42529Z" fill="#253C56"/>
<path d="M8.0534 0.792114L37.1818 17.0483L36.9412 17.2647L7.42529 0.792114H8.0534Z" fill="#263D57"/>
<path d="M8.68152 0.792114L37.2686 16.7462V16.9703L37.1818 17.0483L8.05341 0.792114H8.68152Z" fill="#263E59"/>
<path d="M9.30963 0.792114L37.2686 16.3957V16.7462L8.68152 0.792114H9.30963Z" fill="#263E5A"/>
<path d="M9.93768 0.792114L37.2685 16.0452V16.3957L9.30957 0.792114H9.93768Z" fill="#273F5B"/>
<path d="M10.5658 0.792114L37.2685 15.6946V16.0452L9.93768 0.792114H10.5658Z" fill="#273F5C"/>
<path d="M11.1937 0.792114L37.2685 15.3441V15.6946L10.5658 0.792114H11.1937Z" fill="#27405D"/>
<path d="M11.8218 0.792114L37.2686 14.9936V15.3441L11.1937 0.792114H11.8218Z" fill="#28415E"/>
<path d="M12.4499 0.792114L37.2686 14.6432V14.9936L11.8218 0.792114H12.4499Z" fill="#28415F"/>
<path d="M13.0781 0.792114L37.2686 14.2925V14.6432L12.45 0.792114H13.0781Z" fill="#284260"/>
<path d="M13.7062 0.792114L37.2686 13.942V14.2925L13.0781 0.792114H13.7062Z" fill="#294361"/>
<path d="M14.3342 0.792114L37.2685 13.5916V13.942L13.7061 0.792114H14.3342Z" fill="#294362"/>
<path d="M14.9623 0.792114L37.2685 13.2409V13.5916L14.3342 0.792114H14.9623Z" fill="#294463"/>
<path d="M15.5902 0.792114L37.2685 12.8904V13.2409L14.9623 0.792114H15.5902Z" fill="#2A4564"/>
<path d="M16.2184 0.792114L37.2686 12.54V12.8904L15.5903 0.792114H16.2184Z" fill="#2A4565"/>
<path d="M16.8464 0.792114L37.2685 12.1895V12.54L16.2183 0.792114H16.8464Z" fill="#2A4666"/>
<path d="M17.4745 0.792114L37.2685 11.8388V12.1895L16.8464 0.792114H17.4745Z" fill="#2B4767"/>
<path d="M18.1027 0.792114L37.2686 11.4883V11.8388L17.4746 0.792114H18.1027Z" fill="#2B4768"/>
<path d="M18.7308 0.792114L37.2685 11.1379V11.4883L18.1027 0.792114H18.7308Z" fill="#2B4869"/>
<path d="M19.3589 0.792114L37.2685 10.7874V11.1379L18.7308 0.792114H19.3589Z" fill="#2C496A"/>
<path d="M19.987 0.792114L37.2685 10.4367V10.7874L19.3589 0.792114H19.987Z" fill="#2C496B"/>
<path d="M20.6149 0.792114L37.2685 10.0863V10.4367L19.987 0.792114H20.6149Z" fill="#2C4A6C"/>
<path d="M21.243 0.792114L37.2685 9.73579V10.0863L20.6149 0.792114H21.243Z" fill="#2D4B6D"/>
<path d="M21.8711 0.792114L37.2685 9.38514V9.73579L21.243 0.792114H21.8711Z" fill="#2D4B6E"/>
<path d="M22.4992 0.792114L37.2685 9.03466V9.38514L21.8711 0.792114H22.4992Z" fill="#2D4C6F"/>
<path d="M23.1273 0.792114L37.2685 8.68419V9.03466L22.4992 0.792114H23.1273Z" fill="#2E4C70"/>
<path d="M23.7554 0.792114L37.2685 8.33371V8.68419L23.1273 0.792114H23.7554Z" fill="#2E4D71"/>
<path d="M24.3835 0.792114L37.2685 7.98306V8.33371L23.7554 0.792114H24.3835Z" fill="#2E4E72"/>
<path d="M25.0117 0.792114L37.2685 7.63258V7.98306L24.3835 0.792114H25.0117Z" fill="#2F4E73"/>
<path d="M25.6395 0.792114L37.2685 7.2821V7.63258L25.0117 0.792114H25.6395Z" fill="#2F4F74"/>
<path d="M26.2676 0.792114L37.2685 6.93163V7.2821L25.6395 0.792114H26.2676Z" fill="#2F5075"/>
<path d="M26.8958 0.792114L37.2685 6.58098V6.93162L26.2676 0.792114H26.8958Z" fill="#305076"/>
<path d="M27.5239 0.792114L37.2685 6.2305V6.58098L26.8958 0.792114H27.5239Z" fill="#305177"/>
<path d="M28.152 0.792114L37.2685 5.88002V6.2305L27.5239 0.792114H28.152Z" fill="#305278"/>
<path d="M28.7801 0.792114L37.2685 5.52937V5.88002L28.152 0.792114H28.7801Z" fill="#315279"/>
<path d="M29.4082 0.792114L37.2685 5.17889V5.52937L28.7801 0.792114H29.4082Z" fill="#31537A"/>
<path d="M37.2685 5.17889L29.4082 0.792114H37.2685V5.17889Z" fill="#31537A"/>
</g>
<path d="M6.89454 17.9586C6.89454 17.8127 6.72771 17.6945 6.52192 17.6945C6.31612 17.6945 6.14929 17.8127 6.14929 17.9586V18.0908C6.14929 18.2366 6.31612 18.3548 6.52192 18.3548C6.72771 18.3548 6.89454 18.2366 6.89454 18.0908V17.9586Z" fill="#D9DEE4"/>
<path d="M30.9327 17.6945C31.1385 17.6945 31.3053 17.8127 31.3053 17.9586V18.0906C31.3053 18.2365 31.1385 18.3547 30.9327 18.3547C30.7268 18.3547 30.5601 18.2365 30.5601 18.0906V17.9586C30.5601 17.8127 30.7268 17.6945 30.9327 17.6945Z" fill="#D9DEE4"/>
<path d="M35.0323 18.2226C35.0323 18.3685 34.8655 18.4867 34.6597 18.4867H2.79517C2.58934 18.4867 2.42255 18.3685 2.42255 18.2226C2.42255 18.0768 2.58934 17.9586 2.79517 17.9586H34.6597C34.8655 17.9586 35.0323 18.0768 35.0323 18.2226Z" fill="#D9DEE4"/>
<path d="M35.0323 0.264054C35.0323 0.409916 34.8655 0.528108 34.6597 0.528108H2.79517C2.58934 0.528108 2.42255 0.409916 2.42255 0.264054C2.42255 0.118192 2.58934 0 2.79517 0H34.6597C34.8655 0 35.0323 0.118192 35.0323 0.264054Z" fill="#D9DEE4"/>
<path d="M19.0065 18.3547C19.2124 18.3547 19.3792 18.4729 19.3792 18.6187V41.8592C19.3792 42.0051 19.2124 42.1233 19.0065 42.1233C18.8007 42.1233 18.6339 42.0051 18.6339 41.8592V18.6187C18.6339 18.4729 18.8007 18.3547 19.0065 18.3547Z" fill="#D9DEE4"/>
<path d="M18.8202 41.8237C18.9231 41.6973 19.1511 41.6541 19.3293 41.727L23.3235 43.3612C23.5019 43.4342 23.5629 43.5957 23.46 43.722C23.357 43.8483 23.129 43.8916 22.9509 43.8186L18.9566 42.1844C18.7783 42.1115 18.7173 41.9499 18.8202 41.8237Z" fill="#D9DEE4"/>
<path d="M19.3608 41.8237C19.2579 41.6973 19.0299 41.6541 18.8518 41.727L14.8575 43.3612C14.6792 43.4342 14.6182 43.5957 14.7211 43.722C14.824 43.8483 15.052 43.8916 15.2301 43.8186L19.2244 42.1844C19.4028 42.1115 19.4638 41.9499 19.3608 41.8237Z" fill="#D9DEE4"/>
<path d="M19.4712 10.3683C19.3997 10.3683 19.3281 10.349 19.2736 10.3104C19.1644 10.233 19.1644 10.1075 19.2736 10.0303L20.3823 9.24478L19.2736 8.45911C19.1644 8.38174 19.1644 8.25637 19.2736 8.179C19.3828 8.10163 19.5597 8.10163 19.6689 8.179L21.1729 9.24478L19.6689 10.3104C19.6142 10.3492 19.5428 10.3683 19.4712 10.3683Z" fill="white"/>
<path d="M20.7774 9.44272H16.3982C16.2439 9.44272 16.1188 9.35408 16.1188 9.24477C16.1188 9.13546 16.2439 9.04681 16.3982 9.04681H20.7774C20.9316 9.04681 21.0567 9.13546 21.0567 9.24477C21.0567 9.35408 20.9316 9.44272 20.7774 9.44272Z" fill="white"/>
<g opacity="0.4">
<path d="M12.1125 12.4124H5.40424C4.9933 12.4124 4.65875 12.1755 4.65875 11.8843V6.33835C4.65875 6.04714 4.99305 5.81024 5.40424 5.81024H12.1125C12.5234 5.81024 12.8577 6.04714 12.8577 6.33835V11.8843C12.8577 12.1755 12.5234 12.4124 12.1125 12.4124ZM5.40424 6.20632C5.30157 6.20632 5.21769 6.26559 5.21769 6.33835V11.8843C5.21769 11.9571 5.30133 12.0164 5.40424 12.0164H12.1125C12.2151 12.0164 12.2988 11.9571 12.2988 11.8843V6.33835C12.2988 6.26559 12.2151 6.20632 12.1125 6.20632H5.40424Z" fill="white"/>
</g>
<path d="M11.1807 8.12113H6.33581C6.18155 8.12113 6.05646 8.03249 6.05646 7.92318C6.05646 7.81386 6.18155 7.72522 6.33581 7.72522H11.1807C11.3349 7.72522 11.46 7.81386 11.46 7.92318C11.46 8.03249 11.3349 8.12113 11.1807 8.12113Z" fill="white"/>
<path d="M11.1807 9.17734H8.19921C8.04495 9.17734 7.91986 9.0887 7.91986 8.97939C7.91986 8.87008 8.04495 8.78143 8.19921 8.78143H11.1807C11.3349 8.78143 11.46 8.87008 11.46 8.97939C11.46 9.0887 11.3349 9.17734 11.1807 9.17734Z" fill="white"/>
<path d="M11.1807 10.2337H8.19921C8.04495 10.2337 7.91986 10.1451 7.91986 10.0358C7.91986 9.92647 8.04495 9.83783 8.19921 9.83783H11.1807C11.3349 9.83783 11.46 9.92647 11.46 10.0358C11.46 10.1451 11.3349 10.2337 11.1807 10.2337Z" fill="white"/>
<mask id="mask2_6009_1701" style="mask-type:luminance" maskUnits="userSpaceOnUse" x="24" y="6" width="7" height="7">
<path d="M27.2014 6.88268C27.2045 6.88268 27.2081 6.88268 27.2113 6.88268C27.9809 6.89241 28.7148 7.11326 29.259 7.49892C29.803 7.88458 30.1149 8.40466 30.1286 8.94985C30.1388 9.3613 29.9715 9.76507 29.6495 10.1075C29.4058 10.3664 29.0823 10.581 28.7056 10.7357V11.4023C28.7056 11.6749 28.5352 11.8838 28.2368 12.0133C27.9594 12.1339 27.5935 12.1766 27.2064 12.1766C26.8194 12.1766 26.4537 12.1339 26.1761 12.0133C25.8777 11.8838 25.707 11.6749 25.707 11.4023V10.7355C25.3305 10.5808 25.0068 10.3663 24.7634 10.1073C24.4412 9.76507 24.2741 9.36113 24.2842 8.94985C24.298 8.40466 24.6096 7.88441 25.1539 7.49875C25.6979 7.11309 26.432 6.89224 27.2014 6.88251V6.88268Z" fill="white"/>
</mask>
<g mask="url(#mask2_6009_1701)">
<path d="M30.1385 11.2539L29.7225 6.88269H30.1385V11.2539Z" fill="#13FCC4"/>
<path d="M30.1113 12.1766L29.6075 6.88269H29.7225L30.1385 11.2539V12.1766H30.1113Z" fill="#13FCC4"/>
<path d="M29.9963 12.1766L29.4926 6.88269H29.6075L30.1113 12.1766H29.9963Z" fill="#13FCC5"/>
<path d="M29.8813 12.1766L29.3776 6.88269H29.4925L29.9963 12.1766H29.8813Z" fill="#12FCC6"/>
<path d="M29.7664 12.1766L29.2626 6.88269H29.3776L29.8813 12.1766H29.7664Z" fill="#12FCC7"/>
<path d="M29.6514 12.1766L29.1476 6.88269H29.2626L29.7664 12.1766H29.6514Z" fill="#12FCC8"/>
<path d="M29.5364 12.1766L29.0327 6.88269H29.1476L29.6514 12.1766H29.5364Z" fill="#12FCC9"/>
<path d="M29.4215 12.1766L28.9177 6.88269H29.0327L29.5364 12.1766H29.4215Z" fill="#11FCCA"/>
<path d="M29.3065 12.1766L28.8027 6.88269H28.9177L29.4214 12.1766H29.3065Z" fill="#11FBCB"/>
<path d="M29.1915 12.1766L28.6877 6.88269H28.8027L29.3065 12.1766H29.1915Z" fill="#11FBCC"/>
<path d="M29.0766 12.1766L28.5728 6.88269H28.6878L29.1915 12.1766H29.0766Z" fill="#10FBCD"/>
<path d="M28.9616 12.1766L28.4578 6.88269H28.5728L29.0765 12.1766H28.9616Z" fill="#10FBCE"/>
<path d="M28.8466 12.1766L28.3428 6.88269H28.4578L28.9615 12.1766H28.8466Z" fill="#10FBCF"/>
<path d="M28.7316 12.1766L28.2279 6.88269H28.3429L28.8466 12.1766H28.7316Z" fill="#0FFBD0"/>
<path d="M28.6167 12.1766L28.1129 6.88269H28.2279L28.7316 12.1766H28.6167Z" fill="#0FFBD1"/>
<path d="M28.5017 12.1766L27.9979 6.88269H28.1129L28.6166 12.1766H28.5017Z" fill="#0FFBD2"/>
<path d="M28.3867 12.1766L27.883 6.88269H27.998L28.5017 12.1766H28.3867Z" fill="#0FFBD3"/>
<path d="M28.2717 12.1766L27.768 6.88269H27.883L28.3867 12.1766H28.2717Z" fill="#0EFBD4"/>
<path d="M28.1568 12.1766L27.653 6.88269H27.768L28.2717 12.1766H28.1568Z" fill="#0EFBD5"/>
<path d="M28.0418 12.1766L27.5381 6.88269H27.6531L28.1568 12.1766H28.0418Z" fill="#0EFBD6"/>
<path d="M27.9268 12.1766L27.4231 6.88269H27.5381L28.0418 12.1766H27.9268Z" fill="#0DFBD7"/>
<path d="M27.8118 12.1766L27.3081 6.88269H27.4231L27.9268 12.1766H27.8118Z" fill="#0DFAD8"/>
<path d="M27.6969 12.1766L27.1932 6.88269H27.3081L27.8119 12.1766H27.6969Z" fill="#0DFAD9"/>
<path d="M27.5819 12.1766L27.0782 6.88269H27.1932L27.6969 12.1766H27.5819Z" fill="#0DFADA"/>
<path d="M27.467 12.1766L26.9633 6.88269H27.0782L27.582 12.1766H27.467Z" fill="#0CFADB"/>
<path d="M27.352 12.1766L26.8483 6.88269H26.9632L27.467 12.1766H27.352Z" fill="#0CFADC"/>
<path d="M27.237 12.1766L26.7333 6.88269H26.8482L27.352 12.1766H27.237Z" fill="#0CFADD"/>
<path d="M27.1221 12.1766L26.6183 6.88269H26.7333L27.2371 12.1766H27.1221Z" fill="#0BFADF"/>
<path d="M27.0071 12.1766L26.5034 6.88269H26.6183L27.1221 12.1766H27.0071Z" fill="#0BFAE0"/>
<path d="M26.8921 12.1766L26.3884 6.88269H26.5033L27.0071 12.1766H26.8921Z" fill="#0BFAE1"/>
<path d="M26.7772 12.1766L26.2734 6.88269H26.3884L26.8922 12.1766H26.7772Z" fill="#0AFAE2"/>
<path d="M26.6622 12.1766L26.1584 6.88269H26.2734L26.7772 12.1766H26.6622Z" fill="#0AFAE3"/>
<path d="M26.5472 12.1766L26.0435 6.88269H26.1584L26.6622 12.1766H26.5472Z" fill="#0AFAE4"/>
<path d="M26.4323 12.1766L25.9285 6.88269H26.0435L26.5472 12.1766H26.4323Z" fill="#0AF9E5"/>
<path d="M26.3173 12.1766L25.8135 6.88269H25.9285L26.4323 12.1766H26.3173Z" fill="#09F9E6"/>
<path d="M26.2023 12.1766L25.6985 6.88269H25.8135L26.3173 12.1766H26.2023Z" fill="#09F9E7"/>
<path d="M26.0874 12.1766L25.5836 6.88269H25.6986L26.2023 12.1766H26.0874Z" fill="#09F9E8"/>
<path d="M25.9724 12.1766L25.4686 6.88269H25.5836L26.0873 12.1766H25.9724Z" fill="#08F9E9"/>
<path d="M25.8574 12.1766L25.3536 6.88269H25.4686L25.9723 12.1766H25.8574Z" fill="#08F9EA"/>
<path d="M25.7425 12.1766L25.2387 6.88269H25.3537L25.8574 12.1766H25.7425Z" fill="#08F9EB"/>
<path d="M25.6275 12.1766L25.1237 6.88269H25.2387L25.7424 12.1766H25.6275Z" fill="#08F9EC"/>
<path d="M25.5125 12.1766L25.0087 6.88269H25.1237L25.6274 12.1766H25.5125Z" fill="#07F9ED"/>
<path d="M25.3975 12.1766L24.8938 6.88269H25.0088L25.5125 12.1766H25.3975Z" fill="#07F9EE"/>
<path d="M25.2825 12.1766L24.7788 6.88269H24.8938L25.3975 12.1766H25.2825Z" fill="#07F9EF"/>
<path d="M25.1676 12.1766L24.6638 6.88269H24.7788L25.2825 12.1766H25.1676Z" fill="#06F9F0"/>
<path d="M25.0526 12.1766L24.5489 6.88269H24.6639L25.1676 12.1766H25.0526Z" fill="#06F9F1"/>
<path d="M24.9376 12.1766L24.4339 6.88269H24.5489L25.0526 12.1766H24.9376Z" fill="#06F8F2"/>
<path d="M24.8227 12.1766L24.319 6.88269H24.4339L24.9377 12.1766H24.8227Z" fill="#05F8F3"/>
<path d="M24.7077 12.1766L24.2741 7.62003V6.88269H24.3189L24.8227 12.1766H24.7077Z" fill="#05F8F4"/>
<path d="M24.5927 12.1766L24.2741 8.82811V7.62006L24.7077 12.1766H24.5927Z" fill="#05F8F5"/>
<path d="M24.4778 12.1766L24.2741 10.0363V8.82806L24.5927 12.1766H24.4778Z" fill="#05F8F6"/>
<path d="M24.3628 12.1766L24.2741 11.2444V10.0363L24.4778 12.1766H24.3628Z" fill="#04F8F7"/>
<path d="M24.2741 11.2444L24.3628 12.1766H24.2741V11.2444Z" fill="#04F8F8"/>
</g>
<path d="M27.6128 10.88C27.4586 10.88 27.3335 10.7914 27.3335 10.6821V9.43953H27.0792V10.6821C27.0792 10.7914 26.9541 10.88 26.7999 10.88C26.6456 10.88 26.5205 10.7914 26.5205 10.6821V9.43953H26.3935C26.2573 9.43953 26.1255 9.41117 26.0124 9.35754C25.8991 9.30391 25.8117 9.22842 25.7596 9.13943C25.7073 9.04959 25.694 8.95258 25.7208 8.85813C25.7468 8.76419 25.8119 8.67794 25.9083 8.60945C26.005 8.54113 26.1264 8.49518 26.2597 8.4764C26.3933 8.45744 26.5302 8.46717 26.6557 8.50407C26.7815 8.54096 26.8881 8.60296 26.9638 8.68323C27.0394 8.76351 27.0794 8.85693 27.0794 8.95326V9.04327H27.3337V8.95326C27.3292 8.89707 27.3436 8.83166 27.3774 8.76949C27.4111 8.70714 27.462 8.65181 27.5282 8.60484C27.5945 8.55787 27.6726 8.52183 27.7603 8.49792C27.8493 8.47401 27.9409 8.46427 28.0346 8.46717H28.0361C28.2041 8.46717 28.3757 8.51773 28.5051 8.60928C28.6348 8.70117 28.7061 8.82329 28.7061 8.95309C28.7061 9.0829 28.6348 9.20502 28.5051 9.29691C28.3754 9.38863 28.2031 9.43919 28.0199 9.43919H27.8927V10.6817C27.8927 10.7911 27.7678 10.8797 27.6133 10.8797L27.6128 10.88ZM27.8919 9.04345H28.0192C28.0532 9.04345 28.085 9.03405 28.1091 9.01697C28.1332 8.99989 28.1465 8.97735 28.1465 8.95326C28.1465 8.92918 28.1332 8.90647 28.1091 8.88956C28.0816 8.87009 28.0387 8.86308 28.0055 8.86291C27.9845 8.86291 27.972 8.86479 27.9599 8.86787C27.9469 8.87145 27.9339 8.87743 27.9233 8.88495C27.9127 8.89246 27.9042 8.90168 27.8989 8.91176C27.8936 8.9215 27.8912 8.93192 27.8922 8.94285V9.04327L27.8919 9.04345ZM26.3933 8.86325C26.3851 8.86325 26.3766 8.86394 26.3684 8.86513C26.3436 8.86855 26.3209 8.87709 26.3029 8.8899C26.2853 8.90237 26.2732 8.91808 26.2684 8.9355C26.2633 8.95361 26.2657 8.97154 26.2756 8.98828C26.285 9.00433 26.3012 9.01834 26.3221 9.02825C26.3431 9.03815 26.3675 9.04345 26.3928 9.04345H26.5198V8.95344C26.5198 8.9355 26.5123 8.91825 26.4983 8.90339C26.4841 8.88836 26.4646 8.87692 26.4415 8.87026C26.426 8.86565 26.4094 8.86325 26.3928 8.86325H26.3933Z" fill="white"/>
<path d="M28.426 11.4561H25.9866C25.8324 11.4561 25.7073 11.3674 25.7073 11.2581C25.7073 11.1488 25.8324 11.0602 25.9866 11.0602H28.426C28.5803 11.0602 28.7054 11.1488 28.7054 11.2581C28.7054 11.3674 28.5803 11.4561 28.426 11.4561Z" fill="url(#paint0_linear_6009_1701)"/>
<path d="M27.2065 6.55847C27.0522 6.55847 26.9271 6.46982 26.9271 6.36051V5.8102C26.9271 5.70089 27.0522 5.61224 27.2065 5.61224C27.3607 5.61224 27.4858 5.70089 27.4858 5.8102V6.36051C27.4858 6.46982 27.3607 6.55847 27.2065 6.55847Z" fill="url(#paint1_linear_6009_1701)"/>
<path d="M27.2065 12.6087C27.0522 12.6087 26.9271 12.52 26.9271 12.4107V11.9784C26.9271 11.8691 27.0522 11.7805 27.2065 11.7805C27.3607 11.7805 27.4858 11.8691 27.4858 11.9784V12.4107C27.4858 12.52 27.3607 12.6087 27.2065 12.6087Z" fill="url(#paint2_linear_6009_1701)"/>
<path d="M31.6784 8.86338H30.7469C30.5926 8.86338 30.4675 8.77473 30.4675 8.66542C30.4675 8.55611 30.5926 8.46747 30.7469 8.46747H31.6784C31.8327 8.46747 31.9578 8.55611 31.9578 8.66542C31.9578 8.77473 31.8327 8.86338 31.6784 8.86338Z" fill="url(#paint3_linear_6009_1701)"/>
<path d="M29.8495 7.27875C29.778 7.27875 29.7064 7.25945 29.6519 7.22085C29.5427 7.14348 29.5427 7.01811 29.6519 6.94074L30.4278 6.39043C30.5367 6.31306 30.7141 6.31289 30.823 6.39043C30.9322 6.4678 30.9322 6.59317 30.823 6.67054L30.0472 7.22085C29.9927 7.25962 29.9211 7.27892 29.8495 7.27892V7.27875Z" fill="url(#paint4_linear_6009_1701)"/>
<path d="M23.6658 8.86338H22.7345C22.5802 8.86338 22.4551 8.77473 22.4551 8.66542C22.4551 8.55611 22.5802 8.46747 22.7345 8.46747H23.6658C23.8201 8.46747 23.9452 8.55611 23.9452 8.66542C23.9452 8.77473 23.8201 8.86338 23.6658 8.86338Z" fill="url(#paint5_linear_6009_1701)"/>
<path d="M24.5634 7.27874C24.4918 7.27874 24.4202 7.25944 24.3657 7.22084L23.5896 6.67053C23.4805 6.59316 23.4805 6.46762 23.5896 6.39042C23.6988 6.31322 23.8757 6.31322 23.9849 6.39042L24.761 6.94073C24.8702 7.0181 24.8702 7.14364 24.761 7.22084C24.7063 7.25961 24.635 7.27874 24.5634 7.27874Z" fill="url(#paint6_linear_6009_1701)"/>
<path d="M33.0455 7.70146C33.1938 7.60034 33.4297 7.60359 33.5724 7.70863C33.7151 7.81367 33.7105 7.98088 33.5623 8.08199L30.6965 10.0354L30.5769 9.94728C30.6068 10.0368 30.5697 10.1352 30.467 10.2021L28.8365 11.2648C28.7449 11.3246 28.6336 11.3671 28.5128 11.3885L28.0204 11.4756C27.9912 11.4809 27.9659 11.4607 27.9765 11.4407L28.1696 11.0759C28.2098 10.9994 28.2749 10.9306 28.3593 10.8749L29.9628 9.81577C30.0609 9.75086 30.1954 9.73088 30.3162 9.75479L30.18 9.65453L33.0458 7.70111L33.0455 7.70146Z" fill="white"/>
<path d="M31.0057 10.8227C31.0057 11.0097 31.327 11.3839 31.4555 11.6177C31.4555 11.8983 30.6844 12.0855 30.6844 11.9919C30.6844 11.8983 29.9777 11.4307 29.528 11.3371C29.0782 11.2435 28.8213 10.8225 28.5644 10.4484C28.3074 10.0744 29.0141 9.27915 29.6567 9.13875C30.2993 8.99853 30.4919 9.41938 30.6847 9.7936C30.8775 10.1678 31.2631 9.93399 31.4557 10.1678C31.6485 10.4016 31.006 10.6355 31.006 10.8227H31.0057Z" fill="white"/>
<path d="M50.6505 33.9453C50.9199 31.0911 51.4589 25.0875 51.4589 24.9637H46.0488L47.5413 33.9453L50.3627 42.4604C50.422 42.6394 50.6476 42.766 50.9069 42.766H51.1583C51.4868 42.766 51.7445 42.5663 51.7151 42.3344L50.6507 33.9453H50.6505Z" fill="#202640"/>
<mask id="mask3_6009_1701" style="mask-type:luminance" maskUnits="userSpaceOnUse" x="40" y="23" width="12" height="20">
<path d="M44.3831 32.6969L51.3972 24.4788L44.8059 23.2009L41.4571 29.8417C40.9174 30.9117 40.6251 32.0366 40.5911 33.1726L40.3218 42.1853C40.3151 42.4073 40.5675 42.5899 40.8808 42.5899H41.0866C41.3571 42.5899 41.5884 42.4527 41.6366 42.2643L43.8092 33.7717C43.9066 33.3917 44.1009 33.0276 44.3831 32.6969Z" fill="white"/>
</mask>
<g mask="url(#mask3_6009_1701)">
<path d="M51.3972 23.2009H40.3154V23.291H51.3972V23.2009Z" fill="#202640"/>
<path d="M51.3972 23.2911H40.3154V23.565H51.3972V23.2911Z" fill="#202640"/>
<path d="M51.3972 23.565H40.3154V23.839H51.3972V23.565Z" fill="#212741"/>
<path d="M51.3972 23.839H40.3154V24.113H51.3972V23.839Z" fill="#212842"/>
<path d="M51.3972 24.1129H40.3154V24.3869H51.3972V24.1129Z" fill="#222843"/>
<path d="M51.3972 24.3867H40.3154V24.6607H51.3972V24.3867Z" fill="#232944"/>
<path d="M51.3972 24.6607H40.3154V24.9347H51.3972V24.6607Z" fill="#232A45"/>
<path d="M51.3972 24.9346H40.3154V25.2086H51.3972V24.9346Z" fill="#242B46"/>
<path d="M51.3972 25.2086H40.3154V25.4826H51.3972V25.2086Z" fill="#252B47"/>
<path d="M51.3972 25.4825H40.3154V25.7565H51.3972V25.4825Z" fill="#262C48"/>
<path d="M51.3972 25.7565H40.3154V26.0305H51.3972V25.7565Z" fill="#262D49"/>
<path d="M51.3972 26.0305H40.3154V26.3044H51.3972V26.0305Z" fill="#272E4A"/>
<path d="M51.3972 26.3044H40.3154V26.5784H51.3972V26.3044Z" fill="#282E4B"/>
<path d="M51.3972 26.5784H40.3154V26.8524H51.3972V26.5784Z" fill="#282F4C"/>
<path d="M51.3972 26.8524H40.3154V27.1263H51.3972V26.8524Z" fill="#29304D"/>
<path d="M51.3972 27.1263H40.3154V27.4003H51.3972V27.1263Z" fill="#2A314E"/>
<path d="M51.3972 27.4001H40.3154V27.674H51.3972V27.4001Z" fill="#2A314F"/>
<path d="M51.3972 27.6741H40.3154V27.948H51.3972V27.6741Z" fill="#2B3250"/>
<path d="M51.3972 27.9481H40.3154V28.222H51.3972V27.9481Z" fill="#2C3351"/>
<path d="M51.3972 28.222H40.3154V28.4959H51.3972V28.222Z" fill="#2C3452"/>
<path d="M51.3972 28.496H40.3154V28.7699H51.3972V28.496Z" fill="#2D3453"/>
<path d="M51.3972 28.7699H40.3154V29.0439H51.3972V28.7699Z" fill="#2E3554"/>
<path d="M51.3972 29.0439H40.3154V29.3178H51.3972V29.0439Z" fill="#2F3655"/>
<path d="M51.3972 29.3178H40.3154V29.5918H51.3972V29.3178Z" fill="#2F3756"/>
<path d="M51.3972 29.5918H40.3154V29.8658H51.3972V29.5918Z" fill="#303757"/>
<path d="M51.3972 29.8657H40.3154V30.1397H51.3972V29.8657Z" fill="#313858"/>
<path d="M51.3972 30.1397H40.3154V30.4137H51.3972V30.1397Z" fill="#313959"/>
<path d="M51.3972 30.4135H40.3154V30.6875H51.3972V30.4135Z" fill="#323A5A"/>
<path d="M51.3972 30.6874H40.3154V30.9614H51.3972V30.6874Z" fill="#333A5B"/>
<path d="M51.3972 30.9614H40.3154V31.2354H51.3972V30.9614Z" fill="#333B5C"/>
<path d="M51.3972 31.2354H40.3154V31.5094H51.3972V31.2354Z" fill="#343C5D"/>
<path d="M51.3972 31.5093H40.3154V31.7833H51.3972V31.5093Z" fill="#353D5E"/>
<path d="M51.3972 31.7833H40.3154V32.0573H51.3972V31.7833Z" fill="#353D5F"/>
<path d="M51.3972 32.0573H40.3154V32.3312H51.3972V32.0573Z" fill="#363E60"/>
<path d="M51.3972 32.3312H40.3154V32.6052H51.3972V32.3312Z" fill="#373F61"/>
<path d="M51.3972 32.6052H40.3154V32.8791H51.3972V32.6052Z" fill="#384063"/>
<path d="M51.3972 32.8792H40.3154V33.1531H51.3972V32.8792Z" fill="#384064"/>
<path d="M51.3972 33.1531H40.3154V33.427H51.3972V33.1531Z" fill="#394165"/>
<path d="M51.3972 33.4269H40.3154V33.7008H51.3972V33.4269Z" fill="#3A4266"/>
<path d="M51.3972 33.7009H40.3154V33.9748H51.3972V33.7009Z" fill="#3A4367"/>
<path d="M51.3972 33.9748H40.3154V34.2488H51.3972V33.9748Z" fill="#3B4368"/>
<path d="M51.3972 34.2488H40.3154V34.5227H51.3972V34.2488Z" fill="#3C4469"/>
<path d="M51.3972 34.5227H40.3154V34.7967H51.3972V34.5227Z" fill="#3C456A"/>
<path d="M51.3972 34.7967H40.3154V35.0707H51.3972V34.7967Z" fill="#3D466B"/>
<path d="M51.3972 35.0707H40.3154V35.3446H51.3972V35.0707Z" fill="#3E466C"/>
<path d="M51.3972 35.3446H40.3154V35.6186H51.3972V35.3446Z" fill="#3E476D"/>
<path d="M51.3972 35.6186H40.3154V35.8926H51.3972V35.6186Z" fill="#3F486E"/>
<path d="M51.3972 35.8925H40.3154V36.1665H51.3972V35.8925Z" fill="#40496F"/>
<path d="M51.3972 36.1665H40.3154V36.4405H51.3972V36.1665Z" fill="#404970"/>
<path d="M51.3972 36.4403H40.3154V36.7143H51.3972V36.4403Z" fill="#414A71"/>
<path d="M51.3972 36.7142H40.3154V36.9882H51.3972V36.7142Z" fill="#424B72"/>
<path d="M51.3972 36.9882H40.3154V37.2622H51.3972V36.9882Z" fill="#434C73"/>
<path d="M51.3972 37.2621H40.3154V37.5361H51.3972V37.2621Z" fill="#434C74"/>
<path d="M51.3972 37.5361H40.3154V37.8101H51.3972V37.5361Z" fill="#444D75"/>
<path d="M51.3972 37.8101H40.3154V38.084H51.3972V37.8101Z" fill="#454E76"/>
<path d="M51.3972 38.084H40.3154V38.358H51.3972V38.084Z" fill="#454F77"/>
<path d="M51.3972 38.358H40.3154V38.632H51.3972V38.358Z" fill="#464F78"/>
<path d="M51.3972 38.632H40.3154V38.9059H51.3972V38.632Z" fill="#475079"/>
<path d="M51.3972 38.9059H40.3154V39.1799H51.3972V38.9059Z" fill="#47517A"/>
<path d="M51.3972 39.1799H40.3154V39.4538H51.3972V39.1799Z" fill="#48527B"/>
<path d="M51.3972 39.4539H40.3154V39.7278H51.3972V39.4539Z" fill="#49527C"/>
<path d="M51.3972 39.7277H40.3154V40.0016H51.3972V39.7277Z" fill="#49537D"/>
<path d="M51.3972 40.0016H40.3154V40.2755H51.3972V40.0016Z" fill="#4A547E"/>
<path d="M51.3972 40.2756H40.3154V40.5495H51.3972V40.2756Z" fill="#4B557F"/>
<path d="M51.3972 40.5495H40.3154V40.8235H51.3972V40.5495Z" fill="#4C5580"/>
<path d="M51.3972 40.8235H40.3154V41.0974H51.3972V40.8235Z" fill="#4C5681"/>
<path d="M51.3972 41.0974H40.3154V41.3714H51.3972V41.0974Z" fill="#4D5782"/>
<path d="M51.3972 41.3714H40.3154V41.6454H51.3972V41.3714Z" fill="#4E5883"/>
<path d="M51.3972 41.6454H40.3154V41.9193H51.3972V41.6454Z" fill="#4E5884"/>
<path d="M51.3972 41.9193H40.3154V42.1933H51.3972V41.9193Z" fill="#4F5985"/>
<path d="M51.3972 42.1933H40.3154V42.5901H51.3972V42.1933Z" fill="#4F5985"/>
</g>
<path d="M38.0497 5.30194C38.0497 5.30194 38.7214 4.59108 38.4633 3.76561C38.2649 3.13348 37.7694 2.7731 37.3339 2.60606C36.8983 2.43902 36.5997 2.52168 36.9971 3.19326C37.3351 3.76407 37.4445 3.9803 37.4445 3.9803C37.4445 3.9803 36.5734 3.64622 36.6397 3.99465C36.7062 4.34291 38.0497 5.30211 38.0497 5.30211V5.30194Z" fill="#F1F3F6"/>
<mask id="mask4_6009_1701" style="mask-type:luminance" maskUnits="userSpaceOnUse" x="37" y="4" width="14" height="11">
<path d="M48.1858 12.2416C49.1417 12.6942 51.5428 13.4432 49.0246 14.4845C46.5063 15.5259 46.9156 14.5262 43.341 13.298C40.2664 12.2416 38.526 12.2148 38.2512 10.5251C38.0276 9.15117 37.5289 6.21379 37.3503 5.16389C37.3144 4.95227 37.5269 4.76012 37.8256 4.73433C38.0753 4.71281 38.3122 4.81324 38.3968 4.98114C38.8347 5.84999 40.1286 8.5363 40.4368 10.5251C40.4368 10.5251 45.7637 11.7792 48.186 12.2414L48.1858 12.2416Z" fill="white"/>
</mask>
<g mask="url(#mask4_6009_1701)">
<path d="M39.3495 4.71265L41.9639 5.17568L38.7205 14.3727L37.3141 14.1236V4.71265H39.3495Z" fill="#FFE9A4"/>
<path d="M41.9624 5.17505L38.7193 14.3721L38.9038 14.4047L42.1469 5.20772L41.9624 5.17505Z" fill="#FFE9A4"/>
<path d="M42.1468 5.20771L38.9037 14.4047L39.0882 14.4374L42.3313 5.24038L42.1468 5.20771Z" fill="#FFE9A3"/>
<path d="M42.3315 5.24036L39.0883 14.4374L39.2728 14.47L42.516 5.27303L42.3315 5.24036Z" fill="#FFE9A2"/>
<path d="M42.5161 5.27307L39.2729 14.4701L39.4574 14.5028L42.7006 5.30574L42.5161 5.27307Z" fill="#FFE8A1"/>
<path d="M42.7007 5.30573L39.4576 14.5027L39.6421 14.5354L42.8852 5.3384L42.7007 5.30573Z" fill="#FFE8A0"/>
<path d="M42.8852 5.33857L39.6421 14.5356L39.8266 14.5683L43.0697 5.37124L42.8852 5.33857Z" fill="#FFE89F"/>
<path d="M43.0699 5.37122L39.8267 14.5682L40.0112 14.6009L43.2544 5.40389L43.0699 5.37122Z" fill="#FFE89E"/>
<path d="M43.2545 5.40387L40.0114 14.6009L40.1958 14.6336L43.439 5.43654L43.2545 5.40387Z" fill="#FFE79D"/>
<path d="M43.4391 5.43653L40.196 14.6335L40.3805 14.6662L43.6236 5.4692L43.4391 5.43653Z" fill="#FFE79C"/>
<path d="M43.6235 5.46918L40.3804 14.6662L40.5649 14.6989L43.808 5.50185L43.6235 5.46918Z" fill="#FFE79B"/>
<path d="M43.8084 5.5019L40.5652 14.6989L40.7497 14.7316L43.9929 5.53457L43.8084 5.5019Z" fill="#FFE79A"/>
<path d="M43.9928 5.53455L40.7496 14.7316L40.9341 14.7642L44.1773 5.56722L43.9928 5.53455Z" fill="#FFE699"/>
<path d="M44.1776 5.5672L40.9345 14.7642L41.119 14.7969L44.3621 5.59987L44.1776 5.5672Z" fill="#FFE698"/>
<path d="M44.362 5.59986L41.1188 14.7969L41.3033 14.8295L44.5465 5.63253L44.362 5.59986Z" fill="#FFE697"/>
<path d="M44.5466 5.63251L41.3035 14.8295L41.488 14.8622L44.7311 5.66518L44.5466 5.63251Z" fill="#FFE696"/>
<path d="M44.7312 5.66553L41.488 14.8625L41.6725 14.8952L44.9157 5.6982L44.7312 5.66553Z" fill="#FFE695"/>
<path d="M44.9158 5.69819L41.6727 14.8952L41.8572 14.9279L45.1003 5.73086L44.9158 5.69819Z" fill="#FFE594"/>
<path d="M45.1004 5.7309L41.8573 14.9279L42.0418 14.9606L45.2849 5.76357L45.1004 5.7309Z" fill="#FFE593"/>
<path d="M45.2848 5.76355L42.0417 14.9606L42.2262 14.9932L45.4693 5.79622L45.2848 5.76355Z" fill="#FFE592"/>
<path d="M45.4697 5.79621L42.2266 14.9932L42.4111 15.0259L45.6542 5.82888L45.4697 5.79621Z" fill="#FFE591"/>
<path d="M45.6541 5.82886L42.4109 15.0259L42.5954 15.0585L45.8386 5.86153L45.6541 5.82886Z" fill="#FFE490"/>
<path d="M45.8387 5.86152L42.5956 15.0585L42.7801 15.0912L46.0232 5.89419L45.8387 5.86152Z" fill="#FFE48F"/>
<path d="M46.0233 5.89423L42.7802 15.0912L42.9646 15.1239L46.2078 5.9269L46.0233 5.89423Z" fill="#FFE48D"/>
<path d="M46.2079 5.92688L42.9648 15.1239L43.1493 15.1566L46.3924 5.95955L46.2079 5.92688Z" fill="#FFE48C"/>
<path d="M46.3926 5.95954L43.1494 15.1566L43.3339 15.1892L46.577 5.99221L46.3926 5.95954Z" fill="#FFE38B"/>
<path d="M46.5772 5.99219L43.334 15.1892L43.5185 15.2219L46.7617 6.02486L46.5772 5.99219Z" fill="#FFE38A"/>
<path d="M46.7618 6.02503L43.5186 15.222L43.7031 15.2547L46.9462 6.0577L46.7618 6.02503Z" fill="#FFE389"/>
<path d="M46.9464 6.05768L43.7032 15.2547L43.8877 15.2874L47.1309 6.09035L46.9464 6.05768Z" fill="#FFE388"/>
<path d="M47.1308 6.09034L43.8876 15.2874L44.0721 15.32L47.3153 6.12301L47.1308 6.09034Z" fill="#FFE287"/>
<path d="M47.3156 6.12305L44.0724 15.3201L44.2569 15.3527L47.5001 6.15572L47.3156 6.12305Z" fill="#FFE286"/>
<path d="M47.5 6.15571L44.2568 15.3527L44.4413 15.3854L47.6845 6.18838L47.5 6.15571Z" fill="#FFE285"/>
<path d="M47.6848 6.18836L44.4417 15.3854L44.6262 15.418L47.8693 6.22103L47.6848 6.18836Z" fill="#FFE284"/>
<path d="M47.8692 6.2212L44.6261 15.4182L44.8106 15.4509L48.0537 6.25387L47.8692 6.2212Z" fill="#FFE283"/>
<path d="M48.0541 6.25391L44.811 15.4509L44.9955 15.4836L48.2386 6.28658L48.0541 6.25391Z" fill="#FFE182"/>
<path d="M48.2385 6.28656L44.9954 15.4836L45.1799 15.5163L48.423 6.31923L48.2385 6.28656Z" fill="#FFE181"/>
<path d="M48.4251 6.32001L48.6097 6.35263L45.3745 15.5259H45.2318L45.1814 15.517L48.4251 6.32001Z" fill="#FFE180"/>
<path d="M48.6097 6.35266L48.7944 6.38545L45.5706 15.5259H45.3745L48.6097 6.35266Z" fill="#FFE17F"/>
<path d="M48.7943 6.38544L48.979 6.41806L45.7668 15.5259H45.5706L48.7943 6.38544Z" fill="#FFE07E"/>
<path d="M48.979 6.41809L49.1636 6.45088L45.9628 15.5259H45.7668L48.979 6.41809Z" fill="#FFE07D"/>
<path d="M49.1636 6.45087L49.3482 6.48349L46.159 15.5259H45.9628L49.1636 6.45087Z" fill="#FFE07C"/>
<path d="M49.3482 6.48346L49.5329 6.51608L46.3552 15.5259H46.159L49.3482 6.48346Z" fill="#FFE07B"/>
<path d="M49.5328 6.51611L49.7175 6.54891L46.5514 15.5259H46.3552L49.5328 6.51611Z" fill="#FFDF7A"/>
<path d="M49.7175 6.54889L49.9019 6.58151L46.7473 15.5259H46.5514L49.7175 6.54889Z" fill="#FFDF79"/>
<path d="M49.9019 6.58154L50.0865 6.61434L46.9435 15.5259H46.7473L49.9019 6.58154Z" fill="#FFDF78"/>
<path d="M50.0865 6.61432L51.5425 6.87222V15.5259H46.9435L50.0865 6.61432Z" fill="#FFDF78"/>
</g>
<mask id="mask5_6009_1701" style="mask-type:luminance" maskUnits="userSpaceOnUse" x="30" y="11" width="22" height="15">
<path d="M45.3303 12.5979C45.5381 12.3772 45.7851 12.1791 46.0818 12.0032L48.7321 11.7512C50.8722 12.4122 51.8881 14.063 51.8884 16.4414C51.8884 18.9386 51.5247 25.0892 51.5247 25.0892L43.8338 24.8882C43.8338 24.8882 44.4311 21.7458 44.3549 20.3482C44.3392 20.0602 44.3129 19.7207 44.2843 19.3495C44.2052 18.3249 44.1071 17.0595 44.1616 15.9732C43.176 16.2605 42.0196 16.5555 40.7325 16.8612C40.6272 16.8863 40.5257 16.9112 40.4271 16.9355C39.3273 17.2057 38.584 17.3884 36.6332 16.6634C34.7739 15.9722 31.3337 12.6647 30.5015 11.8472C30.3872 11.735 30.3728 11.5871 30.4624 11.4641C30.6164 11.2525 31.0064 11.1961 31.2638 11.3492C32.5832 12.1328 36.1817 14.2627 38.0506 15.2956C38.0506 15.2956 43.393 13.2304 45.3308 12.5981L45.3303 12.5979Z" fill="white"/>
</mask>
<g mask="url(#mask5_6009_1701)">
<path d="M31.7057 11.1962L36.7057 25.0892H30.3726V11.1962H31.7057Z" fill="#FFE9A4"/>
<path d="M31.9679 11.1962L36.968 25.0892H36.7058L31.7057 11.1962H31.9679Z" fill="#FFE9A4"/>
<path d="M32.2301 11.1962L37.2302 25.0892H36.968L31.9679 11.1962H32.2301Z" fill="#FFE9A3"/>
<path d="M32.4924 11.1962L37.4925 25.0892H37.2302L32.2302 11.1962H32.4924Z" fill="#FFE9A2"/>
<path d="M32.7546 11.1962L37.7549 25.0892H37.4924L32.4924 11.1962H32.7546Z" fill="#FFE8A1"/>
<path d="M33.0169 11.1962L38.0172 25.0892H37.755L32.7546 11.1962H33.0169Z" fill="#FFE8A0"/>
<path d="M33.2791 11.1962L38.2794 25.0892H38.0172L33.0168 11.1962H33.2791Z" fill="#FFE89F"/>
<path d="M33.5413 11.1962L38.5416 25.0892H38.2794L33.2791 11.1962H33.5413Z" fill="#FFE89E"/>
<path d="M33.8036 11.1962L38.8039 25.0892H38.5416L33.5413 11.1962H33.8036Z" fill="#FFE79D"/>
<path d="M34.0658 11.1962L39.0661 25.0892H38.8038L33.8035 11.1962H34.0658Z" fill="#FFE79C"/>
<path d="M34.328 11.1962L39.3283 25.0892H39.0661L34.0658 11.1962H34.328Z" fill="#FFE79B"/>
<path d="M34.5902 11.1962L39.5905 25.0892H39.3283L34.328 11.1962H34.5902Z" fill="#FFE79A"/>
<path d="M34.8527 11.1962L39.8528 25.0892H39.5906L34.5903 11.1962H34.8527Z" fill="#FFE699"/>
<path d="M35.115 11.1962L40.115 25.0892H39.8528L34.8527 11.1962H35.115Z" fill="#FFE698"/>
<path d="M35.3772 11.1962L40.3773 25.0892H40.1151L35.115 11.1962H35.3772Z" fill="#FFE697"/>
<path d="M35.6394 11.1962L40.6395 25.0892H40.3773L35.3772 11.1962H35.6394Z" fill="#FFE696"/>
<path d="M35.9017 11.1962L40.902 25.0892H40.6395L35.6395 11.1962H35.9017Z" fill="#FFE695"/>
<path d="M36.1639 11.1962L41.1642 25.0892H40.902L35.9017 11.1962H36.1639Z" fill="#FFE594"/>
<path d="M36.4262 11.1962L41.4265 25.0892H41.1643L36.1639 11.1962H36.4262Z" fill="#FFE593"/>
<path d="M36.6884 11.1962L41.6887 25.0892H41.4265L36.4261 11.1962H36.6884Z" fill="#FFE592"/>
<path d="M36.9507 11.1962L41.951 25.0892H41.6887L36.6884 11.1962H36.9507Z" fill="#FFE591"/>
<path d="M37.2129 11.1962L42.2132 25.0892H41.9509L36.9506 11.1962H37.2129Z" fill="#FFE490"/>
<path d="M37.4751 11.1962L42.4754 25.0892H42.2131L37.2128 11.1962H37.4751Z" fill="#FFE48F"/>
<path d="M37.7373 11.1962L42.7376 25.0892H42.4754L37.4751 11.1962H37.7373Z" fill="#FFE48D"/>
<path d="M37.9998 11.1962L42.9999 25.0892H42.7376L37.7373 11.1962H37.9998Z" fill="#FFE48C"/>
<path d="M38.2621 11.1962L43.2621 25.0892H42.9999L37.9998 11.1962H38.2621Z" fill="#FFE38B"/>
<path d="M38.5243 11.1962L43.5243 25.0892H43.2621L38.262 11.1962H38.5243Z" fill="#FFE38A"/>
<path d="M38.7865 11.1962L43.7866 25.0892H43.5244L38.5243 11.1962H38.7865Z" fill="#FFE389"/>
<path d="M39.0487 11.1962L44.0488 25.0892H43.7866L38.7865 11.1962H39.0487Z" fill="#FFE388"/>
<path d="M39.311 11.1962L44.3113 25.0892H44.0488L39.0488 11.1962H39.311Z" fill="#FFE287"/>
<path d="M39.5732 11.1962L44.5735 25.0892H44.3113L39.311 11.1962H39.5732Z" fill="#FFE286"/>
<path d="M39.8355 11.1962L44.8358 25.0892H44.5736L39.5732 11.1962H39.8355Z" fill="#FFE285"/>
<path d="M40.0977 11.1962L45.098 25.0892H44.8358L39.8354 11.1962H40.0977Z" fill="#FFE284"/>
<path d="M40.36 11.1962L45.3603 25.0892H45.098L40.0977 11.1962H40.36Z" fill="#FFE283"/>
<path d="M40.6222 11.1962L45.6225 25.0892H45.3602L40.3599 11.1962H40.6222Z" fill="#FFE182"/>
<path d="M40.8844 11.1962L45.8847 25.0892H45.6224L40.6221 11.1962H40.8844Z" fill="#FFE181"/>
<path d="M41.1466 11.1962L46.1469 25.0892H45.8847L40.8844 11.1962H41.1466Z" fill="#FFE180"/>
<path d="M41.4091 11.1962L46.4092 25.0892H46.1469L41.1466 11.1962H41.4091Z" fill="#FFE17F"/>
<path d="M41.6714 11.1962L46.6714 25.0892H46.4092L41.4091 11.1962H41.6714Z" fill="#FFE07E"/>
<path d="M41.9336 11.1962L46.9336 25.0892H46.6714L41.6713 11.1962H41.9336Z" fill="#FFE07D"/>
<path d="M42.1958 11.1962L47.1959 25.0892H46.9337L41.9336 11.1962H42.1958Z" fill="#FFE07C"/>
<path d="M42.458 11.1962L47.4583 25.0892H47.1959L42.1958 11.1962H42.458Z" fill="#FFE07B"/>
<path d="M42.7203 11.1962L47.7206 25.0892H47.4584L42.4581 11.1962H42.7203Z" fill="#FFDF7A"/>
<path d="M42.9825 11.1962L47.9828 25.0892H47.7206L42.7203 11.1962H42.9825Z" fill="#FFDF79"/>
<path d="M43.2448 11.1962L48.2451 25.0892H47.9829L42.9825 11.1962H43.2448Z" fill="#FFDF78"/>
<path d="M48.2451 25.0892L43.2448 11.1962H51.8884V25.0892H48.2451Z" fill="#FFDF78"/>
</g>
</g>
<defs>
<linearGradient id="paint0_linear_6009_1701" x1="27.5745" y1="10.903" x2="27.0422" y2="11.9252" gradientUnits="userSpaceOnUse">
<stop stop-color="#13FCC4"/>
<stop offset="1" stop-color="#04F8F8"/>
</linearGradient>
<linearGradient id="paint1_linear_6009_1701" x1="27.2024" y1="6.08535" x2="27.0445" y2="6.08909" gradientUnits="userSpaceOnUse">
<stop stop-color="#13FCC4"/>
<stop offset="1" stop-color="#04F8F8"/>
</linearGradient>
<linearGradient id="paint2_linear_6009_1701" x1="27.2024" y1="12.1945" x2="27.0446" y2="12.1996" gradientUnits="userSpaceOnUse">
<stop stop-color="#13FCC4"/>
<stop offset="1" stop-color="#04F8F8"/>
</linearGradient>
<linearGradient id="paint3_linear_6009_1701" x1="31.5285" y1="8.54894" x2="30.909" y2="9.00319" gradientUnits="userSpaceOnUse">
<stop stop-color="#13FCC4"/>
<stop offset="1" stop-color="#04F8F8"/>
</linearGradient>
<linearGradient id="paint4_linear_6009_1701" x1="30.6023" y1="6.78327" x2="29.8201" y2="6.87848" gradientUnits="userSpaceOnUse">
<stop stop-color="#13FCC4"/>
<stop offset="1" stop-color="#04F8F8"/>
</linearGradient>
<linearGradient id="paint5_linear_6009_1701" x1="23.5159" y1="8.54911" x2="22.8961" y2="9.0034" gradientUnits="userSpaceOnUse">
<stop stop-color="#13FCC4"/>
<stop offset="1" stop-color="#04F8F8"/>
</linearGradient>
<linearGradient id="paint6_linear_6009_1701" x1="24.5402" y1="6.78326" x2="23.7578" y2="6.87847" gradientUnits="userSpaceOnUse">
<stop stop-color="#13FCC4"/>
<stop offset="1" stop-color="#04F8F8"/>
</linearGradient>
<clipPath id="clip0_6009_1701">
<rect width="52" height="44" fill="white"/>
</clipPath>
</defs>
</svg>
