<svg width="28" height="20" viewBox="0 0 28 20" fill="none" xmlns="http://www.w3.org/2000/svg">
<g clip-path="url(#clip0_6167_6736)">
<rect y="0.687744" width="28" height="18.6244" rx="4" fill="white"/>
<path d="M0 0.687744H28V19.3122H0V0.687744Z" fill="#E70013"/>
<path fill-rule="evenodd" clip-rule="evenodd" d="M18.6666 9.99996C18.6666 12.5715 16.5773 14.6561 14 14.6561C11.4227 14.6561 9.33331 12.5715 9.33331 9.99996C9.33331 7.42846 11.4227 5.34385 14 5.34385C16.5773 5.34385 18.6666 7.42846 18.6666 9.99996ZM14.9333 12.7937C15.665 12.7937 16.3312 12.5136 16.83 12.0551C16.1935 12.9261 15.163 13.492 14 13.492C12.067 13.492 10.5 11.9286 10.5 9.99996C10.5 8.07134 12.067 6.50788 14 6.50788C15.1631 6.50788 16.1937 7.07392 16.8301 7.94497C16.3313 7.4864 15.6651 7.20632 14.9333 7.20632C13.3869 7.20632 12.1333 8.45709 12.1333 9.99999C12.1333 11.5429 13.3869 12.7937 14.9333 12.7937ZM15.1896 9.20598L14.269 7.94457L14.2724 9.50619L12.7882 9.99195L14.2744 10.4713L14.2778 12.0329L15.193 10.7676L16.6792 11.247L15.7586 9.98557L16.6738 8.72022L15.1896 9.20598Z" fill="white"/>
</g>
<defs>
<clipPath id="clip0_6167_6736">
<rect y="0.687744" width="28" height="18.6244" rx="4" fill="white"/>
</clipPath>
</defs>
</svg>
