<svg width="24" height="24" viewBox="0 0 24 24" fill="none" xmlns="http://www.w3.org/2000/svg">
<path fill-rule="evenodd" clip-rule="evenodd" d="M24 11.9993C24 5.37154 18.6276 -0.000976563 11.9997 -0.000976563C5.37247 -0.000976563 0 5.37154 1.66113e-10 11.9993C2.5785e-10 18.6265 5.37247 23.999 11.9997 23.999C18.6276 23.999 24 18.6265 24 11.9993ZM21.6377 11.9806C21.6377 6.66813 17.3225 2.36115 11.9997 2.36115C6.67695 2.36115 2.36236 6.66813 2.36236 11.9806C2.36236 17.293 6.67695 21.599 11.9997 21.599C17.3225 21.599 21.6377 17.293 21.6377 11.9806ZM10.2067 9.59865L12.2182 9.59865C12.76 9.59865 13.2001 10.0386 13.2001 10.5809L13.2001 11.0169C13.2001 11.0835 13.1934 11.1486 13.1808 11.2115L13.2001 11.2115L13.2001 15.2244L15.0308 15.2244C15.5726 15.2244 16.0126 15.6638 16.0126 16.2057L16.0126 16.6421C16.0126 17.1845 15.5726 17.6239 15.0308 17.6239L13.2001 17.6239L10.8 17.6239L8.96927 17.6239C8.4269 17.6239 7.98746 17.1845 7.98746 16.6421L7.98746 16.2057C7.98746 15.6638 8.4269 15.2244 8.96927 15.2244L10.8 15.2244L10.8 11.9992L10.2067 11.9992C9.66434 11.9992 9.2249 11.5593 9.2249 11.0169L9.2249 10.5809C9.2249 10.0386 9.66434 9.59865 10.2067 9.59865ZM13.2001 6.59908C13.2001 5.83254 12.5786 5.21184 11.8124 5.21184C11.0461 5.21184 10.4247 5.83254 10.4247 6.59908C10.4247 7.36558 11.0461 7.98678 11.8124 7.98678C12.5786 7.98678 13.2001 7.36558 13.2001 6.59908Z" fill="#FA6B25"/>
</svg>
