<svg width="7" height="16" viewBox="0 0 7 16" fill="none" xmlns="http://www.w3.org/2000/svg">
<path d="M5.5 0C5.10218 0 4.72065 0.158035 4.43934 0.43934C4.15804 0.720644 4 1.10218 4 1.5C4 1.89782 4.15804 2.27936 4.43934 2.56066C4.72065 2.84196 5.10218 3 5.5 3C5.89783 3 6.27936 2.84196 6.56066 2.56066C6.84197 2.27936 7 1.89782 7 1.5C7 1.10218 6.84197 0.720644 6.56066 0.43934C6.27936 0.158035 5.89783 0 5.5 0ZM5.14 4.77C3.95 4.87 0.700004 7.46 0.700004 7.46C0.500004 7.61 0.560005 7.6 0.720005 7.88C0.880005 8.15 0.860005 8.17 1.05 8.04C1.25 7.91 1.58 7.7 2.13 7.36C4.25 6 2.47 9.14 1.56 14.43C1.2 17.05 3.56 15.7 4.17 15.3C4.77 14.91 6.38 13.8 6.54 13.69C6.76 13.54 6.6 13.42 6.43 13.17C6.31 13 6.19 13.12 6.19 13.12C5.54 13.55 4.35 14.45 4.19 13.88C4 13.31 5.22 9.4 5.89 6.71C6 6.07 6.3 4.67 5.14 4.77Z" fill="white"/>
</svg>
