<svg width="20" height="20" viewBox="0 0 20 20" fill="none" xmlns="http://www.w3.org/2000/svg">
<path opacity="0.4" d="M7.49998 8.33333C8.42045 8.33333 9.16665 7.58714 9.16665 6.66667C9.16665 5.74619 8.42045 5 7.49998 5C6.57951 5 5.83331 5.74619 5.83331 6.66667C5.83331 7.58714 6.57951 8.33333 7.49998 8.33333Z" stroke="#2E2E34" stroke-width="1.25" stroke-linecap="round" stroke-linejoin="round"/>
<path d="M10.8334 1.66699H7.50002C3.33335 1.66699 1.66669 3.33366 1.66669 7.50033V12.5003C1.66669 16.667 3.33335 18.3337 7.50002 18.3337H12.5C16.6667 18.3337 18.3334 16.667 18.3334 12.5003V8.33366" stroke="#2E2E34" stroke-width="1.25" stroke-linecap="round" stroke-linejoin="round"/>
<g opacity="0.4">
<path d="M13.125 4.16699H17.7083" stroke="#2E2E34" stroke-width="1.25" stroke-linecap="round"/>
<path d="M15.4167 6.45833V1.875" stroke="#2E2E34" stroke-width="1.25" stroke-linecap="round"/>
</g>
<path opacity="0.4" d="M2.22504 15.7918L6.33337 13.0335C6.9917 12.5918 7.9417 12.6418 8.53337 13.1501L8.80837 13.3918C9.45837 13.9501 10.5084 13.9501 11.1584 13.3918L14.625 10.4168C15.275 9.85846 16.325 9.85846 16.975 10.4168L18.3334 11.5835" stroke="#2E2E34" stroke-width="1.25" stroke-linecap="round" stroke-linejoin="round"/>
</svg>
