<svg width="16" height="17" viewBox="0 0 16 17" fill="none" xmlns="http://www.w3.org/2000/svg">
<path d="M15.4341 15.3693C14.2987 13.3123 12.5489 11.8373 10.5069 11.1381C11.5169 10.508 12.3017 9.54781 12.7406 8.40509C13.1796 7.26237 13.2484 6.00025 12.9366 4.81256C12.6248 3.62487 11.9495 2.57728 11.0146 1.83066C10.0796 1.08404 8.93656 0.679688 7.76105 0.679688C6.58554 0.679688 5.44253 1.08404 4.50755 1.83066C3.57257 2.57728 2.89732 3.62487 2.5855 4.81256C2.27368 6.00025 2.34252 7.26237 2.78146 8.40509C3.2204 9.54781 4.00517 10.508 5.01525 11.1381C2.97322 11.8365 1.22345 13.3115 0.0880003 15.3693C0.0463613 15.4405 0.0187425 15.5196 0.00677333 15.6021C-0.00519583 15.6847 -0.00127283 15.7688 0.0183108 15.8497C0.0378945 15.9306 0.0727422 16.0066 0.120798 16.0732C0.168853 16.1397 0.229143 16.1955 0.298111 16.2373C0.367078 16.279 0.443326 16.3059 0.522355 16.3162C0.601385 16.3266 0.681594 16.3203 0.758253 16.2976C0.834911 16.275 0.906465 16.2365 0.968692 16.1844C1.03092 16.1323 1.08256 16.0677 1.12057 15.9943C2.52516 13.4506 5.00779 11.9318 7.76105 11.9318C10.5143 11.9318 12.997 13.4506 14.4015 15.9943C14.4395 16.0677 14.4912 16.1323 14.5534 16.1844C14.6156 16.2365 14.6872 16.275 14.7639 16.2976C14.8405 16.3203 14.9207 16.3266 14.9998 16.3162C15.0788 16.3059 15.155 16.279 15.224 16.2373C15.293 16.1955 15.3533 16.1397 15.4013 16.0732C15.4494 16.0066 15.4842 15.9306 15.5038 15.8497C15.5234 15.7688 15.5273 15.6847 15.5153 15.6021C15.5034 15.5196 15.4757 15.4405 15.4341 15.3693ZM3.58605 6.30681C3.58605 5.44152 3.83091 4.59566 4.28967 3.87619C4.74842 3.15673 5.40047 2.59597 6.16335 2.26484C6.92623 1.93371 7.76569 1.84707 8.57556 2.01588C9.38543 2.18469 10.1293 2.60137 10.7132 3.21322C11.2971 3.82508 11.6947 4.60463 11.8558 5.45329C12.0169 6.30196 11.9342 7.18163 11.6182 7.98105C11.3023 8.78048 10.7671 9.46376 10.0806 9.94449C9.39398 10.4252 8.58679 10.6818 7.76105 10.6818C6.65414 10.6806 5.5929 10.2192 4.81019 9.39904C4.02748 8.57883 3.58724 7.46676 3.58605 6.30681Z" fill="#FA6B25"/>
</svg>
