<svg xmlns="http://www.w3.org/2000/svg" width="24" height="24" viewBox="0 0 24 24">
    <path d="M17.05 20.28c-.98.95-2.05.8-3.08.35-1.12-.48-2.15-.5-3.3.05a4.44 4.44 0 0 1-3.55-.45C4.35 18.42 3.1 15.45 3 12.5c-.1-3.15 1.75-6.05 4.45-7.35.95-.45 2-.7 3.05-.45 1 .25 1.85.85 2.7.45.55-.25 1.1-.55 1.75-.45 1.3.1 2.4.75 3.3 1.8-2.95 1.9-2.35 5.85.5 7.45-.3.45-.65.85-1.05 1.2.2.3.4.6.6.85-.45.4-.85.75-1.25 1.1m-5.05-9.65c-.55.65-.85 1.55-.8 2.4 1 .05 1.95-.45 2.65-1.25.7-.75 1.05-1.65.9-2.6-1-.05-1.95.5-2.75 1.45z" fill="#000000"/>
</svg>