<svg width="24" height="20" viewBox="0 0 24 20" fill="none" xmlns="http://www.w3.org/2000/svg">
<g clip-path="url(#clip0_6128_1030)">
<mask id="mask0_6128_1030" style="mask-type:luminance" maskUnits="userSpaceOnUse" x="0" y="0" width="24" height="20">
<path d="M0.00130081 0H23.999V20H0.00130081V0Z" fill="white"/>
</mask>
<g mask="url(#mask0_6128_1030)">
<path fill-rule="evenodd" clip-rule="evenodd" d="M-1.5 0H25.5V20H-1.5V0Z" fill="#165D31"/>
<path fill-rule="evenodd" clip-rule="evenodd" d="M5.30273 5.66825C5.2746 6.137 5.23242 6.95731 5.59453 7.04325C6.02695 7.09012 5.78789 6.23075 5.94609 6.0745C5.97421 5.99637 6.02695 5.99637 6.03046 6.09403V6.8245C6.03046 7.05887 6.17109 7.12918 6.27656 7.17606C6.38906 7.16825 6.4664 7.17606 6.50859 7.29325L6.56484 8.55496C6.56484 8.55496 6.825 8.6409 6.83906 7.84793C6.8496 7.37918 6.75468 6.99246 6.81093 6.90262C6.81093 6.81278 6.9164 6.80887 6.98671 6.85184C7.09921 6.93778 7.14843 7.04715 7.32421 7.00809C7.5914 6.92215 7.75312 6.77762 7.75664 6.55106C7.75136 6.32841 7.70966 6.10868 7.63359 5.90262C7.64765 5.86356 7.58437 5.75809 7.59843 5.71903C7.64414 5.80496 7.71796 5.79715 7.73203 5.71903C7.68632 5.55496 7.61601 5.39481 7.50351 5.3284C7.40859 5.23465 7.26796 5.25028 7.22226 5.44559C7.19414 5.66825 7.29257 5.92996 7.43671 6.14871C7.46835 6.23075 7.51054 6.37137 7.49296 6.49637C7.41562 6.54715 7.33828 6.52372 7.27148 6.4495C7.27148 6.4495 7.06054 6.27371 7.06054 6.23075C7.11679 5.83231 7.07109 5.78543 7.03945 5.67215C7.01836 5.51981 6.95156 5.46903 6.89882 5.36746C6.84609 5.30496 6.77578 5.30496 6.74062 5.36746C6.6457 5.54715 6.6914 5.93387 6.7582 6.10965C6.80742 6.26981 6.88125 6.37137 6.84609 6.37137C6.81796 6.46122 6.7582 6.43778 6.7125 6.33231C6.66105 6.11035 6.63622 5.88181 6.63867 5.65262C6.62109 5.47293 6.6 5.09012 6.49101 4.98856C6.42773 4.89481 6.33281 4.94168 6.29765 5.02762C6.28837 5.20213 6.2919 5.37719 6.3082 5.55106C6.37851 5.84012 6.40312 6.09793 6.43828 6.3909C6.44882 6.78543 6.23437 6.56278 6.24492 6.36356C6.29104 6.11311 6.28744 5.85449 6.23437 5.60575C6.19921 5.50418 6.16054 5.48075 6.07265 5.49637C6.00586 5.49637 5.83359 5.7034 5.78437 6.05496C5.78437 6.05496 5.74218 6.23465 5.7246 6.39481C5.7 6.5745 5.59453 6.70731 5.51718 6.37137C5.4539 6.12528 5.41171 5.52762 5.30625 5.66825H5.30273Z" fill="white"/>
<path fill-rule="evenodd" clip-rule="evenodd" d="M6.48047 7.58594L5.35547 8.1875C5.36602 7.90234 5.88633 7.39062 6.24492 7.38672C6.47344 7.39062 6.41719 7.48437 6.47695 7.58594H6.48047Z" fill="white"/>
<path fill-rule="evenodd" clip-rule="evenodd" d="M6.28007 7.97628C5.68945 9.6755 7.66875 9.91378 7.89023 8.04659C7.91132 7.96847 7.9957 7.89425 8.00976 8.01925C7.96406 9.71065 6.47695 9.82394 6.22382 9.29269C6.16428 9.10989 6.13451 8.91677 6.13593 8.72237C6.10078 8.39034 5.94257 8.51925 5.91796 8.84737C5.89335 9.03097 5.90039 9.08175 5.90039 9.25753C5.97773 10.5935 7.89375 10.0192 8.20664 8.91769C8.37187 8.30831 8.17851 7.85909 8.2664 7.85909C8.45625 8.08565 8.72343 7.89034 8.7832 7.81222C8.80781 7.77315 8.87109 7.74581 8.91328 7.79659C9.06093 7.91378 9.32109 7.85909 9.37734 7.65206C9.40898 7.44503 9.43359 7.23409 9.44062 7.01925C9.31757 7.05831 9.22968 7.08565 9.21914 7.14425L9.19453 7.32394C9.18398 7.38253 9.08203 7.38253 9.075 7.30831C9.02929 7.07394 8.83945 7.04659 8.72343 7.40597C8.6496 7.47628 8.50898 7.4919 8.49492 7.38644C8.5125 7.14425 8.4246 7.113 8.24882 7.22628L8.08007 5.81222C8.15039 5.81222 8.2207 5.87081 8.28749 5.77706C8.21718 5.52315 8.05898 5.00753 7.97109 4.96847C7.93242 4.91378 7.89726 4.94894 7.84101 4.96456C7.7496 4.99581 7.66523 5.08175 7.69335 5.25362C7.79882 5.988 7.86914 6.54659 7.97812 7.28487C7.9957 7.3669 7.93242 7.48019 7.84804 7.46847C7.70742 7.363 7.67226 7.14815 7.42617 7.15597C7.25039 7.15597 7.05351 7.37081 7.0289 7.57394C6.99726 7.738 6.98671 7.91378 7.0289 8.0544C7.15195 8.21847 7.2996 8.20284 7.42968 8.16769C7.53515 8.1169 7.62304 7.99972 7.66171 8.02706C7.68632 8.06222 7.66523 8.45284 7.15898 8.74972C6.85312 8.90597 6.60703 8.93722 6.47695 8.65987C6.39609 8.48409 6.48398 7.82394 6.28007 7.97628Z" fill="white"/>
<path fill-rule="evenodd" clip-rule="evenodd" d="M8.80079 6.25003C8.9168 6.20316 9.4793 5.48441 9.4793 5.48441L9.39493 5.40628C9.36329 5.37894 9.3668 5.34769 9.39493 5.32034C9.53555 5.22659 9.48985 5.03128 9.41954 4.93753C9.3718 4.91168 9.31929 4.89857 9.26619 4.89925C9.21309 4.89992 9.16086 4.91437 9.11368 4.94144C9.01524 5.04691 8.99414 5.21488 9.07149 5.31644C9.14532 5.3555 9.21914 5.44144 9.16993 5.48831C8.93789 5.76175 8.3086 6.23441 8.38243 6.25003C8.39649 6.27347 8.78672 6.27347 8.79727 6.25003H8.80079ZM5.39063 8.78909C5.17969 9.16409 5.16211 9.72269 5.27813 9.89066C5.34141 9.96878 5.44336 10.0039 5.51719 9.97659C5.65079 9.91409 5.71055 9.61331 5.67891 9.50784C5.63321 9.42972 5.59805 9.418 5.55235 9.4805C5.46094 9.69144 5.42227 9.54691 5.41172 9.42972C5.40165 9.23126 5.41108 9.03216 5.43985 8.83597C5.46446 8.67191 5.43985 8.71878 5.39063 8.78909ZM14.4293 8.19144C14.2254 7.69925 13.9406 7.21488 13.8527 7.03128C13.5788 6.55006 13.2879 6.08095 12.9809 5.62503C12.7629 5.33597 13.3395 5.74613 12.9106 5.168L12.5977 4.87503C12.5273 4.82035 12.3586 4.71878 12.3305 4.88285C12.3164 5.03128 12.3234 5.10941 12.3445 5.2305C12.3621 5.30863 12.4676 5.44534 12.5203 5.52347C13.2411 6.5842 13.8741 7.71509 14.4117 8.90238C14.5031 8.85159 14.482 8.27347 14.4293 8.19144Z" fill="white"/>
<path fill-rule="evenodd" clip-rule="evenodd" d="M13.5328 9.8241C13.4906 9.87488 13.6312 10.0897 13.8141 10.0897C14.1164 10.0507 14.3836 9.86316 14.6297 9.36316C14.7297 9.19683 14.7935 9.00693 14.816 8.80848C14.8458 7.8602 14.7774 6.91127 14.6121 5.98035C14.6016 5.90223 14.6121 5.80848 14.6191 5.78504C14.6402 5.75769 14.707 5.78504 14.7422 5.71863C14.7949 5.66004 14.6016 5.17176 14.4961 4.98816C14.4609 4.90223 14.4434 4.84754 14.3801 4.99598C14.3037 5.15976 14.2673 5.34294 14.2746 5.52723C14.4187 6.64051 14.4645 7.61316 14.5559 8.72644C14.5664 8.83582 14.5523 8.99207 14.4855 9.05457C14.2203 9.38275 13.8956 9.64498 13.5328 9.8241ZM17.6285 9.82019C17.4105 9.96082 17.4105 10.121 17.5863 10.1249C17.8887 10.0858 18.2473 10.0585 18.4934 9.64441C18.5803 9.44939 18.6305 9.23673 18.641 9.01941C18.6853 8.08574 18.6298 7.14952 18.4758 6.23035C18.4687 6.15223 18.4371 5.96863 18.4477 5.94519C18.4687 5.89051 18.5672 5.9491 18.6023 5.8866C18.6516 5.82801 18.3457 5.39051 18.2367 5.20301C18.2016 5.11707 18.1875 5.06238 18.1207 5.21082C18.0499 5.37612 18.0277 5.562 18.0574 5.74207C18.2191 6.95301 18.3387 7.85926 18.3633 8.92957C18.3492 9.03113 18.3457 9.08582 18.3035 9.21473C18.2086 9.34754 18.1031 9.51941 18.0047 9.60144C17.9062 9.67957 17.6953 9.75769 17.6285 9.82019Z" fill="white"/>
<path fill-rule="evenodd" clip-rule="evenodd" d="M17.7902 8.73829C17.7902 8.45313 17.7937 8.21094 17.7867 7.9961C17.7844 7.81415 17.7485 7.63465 17.6812 7.46876C17.618 7.3086 17.6566 7.17969 17.625 7.00782C17.5969 6.83594 17.6039 6.57813 17.5617 6.37891C17.5477 6.30079 17.5125 6.04688 17.523 6.01954C17.5406 5.96485 17.6074 6.01954 17.6426 5.95704C17.6918 5.89844 17.4668 5.25391 17.3543 5.07032C17.3156 4.98829 17.2383 5.01563 17.1504 5.14844C17.0625 5.23829 17.0941 5.43751 17.1293 5.62891C17.3437 6.89063 17.509 8.03516 17.4738 9.23438C17.4598 9.33594 17.7902 8.92969 17.7902 8.73829ZM16.1836 7.17579C16.0465 7.16797 15.7617 6.87501 15.6773 6.70704C15.6635 6.66599 15.6576 6.62217 15.6601 6.57842C15.6625 6.53468 15.6732 6.49199 15.6914 6.45313C15.7441 6.41407 15.8215 6.37501 15.8812 6.41407C15.8812 6.41407 15.941 6.50782 15.9305 6.51954C16.0008 6.5586 16.0359 6.53907 16.043 6.50391C16.0465 6.44532 16.0219 6.41016 16.0219 6.34766C16.0535 6.16797 16.2328 6.14063 16.3031 6.25391C16.3523 6.32422 16.3734 6.46876 16.377 6.56641C16.377 6.61719 16.3066 6.5586 16.2609 6.56641C16.2223 6.58204 16.2117 6.63672 16.2082 6.6836C16.2012 6.81251 16.1871 7.01954 16.1836 7.17188V7.17579ZM13.6594 9.05079C13.6945 8.66797 13.6453 7.98438 13.6418 7.75782C13.623 7.17515 13.5796 6.59378 13.5117 6.01563C13.4695 5.68751 13.6312 6.05079 13.6102 5.85938C13.5574 5.53516 13.3957 5.31251 13.2023 5.01954C13.1426 4.92188 13.1426 4.90235 13.0477 5.04297C12.9422 5.30469 13.0336 5.48829 13.0617 5.69532C13.1988 6.36719 13.2797 6.98438 13.3184 7.59766C13.3589 8.23474 13.3636 8.874 13.3324 9.51172C13.4379 9.51563 13.5996 9.32813 13.6594 9.05079Z" fill="white"/>
<path fill-rule="evenodd" clip-rule="evenodd" d="M18.2578 8.43749C18.0152 7.98436 17.6531 7.49999 17.5547 7.31639C17.2287 6.81056 16.8863 6.31805 16.5281 5.83983C16.2293 5.48827 16.6688 5.78124 16.4719 5.5078C16.3066 5.30858 16.2609 5.24217 16.1168 5.12108C16.0465 5.0703 16.0043 4.97264 15.9762 5.14061C15.965 5.2861 15.9626 5.43227 15.9691 5.57811C15.9691 5.64452 16.0324 5.77342 16.0887 5.85155C16.8164 6.84764 17.6145 7.86327 18.2543 9.14061C18.3457 9.08983 18.3141 8.51561 18.2543 8.43749H18.2578Z" fill="white"/>
<path fill-rule="evenodd" clip-rule="evenodd" d="M7.31015 7.60561C7.29257 7.64077 7.2539 7.68374 7.26796 7.72671C7.29257 7.76577 7.31718 7.77749 7.35937 7.77749C7.39804 7.77749 7.45429 7.78921 7.46484 7.76577C7.48593 7.73843 7.5 7.68764 7.48593 7.63686C7.44375 7.51968 7.33125 7.56655 7.31015 7.60561Z" fill="#165D31"/>
<path fill-rule="evenodd" clip-rule="evenodd" d="M15.4523 14.1601C15.7758 14.1757 15.9867 14.1796 16.2715 14.2147L16.609 14.1757C16.9816 14.1366 16.9957 14.7655 16.9957 14.7655C16.9957 15.1366 16.8656 15.1561 16.7004 15.1952C16.6055 15.2108 16.5598 15.1327 16.507 15.0546C16.4275 15.0829 16.3428 15.0883 16.2609 15.0702C16.1238 15.0624 15.9902 15.0624 15.8566 15.0507C15.716 15.039 15.6387 15.0702 15.4945 15.0546C15.4664 15.1054 15.4242 15.1757 15.3398 15.1561C15.2695 15.1444 15.1816 14.9218 15.2062 14.746C15.259 14.621 15.2414 14.664 15.2414 14.6093C13.9195 14.5702 12.5871 14.5038 11.2934 14.5233C10.2809 14.5272 9.28242 14.5741 8.28047 14.621C7.74609 14.6132 7.33828 14.5194 7.05703 14.0624C7.08515 14.0624 8.42109 14.1444 8.81133 14.1171C9.53203 14.1093 10.193 14.0429 10.9277 14.0194C12.3762 14.0468 13.8141 14.0468 15.2625 14.1601C15.1219 14.0546 15.1219 13.8085 15.3328 13.746C15.3504 13.7304 15.3609 13.8671 15.3926 13.8632C15.5648 13.8515 15.4875 14.1093 15.4523 14.1601ZM9.63047 5.28505C9.4125 5.98036 9.75703 6.74599 9.99609 6.67177C10.1719 6.74989 10.2773 6.38271 10.3477 5.98427C10.4004 5.87099 10.4355 5.85927 10.4602 5.91786C10.4531 6.44911 10.4953 6.57021 10.6184 6.73036C10.8926 6.96474 11.1211 6.76161 11.1387 6.74208L11.3496 6.5038C11.3988 6.44521 11.4621 6.44521 11.5289 6.49208C11.5957 6.55849 11.5852 6.67177 11.7258 6.74989C11.8453 6.80458 12.0949 6.76552 12.1547 6.65224C12.232 6.49989 12.2531 6.44911 12.2883 6.39443C12.3445 6.31239 12.4395 6.34755 12.4395 6.37489C12.4289 6.42177 12.3727 6.46474 12.4113 6.55068C12.4816 6.60536 12.4957 6.57021 12.5344 6.55849C12.675 6.48036 12.7805 6.14443 12.7805 6.14443C12.784 6.01943 12.7207 6.02724 12.6785 6.05849L12.5695 6.14052C12.4992 6.15224 12.3691 6.20302 12.3023 6.08974C12.2355 5.95693 12.2355 5.76552 12.1863 5.6288C12.1863 5.62099 12.0949 5.41396 12.1793 5.40224C12.2215 5.41005 12.3094 5.43739 12.3234 5.35536C12.3656 5.27333 12.232 5.04286 12.1371 4.92568C12.0562 4.82802 11.9437 4.8163 11.8348 4.91786C11.7574 4.99599 11.768 5.08193 11.7539 5.16396C11.7406 5.22274 11.74 5.28421 11.7522 5.34329C11.7644 5.40237 11.7891 5.45739 11.8242 5.5038C11.9016 5.66786 12.0387 5.88271 11.993 6.18739C11.993 6.18739 11.9121 6.32802 11.7715 6.30849C11.7117 6.29677 11.6168 6.26943 11.5676 5.84755C11.5289 5.53505 11.5746 5.08974 11.4551 4.88271C11.4094 4.7538 11.3777 4.63271 11.2723 4.84755C11.2441 4.93349 11.1211 5.06239 11.209 5.32411C11.2922 5.55996 11.3164 5.81638 11.2793 6.0663C11.2266 6.15224 11.216 6.17958 11.1492 6.26161C11.0578 6.3788 10.9559 6.34755 10.8785 6.30458C10.8082 6.2538 10.752 6.22646 10.7168 6.05068C10.7238 5.77724 10.7379 5.32802 10.6922 5.23427C10.6254 5.08583 10.5164 5.14052 10.4707 5.18739C10.2616 5.44554 10.1215 5.76349 10.0664 6.10536C10.0031 6.33193 9.93633 6.26552 9.89062 6.17568C9.77812 6.05849 9.76758 5.13271 9.63047 5.28505Z" fill="white"/>
<path fill-rule="evenodd" clip-rule="evenodd" d="M10.2914 6.80071C10.3934 6.72259 10.3477 6.6679 10.4953 6.83196C10.6859 7.20665 10.7966 7.62494 10.8187 8.05462C10.8117 8.15618 10.875 8.21868 10.9066 8.19524C10.9207 7.96087 11.4375 7.63274 11.9121 7.58587C11.9824 7.56634 11.9473 7.41399 11.9578 7.33587C11.9297 7.0429 12.1055 6.77727 12.3516 6.75774C12.6891 6.81243 12.8016 7.01165 12.8086 7.31243C12.7699 7.89837 12.2215 7.99602 11.9156 8.0429C11.8699 8.06243 11.8488 8.08587 11.9156 8.11321L13.2023 8.12102L13.2691 8.16009C13.2762 8.19915 13.248 8.1679 13.1988 8.26165C13.128 8.39981 13.0838 8.55276 13.0687 8.71087C12.6855 8.85149 12.2883 8.90618 11.8875 8.96477C11.7469 9.0429 11.6766 9.14837 11.7047 9.26555C11.7539 9.39446 12.0633 9.52727 12.0633 9.53118C12.123 9.57024 12.1898 9.6679 12.0457 9.86712C11.4199 9.83587 10.9312 9.53899 10.7625 9.12102C10.7133 9.07805 10.657 9.12102 10.6219 9.17571C10.3758 9.52727 10.1367 9.83977 9.71836 10.0116C9.47227 10.082 9.21562 9.96868 9.09609 9.78899C9.01523 9.68352 9.01875 9.57024 8.99062 9.5468C8.85352 9.61321 7.69336 10.1601 7.84102 9.90227C8.12227 9.57024 8.61445 9.32024 9.04336 8.99212C9.075 8.87884 9.13125 8.50384 9.3 8.38274C9.31055 8.38274 9.27539 8.60149 9.27891 8.69524C9.27891 8.77337 9.27187 8.80071 9.28594 8.78118C9.31758 8.76165 9.83789 8.30462 9.88359 8.16399C9.93281 8.08587 9.89414 7.88274 9.89414 7.87493C9.7957 7.59368 9.65859 7.57024 9.60937 7.42962C9.56367 7.24602 9.58477 7.03509 9.67969 6.97259C9.76406 6.89055 9.8625 6.89837 9.95742 6.99212C10.0629 7.09759 10.1543 7.30462 10.1824 7.45696C10.1648 7.51555 10.0418 7.4179 10.0066 7.44524C10.0743 7.53164 10.1193 7.63704 10.1367 7.74993C10.207 8.07024 10.1859 8.19524 10.1156 8.40227C9.88359 8.94524 9.58828 9.1054 9.32812 9.30852C9.32109 9.30852 9.31758 9.44524 9.4125 9.51946C9.44766 9.55852 9.58477 9.57805 9.74297 9.51946C10.081 9.31091 10.3543 8.99363 10.527 8.6093C10.5568 8.31687 10.528 8.02071 10.4426 7.74212C10.3406 7.4804 10.2211 7.1093 10.2211 7.10149C10.2176 6.93743 10.2281 6.88274 10.2914 6.80071ZM6.92344 5.2929C7.07109 5.37102 7.35234 5.33587 7.33828 5.07024L7.33125 4.94915C7.30312 4.87102 7.21875 4.89055 7.20117 4.96868C7.19414 4.99602 7.21172 5.03899 7.19062 5.05071C7.17656 5.06634 7.13086 5.05852 7.13086 4.9843C7.13086 4.96087 7.1168 4.93743 7.10625 4.9218C7.09922 4.91399 7.09219 4.91399 7.07461 4.91399C7.05352 4.91399 7.05352 4.9179 7.04297 4.93743C7.03945 4.95696 7.03242 4.97649 7.03242 4.99993C7.03242 5.02727 7.01836 5.03509 7.0043 5.03899C6.9832 5.03899 6.98672 5.03899 6.96914 5.03118C6.96211 5.01946 6.95156 5.01555 6.95156 4.99212L6.94102 4.92962C6.93398 4.9179 6.91992 4.91009 6.90586 4.90618C6.825 4.90618 6.81797 5.01165 6.825 5.05071C6.81797 5.05852 6.81445 5.24212 6.92344 5.2929Z" fill="white"/>
<path fill-rule="evenodd" clip-rule="evenodd" d="M11.2652 7.332C11.4129 7.41012 11.768 7.36715 11.6801 7.11325L11.673 6.98825C11.6414 6.91012 11.5605 6.92965 11.543 7.01169C11.5359 7.03512 11.5535 7.07809 11.5289 7.08981C11.5184 7.10544 11.4691 7.09762 11.4727 7.02731C11.4727 7.00387 11.4586 6.97653 11.448 6.9609C11.4375 6.957 11.434 6.95309 11.4129 6.95309C11.3953 6.95309 11.3953 6.9609 11.3848 6.98044C11.3777 6.99997 11.3742 7.0195 11.3742 7.04294C11.3707 7.06637 11.3602 7.07419 11.3426 7.082C11.325 7.082 11.3285 7.082 11.3145 7.07028C11.3039 7.05856 11.2934 7.05465 11.2934 7.03512L11.2828 6.97262C11.2758 6.9609 11.2617 6.95309 11.2477 6.94919C11.1668 6.94919 11.1598 7.05075 11.1633 7.08981C11.1598 7.09762 11.1562 7.28512 11.2687 7.332H11.2652ZM13.7965 6.48825C13.9441 6.56637 14.2219 6.53122 14.2113 6.2695L14.2043 6.1445C14.1727 6.06637 14.0918 6.0859 14.0742 6.16403C14.0672 6.19137 14.0848 6.23434 14.0602 6.24997C14.0496 6.26169 14.0004 6.25387 14.0039 6.17965C14.0039 6.15622 13.9898 6.13278 13.9793 6.11715C13.9687 6.10934 13.9652 6.10934 13.9441 6.10934C13.9266 6.10934 13.9266 6.11715 13.916 6.13669L13.9055 6.19528C13.902 6.22262 13.8914 6.23434 13.8738 6.23434C13.8562 6.23434 13.8598 6.23434 13.8457 6.22653C13.8352 6.21481 13.8246 6.2109 13.8246 6.19137C13.8246 6.17184 13.8211 6.14059 13.8141 6.12497C13.807 6.11325 13.793 6.10934 13.7789 6.10544C13.698 6.10544 13.691 6.207 13.6945 6.24606C13.691 6.25387 13.6875 6.43747 13.8 6.48825H13.7965ZM15.1078 8.60934C14.8512 8.93356 14.9637 9.46872 15.0234 9.5859C15.1078 9.7734 15.1746 9.8945 15.3398 9.98825C15.491 10.1093 15.6105 10.0351 15.6738 9.94919C15.825 9.7734 15.8285 9.32419 15.8988 9.23825C15.948 9.07419 16.0746 9.10153 16.1344 9.17575C16.1903 9.26394 16.2652 9.33512 16.3523 9.38278C16.493 9.5195 16.6617 9.54684 16.8305 9.42184C16.943 9.34762 17.0168 9.25778 17.0836 9.07419C17.1539 8.85544 17.1187 7.83981 17.1012 7.23825L16.9535 6.3984C16.9535 6.39059 16.9359 5.99997 16.9184 5.91012C16.9184 5.87106 16.9078 5.85934 16.943 5.86325C16.9816 5.90231 16.9852 5.90231 17.0133 5.91403C17.0484 5.92184 17.0836 5.84762 17.059 5.78512L16.7074 5.05856C16.6793 5.02731 16.6406 4.99606 16.5949 5.06637C16.568 5.0935 16.5465 5.12668 16.5319 5.16372C16.5174 5.20076 16.5101 5.24081 16.5105 5.28122C16.5211 5.45309 16.5457 5.62887 16.5562 5.80075L16.6969 6.68356C16.7426 7.30856 16.7531 7.82419 16.7988 8.45309C16.7918 8.71872 16.718 8.94919 16.6477 8.98434C16.6477 8.98434 16.5422 9.05075 16.4719 8.97653C16.4191 8.95309 16.2117 8.58981 16.2117 8.58981C16.1062 8.48434 16.0359 8.51169 15.9621 8.58981C15.7512 8.81637 15.6598 9.23044 15.5156 9.5195C15.4805 9.5859 15.375 9.63669 15.2625 9.51559C14.9742 9.07419 15.143 8.44919 15.1078 8.60934ZM13.8633 4.94919C13.9969 5.00778 14.0883 5.30856 14.0602 5.457C14.032 5.63278 13.9617 5.82809 13.9125 5.80465C13.8562 5.78122 13.9477 5.62497 13.8949 5.4609C13.8668 5.35153 13.684 5.15622 13.7051 5.10153C13.6699 4.98044 13.7824 4.92575 13.8633 4.94528V4.94919Z" fill="white"/>
<path fill-rule="evenodd" clip-rule="evenodd" d="M15.5367 8.78905C15.5613 8.42967 15.5156 8.21092 15.5086 7.99998C15.5016 7.78905 15.2941 6.17967 15.252 6.02342C15.1992 5.71873 15.4523 5.98436 15.4242 5.80467C15.3363 5.58592 15.1219 5.2617 15.0551 5.0703C15.0129 4.99217 15.0305 4.91405 14.9391 5.05077C14.8604 5.29047 14.8327 5.54718 14.8582 5.80077C15.0762 7.06248 15.2977 8.10936 15.2625 9.30858C15.368 9.30858 15.484 9.04686 15.5367 8.78905ZM17.8008 5.45702C17.9238 5.52342 17.9941 5.89842 17.9801 6.00389C17.9555 6.1992 17.8922 6.41014 17.8465 6.3828C17.7937 6.35936 17.857 6.09373 17.8324 6.0117C17.8043 5.89451 17.6391 5.68358 17.6566 5.62108C17.6215 5.48826 17.727 5.43358 17.8008 5.45702ZM8.81133 8.10936C8.92734 8.16014 8.99766 8.43358 8.98711 8.5117C8.95898 8.65623 8.89922 8.81248 8.85351 8.78905C8.80781 8.77342 8.86406 8.57811 8.84297 8.51561C8.83242 8.37108 8.6707 8.29295 8.67422 8.23045C8.64609 8.11327 8.74453 8.09373 8.81484 8.10936H8.81133Z" fill="white"/>
<path fill-rule="evenodd" clip-rule="evenodd" d="M11.6098 8.52344C11.7574 8.53125 11.8312 8.66406 11.6941 8.71875C11.5535 8.76953 11.4234 8.8125 11.4199 9.03125C11.4727 9.34375 11.3496 9.23438 11.2793 9.19531C11.1949 9.125 10.9559 8.96094 10.9207 8.60938C10.9172 8.52734 10.977 8.45312 11.0719 8.45312C11.2125 8.49609 11.4234 8.5 11.6098 8.52344Z" fill="#165D31"/>
<path fill-rule="evenodd" clip-rule="evenodd" d="M5.72109 4.8594C5.88984 4.91409 5.90039 5.19534 5.88984 5.27737C5.86523 5.42581 5.80547 5.58597 5.76328 5.56643C5.71406 5.5469 5.76328 5.34378 5.73867 5.28128C5.71406 5.19534 5.56992 5.03128 5.58398 4.9844C5.55234 4.88675 5.6543 4.83987 5.72109 4.8594ZM9.09258 6.1719C8.95898 6.25003 8.90977 6.4844 8.99063 6.62503C9.06797 6.74222 9.1875 6.69925 9.20156 6.69925C9.33164 6.71487 9.40898 6.42972 9.40898 6.42972C9.40898 6.42972 9.4125 6.35159 9.26133 6.50393C9.19453 6.51565 9.19102 6.48831 9.17344 6.44925C9.15734 6.37488 9.16351 6.29671 9.19102 6.22659C9.21563 6.15628 9.16641 6.12503 9.09258 6.1719ZM10.077 4.75003C10.0066 4.80081 9.87656 4.95315 9.87305 5.12503C9.86953 5.22268 9.85195 5.22268 9.9082 5.28128C9.95391 5.35159 9.99258 5.34768 10.077 5.2969C10.098 5.2822 10.116 5.2628 10.1299 5.23994C10.1439 5.21707 10.1534 5.19124 10.1578 5.16409C10.1789 5.05472 10.0523 5.21878 10.0383 5.09378C10.0102 4.97659 10.091 4.92972 10.1684 4.82034C10.1684 4.74222 10.1684 4.69143 10.0734 4.75003H10.077ZM10.8645 4.90628C10.8335 5.04852 10.8146 5.1937 10.8082 5.33987C10.7871 5.44925 10.9137 5.49612 10.9664 5.3555C11.0508 5.10159 11.0508 4.99222 11.0578 4.88675C11.0332 4.71878 10.9313 4.72268 10.8645 4.90628ZM15.8566 7.7305C15.8707 7.71097 16.5598 7.168 16.5598 7.168C16.6301 7.14065 16.6125 7.44925 16.5809 7.44534C16.3672 7.67418 16.1214 7.86284 15.8531 8.00393C15.818 8.03128 15.7863 7.7969 15.8531 7.7305H15.8566ZM16.4789 7.72268C16.602 7.78909 16.6512 8.18362 16.6371 8.28909C16.6371 8.50003 16.5211 8.66409 16.4719 8.64065C16.4227 8.61331 16.4789 8.37893 16.4543 8.2969C16.4262 8.17972 16.3242 7.96487 16.3418 7.90237C16.3066 7.76956 16.4051 7.69925 16.4824 7.72268H16.4789ZM12.4008 9.418C12.4578 9.34404 12.5241 9.27957 12.5977 9.22659C12.668 9.18753 12.7313 9.25784 12.7277 9.25393C12.7383 9.33206 12.6855 9.39847 12.7031 9.50003C12.7172 9.53909 12.7277 9.58597 12.7945 9.57034C12.9035 9.47268 13.0055 9.46487 13.1109 9.46097C13.1988 9.46487 13.2023 9.62503 13.1461 9.62503C12.9457 9.6719 12.8578 9.7344 12.7137 9.793C12.6434 9.83987 12.5871 9.78128 12.5871 9.77737C12.5871 9.77347 12.5484 9.7344 12.573 9.63284C12.5801 9.55472 12.552 9.50784 12.4887 9.51565C12.4465 9.5469 12.4043 9.56253 12.3832 9.50393C12.3727 9.46487 12.3691 9.44143 12.4008 9.418ZM17.2031 9.62893C17.2312 9.668 17.2523 9.70706 17.1996 9.77737L17.0695 9.90237C17.0484 9.94143 17.0344 10.0117 17.1047 10.0313C17.2312 10.0703 17.5266 9.8555 17.5266 9.85159C17.5758 9.81253 17.5617 9.7344 17.5547 9.7344C17.5266 9.69925 17.4633 9.72268 17.4211 9.71487C17.4 9.71487 17.3332 9.70706 17.3648 9.63675C17.3885 9.60223 17.4074 9.56407 17.4211 9.52347C17.4387 9.47659 17.4211 9.44534 17.3508 9.418C17.277 9.40237 17.2453 9.41018 17.1645 9.418C17.1223 9.42581 17.1082 9.44925 17.0977 9.50784C17.1012 9.59768 17.1504 9.59378 17.2031 9.62503V9.62893Z" fill="white"/>
<path fill-rule="evenodd" clip-rule="evenodd" d="M12.4254 7.4103C12.4078 7.44936 12.3445 7.44936 12.2848 7.4103C12.225 7.37123 12.1898 7.30873 12.2109 7.27358C12.232 7.23842 12.2918 7.23842 12.3516 7.27358C12.4113 7.30873 12.443 7.37514 12.4254 7.4103ZM9.29648 5.31655C9.26133 5.32826 9.21211 5.29311 9.19102 5.23842C9.16992 5.18373 9.18047 5.13686 9.21563 5.12514C9.25078 5.11342 9.29648 5.15248 9.32109 5.20326C9.3457 5.25405 9.33164 5.30873 9.29297 5.32045L9.29648 5.31655ZM15.4875 14.6486C15.818 14.6642 16.1273 14.6486 16.4543 14.6681C16.5141 14.7267 16.4719 14.8634 16.4332 14.8556L16.159 14.8439C16.1555 14.7267 15.8883 14.7462 15.8953 14.8478C15.7512 14.8673 15.6211 14.8439 15.4734 14.8361C15.4312 14.7775 15.4383 14.672 15.4875 14.6486Z" fill="#165D31"/>
</g>
</g>
<defs>
<clipPath id="clip0_6128_1030">
<rect width="24" height="20" rx="4" fill="white"/>
</clipPath>
</defs>
</svg>
