<svg width="25" height="24" viewBox="0 0 25 24" fill="none" xmlns="http://www.w3.org/2000/svg">
<path opacity="0.5" d="M22.5 10H2.5V19C2.5 19.7956 2.81607 20.5587 3.37868 21.1213C3.94129 21.6839 4.70435 22 5.5 22H19.5C20.2956 22 21.0587 21.6839 21.6213 21.1213C22.1839 20.5587 22.5 19.7956 22.5 19V10ZM7.5 8C7.23478 8 6.98043 7.89464 6.79289 7.70711C6.60536 7.51957 6.5 7.26522 6.5 7V3C6.5 2.73478 6.60536 2.48043 6.79289 2.29289C6.98043 2.10536 7.23478 2 7.5 2C7.76522 2 8.01957 2.10536 8.20711 2.29289C8.39464 2.48043 8.5 2.73478 8.5 3V7C8.5 7.26522 8.39464 7.51957 8.20711 7.70711C8.01957 7.89464 7.76522 8 7.5 8ZM17.5 8C17.2348 8 16.9804 7.89464 16.7929 7.70711C16.6054 7.51957 16.5 7.26522 16.5 7V3C16.5 2.73478 16.6054 2.48043 16.7929 2.29289C16.9804 2.10536 17.2348 2 17.5 2C17.7652 2 18.0196 2.10536 18.2071 2.29289C18.3946 2.48043 18.5 2.73478 18.5 3V7C18.5 7.26522 18.3946 7.51957 18.2071 7.70711C18.0196 7.89464 17.7652 8 17.5 8Z" fill="#FFA579"/>
<path d="M19.5 4H18.5V7C18.5 7.26522 18.3946 7.51957 18.2071 7.70711C18.0196 7.89464 17.7652 8 17.5 8C17.2348 8 16.9804 7.89464 16.7929 7.70711C16.6054 7.51957 16.5 7.26522 16.5 7V4H8.5V7C8.5 7.26522 8.39464 7.51957 8.20711 7.70711C8.01957 7.89464 7.76522 8 7.5 8C7.23478 8 6.98043 7.89464 6.79289 7.70711C6.60536 7.51957 6.5 7.26522 6.5 7V4H5.5C4.70435 4 3.94129 4.31607 3.37868 4.87868C2.81607 5.44129 2.5 6.20435 2.5 7V10H22.5V7C22.5 6.20435 22.1839 5.44129 21.6213 4.87868C21.0587 4.31607 20.2956 4 19.5 4Z" fill="#FFA579"/>
</svg>
