<svg width="32" height="32" viewBox="0 0 32 32" fill="none" xmlns="http://www.w3.org/2000/svg">
<path d="M9.01333 29.3333H22.9867C26.6667 29.3333 28.1333 27.08 28.3067 24.3333L29 13.32C29.1867 10.44 26.8933 7.99996 24 7.99996C23.1867 7.99996 22.44 7.53329 22.0667 6.81329L21.1067 4.87996C20.4933 3.66663 18.8933 2.66663 17.5333 2.66663H14.48C13.1067 2.66663 11.5067 3.66663 10.8933 4.87996L9.93333 6.81329C9.56 7.53329 8.81333 7.99996 8 7.99996C5.10666 7.99996 2.81333 10.44 3 13.32L3.69333 24.3333C3.85333 27.08 5.33333 29.3333 9.01333 29.3333Z" stroke="#231F20" stroke-width="2" stroke-linecap="round" stroke-linejoin="round"/>
<path opacity="0.4" d="M14 10.6666H18" stroke="#231F20" stroke-width="2" stroke-linecap="round" stroke-linejoin="round"/>
<path opacity="0.4" d="M16 24C18.3867 24 20.3333 22.0534 20.3333 19.6667C20.3333 17.28 18.3867 15.3334 16 15.3334C13.6133 15.3334 11.6667 17.28 11.6667 19.6667C11.6667 22.0534 13.6133 24 16 24Z" stroke="#231F20" stroke-width="2" stroke-linecap="round" stroke-linejoin="round"/>
</svg>
