<svg width="26" height="21" viewBox="0 0 26 21" fill="none" xmlns="http://www.w3.org/2000/svg">
<path d="M6.09375 12.125C5.77052 12.125 5.46052 12.2534 5.23196 12.482C5.0034 12.7105 4.875 13.0205 4.875 13.3438C4.875 13.667 5.0034 13.977 5.23196 14.2055C5.46052 14.4341 5.77052 14.5625 6.09375 14.5625H8.53125C8.85448 14.5625 9.16448 14.4341 9.39304 14.2055C9.6216 13.977 9.75 13.667 9.75 13.3438C9.75 13.0205 9.6216 12.7105 9.39304 12.482C9.16448 12.2534 8.85448 12.125 8.53125 12.125H6.09375Z" fill="#FA6B25"/>
<path fill-rule="evenodd" clip-rule="evenodd" d="M0 4.40625C0 3.43655 0.385211 2.50657 1.07089 1.82089C1.75657 1.13521 2.68655 0.75 3.65625 0.75H22.3438C23.3134 0.75 24.2434 1.13521 24.9291 1.82089C25.6148 2.50657 26 3.43655 26 4.40625V16.5938C26 17.5634 25.6148 18.4934 24.9291 19.1791C24.2434 19.8648 23.3134 20.25 22.3438 20.25H3.65625C2.68655 20.25 1.75657 19.8648 1.07089 19.1791C0.385211 18.4934 0 17.5634 0 16.5938L0 4.40625ZM23.5625 4.40625V5.625H2.4375V4.40625C2.4375 4.08302 2.5659 3.77302 2.79446 3.54446C3.02302 3.3159 3.33302 3.1875 3.65625 3.1875H22.3438C22.667 3.1875 22.977 3.3159 23.2055 3.54446C23.4341 3.77302 23.5625 4.08302 23.5625 4.40625ZM23.5625 8.875H2.4375V16.5938C2.4375 17.2665 2.9835 17.8125 3.65625 17.8125H22.3438C22.667 17.8125 22.977 17.6841 23.2055 17.4555C23.4341 17.227 23.5625 16.917 23.5625 16.5938V8.875Z" fill="#FA6B25"/>
</svg>
