<svg width="24" height="25" viewBox="0 0 24 25" fill="none" xmlns="http://www.w3.org/2000/svg">
<g clip-path="url(#clip0_6123_1536)">
<rect y="0.5" width="24" height="24" rx="5" fill="#EA0029"/>
<path d="M14.007 18.9167C13.7814 18.9167 13.6075 18.8451 13.4444 18.6817C13.2803 18.5173 13.2088 18.3427 13.2083 18.1184C13.2083 18.1182 13.2083 18.118 13.2083 18.1178L13.2083 14.0269C13.2083 13.8023 13.2796 13.6286 13.4433 13.4653C13.6078 13.3012 13.7823 13.2296 14.0066 13.2292C14.0068 13.2292 14.007 13.2292 14.0072 13.2292L18.0981 13.2292C18.3227 13.2292 18.4964 13.3005 18.6597 13.4642C18.8238 13.6286 18.8954 13.8031 18.8958 14.0275C18.8958 14.0277 18.8958 14.0278 18.8958 14.028L18.8958 18.119C18.8958 18.3436 18.8245 18.5172 18.6609 18.6806C18.4964 18.8447 18.3219 18.9162 18.0975 18.9167C18.0974 18.9167 18.0972 18.9167 18.097 18.9167L14.007 18.9167ZM14.007 10.7708C13.7814 10.7708 13.6075 10.6993 13.4444 10.5359C13.2803 10.3714 13.2088 10.1969 13.2083 9.97255C13.2083 9.97237 13.2083 9.97219 13.2083 9.97201L13.2083 5.88105C13.2083 5.65643 13.2796 5.48278 13.4433 5.31944C13.6078 5.15533 13.7823 5.08378 14.0067 5.08334H18.0981C18.3227 5.08334 18.4964 5.15464 18.6597 5.31832C18.8238 5.48277 18.8954 5.6573 18.8958 5.88164C18.8958 5.88182 18.8958 5.882 18.8958 5.88218L18.8958 9.97313C18.8958 10.1978 18.8245 10.3714 18.6609 10.5347C18.4964 10.6988 18.3219 10.7704 18.0975 10.7708H14.007ZM5.86117 10.7708C5.63557 10.7708 5.46169 10.6993 5.2986 10.5359C5.13449 10.3714 5.06294 10.1969 5.0625 9.97249V5.88105C5.0625 5.65643 5.1338 5.48278 5.29748 5.31944C5.46194 5.15533 5.63649 5.08378 5.86085 5.08334H9.95229C10.1769 5.08334 10.3506 5.15464 10.5139 5.31832C10.678 5.48277 10.7495 5.6573 10.75 5.88164V9.97313C10.75 10.1978 10.6787 10.3714 10.515 10.5347C10.3506 10.6988 10.176 10.7704 9.95171 10.7708H5.86117ZM5.86117 18.9167C5.63557 18.9167 5.46169 18.8451 5.2986 18.6817C5.13425 18.517 5.06294 18.3427 5.0625 18.1193V14.0278C5.0625 13.8032 5.1338 13.6296 5.29748 13.4662C5.46192 13.3021 5.63646 13.2306 5.86079 13.2301C5.86097 13.2301 5.86116 13.2301 5.86134 13.2301L9.95229 13.2301C10.1769 13.2301 10.3506 13.3014 10.5139 13.4651C10.678 13.6296 10.7495 13.8041 10.75 14.0284V18.1199C10.75 18.3445 10.6787 18.5182 10.515 18.6815C10.3507 18.8455 10.1765 18.9167 9.95229 18.9167H5.86117Z" fill="white" stroke="white" stroke-width="1.5"/>
</g>
<defs>
<clipPath id="clip0_6123_1536">
<rect y="0.5" width="24" height="24" rx="5" fill="white"/>
</clipPath>
</defs>
</svg>
