<svg width="24" height="25" viewBox="0 0 24 25" fill="none" xmlns="http://www.w3.org/2000/svg">
<path d="M17.8162 5.88891V5.88891C17.9154 4.60028 16.8965 3.5 15.604 3.5H15.5M17.8162 5.88891L17.3835 11.5147C17.1671 14.3278 14.8214 16.5 12 16.5V16.5M17.8162 5.88891V5.88891C19.7681 5.88891 21.2744 7.60607 21.0201 9.54128L20.9259 10.2586C20.6822 12.1133 19.1014 13.5 17.2308 13.5V13.5M6.18376 5.88891L6.61652 11.5147C6.83291 14.3278 9.17862 16.5 12 16.5V16.5M6.18376 5.88891V5.88891C6.08464 4.60028 7.10353 3.5 8.39597 3.5H11.5M6.18376 5.88891V5.88891C4.23192 5.88891 2.72561 7.60607 2.97987 9.54128L3.07412 10.2586C3.31781 12.1133 4.8986 13.5 6.76923 13.5V13.5M12 16.5V18.5M12 18.5L14.2138 19.8283C15.2031 20.4218 15.6977 20.7186 15.6948 21.005C15.6939 21.0922 15.6703 21.1777 15.6262 21.2529C15.4813 21.5 14.9044 21.5 13.7507 21.5H10.2493C9.09558 21.5 8.51872 21.5 8.37384 21.2529C8.32973 21.1777 8.30606 21.0922 8.30518 21.005C8.30229 20.7186 8.79694 20.4218 9.78624 19.8283L12 18.5Z" stroke="#292556" stroke-width="1.5" stroke-linecap="round" stroke-linejoin="round"/>
<path d="M11.1929 7.88529C11.5024 7.25823 11.6571 6.9447 11.8897 6.8921C11.9623 6.87567 12.0377 6.87567 12.1103 6.8921C12.3429 6.9447 12.4976 7.25823 12.8071 7.88529L12.8722 8.01718C12.9631 8.2015 13.0086 8.29367 13.082 8.35868C13.1061 8.3801 13.1323 8.39913 13.1602 8.4155C13.2447 8.46518 13.3464 8.47996 13.5498 8.50952L13.6954 8.53067C14.3874 8.63122 14.7334 8.6815 14.8552 8.8864C14.8933 8.9504 14.9166 9.02209 14.9234 9.09624C14.9452 9.33365 14.6949 9.5777 14.1941 10.0658L14.0888 10.1685C13.9416 10.3119 13.868 10.3837 13.8289 10.4735C13.816 10.5031 13.806 10.5339 13.799 10.5655C13.7779 10.6612 13.7952 10.7625 13.83 10.9651L13.8548 11.11C13.9731 11.7992 14.0322 12.1438 13.875 12.3231C13.8259 12.3791 13.7649 12.4234 13.6965 12.4528C13.4774 12.5469 13.1679 12.3842 12.549 12.0588L12.4188 11.9904C12.2369 11.8947 12.1459 11.8469 12.0483 11.8374C12.0162 11.8343 11.9838 11.8343 11.9517 11.8374C11.8541 11.8469 11.7631 11.8947 11.5812 11.9904L11.451 12.0588C10.8321 12.3842 10.5226 12.5469 10.3035 12.4528C10.2351 12.4234 10.1741 12.3791 10.125 12.3231C9.96784 12.1438 10.0269 11.7992 10.1452 11.11L10.17 10.9651C10.2048 10.7625 10.2221 10.6612 10.201 10.5655C10.194 10.5339 10.184 10.5031 10.1711 10.4735C10.132 10.3837 10.0584 10.3119 9.91118 10.1685L9.80585 10.0658C9.30512 9.5777 9.05475 9.33365 9.07658 9.09624C9.0834 9.02209 9.10669 8.9504 9.14476 8.8864C9.26665 8.6815 9.61265 8.63122 10.3046 8.53067L10.4502 8.50952C10.6536 8.47996 10.7553 8.46518 10.8398 8.4155C10.8677 8.39913 10.8939 8.3801 10.918 8.35868C10.9914 8.29367 11.0369 8.20151 11.1278 8.01718L11.1929 7.88529Z" stroke="#292556" stroke-width="1.5" stroke-linejoin="round"/>
</svg>
