<svg width="24" height="25" viewBox="0 0 24 25" fill="none" xmlns="http://www.w3.org/2000/svg">
<path d="M10.0042 18.2195V18.2195C9.63874 19.2034 10.3665 20.25 11.416 20.25H18.0397C18.5872 20.25 18.8609 20.25 19.0645 20.2162C20.4518 19.9855 21.376 18.6564 21.1091 17.2756C21.07 17.073 20.9747 16.8164 20.784 16.3031V16.3031C20.6253 15.8759 20.546 15.6623 20.4537 15.4759C19.8451 14.2459 18.6484 13.4139 17.2836 13.2716C17.0767 13.25 16.8488 13.25 16.3931 13.25H14.6075C14.3945 13.25 14.288 13.25 14.1821 13.2556C13.9157 13.2697 13.6513 13.3105 13.393 13.3773C13.2904 13.4038 13.1889 13.4358 12.9857 13.5V13.5M8.33008 8.75C7.22551 8.75 6.33008 7.85457 6.33008 6.75C6.33008 5.64543 7.22551 4.75 8.33008 4.75C9.43465 4.75 10.3301 5.64543 10.3301 6.75C10.3301 7.85457 9.43465 8.75 8.33008 8.75ZM15.8301 10.75C14.7255 10.75 13.8301 9.85457 13.8301 8.75C13.8301 7.64543 14.7255 6.75 15.8301 6.75C16.9346 6.75 17.8301 7.64543 17.8301 8.75C17.8301 9.85457 16.9346 10.75 15.8301 10.75ZM5.96032 18.25H10.5397C11.0872 18.25 11.3609 18.25 11.5645 18.2162C12.9518 17.9855 13.876 16.6564 13.6091 15.2756C13.57 15.073 13.4747 14.8164 13.284 14.3031V14.3031C13.1253 13.8759 13.046 13.6623 12.9537 13.4759C12.3451 12.2459 11.1484 11.4139 9.78358 11.2716C9.5767 11.25 9.34883 11.25 8.89307 11.25H7.60693C7.15117 11.25 6.9233 11.25 6.71642 11.2716C5.35155 11.4139 4.15492 12.2459 3.54627 13.4759C3.45401 13.6623 3.37467 13.8759 3.21598 14.3031V14.3031C3.02535 14.8164 2.93003 15.073 2.89087 15.2756C2.62401 16.6564 3.54819 17.9855 4.9355 18.2162C5.13908 18.25 5.41283 18.25 5.96032 18.25Z" stroke="#292556" stroke-width="1.5" stroke-linejoin="round"/>
</svg>
