<svg width="24" height="25" viewBox="0 0 24 25" fill="none" xmlns="http://www.w3.org/2000/svg">
<path d="M13 3.5H10.4C8.15016 3.5 7.02524 3.5 6.23664 4.07295C5.98196 4.25799 5.75799 4.48196 5.57295 4.73664C5 5.52524 5 6.65016 5 8.9V16.1C5 18.3498 5 19.4748 5.57295 20.2634C5.75799 20.518 5.98196 20.742 6.23664 20.9271C7.02524 21.5 8.15016 21.5 10.4 21.5H15C15.93 21.5 16.395 21.5 16.7765 21.3978C17.8117 21.1204 18.6204 20.3117 18.8978 19.2765C19 18.895 19 18.43 19 17.5V17.5M13 3.5V3.5C13.6403 3.5 14.2544 3.75435 14.7071 4.20711L18.2929 7.79289C18.7456 8.24565 19 8.85971 19 9.5V9.5M13 3.5V4.1C13 6.34984 13 7.47476 13.573 8.26336C13.758 8.51804 13.982 8.74201 14.2366 8.92705C15.0252 9.5 16.1502 9.5 18.4 9.5L19 9.5M19 9.5L19 13.5M10.75 11.5C9.75 11.75 9.25 12.25 9 13.25C8.75 12.25 8.25 11.75 7.25 11.5C8.25 11.25 8.75 10.75 9 9.75C9.25 10.75 9.75 11.25 10.75 11.5ZM16.75 15.75C14.75 16.25 13.75 17.25 13.25 19.25C12.75 17.25 11.75 16.25 9.75 15.75C11.75 15.25 12.75 14.25 13.25 12.25C13.75 14.25 14.75 15.25 16.75 15.75Z" stroke="#292556" stroke-width="1.5" stroke-linecap="round" stroke-linejoin="round"/>
</svg>
