<svg width="24" height="25" viewBox="0 0 24 25" fill="none" xmlns="http://www.w3.org/2000/svg">
<path d="M18.75 12.5C18.75 12.9142 18.4142 13.25 18 13.25C17.5858 13.25 17.25 12.9142 17.25 12.5C17.25 12.0858 17.5858 11.75 18 11.75C18.4142 11.75 18.75 12.0858 18.75 12.5Z" fill="#292556"/>
<path d="M3.02 9.5H20.98M13.5 12.5H15.5M10.2 20.5H13.8C16.7998 20.5 18.2997 20.5 19.3511 19.7361C19.6907 19.4893 19.9893 19.1907 20.2361 18.8511C21 17.7997 21 16.2998 21 13.3V11.7C21 8.70021 21 7.20032 20.2361 6.14886C19.9893 5.80928 19.6907 5.51065 19.3511 5.26393C18.2997 4.5 16.7998 4.5 13.8 4.5H10.2C7.20021 4.5 5.70032 4.5 4.64886 5.26393C4.30928 5.51065 4.01065 5.80928 3.76393 6.14886C3 7.20032 3 8.70021 3 11.7V13.3C3 16.2998 3 17.7997 3.76393 18.8511C4.01065 19.1907 4.30928 19.4893 4.64886 19.7361C5.70032 20.5 7.20021 20.5 10.2 20.5Z" stroke="#292556" stroke-width="1.5" stroke-linecap="round" stroke-linejoin="round"/>
</svg>
