<svg width="50" height="45" viewBox="0 0 50 45" fill="none" xmlns="http://www.w3.org/2000/svg">
<g clip-path="url(#clip0_7422_5598)">
<path d="M18.9951 22.8015C18.9951 17.7253 14.7819 13.5969 9.60333 13.5969C4.42475 13.5969 0.211548 17.7253 0.211548 22.8015C0.211548 26.939 3.01188 30.4452 6.85131 31.6015C7.04709 32.1862 7.26492 32.766 7.52851 33.3325C9.40415 37.3695 12.7706 40.4471 17.0101 42.0013H17.0118C21.2513 43.5555 25.8527 43.3985 29.971 41.5602C30.4549 41.3426 30.9245 41.105 31.3813 40.8492L33.1942 44.75L38.989 34.4681L27.2885 32.0459L29.6226 37.0664C29.1734 37.3388 28.7107 37.5905 28.2267 37.8065C25.1357 39.187 21.6793 39.3042 18.495 38.1371C15.3735 36.9924 12.8893 34.7521 11.4629 31.8241C15.7549 30.976 18.9951 27.2538 18.9951 22.8015ZM9.70503 29.8795C5.71558 29.8795 2.483 26.7105 2.483 22.8015C2.483 18.8924 5.71558 15.7234 9.70503 15.7234C13.6945 15.7234 16.9254 18.8924 16.9254 22.8015C16.9254 26.7105 13.6928 29.8795 9.70503 29.8795Z" fill="#FA6B25"/>
<path d="M9.4491 28.2009H10.2763C10.5255 28.2009 10.7272 28.0032 10.7272 27.7598V27.0072C11.3883 26.91 11.9663 26.7073 12.4545 26.3925C13.225 25.8933 13.6208 25.2063 13.6386 24.3283C13.6504 23.7809 13.4962 23.3149 13.1724 22.9328C12.6503 22.3223 11.8341 21.9394 10.7272 21.7882V20.2623C10.9213 20.352 11.1095 20.4724 11.2908 20.6261C11.4019 20.7166 11.5299 20.7623 11.6773 20.7631C11.796 20.7631 11.9587 20.6826 11.9587 20.6826H11.9604L12.8885 20.1127C13.0139 20.0338 13.0792 19.9333 13.08 19.812C13.0826 19.714 13.041 19.6293 12.9588 19.5554C12.3816 18.9116 11.6366 18.5121 10.7264 18.3567V17.4986C10.7264 17.2544 10.5246 17.0559 10.2755 17.0559H9.44825C9.19907 17.0559 8.9982 17.2544 8.9982 17.4986V18.3343C8.56934 18.3924 8.18285 18.4988 7.83874 18.6533C6.72759 19.1492 6.18177 19.8926 6.20126 20.8778C6.21143 21.362 6.35891 21.7923 6.64708 22.1645C7.12934 22.7999 7.91417 23.1978 8.9982 23.3623V25.2661C8.5295 25.1033 8.08707 24.8018 7.67008 24.3591C7.57854 24.2428 7.45649 24.1838 7.30478 24.1838C7.22087 24.1838 7.05729 24.2544 7.05729 24.2544L7.05475 24.2561L6.21228 24.7412C6.06819 24.8226 5.99785 24.9314 5.99954 25.0651C6.00124 25.1523 6.03344 25.2304 6.09871 25.301C6.31738 25.6009 6.61233 25.8883 6.98186 26.1633C7.57769 26.6126 8.24981 26.8926 8.99905 27.0097V27.7614C8.99905 28.0057 9.20077 28.2025 9.4491 28.2025V28.2009ZM10.7272 23.565C11.1739 23.7028 11.3993 23.9579 11.3968 24.3325C11.3925 24.6814 11.2315 24.9513 10.9086 25.1424L10.7272 25.2362V23.565ZM8.45322 20.8819C8.45237 20.6095 8.61256 20.3968 8.93633 20.2456L8.99905 20.2215V21.573C8.63883 21.4368 8.45576 21.2067 8.45322 20.8819Z" fill="#FFAB81"/>
<path d="M8.45233 20.8818C8.45488 21.2074 8.63795 21.4367 8.99816 21.5729V20.2214L8.93544 20.2455C8.61168 20.3967 8.45149 20.6094 8.45233 20.8818Z" fill="#F2F8FD"/>
<path d="M10.7263 25.2362L10.9077 25.1424C11.2306 24.9513 11.3917 24.6813 11.3959 24.3325C11.3993 23.957 11.173 23.7028 10.7263 23.5649V25.2362Z" fill="#F2F8FD"/>
<path d="M9.705 15.7234C5.71555 15.7234 2.48297 18.8924 2.48297 22.8014C2.48297 26.7105 5.71555 29.8795 9.705 29.8795C13.6945 29.8795 16.9253 26.7105 16.9253 22.8014C16.9253 18.8924 13.6928 15.7234 9.705 15.7234ZM12.4536 26.3924C11.9654 26.7072 11.3874 26.9099 10.7263 27.0071V27.7596C10.7263 28.0038 10.5246 28.2007 10.2754 28.2007H9.44819C9.19901 28.2007 8.99814 28.003 8.99814 27.7596V27.0079C8.2489 26.8916 7.57764 26.6108 6.98096 26.1614C6.61227 25.8865 6.31732 25.5991 6.0978 25.2992C6.03254 25.2286 6.00033 25.1505 5.99864 25.0633C5.99694 24.9296 6.06729 24.8216 6.21137 24.7394L7.05385 24.2543L7.05639 24.2526C7.05639 24.2526 7.21997 24.182 7.30387 24.182C7.45559 24.182 7.57764 24.2401 7.66917 24.3573C8.08702 24.8 8.52859 25.1015 8.99729 25.2643V23.3605C7.91327 23.196 7.12843 22.7981 6.64617 22.1627C6.358 21.7897 6.21053 21.3602 6.20036 20.876C6.18171 19.8908 6.72754 19.1474 7.83784 18.6515C8.1811 18.497 8.56843 18.3906 8.99729 18.3325V17.4968C8.99729 17.2526 9.19901 17.0541 9.44735 17.0541H10.2746C10.5237 17.0541 10.7255 17.2526 10.7255 17.4968V18.3549C11.6357 18.5102 12.3807 18.9098 12.9579 19.5536C13.0401 19.6275 13.0817 19.713 13.0791 19.8102C13.0783 19.9315 13.0122 20.032 12.8876 20.1109L11.9595 20.6799H11.9578C11.9578 20.6799 11.7951 20.763 11.6764 20.7622C11.5289 20.7613 11.4001 20.7148 11.2899 20.6251C11.1086 20.4714 10.9204 20.3518 10.7263 20.2613V21.7872C11.8332 21.9384 12.6494 22.3205 13.1715 22.9318C13.4944 23.3131 13.6487 23.7791 13.6377 24.3274C13.6199 25.2062 13.2241 25.8923 12.4536 26.3915V26.3924Z" fill="#F2F8FD"/>
<path d="M30.5049 22.8015C30.5049 27.8768 34.7181 32.0069 39.8967 32.0069C45.0753 32.0069 49.2885 27.8768 49.2885 22.8015C49.2885 18.3674 46.0745 14.6585 41.8096 13.7897C41.6215 13.2406 41.413 12.6974 41.1663 12.1657C39.2898 8.12957 35.9216 5.05115 31.6839 3.49699H31.6822C27.4435 1.94283 22.8405 2.09982 18.7222 3.93807C18.2382 4.15487 17.7687 4.39244 17.311 4.64911L15.4981 0.75L9.70502 11.0302L21.403 13.4524L19.0688 8.43193C19.5189 8.15948 19.9816 7.90696 20.4648 7.69098C23.5566 6.31126 27.0121 6.19414 30.1972 7.36121C33.3917 8.53244 35.9267 10.8458 37.3345 13.8752C37.3455 13.8985 37.3523 13.9226 37.3625 13.9458C33.4129 15.0323 30.5041 18.5859 30.5041 22.8015H30.5049ZM39.9967 15.7235C43.9861 15.7235 47.217 18.8924 47.217 22.8015C47.217 26.7106 43.9853 29.8795 39.9967 29.8795C36.0081 29.8795 32.7764 26.7106 32.7764 22.8015C32.7764 18.8924 36.0098 15.7235 39.9967 15.7235Z" fill="#FA6B25"/>
<path d="M41.6918 21.3133L41.6842 21.2856L41.6907 21.3122C41.6907 21.3122 41.6907 21.3133 41.6907 21.3144L41.6918 21.3133Z" fill="#F2F8FD"/>
<path d="M32.7755 22.8014C32.7755 26.7097 36.0089 29.8795 39.9959 29.8795C43.9828 29.8795 47.2162 26.7105 47.2162 22.8014C47.2162 18.8924 43.9845 15.7234 39.9959 15.7234C36.0072 15.7234 32.7755 18.8924 32.7755 22.8014ZM41.7494 18.0185C42.0274 18.0526 42.2792 18.0982 42.5063 18.1531C42.7318 18.2087 42.9199 18.2644 43.075 18.325C43.2242 18.384 43.3335 18.4338 43.4174 18.4878L43.4318 18.497L43.4454 18.5086L43.598 18.649L43.6115 18.6706C43.6539 18.7354 43.6827 18.8068 43.7031 18.8816V18.8791L43.7048 18.8857C43.7251 18.9613 43.7395 19.0477 43.7514 19.149V19.1507C43.7641 19.2562 43.77 19.3799 43.77 19.5237C43.77 19.6499 43.7641 19.7562 43.7514 19.8451V19.8468C43.737 19.9365 43.7158 20.0179 43.6742 20.0951L43.6615 20.1184L43.6429 20.1383L43.5081 20.2804L43.4471 20.2945L43.3022 20.3261H43.2793C43.1394 20.3261 43.0072 20.2804 42.8699 20.2098H42.8674C42.7555 20.15 42.6123 20.0843 42.4402 20.0129C42.2758 19.9448 42.0741 19.8808 41.8376 19.8227C41.6121 19.767 41.3401 19.738 41.0231 19.738C40.7256 19.738 40.4705 19.7712 40.2594 19.8335C40.0467 19.8958 39.8696 19.9855 39.7212 20.1018C39.5704 20.2189 39.45 20.3585 39.3568 20.5238C39.2983 20.6259 39.2508 20.7397 39.2093 20.8602H41.257L41.2799 20.8652L41.452 20.905L41.4952 20.9482L41.602 21.0595L41.6155 21.0845C41.6503 21.1517 41.6723 21.224 41.6893 21.3071L41.6842 21.2863L41.6901 21.3079C41.7079 21.3993 41.7138 21.4998 41.7138 21.6136C41.7105 21.8387 41.6952 22.0073 41.6096 22.1535C41.5401 22.2789 41.3892 22.3795 41.2333 22.3753H38.961C38.9593 22.3836 38.9593 22.3919 38.9593 22.4011V22.3994C38.9567 22.4708 38.9551 22.5497 38.9551 22.637C38.9551 22.7134 38.9567 22.7881 38.9593 22.8637C38.9593 22.8812 38.961 22.9003 38.9618 22.9169H41.2596L41.2858 22.9235L41.4553 22.9692L41.4952 23.0116L41.602 23.1246L41.6147 23.1478C41.6503 23.2151 41.6715 23.289 41.6884 23.3738L41.6859 23.3588L41.6884 23.3721V23.3738C41.7062 23.4626 41.7122 23.5607 41.7122 23.6711C41.7113 23.8921 41.6918 24.0615 41.6104 24.2077C41.5426 24.3365 41.3926 24.4436 41.2316 24.4395H39.1924C39.228 24.55 39.272 24.6546 39.3288 24.7485V24.7502C39.4204 24.9063 39.5407 25.0359 39.695 25.1447C39.8475 25.2527 40.0382 25.3391 40.2722 25.4014C40.5044 25.462 40.7909 25.4944 41.1299 25.4944C41.4477 25.4944 41.7181 25.4637 41.9385 25.408C42.1732 25.3474 42.3758 25.2809 42.5419 25.2103C42.7174 25.1356 42.8631 25.0691 42.9759 25.0102C43.1123 24.9412 43.2352 24.8947 43.37 24.893H43.3929L43.4157 24.898L43.6014 24.9395L43.6454 24.9877L43.7573 25.1132L43.7692 25.1389C43.8073 25.2203 43.8285 25.3092 43.8429 25.413V25.4147C43.8556 25.5185 43.8607 25.6456 43.8607 25.8026C43.8607 26.0136 43.8378 26.1889 43.781 26.3384C43.7268 26.4771 43.6454 26.5984 43.5344 26.6864C43.4335 26.7653 43.3064 26.8351 43.1488 26.9041H43.1471C42.9852 26.9738 42.7945 27.0378 42.5724 27.0951C42.347 27.1533 42.0927 27.2006 41.8079 27.2371C41.5215 27.2745 41.207 27.292 40.8638 27.292C40.2188 27.292 39.6407 27.2264 39.1339 27.0918C38.6279 26.958 38.1872 26.7628 37.8176 26.5037C37.4498 26.2453 37.1481 25.9255 36.9184 25.5484C36.7175 25.2186 36.5751 24.844 36.4759 24.4403H35.8233C35.6606 24.4445 35.5123 24.3365 35.4445 24.2094V24.2077C35.3631 24.0615 35.3445 23.8929 35.3428 23.672C35.3428 23.5648 35.347 23.4709 35.3563 23.3879C35.3673 23.3048 35.3818 23.2301 35.4148 23.1578L35.4258 23.1345L35.4411 23.1163L35.558 22.9717L35.6225 22.9543L35.7606 22.9169H36.3268V22.9152C36.3234 22.8363 36.3225 22.7616 36.3225 22.6893C36.3225 22.5996 36.3234 22.5082 36.3268 22.4185V22.4202C36.3276 22.4052 36.3276 22.3911 36.3276 22.3761H35.7894C35.7131 22.3761 35.6318 22.3562 35.5648 22.3105C35.4979 22.2657 35.4504 22.2025 35.419 22.1369C35.3572 21.9974 35.3436 21.8379 35.3419 21.6144C35.3419 21.4998 35.3495 21.3993 35.3665 21.3087V21.3104C35.3834 21.224 35.408 21.1468 35.4487 21.077L35.4614 21.057L35.4775 21.0396L35.6072 20.9067L35.6665 20.8926L35.7987 20.8602H36.5395C36.6531 20.4764 36.8023 20.1134 37.0023 19.787C37.2311 19.4107 37.5252 19.0859 37.8829 18.8159C38.244 18.5426 38.6728 18.3341 39.1652 18.1871C39.6611 18.0401 40.2332 17.9687 40.8815 17.9678C41.179 17.9678 41.4681 17.9853 41.7486 18.0202L41.7494 18.0185Z" fill="#F2F8FD"/>
<path d="M35.792 22.9152H35.7632L35.625 22.9526L35.5606 22.97L35.4437 23.1145L35.4284 23.1328L35.4174 23.1561C35.3843 23.2283 35.3699 23.3023 35.3589 23.3862C35.3496 23.4692 35.3453 23.5631 35.3453 23.6702C35.347 23.8912 35.3665 24.0598 35.4462 24.206V24.2077C35.5148 24.3348 35.6632 24.4428 35.8259 24.4386H36.4785C36.5777 24.8423 36.7209 25.2161 36.9209 25.5467C37.1506 25.9238 37.4515 26.2436 37.8202 26.502C38.1897 26.7603 38.6305 26.9563 39.1365 27.0901C39.6433 27.2246 40.2205 27.2903 40.8663 27.2903C41.2087 27.2903 41.524 27.2728 41.8105 27.2354C42.0944 27.1989 42.3495 27.1515 42.575 27.0934C42.7979 27.0361 42.9886 26.9721 43.1496 26.9032H43.1513C43.3081 26.8334 43.4353 26.7636 43.537 26.6847C43.648 26.5958 43.7294 26.4754 43.7836 26.3375C43.8413 26.1871 43.8633 26.0119 43.8633 25.8009C43.8633 25.6439 43.8582 25.5176 43.8455 25.413V25.4113C43.8311 25.3066 43.8107 25.2186 43.7718 25.1372L43.7599 25.1114L43.648 24.986L43.6039 24.9378L43.4183 24.8963L43.3954 24.8913H43.3726C43.2378 24.893 43.1149 24.9395 42.9784 25.0084C42.8657 25.0674 42.7199 25.1339 42.5445 25.2086C42.3784 25.2784 42.1766 25.3457 41.941 25.4063C41.7207 25.4628 41.4503 25.4927 41.1325 25.4927C40.7943 25.4927 40.507 25.4603 40.2747 25.3997C40.0408 25.3374 39.8493 25.251 39.6975 25.143C39.5433 25.0342 39.4229 24.9046 39.3322 24.7484V24.7468C39.2746 24.6529 39.2305 24.5483 39.1949 24.4378H41.2342C41.3952 24.4419 41.5452 24.3348 41.613 24.206C41.6944 24.0598 41.7139 23.8912 41.7147 23.6694C41.7147 23.5589 41.7079 23.4609 41.691 23.372C41.674 23.2873 41.6529 23.2134 41.6173 23.1461L41.6045 23.1228L41.4978 23.0099L41.4579 22.9675L41.2884 22.9218L41.2621 22.9152H38.9644C38.9636 22.8977 38.9619 22.8795 38.9619 22.8628C38.9593 22.7864 38.9576 22.7117 38.9576 22.6344C38.9576 22.5472 38.9593 22.4683 38.9619 22.3968V22.3985C38.9619 22.3894 38.9619 22.3819 38.9636 22.3728H41.2359C41.3918 22.3777 41.5427 22.2772 41.6122 22.151C41.6978 22.0039 41.713 21.8362 41.7164 21.611C41.7164 21.4964 41.7096 21.3967 41.6927 21.3062C41.6766 21.2223 41.6546 21.1492 41.619 21.0819L41.6054 21.057L41.4986 20.9457L41.4554 20.9025L41.2833 20.8626L41.2604 20.8576H39.2127C39.2551 20.7372 39.3017 20.6234 39.3602 20.5212C39.4534 20.3559 39.5738 20.2164 39.7247 20.0992C39.8738 19.983 40.0501 19.8924 40.2629 19.8309C40.4731 19.7686 40.729 19.7354 41.0265 19.7354C41.3435 19.7354 41.6156 19.7645 41.841 19.8201C42.0783 19.8783 42.2792 19.9423 42.4436 20.0104C42.6157 20.0818 42.7581 20.1483 42.8708 20.2072H42.8733C43.0106 20.2778 43.1429 20.3227 43.2827 20.3235H43.3056L43.4505 20.292L43.5116 20.2778L43.6463 20.1358L43.665 20.1159L43.6777 20.0926C43.7184 20.0154 43.7404 19.9339 43.7548 19.8442V19.8426C43.7675 19.7537 43.7734 19.6474 43.7734 19.5211C43.7734 19.3766 43.7675 19.2536 43.7548 19.1481V19.1465C43.7421 19.0451 43.7285 18.9588 43.7082 18.8832L43.7065 18.8765V18.879C43.6853 18.8043 43.6573 18.7328 43.615 18.668L43.6014 18.6464L43.4488 18.506L43.4353 18.4944L43.4209 18.4853C43.337 18.4313 43.2276 18.3814 43.0784 18.3225C42.9233 18.2618 42.736 18.2062 42.5097 18.1505C42.2826 18.0957 42.0309 18.05 41.7529 18.016C41.4723 17.9811 41.1833 17.9636 40.8858 17.9636C40.2374 17.9636 39.6653 18.0359 39.1695 18.1829C38.6771 18.3291 38.2482 18.5376 37.8872 18.8117C37.5303 19.0817 37.2354 19.4073 37.0065 19.7828C36.8065 20.1092 36.6574 20.4722 36.5438 20.856H35.803L35.6708 20.8884L35.6115 20.9025L35.4818 21.0354L35.4657 21.0528L35.453 21.0728C35.4123 21.1426 35.3877 21.2198 35.3708 21.3062V21.3045C35.3538 21.3959 35.3462 21.4956 35.3462 21.6102C35.3479 21.8337 35.3614 21.9932 35.4233 22.1327C35.4547 22.1992 35.5021 22.2623 35.5691 22.3063C35.6361 22.352 35.7174 22.3728 35.7937 22.3719H36.3319C36.3319 22.3869 36.3319 22.401 36.331 22.416V22.4143C36.3277 22.5048 36.3268 22.5954 36.3268 22.6851C36.3268 22.7574 36.3277 22.8329 36.331 22.911V22.9127H35.7937L35.792 22.9152Z" fill="#FFAB81"/>
<path d="M41.6918 21.3144V21.3133L41.6842 21.2856L41.6918 21.3154V21.3144Z" fill="#FFAB81"/>
<path d="M41.6909 23.3752L41.6876 23.3582L41.6909 23.3762V23.3752Z" fill="#FFAB81"/>
</g>
<defs>
<clipPath id="clip0_7422_5598">
<rect width="49.0769" height="44" fill="white" transform="translate(0.211548 0.75)"/>
</clipPath>
</defs>
</svg>
