<svg width="20" height="20" viewBox="0 0 20 20" fill="none" xmlns="http://www.w3.org/2000/svg">
<path d="M7 3V3C6.07099 3 5.60649 3 5.21783 3.06156C3.07837 3.40042 1.40042 5.07837 1.06156 7.21783C1 7.60649 1 8.07099 1 9V11C1 13.8003 1 15.2004 1.54497 16.27C2.02433 17.2108 2.78924 17.9757 3.73005 18.455C4.79961 19 6.19974 19 9 19H11C13.8003 19 15.2004 19 16.27 18.455C17.2108 17.9757 17.9757 17.2108 18.455 16.27C19 15.2004 19 13.8003 19 11V9C19 8.07099 19 7.60649 18.9384 7.21783C18.5996 5.07837 16.9216 3.40042 14.7822 3.06156C14.3935 3 13.929 3 13 3V3M7 3V4.5M7 3V1M7 3H13M13 3V1M13 3V4.5" stroke="#292556" stroke-width="1.5" stroke-linecap="round" stroke-linejoin="round"/>
</svg>
