<svg width="24" height="25" viewBox="0 0 24 25" fill="none" xmlns="http://www.w3.org/2000/svg">
<path d="M21 5.74902H17.441C16.902 5.74902 16.425 5.40502 16.255 4.89502L15.939 3.94604C15.7 3.23004 15.033 2.75 14.279 2.75H9.71997C8.96597 2.75 8.299 3.23002 8.06 3.94702L7.74402 4.89502C7.57402 5.40602 7.09698 5.75 6.55798 5.75H3C2.586 5.75 2.25 6.086 2.25 6.5C2.25 6.914 2.586 7.25 3 7.25H4.29797L5.065 18.75C5.196 20.713 6.83901 22.25 8.80701 22.25H15.194C17.161 22.25 18.805 20.712 18.936 18.75L19.703 7.25H21C21.414 7.25 21.75 6.914 21.75 6.5C21.75 6.086 21.414 5.74902 21 5.74902ZM9.48297 4.42004C9.51697 4.31804 9.61197 4.24902 9.71997 4.24902H14.279C14.387 4.24902 14.482 4.31807 14.516 4.41907L14.832 5.36804C14.876 5.50004 14.931 5.62705 14.993 5.74805H9.005C9.067 5.62605 9.12202 5.50007 9.16602 5.36707L9.48297 4.42004ZM17.438 18.649C17.36 19.827 16.374 20.749 15.193 20.749H8.80603C7.62603 20.749 6.63897 19.827 6.56097 18.649L5.80103 7.24902H6.55798C6.66498 7.24902 6.77 7.236 6.875 7.224C6.917 7.231 6.95502 7.24902 6.99902 7.24902H16.999C17.043 7.24902 17.081 7.231 17.123 7.224C17.228 7.236 17.332 7.24902 17.44 7.24902H18.197L17.438 18.649ZM14.75 11.499V16.499C14.75 16.913 14.414 17.249 14 17.249C13.586 17.249 13.25 16.913 13.25 16.499V11.499C13.25 11.085 13.586 10.749 14 10.749C14.414 10.749 14.75 11.085 14.75 11.499ZM10.75 11.499V16.499C10.75 16.913 10.414 17.249 10 17.249C9.586 17.249 9.25 16.913 9.25 16.499V11.499C9.25 11.085 9.586 10.749 10 10.749C10.414 10.749 10.75 11.085 10.75 11.499Z" fill="#FA6B25"/>
</svg>
