<svg width="24" height="25" viewBox="0 0 24 25" fill="none" xmlns="http://www.w3.org/2000/svg">
<path d="M20.7955 10.1952L20.2165 9.61621C19.9795 9.37921 19.8485 9.0632 19.8485 8.7262V7.91223C19.8485 6.11423 18.3865 4.65222 16.5885 4.65222H15.7735C15.4375 4.65222 15.1215 4.5213 14.8835 4.2843L14.3045 3.7052C13.0335 2.4342 10.9655 2.4342 9.69446 3.7052L9.11548 4.2843C8.87848 4.5213 8.56247 4.65222 8.22547 4.65222H7.4115C5.6135 4.65222 4.15149 6.11423 4.15149 7.91223V8.7262C4.15149 9.0622 4.02051 9.37821 3.78351 9.61621L3.20447 10.1952C1.93347 11.4662 1.93347 13.5343 3.20447 14.8053L3.78351 15.3843C4.02051 15.6213 4.15149 15.9373 4.15149 16.2743V17.0883C4.15149 18.8863 5.6135 20.3483 7.4115 20.3483H8.22547C8.56147 20.3483 8.87748 20.4792 9.11548 20.7162L9.69446 21.2953C10.3305 21.9313 11.1645 22.2493 11.9995 22.2493C12.8345 22.2493 13.6685 21.9313 14.3045 21.2953L14.8835 20.7162C15.1205 20.4792 15.4365 20.3483 15.7735 20.3483H16.5885C18.3855 20.3483 19.8485 18.8863 19.8485 17.0883V16.2743C19.8485 15.9383 19.9795 15.6223 20.2165 15.3843L20.7955 14.8053C22.0665 13.5343 22.0665 11.4662 20.7955 10.1952ZM19.7345 13.7443L19.1555 14.3232C18.6345 14.8442 18.3475 15.5362 18.3475 16.2732V17.0873C18.3475 18.0583 17.5575 18.8473 16.5875 18.8473H15.7725C15.0355 18.8473 14.3425 19.1343 13.8225 19.6553L13.2435 20.2343C12.5565 20.9213 11.4405 20.9213 10.7545 20.2343L10.1755 19.6553C9.65448 19.1343 8.96247 18.8473 8.22547 18.8473H7.4115C6.4405 18.8473 5.65149 18.0573 5.65149 17.0873V16.2732C5.65149 15.5362 5.36451 14.8432 4.84351 14.3232L4.26447 13.7443C3.57847 13.0573 3.57847 11.9413 4.26447 11.2553L4.84351 10.6763C5.36451 10.1553 5.65149 9.4632 5.65149 8.7262V7.91223C5.65149 6.94123 6.4415 6.15222 7.4115 6.15222H8.22547C8.96247 6.15222 9.65548 5.86524 10.1755 5.34424L10.7545 4.76526C11.4415 4.07826 12.5575 4.07826 13.2435 4.76526L13.8225 5.34424C14.3435 5.86524 15.0355 6.15222 15.7725 6.15222H16.5875C17.5575 6.15222 18.3475 6.94223 18.3475 7.91223V8.7262C18.3475 9.4632 18.6345 10.1563 19.1555 10.6763L19.7345 11.2553C20.4205 11.9423 20.4205 13.0583 19.7345 13.7443ZM15.5305 8.96924C15.8235 9.26224 15.8235 9.73728 15.5305 10.0303L9.53052 16.0303C9.38452 16.1763 9.19249 16.2502 9.00049 16.2502C8.80849 16.2502 8.61646 16.1773 8.47046 16.0303C8.17746 15.7373 8.17746 15.2622 8.47046 14.9692L14.4705 8.96924C14.7635 8.67724 15.2375 8.67724 15.5305 8.96924ZM15.5005 15.0002C15.5005 15.5522 15.0525 16.0002 14.5005 16.0002C13.9485 16.0002 13.5005 15.5522 13.5005 15.0002C13.5005 14.4482 13.9485 14.0002 14.5005 14.0002C15.0525 14.0002 15.5005 14.4482 15.5005 15.0002ZM8.50049 10.0002C8.50049 9.44825 8.94849 9.00025 9.50049 9.00025C10.0525 9.00025 10.5005 9.44825 10.5005 10.0002C10.5005 10.5522 10.0525 11.0002 9.50049 11.0002C8.94849 11.0002 8.50049 10.5522 8.50049 10.0002Z" fill="#41416E"/>
</svg>
