<svg width="26" height="25" viewBox="0 0 26 25" fill="none" xmlns="http://www.w3.org/2000/svg">
<rect x="8.40344" y="1" width="9.25526" height="9.49642" rx="4.62763" stroke="#292556"/>
<path d="M11.8781 9.19835C13.628 4.40906 15.8469 4.19566 16.7376 4.68762C16.2519 3.38014 14.6812 0.881857 12.2842 1.34858C9.8871 1.8153 11.0147 6.77623 11.8781 9.19835Z" stroke="#292556"/>
<path d="M16.5154 12.9897L16.0937 12.7208L16.0898 12.7272L16.5154 12.9897ZM13.0224 14.4426L13.0195 14.9425L13.0224 14.4426ZM9.54589 12.9463L9.0459 12.9432L9.04509 13.0835L9.11734 13.2037L9.54589 12.9463ZM9.54598 12.9311L10.046 12.9343L10.0468 12.7902L9.9709 12.6678L9.54598 12.9311ZM12.9617 24.9265C19.8601 24.9694 25.4591 19.2688 25.4999 12.2161L24.4999 12.2099C24.4621 18.7356 19.2887 23.9659 12.9675 23.9265L12.9617 24.9265ZM24.4999 12.2099C24.4977 12.5859 24.2188 13.0259 23.5447 13.3979C22.8863 13.7613 21.9441 13.9981 20.8765 13.9914L20.8707 14.9914C22.0763 14.9989 23.1935 14.7341 24.0281 14.2735C24.847 13.8216 25.4947 13.1153 25.4999 12.2161L24.4999 12.2099ZM20.8765 13.9914C19.8089 13.9848 18.8696 13.7363 18.2156 13.3648C17.546 12.9844 17.2722 12.541 17.2744 12.1649L16.2744 12.1587C16.2692 13.0578 16.9085 13.7722 17.722 14.2343C18.5511 14.7052 19.6651 14.9839 20.8707 14.9914L20.8765 13.9914ZM16.2744 12.1587C16.2734 12.3422 16.2168 12.5277 16.0938 12.7208L16.9371 13.2586C17.1453 12.932 17.2721 12.5648 17.2744 12.1649L16.2744 12.1587ZM16.0898 12.7272C15.6912 13.3738 14.5386 13.952 13.0253 13.9426L13.0195 14.9425C14.7064 14.953 16.283 14.3197 16.9411 13.2522L16.0898 12.7272ZM13.0253 13.9426C11.5115 13.9331 10.366 13.3407 9.97444 12.689L9.11734 13.2037C9.76349 14.2791 11.3319 14.932 13.0195 14.9425L13.0253 13.9426ZM10.0459 12.9494L10.046 12.9343L9.04599 12.928L9.0459 12.9432L10.0459 12.9494ZM9.9709 12.6678C9.84661 12.4673 9.79546 12.2967 9.79649 12.1184L8.79651 12.1121C8.79417 12.5173 8.9201 12.8703 9.12105 13.1945L9.9709 12.6678ZM8.79651 12.1121C8.79433 12.4883 8.51545 12.9282 7.84149 13.3002C7.18324 13.6635 6.24115 13.9003 5.17355 13.8937L5.16777 14.8937C6.37333 14.9012 7.49046 14.6364 8.325 14.1758C9.14383 13.7238 9.79129 13.0175 9.79649 12.1184L8.79651 12.1121ZM5.17355 13.8937C4.10596 13.8871 3.16655 13.6386 2.51242 13.2671C1.84266 12.8867 1.56884 12.4432 1.57102 12.0672L0.571035 12.061C0.565831 12.9602 1.20525 13.6745 2.01886 14.1366C2.84811 14.6075 3.9622 14.8862 5.16777 14.8937L5.17355 13.8937ZM0.571035 12.061C0.530212 19.1137 6.06275 24.8836 12.9617 24.9265L12.9675 23.9265C6.64576 23.8872 1.53324 18.5929 1.57102 12.0672L0.571035 12.061Z" fill="#292556"/>
</svg>
