<svg width="20" height="20" viewBox="0 0 20 20" fill="none" xmlns="http://www.w3.org/2000/svg">
<g clip-path="url(#clip0_8392_5849)">
<path fill-rule="evenodd" clip-rule="evenodd" d="M0 10C0 4.46875 4.46875 0 10 0C15.5312 0 20 4.46875 20 10C20 15.5312 15.5312 20 10 20H9.1875V19.9688C4.0625 19.5625 0 15.25 0 10ZM10.25 18.375C14.75 18.25 18.375 14.5312 18.375 10C18.375 5.375 14.625 1.625 10 1.625C5.375 1.625 1.625 5.375 1.625 10C1.625 14.625 5.375 18.375 10 18.375H10.25Z" fill="#B8519A"/>
<path fill-rule="evenodd" clip-rule="evenodd" d="M5.9375 2.6875C5.8125 2.65625 5.71875 2.625 5.59375 2.5625L6.125 1.03125C6.1875 1.0625 6.25 1.0625 6.375 1.09375C6.5625 1.15625 6.78125 1.21875 6.90625 1.28125C6.9375 1.28125 6.96875 1.3125 7.03125 1.3125C7.25 1.40625 7.5 1.5 7.71875 1.59375L7.75 1.625C7.84375 1.6875 8 1.75 8.125 1.8125C8.1875 1.84375 8.25 1.875 8.3125 1.90625H8.34375H8.375C8.40625 1.9375 8.5 1.96875 8.59375 2.03125H8.625C8.625 2.03125 8.65625 2.03125 8.65625 2.0625C8.65625 2.0625 8.6875 2.0625 8.6875 2.09375C8.6875 2.09375 8.6875 2.09375 8.71875 2.09375C8.71875 2.09375 8.71875 2.09375 8.75 2.09375C8.75 2.09375 8.78125 2.09375 8.78125 2.125C8.84375 2.15625 8.9375 2.21875 9 2.25C9.09375 2.3125 9.21875 2.375 9.3125 2.4375C9.40625 2.5 9.53125 2.59375 9.625 2.625L9.65625 2.65625C9.71875 2.6875 9.78125 2.71875 9.8125 2.75C9.875 2.78125 9.9375 2.84375 10 2.875C10.0312 2.90625 10.0625 2.90625 10.0625 2.9375C10.0938 2.96875 10.125 2.96875 10.1562 3C10.1875 3.03125 10.1875 3.03125 10.2188 3.03125C10.2188 3.03125 10.2187 3.03125 10.25 3.03125H10.2812H10.3125C11.2187 3.71875 12 4.5 12.6875 5.40625C13.4375 6.40625 14.0312 7.5 14.4375 8.6875C15.6562 12.125 15.3125 16.0625 13.375 19.1875L12 18.3438C13.6562 15.6562 13.9687 12.2188 12.9062 9.21875C12.5625 8.21875 12.0312 7.25 11.375 6.40625C10.7812 5.625 10.0937 4.9375 9.3125 4.34375C9.28125 4.3125 9.21875 4.28125 9.1875 4.25C9.15625 4.21875 9.125 4.1875 9.09375 4.1875C9.0625 4.15625 9.0625 4.15625 9.03125 4.125C8.96875 4.09375 8.9375 4.03125 8.875 4C8.84375 3.96875 8.8125 3.96875 8.8125 3.96875H8.78125V4.0625C8.75 4.03125 8.6875 4 8.65625 4C8.59375 3.9375 8.53125 3.90625 8.46875 3.875L8.4375 3.84375L8.40625 3.8125C8.40625 3.8125 8.375 3.8125 8.34375 3.78125C8.3125 3.75 8.25 3.71875 8.1875 3.6875C8.125 3.65625 8.03125 3.59375 8 3.5625C7.96875 3.5625 7.9375 3.53125 7.9375 3.53125L7.90625 3.5C7.875 3.5 7.875 3.46875 7.84375 3.46875C7.84375 3.46875 7.8125 3.4375 7.78125 3.4375C7.75 3.40625 7.71875 3.40625 7.65625 3.375C7.59375 3.34375 7.53125 3.3125 7.46875 3.28125C7.34375 3.21875 7.21875 3.15625 7.09375 3.125L7.0625 3.09375C6.90625 3.03125 6.71875 2.96875 6.53125 2.875C6.4375 2.84375 6.40625 2.8125 6.34375 2.8125C6.21875 2.75 6.09375 2.71875 5.9375 2.6875Z" fill="#B8519A"/>
<path fill-rule="evenodd" clip-rule="evenodd" d="M9.375 6.53125C11.8125 6.09375 14.0938 4.71875 15.625 2.75L16.9062 3.75C15.0938 6.03125 12.5 7.625 9.65625 8.125C8.25 8.375 6.78125 8.375 5.375 8.125C3.96875 7.875 2.59375 7.375 1.34375 6.625L2.1875 5.25C3.25 5.875 4.4375 6.34375 5.65625 6.5625C6.875 6.75 8.125 6.75 9.375 6.53125Z" fill="#B8519A"/>
<path fill-rule="evenodd" clip-rule="evenodd" d="M5.03125 18.2191C6.40625 11.1566 13.625 7.25033 19.5 8.84408L19.0625 10.4066C14.0625 9.03158 7.8125 12.4066 6.59375 18.5316L5.03125 18.2191Z" fill="#B8519A"/>
</g>
<defs>
<clipPath id="clip0_8392_5849">
<rect width="20" height="20" fill="white"/>
</clipPath>
</defs>
</svg>
