<svg width="78" height="16" viewBox="0 0 78 16" fill="none" xmlns="http://www.w3.org/2000/svg">
<path fill-rule="evenodd" clip-rule="evenodd" d="M33.9385 8.78261C33.8863 8.85967 33.9123 8.94959 33.9123 9.02665V12.7515C33.9123 13.0984 33.873 13.4323 33.7686 13.7663C33.4551 14.8323 32.5404 15.4745 31.4035 15.3975C30.0054 15.3075 29.2083 14.4726 29.1168 13.0213C29.1037 12.8801 29.1037 12.7259 29.1037 12.5845V3.00266C29.1037 2.00078 29.4826 1.21736 30.4496 0.831924C31.4426 0.433779 32.3835 0.575016 33.1935 1.29425C33.6379 1.67953 33.9514 2.19334 34.3043 2.65567C35.3888 4.10701 36.5386 5.5199 37.5578 7.02272C37.6624 7.17683 37.7539 7.33094 37.9107 7.47235V3.24653C37.9107 2.69428 38.0021 2.1676 38.2895 1.6924C38.8122 0.819053 39.6354 0.536409 40.6023 0.639204C41.739 0.741999 42.4969 1.49984 42.6536 2.63009C42.6929 2.887 42.7058 3.1439 42.7058 3.40081V13.0083C42.7058 13.9973 42.353 14.7807 41.4122 15.1917C40.406 15.6156 39.4392 15.4615 38.6158 14.7294C38.1062 14.2798 37.7274 13.7018 37.2961 13.1624C36.1594 11.7366 34.9441 10.3623 33.9773 8.80819C33.9773 8.79532 33.9642 8.79532 33.938 8.78245L33.9385 8.78261ZM69.1793 8.80835V9.07813C69.1793 10.4268 69.1662 11.7625 69.1531 13.1112C69.1531 13.4965 69.0354 13.8562 68.8655 14.1902C68.4605 14.9993 67.598 15.4618 66.6443 15.3846C65.2853 15.2818 64.4752 14.4469 64.3837 13.0855L64.3707 12.8543C64.3707 9.48914 64.3576 6.12397 64.3707 2.75879C64.3707 1.89815 64.7888 1.2431 65.5728 0.870699C66.4613 0.459684 67.3238 0.523868 68.16 1.05055C68.4083 1.20466 68.6174 1.41025 68.7873 1.62854C70.107 3.3754 71.466 5.08364 72.7204 6.88181C72.8641 7.0874 72.9948 7.29283 73.1647 7.5626V3.16981C73.1647 2.52763 73.3084 1.91102 73.7396 1.39738C74.3798 0.639531 75.2423 0.511163 76.1569 0.678143C77.0194 0.845123 77.555 1.41025 77.8032 2.21941C77.9209 2.60468 77.9469 2.99012 77.9469 3.38827V13.0215C77.9469 13.9976 77.581 14.7812 76.6533 15.1793C75.6864 15.5903 74.7587 15.462 73.9353 14.7941C73.8047 14.6913 73.674 14.5629 73.5694 14.4344C72.2628 12.7774 70.8645 11.1847 69.6494 9.46357C69.4926 9.24527 69.349 9.02681 69.2051 8.80852C69.2182 8.79565 69.2051 8.79565 69.1789 8.80852L69.1793 8.80835ZM57.955 7.98632C57.955 6.30365 57.9419 4.63402 57.955 2.95135C57.9681 1.97521 58.3862 1.21736 59.314 0.832087C60.2679 0.433942 61.1956 0.536736 61.9926 1.23023C62.476 1.64125 62.7243 2.20637 62.7243 2.82298C62.7374 6.27808 62.7505 9.72031 62.7243 13.1754C62.7112 14.4726 61.6267 15.4361 60.3201 15.3975C58.948 15.3589 57.9681 14.4213 57.955 13.0984C57.9419 11.3901 57.955 9.69457 57.955 7.98632ZM27.4835 6.65048C27.4705 7.57531 27.5228 8.7313 27.4574 9.87442C27.3006 12.7131 25.1446 14.9607 22.2699 15.3204C20.9893 15.4745 19.748 15.4103 18.5458 14.9223C16.403 14.0616 15.227 12.4562 14.9003 10.2341C14.861 9.95147 14.8481 9.65612 14.835 9.36077C14.835 7.24151 14.8219 5.13496 14.835 3.0157C14.8481 1.6028 15.8542 0.600923 17.2392 0.613793C18.6373 0.626663 19.6304 1.62854 19.6304 3.06701V9.05239C19.6304 9.72031 19.8655 10.2597 20.4928 10.5681C21.4727 11.0561 22.5704 10.3754 22.6749 9.25798C22.688 9.11674 22.688 8.96263 22.688 8.82122V2.98996C22.688 1.7183 23.5636 0.755033 24.8309 0.626663C26.0853 0.498293 27.1567 1.25597 27.4181 2.47631C27.4574 2.66903 27.4703 2.86159 27.4703 3.06718C27.4834 4.18456 27.4834 5.3021 27.4834 6.65065L27.4835 6.65048ZM49.148 5.04503C50.0105 3.95323 50.8989 2.9129 51.7352 1.83397C52.2186 1.21736 52.7935 0.780772 53.6038 0.690847C55.015 0.549607 56.3739 1.83397 56.2694 3.22112C56.2172 3.8633 55.9558 4.40285 55.5508 4.89092C54.7276 5.85419 53.8913 6.80476 53.0551 7.75516C52.9374 7.8964 52.9374 7.97345 53.0551 8.10199C53.9566 9.07813 54.8322 10.08 55.7206 11.0561C56.2041 11.5955 56.4785 12.1993 56.4523 12.9185C56.4001 14.4598 54.8191 15.6544 53.3686 15.2305C52.8721 15.0892 52.4671 14.7937 52.1404 14.3956C51.1996 13.2653 50.2327 12.1478 49.3181 10.9918C49.2788 10.9405 49.2397 10.889 49.1875 10.8248C49.096 10.8761 49.1353 10.9532 49.1353 11.0047C49.1353 11.6855 49.1484 12.3534 49.1222 13.034C49.0829 14.4083 48.0899 15.3717 46.731 15.3589C45.359 15.3589 44.3399 14.3956 44.3399 13.034C44.3268 9.65596 44.3268 6.26504 44.3399 2.887C44.353 1.52558 45.3853 0.562148 46.7441 0.575018C48.1031 0.587888 49.0831 1.52542 49.1223 2.887C49.1616 3.63197 49.1485 4.33834 49.1485 5.04487L49.148 5.04503ZM4.73454 0.909142C5.5839 0.922012 6.55076 0.844957 7.50469 1.02481C10.1572 1.51288 12.1956 2.82298 13.1234 5.37899C14.0773 8.01206 13.7636 10.5168 11.869 12.7002C10.7061 14.0489 9.1381 14.7553 7.38719 14.9993C5.76686 15.2305 4.13361 15.0764 2.51329 15.1021C2.4349 15.1021 2.35651 15.0764 2.27812 15.0635C0.997538 14.8452 0.10907 13.8176 0.10907 12.5461V3.47803C0.10907 2.05226 1.21978 0.934882 2.68316 0.909142C3.32337 0.896272 3.97683 0.909142 4.73454 0.909142ZM4.90441 8.01206V10.3498C4.90441 10.4654 4.89132 10.5681 5.07428 10.5681C5.5839 10.5552 6.08042 10.5938 6.59003 10.5295C7.92282 10.3754 8.81129 9.38635 8.82438 8.02477C8.83747 6.68893 7.94884 5.66147 6.61605 5.49449C6.11953 5.43031 5.62301 5.48162 5.12649 5.45588C4.94352 5.44301 4.89132 5.5072 4.89132 5.68705C4.90441 6.45776 4.90441 7.24135 4.90441 8.01206Z" fill="#FE6D01"/>
</svg>
