<svg width="18" height="18" viewBox="0 0 18 18" fill="none" xmlns="http://www.w3.org/2000/svg">
<path d="M0.483002 17.938H16.6104C16.737 17.938 16.8583 17.8853 16.9478 17.7915C17.0373 17.6978 17.0876 17.5706 17.0876 17.438C17.0876 17.3054 17.0373 17.1782 16.9478 17.0844C16.8583 16.9907 16.737 16.938 16.6104 16.938H0.483002C0.356456 16.938 0.235093 16.9907 0.145611 17.0844C0.0561295 17.1782 0.00585938 17.3054 0.00585938 17.438C0.00585938 17.5706 0.0561295 17.6978 0.145611 17.7915C0.235093 17.8853 0.356456 17.938 0.483002 17.938ZM6.36331 14.18C6.76619 14.0612 7.13386 13.8376 7.43211 13.53L16.536 3.98999C16.8478 3.662 17.0228 3.21793 17.0228 2.75499C17.0228 2.29205 16.8478 1.84798 16.536 1.51999L15.639 0.589989C15.3213 0.2727 14.8993 0.0957031 14.4604 0.0957031C14.0216 0.0957031 13.5996 0.2727 13.2819 0.589989L4.178 10.12C3.88442 10.4309 3.67383 10.8171 3.56725 11.24L2.86108 14C2.82788 14.1261 2.82717 14.2591 2.85902 14.3856C2.89087 14.5121 2.95414 14.6275 3.0424 14.72C3.17764 14.8589 3.35882 14.9377 3.54817 14.94L6.36331 14.18ZM6.75457 12.82C6.57859 13.0076 6.35778 13.1423 6.1152 13.21L5.18954 13.47L4.23525 12.47L4.48337 11.5C4.54926 11.2463 4.6776 11.0153 4.85554 10.83L5.21817 10.46L7.1172 12.45L6.75457 12.82ZM7.79474 11.74L5.89571 9.74999L12.3181 3.01999L14.2171 5.00999L7.79474 11.74ZM15.8585 3.28999L14.8946 4.29999L12.9956 2.30999L13.9594 1.28999C14.0936 1.14954 14.2755 1.07065 14.4652 1.07065C14.6549 1.07065 14.8368 1.14954 14.971 1.28999L15.8585 2.22999C15.9916 2.37113 16.0662 2.56156 16.0662 2.75999C16.0662 2.95842 15.9916 3.14885 15.8585 3.28999Z" fill="white"/>
</svg>
