<svg width="24" height="20" viewBox="0 0 24 20" fill="none" xmlns="http://www.w3.org/2000/svg">
<g clip-path="url(#clip0_6218_6440)">
<path d="M0 13.333H24V19.9997H0V13.333Z" fill="#000001"/>
<path d="M0 6.66699H24V13.3337H0V6.66699Z" fill="white"/>
<path d="M0 0H24V6.66667H0V0Z" fill="#CE1126"/>
<path d="M12.0227 10.0576L13.9993 11.4093L13.8579 8.95457C13.8377 8.58264 13.3991 8.66765 13.0788 8.80155C12.7585 8.95457 12.3863 8.95457 11.9996 8.85468C11.6101 8.95457 11.2408 8.95457 10.9205 8.80155C10.6031 8.66765 10.1616 8.58264 10.1414 8.95457L10 11.4093L12.0227 10.0576Z" fill="white" stroke="#C09300" stroke-width="0.13" stroke-linejoin="round"/>
<path d="M10.3693 8.86914L10.2308 11.2559L10 11.4089L10.1414 8.95415C10.2096 8.91565 10.2869 8.88682 10.3693 8.86914ZM10.6463 9.03917L10.5309 11.037L10.3001 11.2113L10.4386 8.90527C10.4848 8.93928 10.6204 9.02216 10.6463 9.03917ZM10.8974 9.19219L10.8079 10.8585L10.6204 10.9923L10.7358 9.0923C10.782 9.12418 10.8743 9.17306 10.8974 9.19219ZM11.1715 9.2772L11.0821 10.6969L10.9003 10.8053L10.9897 9.2262C11.0359 9.24107 11.1253 9.2772 11.1715 9.2772ZM11.4254 9.2772L11.3591 10.461L11.1715 10.5949L11.2436 9.29208C11.2869 9.29208 11.4052 9.29208 11.4254 9.2772Z" fill="#C09300"/>
<path d="M13.6307 8.86914L13.7692 11.2559L14 11.4089L13.8586 8.95415C13.7904 8.91565 13.7131 8.88682 13.6307 8.86914ZM13.3537 9.03917L13.4691 11.037L13.6999 11.2113L13.5614 8.90527C13.5152 8.93928 13.3796 9.02216 13.3537 9.03917ZM13.1026 9.19219L13.1921 10.8585L13.3796 10.9923L13.2642 9.0923C13.218 9.12418 13.1257 9.17306 13.1026 9.19219ZM12.8285 9.2772L12.9179 10.6969L13.0997 10.8053L13.0103 9.2262C12.9641 9.24107 12.8747 9.2772 12.8285 9.2772ZM12.5746 9.2772L12.6409 10.461L12.8285 10.5949L12.7564 9.29208C12.7131 9.29208 12.5948 9.29208 12.5746 9.2772Z" fill="#C09300"/>
<path d="M12.092 10.3252L12.369 11.2561L12.2767 11.3241L12.1814 11.271L12.0256 10.4421L12.092 11.271L11.9997 11.356L11.9102 11.271L11.9766 10.4421L11.8179 11.271L11.7226 11.3241L11.6303 11.2561L11.9073 10.3273H12.092V10.3252Z" fill="#C09300" stroke="#C09300" stroke-width="0.11"/>
<path d="M11.3771 9.91699L10.826 11.3558L11.5849 11.4409L11.9052 10.3591L11.3771 9.91699Z" fill="white" stroke="#C09300" stroke-width="0.12" stroke-linejoin="round"/>
<path d="M11.1938 10.4103L11.2602 10.5272L11.618 10.2764" stroke="#C09300" stroke-width="0.13" stroke-linejoin="round"/>
<path d="M11.4427 10.1123L11.5178 10.6288L11.7457 10.4077M11.6534 10.4927L11.7775 10.8115M11.8265 10.6946L11.5755 10.9752M11.6534 11.2557L11.5726 10.9752M11.5726 10.9752L11.5033 10.6904L11.3331 10.8583L11.261 10.6649L11.0244 10.8434L11.1427 11.1665L11.31 10.9667L11.3995 11.1707L11.5726 10.9752Z" stroke="#C09300" stroke-width="0.13" stroke-linejoin="round"/>
<path d="M10.9866 11.3244L11.1396 11.165L11.2377 11.4095L11.3762 11.2394L11.4656 11.4435" stroke="#C09300" stroke-width="0.13" stroke-linejoin="round"/>
<path d="M12.6193 9.91699L13.1704 11.3558L12.4115 11.4409L12.0912 10.3591L12.6193 9.91699Z" fill="white" stroke="#C09300" stroke-width="0.12" stroke-linejoin="round"/>
<path d="M12.8026 10.4103L12.7362 10.5272L12.3784 10.2764" stroke="#C09300" stroke-width="0.13" stroke-linejoin="round"/>
<path d="M12.5537 10.1123L12.4786 10.6288L12.2507 10.4077M12.343 10.4927L12.2189 10.8115M12.1699 10.6946L12.4209 10.9752M12.343 11.2557L12.4238 10.9752M12.4238 10.9752L12.4931 10.6904L12.6633 10.8583L12.7354 10.6649L12.972 10.8434L12.8537 11.1665L12.6864 10.9667L12.5969 11.1707L12.4238 10.9752Z" stroke="#C09300" stroke-width="0.13" stroke-linejoin="round"/>
<path d="M13.0098 11.3244L12.8568 11.165L12.7587 11.4095L12.6202 11.2394L12.5308 11.4435" stroke="#C09300" stroke-width="0.13" stroke-linejoin="round"/>
<path d="M11.9982 12.0001C12.5753 12.0001 13.1235 11.9661 13.4467 11.9002C13.5823 11.8811 13.5823 11.8301 13.5823 11.762C13.7208 11.728 13.6515 11.609 13.7468 11.609C13.6487 11.6303 13.6313 11.4921 13.5159 11.5091C13.5159 11.3901 13.3514 11.3752 13.2158 11.4092C12.9417 11.4751 12.4569 11.4921 11.9982 11.4921C11.5365 11.4751 11.0575 11.4751 10.7805 11.4071C10.6449 11.3752 10.4833 11.3901 10.4833 11.5091C10.3679 11.4921 10.3477 11.6282 10.2524 11.609C10.3477 11.609 10.2755 11.7302 10.414 11.762C10.414 11.8301 10.414 11.8811 10.5525 11.9002C10.8699 11.9661 11.4239 12.0001 11.9982 12.0001Z" fill="white" stroke="#C09300" stroke-width="0.24" stroke-linecap="round" stroke-linejoin="round"/>
<path d="M11.2162 11.3557C11.4008 11.3748 11.6086 11.3897 11.7702 11.3748C11.8625 11.3748 11.9289 11.4917 11.7442 11.5087C11.5855 11.5236 11.3316 11.5087 11.196 11.4917C11.0175 11.4687 10.8404 11.4403 10.665 11.4067C10.5035 11.3557 10.6189 11.2579 10.7112 11.2707C10.8759 11.3095 11.0449 11.338 11.2162 11.3557ZM12.7801 11.3557C12.5954 11.3748 12.3877 11.3897 12.2319 11.3748C12.1338 11.3748 12.0674 11.4917 12.2521 11.5087C12.4137 11.5236 12.6647 11.5087 12.8003 11.4917C12.9157 11.4747 13.1696 11.4428 13.3312 11.4067C13.4928 11.3557 13.3774 11.2579 13.2851 11.2707C13.1204 11.3096 12.9514 11.338 12.7801 11.3557Z" fill="white" stroke="#C09300" stroke-width="0.13" stroke-linecap="round" stroke-linejoin="round"/>
<path d="M10.6409 11.2901C10.5024 11.271 10.4389 11.39 10.4822 11.458C10.5024 11.424 10.5976 11.424 10.6178 11.39C10.6438 11.339 10.5976 11.339 10.6438 11.2901H10.6409ZM11.1949 11.6026C11.1949 11.5346 11.2844 11.5431 11.2844 11.475C11.2844 11.4432 11.2613 11.39 11.2151 11.39C11.1911 11.391 11.1684 11.3985 11.1513 11.4111C11.1343 11.4236 11.1241 11.4403 11.1228 11.458C11.1026 11.5239 11.1949 11.5346 11.1949 11.6026ZM11.8499 11.4092C11.9855 11.4092 11.9711 11.5431 11.9076 11.6111C11.9076 11.5622 11.7922 11.5431 11.7922 11.509C11.7922 11.458 11.8961 11.458 11.8499 11.4092ZM13.3504 11.2901C13.4917 11.271 13.5581 11.39 13.5119 11.458C13.4917 11.424 13.3965 11.424 13.3763 11.39C13.3504 11.339 13.3965 11.339 13.3504 11.2901ZM12.805 11.6004C12.805 11.5324 12.7127 11.5409 12.7127 11.4729C12.7127 11.441 12.7357 11.3879 12.7819 11.3879C12.806 11.3889 12.8287 11.3964 12.8457 11.409C12.8627 11.4215 12.8729 11.4382 12.8743 11.4559C12.8945 11.5218 12.8021 11.5324 12.8021 11.6004H12.805ZM12.1413 11.4092C12.0057 11.4092 12.0201 11.5431 12.0836 11.6111C12.0836 11.5622 12.199 11.5431 12.199 11.509C12.199 11.458 12.0952 11.458 12.1413 11.4092Z" fill="white" stroke="#C09300" stroke-width="0.13" stroke-linecap="round" stroke-linejoin="round"/>
<path d="M10.6924 11.3242C10.7386 11.3242 10.8078 11.3391 10.828 11.3582L10.6924 11.3242ZM10.9203 11.3752C10.9434 11.3752 11.0358 11.3901 11.079 11.4092L10.9203 11.3752ZM11.7456 11.4432C11.7023 11.4432 11.61 11.4432 11.5869 11.4581L11.7456 11.4411V11.4432ZM11.4945 11.4432C11.4686 11.4241 11.3791 11.4241 11.333 11.4432H11.4945ZM13.3066 11.3242C13.2577 11.3247 13.2102 11.3366 13.171 11.3582L13.3066 11.3242ZM13.0816 11.3752C13.0527 11.3752 12.9661 11.3901 12.92 11.4092L13.0816 11.3752ZM12.2534 11.4432C12.2967 11.4432 12.389 11.4432 12.415 11.4581L12.2534 11.4411V11.4432ZM12.5045 11.4432C12.5304 11.4241 12.6199 11.4241 12.6661 11.4432H12.5045Z" fill="white" stroke="#C09300" stroke-width="0.09" stroke-linecap="round" stroke-linejoin="round"/>
<path d="M10.6539 11.5923C10.6395 11.5902 10.6308 11.5795 10.6366 11.571C10.6395 11.5562 10.6539 11.5498 10.6654 11.554C10.677 11.554 10.6914 11.5668 10.6914 11.571L10.6799 11.5859L10.6741 11.588C10.6741 11.5923 10.6625 11.5923 10.6539 11.5923ZM12.2409 11.6752C12.2351 11.6752 12.2236 11.6645 12.2236 11.6603C12.2236 11.6518 12.2409 11.639 12.2524 11.639L12.2755 11.6475C12.2842 11.6539 12.2842 11.6667 12.2726 11.673C12.2669 11.6773 12.2496 11.6773 12.2409 11.673V11.6752ZM12.2496 11.7283C12.238 11.7241 12.2351 11.7198 12.2322 11.7113C12.2322 11.7007 12.2322 11.6985 12.2467 11.6922L12.2582 11.6879L12.2698 11.6922C12.2813 11.6964 12.29 11.7007 12.29 11.7092C12.29 11.7156 12.2813 11.7219 12.2698 11.7262C12.2611 11.7304 12.2582 11.7304 12.2496 11.7262V11.7283Z" fill="#C09300"/>
<path d="M10.7817 11.4941C10.7702 11.4941 10.7558 11.5026 10.7471 11.5069C10.7298 11.509 10.7067 11.5175 10.6894 11.5069C10.6721 11.5048 10.649 11.5069 10.6461 11.5239C10.649 11.5388 10.675 11.5451 10.6923 11.5366C10.7038 11.526 10.7356 11.5175 10.7414 11.5366C10.7269 11.5536 10.7298 11.5728 10.7183 11.5877C10.7183 11.5983 10.7096 11.6068 10.7038 11.6153C10.6894 11.6153 10.675 11.6153 10.6634 11.6217C10.6545 11.6217 10.6457 11.6232 10.6376 11.6261C10.6296 11.6291 10.6227 11.6334 10.6173 11.6387C10.6057 11.6514 10.5942 11.6642 10.5913 11.6812C10.5942 11.6939 10.6202 11.6982 10.6375 11.7003L10.6952 11.713L10.7875 11.7322C10.8337 11.7428 10.8799 11.7471 10.926 11.7556L10.9405 11.7577C10.9606 11.7619 10.9693 11.7471 10.9693 11.7364L10.9982 11.6599C11.0039 11.6493 11.0126 11.628 10.9866 11.6323C10.9722 11.6387 10.9578 11.6493 10.9405 11.6493C10.9145 11.6493 10.9289 11.6705 10.9405 11.6769C10.9405 11.6897 10.9347 11.7045 10.926 11.7152C10.9087 11.7216 10.8914 11.7152 10.8741 11.7109C10.8597 11.7109 10.825 11.7045 10.8395 11.6897L10.8539 11.6514C10.8625 11.6387 10.8625 11.6238 10.8683 11.6089C10.8568 11.594 10.8395 11.6153 10.825 11.6174C10.8135 11.6217 10.7789 11.6238 10.7962 11.6387C10.8135 11.6472 10.8019 11.662 10.7962 11.6748C10.7962 11.6897 10.7731 11.696 10.7558 11.6897C10.7385 11.6897 10.7125 11.679 10.7269 11.6663L10.7414 11.628L10.7616 11.5855C10.7616 11.5707 10.7702 11.56 10.7789 11.5473C10.7789 11.5324 10.7933 11.5196 10.7933 11.5048C10.7933 11.4984 10.7875 11.4963 10.7817 11.4963V11.4941ZM10.675 11.6493C10.6763 11.6487 10.6778 11.6484 10.6793 11.6484C10.6808 11.6484 10.6823 11.6487 10.6836 11.6493C10.6894 11.6535 10.6894 11.6578 10.6836 11.662L10.675 11.6663C10.6606 11.6663 10.6577 11.6642 10.6577 11.6599C10.6577 11.6578 10.6577 11.6557 10.6663 11.6535C10.6698 11.6517 10.6737 11.6502 10.6779 11.6493H10.675ZM10.6461 11.7556C10.6317 11.7471 10.6346 11.7407 10.6548 11.7279C10.6663 11.7237 10.6692 11.7237 10.6808 11.7301C10.6981 11.7407 10.6981 11.7471 10.6808 11.7577C10.675 11.7619 10.6721 11.7619 10.6663 11.7619C10.6577 11.7619 10.6548 11.7619 10.6461 11.7577V11.7556ZM10.7327 11.7768C10.7263 11.7753 10.7208 11.7721 10.7176 11.7677C10.7144 11.7633 10.7136 11.7582 10.7154 11.7534C10.7212 11.7449 10.724 11.7428 10.7414 11.7428C10.7616 11.7428 10.7644 11.7449 10.7673 11.7577C10.7673 11.7662 10.7673 11.7683 10.7587 11.7726C10.7555 11.7744 10.7517 11.7758 10.7477 11.7765C10.7438 11.7773 10.7396 11.7774 10.7356 11.7768H10.7327ZM13.3065 11.7768C13.3008 11.7747 13.2979 11.7726 13.2979 11.7662C13.2979 11.7577 13.3037 11.7513 13.321 11.7471C13.3383 11.7407 13.3498 11.7407 13.3556 11.7513C13.3643 11.7641 13.3643 11.7683 13.3527 11.7768C13.3469 11.7832 13.3441 11.7832 13.3296 11.7832C13.3152 11.7832 13.3123 11.7832 13.3065 11.7789V11.7768ZM10.8539 11.8023C10.8423 11.8023 10.8366 11.7938 10.8366 11.7853C10.8366 11.7789 10.8366 11.7768 10.8423 11.7726L10.8597 11.7683L10.877 11.7704C10.8914 11.7789 10.8943 11.7874 10.8856 11.7959C10.877 11.8044 10.8683 11.8044 10.851 11.8023H10.8539ZM11.4829 11.8236L11.4772 11.8172C11.4772 11.8044 11.4772 11.7938 11.4829 11.7811C11.4858 11.7704 11.4829 11.7598 11.4887 11.7492L11.5002 11.6897C11.5002 11.679 11.5002 11.6684 11.506 11.6599C11.5089 11.6429 11.506 11.628 11.5118 11.6132C11.5118 11.6068 11.5204 11.5919 11.5291 11.6004C11.5406 11.6132 11.5551 11.6217 11.5695 11.6323C11.581 11.6387 11.5695 11.6472 11.5608 11.6493C11.5493 11.6514 11.5464 11.662 11.5464 11.6705L11.5406 11.696C11.5406 11.7109 11.5406 11.7237 11.5349 11.7386L11.532 11.7768L11.5262 11.8023C11.5262 11.8108 11.5262 11.8214 11.5147 11.8257C11.506 11.8299 11.4916 11.8299 11.4858 11.8236H11.4829ZM12.3399 11.6153L12.3024 11.6408C12.2851 11.6514 12.3168 11.6557 12.3197 11.6642C12.3255 11.6769 12.3255 11.6897 12.3255 11.7024C12.3313 11.7152 12.3341 11.7258 12.3313 11.7386C12.3313 11.7534 12.3082 11.7492 12.2966 11.7577C12.2822 11.7619 12.2764 11.7726 12.2678 11.7789C12.2609 11.7896 12.257 11.8012 12.2562 11.8129C12.2562 11.8236 12.2476 11.8342 12.2562 11.8427L12.2591 11.8469H12.2735L12.3168 11.8448C12.3515 11.8406 12.389 11.8406 12.4236 11.8384L12.4871 11.8342C12.5044 11.8363 12.513 11.8236 12.513 11.8129C12.5015 11.7981 12.5102 11.7832 12.5015 11.7704C12.4957 11.7534 12.4986 11.7386 12.4957 11.7237C12.4957 11.7109 12.4755 11.7067 12.4669 11.7152C12.4553 11.7237 12.438 11.7258 12.4322 11.7343C12.4236 11.7471 12.4496 11.7471 12.4553 11.7556L12.4582 11.7874C12.4611 11.8002 12.4438 11.8002 12.4294 11.8023C12.4149 11.8066 12.3947 11.8087 12.3861 11.7959C12.3803 11.7853 12.3803 11.7747 12.3803 11.7641C12.3803 11.7428 12.3717 11.7258 12.3717 11.7067C12.3717 11.6854 12.363 11.662 12.363 11.6387C12.363 11.628 12.3601 11.6132 12.3399 11.6153ZM12.3226 11.7896H12.3313V11.8066L12.3226 11.8087C12.3188 11.8096 12.315 11.8103 12.3111 11.8108C12.3091 11.8109 12.3072 11.8109 12.3053 11.8108C12.2995 11.8066 12.2995 11.8002 12.3082 11.7938L12.3226 11.7896ZM11.457 11.594C11.4483 11.594 11.4339 11.6089 11.4223 11.6068C11.3964 11.6089 11.3992 11.628 11.4194 11.6344V11.6514C11.4223 11.6684 11.4079 11.6833 11.4108 11.7003C11.4108 11.7173 11.4021 11.7364 11.4021 11.7556C11.3935 11.7747 11.3935 11.7938 11.3906 11.8129C11.3877 11.8299 11.3704 11.8236 11.356 11.8193V11.7981C11.3588 11.7789 11.3415 11.7747 11.3213 11.7726C11.3011 11.7726 11.2925 11.7619 11.2983 11.7492C11.3069 11.7407 11.3271 11.7428 11.3415 11.7428C11.3704 11.7471 11.3675 11.7194 11.3531 11.7088C11.3415 11.696 11.3185 11.6875 11.3127 11.6748C11.3127 11.6578 11.2983 11.6387 11.2781 11.6302C11.2463 11.628 11.2203 11.6472 11.2117 11.6684C11.1973 11.6684 11.1828 11.6727 11.1713 11.6769C11.1511 11.6812 11.1222 11.7067 11.1511 11.7173C11.1655 11.7194 11.2146 11.7279 11.1915 11.7428C11.1799 11.7598 11.1569 11.7598 11.1367 11.7556C11.1165 11.7556 11.0934 11.7471 11.0934 11.7301C11.0905 11.713 11.0905 11.696 11.0818 11.6812C11.0761 11.6642 11.0501 11.6684 11.0472 11.6854C11.027 11.696 11.0299 11.7152 11.0443 11.7279C11.053 11.7428 11.0443 11.7619 11.0357 11.7747C11.0299 11.7959 11.001 11.7959 10.9808 11.8002C10.9722 11.8044 10.9347 11.8002 10.9491 11.8151C10.9707 11.8224 10.9949 11.8246 11.0184 11.8214C11.0414 11.8214 11.0616 11.8066 11.0761 11.7917C11.0905 11.7811 11.1165 11.7874 11.1396 11.7874C11.1597 11.7874 11.1828 11.7981 11.2059 11.7896C11.2117 11.7789 11.2405 11.7577 11.2492 11.7789C11.2492 11.7981 11.2694 11.8066 11.2925 11.8044C11.3184 11.8044 11.3069 11.8172 11.3069 11.8299C11.3069 11.8491 11.3271 11.8597 11.3502 11.8682H11.3733C11.3935 11.8618 11.4166 11.8554 11.4252 11.8384C11.4339 11.8236 11.4339 11.8066 11.4396 11.7917C11.4454 11.7683 11.4512 11.7428 11.4512 11.7194C11.4598 11.6982 11.457 11.6748 11.4627 11.6514L11.4714 11.6025C11.4714 11.5919 11.4656 11.5919 11.457 11.594ZM11.2636 11.6812C11.2665 11.6812 11.2694 11.6854 11.2694 11.6918C11.2694 11.7003 11.2752 11.7067 11.2838 11.7088V11.7152L11.2607 11.7194C11.2463 11.7194 11.2348 11.7152 11.2261 11.7088L11.2203 11.7045L11.229 11.7003L11.2434 11.6897C11.2521 11.6833 11.2579 11.6812 11.2636 11.6812ZM13.168 11.5133C13.1514 11.5141 13.135 11.5163 13.119 11.5196C13.0901 11.5196 13.0757 11.5409 13.1046 11.5536C13.1219 11.5855 13.1478 11.5451 13.1767 11.5494C13.2171 11.5537 13.22 11.5877 13.2286 11.6132C13.2286 11.6365 13.2402 11.6599 13.2488 11.6833C13.2777 11.7067 13.2286 11.7216 13.2084 11.7045C13.1911 11.6897 13.1507 11.6727 13.1305 11.6918C13.1046 11.7003 13.1017 11.7258 13.0815 11.7343C13.0469 11.7407 13.044 11.7088 13.0238 11.696C13.0065 11.6769 12.9747 11.6748 12.9487 11.6705C12.9372 11.6514 12.943 11.6195 12.9199 11.6068C12.8968 11.6132 12.8564 11.6429 12.891 11.6578C12.9199 11.679 12.8766 11.6875 12.8622 11.7003C12.8391 11.7194 12.8333 11.7428 12.8333 11.7641C12.7958 11.7789 12.79 11.7471 12.7843 11.7279C12.7843 11.7045 12.7554 11.7109 12.7352 11.7194C12.7064 11.7279 12.6948 11.7471 12.6775 11.7619V11.8044C12.6833 11.8236 12.7121 11.8151 12.7295 11.8129C12.7583 11.8044 12.7698 11.8278 12.7468 11.8406C12.7295 11.8533 12.6833 11.8469 12.6891 11.8703H12.7352C12.7641 11.8639 12.7987 11.8469 12.8016 11.8214C12.8074 11.8002 12.8506 11.8023 12.8737 11.7981C12.9026 11.7917 12.9401 11.7896 12.9487 11.8193C12.9689 11.8342 13.0122 11.8512 13.0353 11.8299C13.0463 11.8248 13.0551 11.8175 13.0607 11.8089C13.0663 11.8002 13.0685 11.7906 13.0671 11.7811C13.0642 11.7641 13.1046 11.7641 13.1161 11.7747C13.1305 11.7917 13.1767 11.7874 13.1998 11.7747C13.2229 11.7641 13.2286 11.7407 13.2633 11.7407L13.4191 11.7088C13.4595 11.7024 13.4133 11.6833 13.4018 11.6705C13.3729 11.6599 13.3441 11.7067 13.3094 11.6833C13.2806 11.6684 13.2835 11.6408 13.2748 11.6174C13.2662 11.5877 13.269 11.5536 13.2402 11.5324C13.2229 11.5175 13.194 11.5133 13.168 11.5133ZM12.9718 11.7152C12.9747 11.7152 12.9805 11.7152 12.9863 11.7194C12.9978 11.7237 13.0065 11.7322 13.0065 11.7407C13.0065 11.7449 13.0065 11.7449 12.9978 11.7471L12.9834 11.7513C12.9776 11.7513 12.9632 11.7449 12.9632 11.7407V11.7322C12.9574 11.7237 12.9574 11.7237 12.9632 11.7194L12.9718 11.7152ZM13.1594 11.7237C13.1709 11.7237 13.1767 11.7237 13.1825 11.7301C13.1854 11.7386 13.1825 11.7428 13.1709 11.7471L13.1565 11.7513L13.145 11.7449C13.1392 11.7428 13.1363 11.7407 13.1363 11.7364C13.1363 11.7301 13.1478 11.7237 13.1594 11.7216V11.7237ZM12.8997 11.7237C12.9055 11.7237 12.9084 11.7237 12.9112 11.7279C12.917 11.7322 12.9199 11.7343 12.9199 11.7407V11.7534C12.9199 11.7598 12.9199 11.7577 12.9026 11.7577C12.8853 11.7577 12.8824 11.7577 12.8824 11.7449C12.8824 11.7364 12.8824 11.7343 12.891 11.7301C12.8939 11.7258 12.8997 11.7258 12.9026 11.7258L12.8997 11.7237ZM12.7439 11.7556C12.7466 11.7562 12.7491 11.7573 12.7511 11.7587C12.7531 11.7602 12.7546 11.7621 12.7554 11.7641C12.7554 11.7704 12.7554 11.7747 12.7496 11.7768C12.741 11.7789 12.7266 11.7811 12.7208 11.7768C12.7207 11.7761 12.7207 11.7754 12.7208 11.7747C12.715 11.7726 12.715 11.7704 12.7208 11.7683V11.7662L12.7266 11.7598C12.7283 11.7577 12.731 11.7562 12.7342 11.7554C12.7373 11.7546 12.7408 11.7547 12.7439 11.7556ZM13.0093 11.7811L13.0238 11.7832V11.7959H12.9891L12.9863 11.7917C12.9863 11.7874 12.9863 11.7853 12.992 11.7832L13.0093 11.7811ZM12.5159 11.8831C12.513 11.8831 12.5073 11.881 12.513 11.8788C12.5159 11.8724 12.5275 11.8703 12.5361 11.8661C12.5518 11.8617 12.5658 11.8543 12.5765 11.8448C12.5765 11.8363 12.5881 11.8321 12.5881 11.8236L12.5852 11.7938C12.5813 11.7849 12.5731 11.7773 12.5621 11.7726C12.5534 11.7704 12.5419 11.7683 12.539 11.7598C12.539 11.7534 12.5477 11.7471 12.5506 11.7407L12.5679 11.7152C12.5765 11.7088 12.5881 11.7152 12.5909 11.7194L12.6054 11.7407C12.614 11.7471 12.6198 11.7534 12.6227 11.7619C12.6285 11.7704 12.6342 11.7768 12.6342 11.7832L12.64 11.8108C12.64 11.8214 12.64 11.8342 12.6342 11.8448L12.6169 11.8618C12.6083 11.8682 12.5996 11.8746 12.5881 11.8767C12.5794 11.8788 12.5736 11.8852 12.5621 11.8852H12.5188L12.5159 11.8831ZM12.3168 11.8916C12.3111 11.8873 12.3082 11.8852 12.3082 11.8788C12.3082 11.8724 12.3082 11.8724 12.3168 11.8661C12.3284 11.8576 12.3341 11.8576 12.3572 11.8661C12.3774 11.8746 12.3861 11.8746 12.3861 11.8682C12.389 11.8639 12.4005 11.8576 12.4149 11.8576C12.4203 11.8577 12.4254 11.8592 12.4294 11.8618C12.4351 11.8661 12.438 11.8682 12.438 11.8767C12.438 11.8873 12.438 11.8873 12.4294 11.8937C12.4207 11.898 12.4207 11.898 12.4092 11.898C12.404 11.8977 12.3991 11.8964 12.395 11.8942C12.3909 11.8919 12.3878 11.8888 12.3861 11.8852C12.3861 11.881 12.3861 11.8788 12.3803 11.8831L12.3745 11.8852C12.3688 11.8852 12.3572 11.8916 12.3515 11.8958L12.337 11.898C12.3255 11.898 12.3255 11.898 12.3168 11.8916ZM11.7455 11.7024C11.7253 11.7024 11.7051 11.7152 11.7022 11.7301C11.708 11.7449 11.7253 11.7619 11.7138 11.7768C11.7224 11.7981 11.6907 11.8066 11.6705 11.7959C11.6589 11.7747 11.6532 11.7534 11.633 11.7322C11.6099 11.7279 11.6012 11.7556 11.5839 11.7662C11.5926 11.7811 11.6157 11.7959 11.6185 11.8151C11.6243 11.8363 11.607 11.8576 11.5868 11.8661C11.5666 11.881 11.5377 11.8767 11.5147 11.8788C11.4858 11.8916 11.5349 11.8958 11.5493 11.8958C11.5781 11.898 11.6099 11.8958 11.6359 11.8788C11.6561 11.8724 11.6532 11.8427 11.6791 11.8406L11.8176 11.8469C11.8407 11.8512 11.8782 11.8448 11.8955 11.8576C11.8955 11.8788 11.9244 11.8958 11.9504 11.9043C11.9648 11.9086 11.9792 11.8937 11.9937 11.8916C12.0225 11.8852 12.0139 11.8597 12.0312 11.8491H12.1754C12.1812 11.8491 12.1841 11.8384 12.1928 11.8342L12.187 11.7938C12.1783 11.7768 12.187 11.7556 12.1726 11.7407C12.1466 11.7364 12.1264 11.7513 12.1033 11.7534C12.0744 11.7619 12.0542 11.7811 12.0514 11.8023C12.0369 11.8214 12.011 11.7981 12.0225 11.7811L12.0196 11.7598C12.0052 11.7492 11.9792 11.7534 11.959 11.7513L11.8725 11.7471C11.8436 11.7471 11.8176 11.7492 11.7946 11.7449C11.7657 11.7449 11.7657 11.7237 11.7657 11.7067C11.7599 11.7034 11.7527 11.7019 11.7455 11.7024ZM11.8032 11.7811L11.8321 11.7832H11.8696C11.8984 11.7874 11.9273 11.7874 11.9561 11.7874C11.9619 11.7874 11.9677 11.7917 11.9735 11.7959V11.8384C11.9735 11.8448 11.9735 11.8533 11.9677 11.8554C11.9662 11.8571 11.9642 11.8586 11.9619 11.8597C11.9577 11.8591 11.9537 11.8579 11.9502 11.8561C11.9467 11.8542 11.9438 11.8518 11.9417 11.8491V11.8193C11.936 11.8158 11.929 11.8135 11.9215 11.8129L11.8465 11.8108L11.7888 11.8087C11.7801 11.8066 11.7686 11.8087 11.7628 11.8002C11.757 11.7959 11.7657 11.7874 11.7744 11.7853C11.7834 11.7823 11.7933 11.7809 11.8032 11.7811ZM12.1293 11.7874C12.1322 11.7874 12.135 11.7874 12.135 11.7938L12.1408 11.8044C12.1408 11.8066 12.1408 11.8087 12.135 11.8087C12.1206 11.8129 12.1062 11.8129 12.1004 11.8087C12.1004 11.8066 12.1004 11.7981 12.1062 11.7959L12.1293 11.7874Z" fill="#C09300"/>
<path d="M11.9995 10.5843C12.9401 10.053 12.8593 9.27084 12.8593 9.27084L12.7872 9.27509C12.5881 9.27509 12.1178 9.19008 12.0081 9.08594C11.8927 9.18158 11.4079 9.27722 11.2117 9.27722L11.1396 9.27084C11.1396 9.27084 11.0559 10.0508 11.9995 10.5843Z" fill="white" stroke="#C09300" stroke-width="0.11"/>
<path d="M12.7816 9.3261H12.7585C12.5796 9.3261 12.1641 9.26022 12.0025 9.1582C11.8352 9.25172 11.411 9.32823 11.235 9.32823C11.2272 9.32801 11.2195 9.3273 11.2119 9.3261C11.2135 9.46042 11.2387 9.59401 11.2869 9.72354C11.4027 10.0356 11.6515 10.312 11.9968 10.512C12.3422 10.3113 12.591 10.0341 12.7066 9.72142C12.7546 9.59257 12.7798 9.4597 12.7816 9.3261Z" fill="white" stroke="#C09300" stroke-width="0.09"/>
<path d="M11.6909 9.26287C11.5359 9.30004 11.3748 9.32149 11.2119 9.32663L11.2148 9.41377C11.2247 9.51802 11.2488 9.62127 11.2869 9.72194C11.3645 9.93096 11.5023 10.1252 11.6909 10.2915V9.26287ZM12.2853 9.26287V10.3085C12.483 10.1384 12.6269 9.93805 12.7066 9.72194C12.7447 9.62127 12.7688 9.51802 12.7787 9.41377L12.7816 9.32875H12.7585C12.6489 9.32875 12.4584 9.30325 12.2853 9.26074V9.26287Z" fill="#C09300"/>
<path d="M12.3538 9.00749C12.374 9.00961 12.3278 8.9331 12.3278 8.9331C12.3798 8.97136 12.5702 8.98198 12.5702 8.98198C12.4548 8.94373 12.3394 8.66106 12.3538 8.43365C12.3653 8.20836 12.3105 8.1191 12.2672 8.08509C12.2095 8.04259 12.022 8.00433 11.9008 8.00008C11.8287 7.99796 11.8431 8.03834 11.8431 8.03834C11.7132 8.01496 11.5834 8.00433 11.5257 8.03409C11.4737 8.05959 11.4622 8.19349 11.5026 8.17011C11.5978 8.11272 11.6815 8.16586 11.7392 8.22749C11.7911 8.28062 11.7883 8.43365 11.7132 8.6143C11.6468 8.75087 11.5492 8.87809 11.4247 8.99049C11.5401 8.99049 11.7017 8.9161 11.7017 8.9161L11.6642 9.03299C11.7854 8.99049 11.8806 8.9246 11.8806 8.9246L11.996 9.01386C12.0335 8.97561 12.1114 8.9246 12.1114 8.9246C12.1114 8.9246 12.2066 8.99899 12.3538 9.00961V9.00749Z" fill="white" stroke="#C09300" stroke-width="0.12"/>
<path d="M11.8871 8.46766C11.8871 8.46766 11.8236 8.81621 11.7025 8.91398M11.991 8.45703C11.991 8.45703 11.9621 8.81196 11.8814 8.9246M12.0805 8.47191C12.0805 8.47191 12.0805 8.85872 12.1093 8.9246M12.1959 8.49104C12.1959 8.49104 12.219 8.81621 12.3286 8.93311" stroke="#C09300" stroke-width="0.13"/>
<path d="M11.7659 8.29788C11.7633 8.27323 11.7535 8.2493 11.737 8.22774C11.6793 8.16398 11.5956 8.11298 11.5004 8.17036C11.5004 8.17036 11.5322 8.09597 11.6043 8.09385C11.6562 8.09172 11.7803 8.1236 11.89 8.25962C11.89 8.25962 11.8092 8.24687 11.789 8.25962C11.7543 8.28088 11.7688 8.29788 11.7688 8.29788H11.7659Z" fill="#C09300" stroke="#C09300" stroke-width="0.03"/>
<path d="M11.4896 8.07872C11.4983 8.05746 11.5098 8.04046 11.5271 8.03409C11.5848 8.00433 11.7118 8.01283 11.8417 8.03834C11.8417 8.03834 11.8301 7.99796 11.8994 8.00008C12.0206 8.00433 12.2052 8.04259 12.2629 8.08509C12.2814 8.10004 12.2961 8.11732 12.3062 8.1361C12.2774 8.10635 12.1966 8.10847 12.1764 8.1106C12.1475 8.11272 12.1273 8.1106 12.0869 8.1191C12.0667 8.12335 12.0379 8.1276 12.0206 8.1361C12.009 8.1446 11.9975 8.17011 11.9802 8.17011C11.9513 8.17011 11.9513 8.16586 11.9426 8.15948C11.934 8.14885 11.9282 8.1361 11.9167 8.13823C11.8878 8.14035 11.8359 8.12335 11.7724 8.08509C11.706 8.04684 11.6801 8.03834 11.5993 8.04259C11.5127 8.04684 11.4896 8.08297 11.4896 8.08297V8.07872Z" fill="#C09300" stroke="#C09300" stroke-width="0.03"/>
<path d="M11.9643 8.13402C11.9834 8.13402 11.9989 8.1226 11.9989 8.10851C11.9989 8.09443 11.9834 8.08301 11.9643 8.08301C11.9452 8.08301 11.9297 8.09443 11.9297 8.10851C11.9297 8.1226 11.9452 8.13402 11.9643 8.13402Z" fill="white"/>
</g>
<defs>
<clipPath id="clip0_6218_6440">
<rect width="24" height="20" rx="4" fill="white"/>
</clipPath>
</defs>
</svg>
