<svg width="45" height="44" viewBox="0 0 45 44" fill="none" xmlns="http://www.w3.org/2000/svg">
<ellipse cx="22.7645" cy="21.9768" rx="21.9768" ry="21.9768" fill="#888888"/>
<path d="M30.5355 14.6523H15.0231C14.3376 14.6531 13.6805 14.9257 13.1958 15.4104C12.7111 15.8951 12.4384 16.5523 12.4377 17.2377V28.318C12.4384 29.0035 12.7111 29.6606 13.1958 30.1453C13.6805 30.63 14.3376 30.9027 15.0231 30.9034H30.5355C31.2209 30.9027 31.8781 30.63 32.3628 30.1453C32.8475 29.6606 33.1201 29.0035 33.1209 28.318V17.2377C33.1201 16.5523 32.8475 15.8951 32.3628 15.4104C31.8781 14.9257 31.2209 14.6531 30.5355 14.6523ZM29.8808 18.9289L23.2326 24.0996C23.103 24.2004 22.9435 24.2551 22.7793 24.2551C22.6151 24.2551 22.4556 24.2004 22.3259 24.0996L15.6778 18.9289C15.5996 18.8699 15.534 18.796 15.4847 18.7114C15.4355 18.6268 15.4035 18.5333 15.3906 18.4363C15.3778 18.3392 15.3844 18.2406 15.41 18.1462C15.4356 18.0517 15.4797 17.9632 15.5398 17.886C15.5998 17.8087 15.6747 17.7441 15.7599 17.696C15.8452 17.6479 15.9391 17.6173 16.0363 17.6058C16.1335 17.5943 16.2321 17.6023 16.3262 17.6292C16.4203 17.6561 16.5081 17.7015 16.5845 17.7627L22.7793 22.5807L28.9741 17.7627C29.129 17.6457 29.3237 17.5944 29.5161 17.6198C29.7086 17.6453 29.8832 17.7455 30.0024 17.8987C30.1215 18.052 30.1756 18.246 30.1528 18.4387C30.1301 18.6315 30.0324 18.8076 29.8808 18.9289Z" fill="white"/>
</svg>
