<svg width="28" height="24" viewBox="0 0 28 24" fill="none" xmlns="http://www.w3.org/2000/svg">
<path d="M10.5 8V8C10.5 6.60355 10.5 5.90533 10.6964 5.34402C11.0482 4.33866 11.8387 3.5482 12.844 3.19641C13.4053 3 14.1036 3 15.5 3H15.9444C16.4626 3 16.7217 3 16.9226 3.09369C17.1357 3.19305 17.3069 3.36431 17.4063 3.57738C17.5 3.77831 17.5 4.03739 17.5 4.55556V5C17.5 5.46594 17.5 5.69891 17.4239 5.88268C17.3224 6.12771 17.1277 6.32239 16.8827 6.42388C16.6989 6.5 16.4659 6.5 16 6.5H15.5C14.9477 6.5 14.5 6.94772 14.5 7.5V7.5V8" stroke="black" stroke-width="1.5" stroke-linecap="round" stroke-linejoin="round"/>
<path d="M10.5 8V10H9.25C8.54777 10 8.19665 10 7.94443 10.1685C7.83524 10.2415 7.74149 10.3352 7.66853 10.4444C7.5 10.6967 7.5 11.0478 7.5 11.75V11.75C7.5 12.4522 7.5 12.8033 7.66853 13.0556C7.74149 13.1648 7.83524 13.2585 7.94443 13.3315C8.19665 13.5 8.54777 13.5 9.25 13.5H10.5V19.2C10.5 19.9499 10.5 20.3249 10.691 20.5878C10.7527 20.6727 10.8273 20.7473 10.9122 20.809C11.1751 21 11.5501 21 12.3 21H12.7C13.4499 21 13.8249 21 14.0878 20.809C14.1727 20.7473 14.2473 20.6727 14.309 20.5878C14.5 20.3249 14.5 19.9499 14.5 19.2V13.5H15.75C16.4522 13.5 16.8033 13.5 17.0556 13.3315C17.1648 13.2585 17.2585 13.1648 17.3315 13.0556C17.5 12.8033 17.5 12.4522 17.5 11.75V11.75C17.5 11.0478 17.5 10.6967 17.3315 10.4444C17.2585 10.3352 17.1648 10.2415 17.0556 10.1685C16.8033 10 16.4522 10 15.75 10H14.5V8" stroke="black" stroke-width="1.5" stroke-linecap="round" stroke-linejoin="round"/>
<path d="M27.5 11.122V12.878H24.8861V16H23.1139V12.878H20.5V11.122H23.1139V8H24.8861V11.122H27.5Z" fill="black"/>
</svg>
