<svg width="21" height="20" viewBox="0 0 21 20" fill="none" xmlns="http://www.w3.org/2000/svg">
<path d="M18.8032 2.93799C17.5082 1.36599 15.7062 0.5 13.7282 0.5C12.5882 0.5 11.4852 0.767024 10.5002 1.27502C9.51619 0.767024 8.41219 0.5 7.27219 0.5C5.29419 0.5 3.49218 1.36599 2.19718 2.93799C0.794179 4.64099 0.212196 6.96596 0.639196 9.15796C1.6332 14.253 6.7912 17.794 8.9632 19.08C9.4372 19.359 9.96818 19.5 10.4992 19.5C11.0302 19.5 11.5622 19.359 12.0362 19.079C14.2082 17.794 19.3662 14.253 20.3602 9.15796C20.7882 6.96596 20.2062 4.64099 18.8032 2.93799ZM18.3972 8.77405C17.5582 13.074 12.9572 16.2091 11.0182 17.3571C10.6992 17.5451 10.3012 17.5451 9.98218 17.3571C8.04318 16.2091 3.44119 13.074 2.60319 8.77405C2.28919 7.16305 2.71419 5.45598 3.74219 4.20898C4.65019 3.10598 5.9042 2.5 7.2732 2.5C8.2432 2.5 9.17319 2.767 9.96219 3.271C10.2902 3.48 10.7102 3.48 11.0382 3.271C11.8282 2.767 12.7572 2.5 13.7272 2.5C15.0972 2.5 16.3512 3.10598 17.2582 4.20898C18.2862 5.45598 18.7122 7.16305 18.3972 8.77405Z" fill="#787878"/>
</svg>
