<svg width="24" height="24" viewBox="0 0 24 24" fill="none" xmlns="http://www.w3.org/2000/svg">
<path d="M8.09091 11L6.52084 8.53275C5.15149 6.38092 4.46682 5.305 4.72588 4.43139C4.80722 4.1571 4.94645 3.90346 5.13419 3.68758C5.73214 3 7.00743 3 9.55802 3H14.442C16.9926 3 18.2679 3 18.8658 3.68758C19.0535 3.90346 19.1928 4.1571 19.2741 4.43139C19.5332 5.305 18.8485 6.38092 17.4792 8.53275L15.9091 11" stroke="white" stroke-width="1.5" stroke-linecap="round" stroke-linejoin="round"/>
<path d="M13.9989 14H9.99893M13.9989 14V17.2297C13.9989 19.1962 13.9989 20.1794 13.626 20.5466C13.3459 20.8225 12.9523 20.9505 12.5634 20.8922C12.0458 20.8145 11.4675 20.0193 10.3109 18.429V18.429C10.1914 18.2646 10.1316 18.1825 10.0901 18.092C10.0578 18.0217 10.0338 17.9478 10.0186 17.872C9.99893 17.7744 9.99893 17.6728 9.99893 17.4696V14M13.9989 14L15.908 11M9.99893 14L8.08984 11" stroke="white" stroke-width="1.5" stroke-linecap="round" stroke-linejoin="round"/>
</svg>
