<svg width="32" height="32" viewBox="0 0 32 32" fill="none" xmlns="http://www.w3.org/2000/svg">
<path d="M12 29.3333H20C26.6667 29.3333 29.3333 26.6666 29.3333 20V12C29.3333 5.33329 26.6667 2.66663 20 2.66663H12C5.33334 2.66663 2.66667 5.33329 2.66667 12V20C2.66667 26.6666 5.33334 29.3333 12 29.3333Z" stroke="#231F20" stroke-width="2" stroke-linecap="round" stroke-linejoin="round"/>
<path opacity="0.4" d="M12 13.3333C13.4728 13.3333 14.6667 12.1394 14.6667 10.6667C14.6667 9.19391 13.4728 8 12 8C10.5272 8 9.33333 9.19391 9.33333 10.6667C9.33333 12.1394 10.5272 13.3333 12 13.3333Z" stroke="#231F20" stroke-width="2" stroke-linecap="round" stroke-linejoin="round"/>
<path opacity="0.4" d="M3.56001 25.2667L10.1333 20.8534C11.1867 20.1467 12.7067 20.2267 13.6533 21.04L14.0933 21.4267C15.1333 22.32 16.8133 22.32 17.8533 21.4267L23.4 16.6667C24.44 15.7734 26.12 15.7734 27.16 16.6667L29.3333 18.5334" stroke="#231F20" stroke-width="2" stroke-linecap="round" stroke-linejoin="round"/>
</svg>
