<svg width="47" height="48" viewBox="0 0 47 48" fill="none" xmlns="http://www.w3.org/2000/svg">
<path d="M44.5739 23.9435C44.5739 35.5823 35.1388 45.0175 23.5 45.0175C11.8612 45.0175 2.42609 35.5823 2.42609 23.9435C2.42609 12.3047 11.8612 2.86963 23.5 2.86963C35.1388 2.86963 44.5739 12.3047 44.5739 23.9435Z" fill="white"/>
<path d="M23.5 38.5386C31.5607 38.5386 38.0951 32.0042 38.0951 23.9435C38.0951 15.8828 31.5607 9.34839 23.5 9.34839C15.4394 9.34839 8.90491 15.8828 8.90491 23.9435C8.90491 32.0042 15.4394 38.5386 23.5 38.5386Z" stroke="#2E2E34" stroke-width="4" stroke-linecap="round" stroke-linejoin="round"/>
<path opacity="0.4" d="M23.5 29.7816C26.7243 29.7816 29.3381 27.1678 29.3381 23.9435C29.3381 20.7192 26.7243 18.1055 23.5 18.1055C20.2758 18.1055 17.662 20.7192 17.662 23.9435C17.662 27.1678 20.2758 29.7816 23.5 29.7816Z" stroke="#2E2E34" stroke-width="4" stroke-linecap="round" stroke-linejoin="round"/>
<path opacity="0.4" d="M23.5 8.37543V4.4834" stroke="#2E2E34" stroke-width="4" stroke-linecap="round" stroke-linejoin="round"/>
<path opacity="0.4" d="M7.93189 23.9435H4.03986" stroke="#2E2E34" stroke-width="4" stroke-linecap="round" stroke-linejoin="round"/>
<path opacity="0.4" d="M23.5 39.5116V43.4036" stroke="#2E2E34" stroke-width="4" stroke-linecap="round" stroke-linejoin="round"/>
<path opacity="0.4" d="M39.0681 23.9435H42.9601" stroke="#2E2E34" stroke-width="4" stroke-linecap="round" stroke-linejoin="round"/>
</svg>
