<svg width="24" height="23" viewBox="0 0 24 23" fill="none" xmlns="http://www.w3.org/2000/svg">
<path d="M14.2275 18.4167C14.0019 18.4167 13.828 18.3451 13.665 18.1817C13.5009 18.0172 13.4293 17.8427 13.4289 17.6184C13.4289 17.6182 13.4289 17.618 13.4289 17.6178L13.4289 13.5269C13.4289 13.3023 13.5002 13.1286 13.6638 12.9653C13.8283 12.8012 14.0028 12.7296 14.2271 12.7292C14.2273 12.7292 14.2275 12.7292 14.2277 12.7292L18.3186 12.7292C18.5433 12.7292 18.7169 12.8005 18.8803 12.9641C19.0444 13.1286 19.1159 13.3031 19.1164 13.5275C19.1164 13.5276 19.1164 13.5278 19.1164 13.528L19.1164 17.619C19.1164 17.8436 19.0451 18.0172 18.8814 18.1806C18.7169 18.3447 18.5424 18.4162 18.3181 18.4167C18.3179 18.4167 18.3177 18.4167 18.3175 18.4167L14.2275 18.4167ZM14.2275 10.2708C14.0019 10.2708 13.828 10.1993 13.665 10.0359C13.5009 9.87141 13.4293 9.69687 13.4289 9.47254C13.4289 9.47236 13.4289 9.47218 13.4289 9.472L13.4289 5.38104C13.4289 5.15642 13.5002 4.98276 13.6638 4.81943C13.8283 4.65532 14.0028 4.58377 14.2272 4.58333H18.3186C18.5433 4.58333 18.7169 4.65463 18.8803 4.81831C19.0444 4.98275 19.1159 5.15729 19.1164 5.38163C19.1164 5.38181 19.1164 5.38199 19.1164 5.38217L19.1164 9.47312C19.1164 9.69775 19.0451 9.8714 18.8814 10.0347C18.7169 10.1988 18.5424 10.2704 18.3181 10.2708H14.2275ZM6.08169 10.2708C5.85609 10.2708 5.68221 10.1993 5.51912 10.0359C5.35501 9.87139 5.28346 9.69684 5.28302 9.47248V5.38104C5.28302 5.15642 5.35432 4.98276 5.518 4.81943C5.68246 4.65532 5.85701 4.58377 6.08137 4.58333H10.1728C10.3974 4.58333 10.5711 4.65463 10.7344 4.81831C10.8985 4.98275 10.9701 5.15729 10.9705 5.38163V9.47312C10.9705 9.69774 10.8992 9.8714 10.7355 10.0347C10.5711 10.1988 10.3966 10.2704 10.1722 10.2708H6.08169ZM6.08169 18.4167C5.85609 18.4167 5.68221 18.3451 5.51912 18.1817C5.35477 18.017 5.28346 17.8427 5.28302 17.6193V13.5278C5.28302 13.3032 5.35432 13.1296 5.518 12.9662C5.68244 12.8021 5.85698 12.7306 6.08131 12.7301C6.08149 12.7301 6.08168 12.7301 6.08186 12.7301L10.1728 12.7301C10.3974 12.7301 10.5711 12.8014 10.7344 12.9651C10.8985 13.1295 10.9701 13.3041 10.9705 13.5284V17.6199C10.9705 17.8445 10.8992 18.0182 10.7355 18.1815C10.5712 18.3455 10.397 18.4167 10.1728 18.4167H6.08169Z" fill="white" stroke="white" stroke-width="1.5"/>
</svg>
