<svg width="24" height="24" viewBox="0 0 24 24" fill="none" xmlns="http://www.w3.org/2000/svg">
<g clip-path="url(#clip0_2079_468)">
<path d="M11 17.9241H13V15.9325H11V17.9241ZM12 1.9917C6.48 1.9917 2 6.45277 2 11.9494C2 17.4461 6.48 21.9072 12 21.9072C17.52 21.9072 22 17.4461 22 11.9494C22 6.45277 17.52 1.9917 12 1.9917ZM12 19.9156C7.59 19.9156 4 16.3408 4 11.9494C4 7.55808 7.59 3.98325 12 3.98325C16.41 3.98325 20 7.55808 20 11.9494C20 16.3408 16.41 19.9156 12 19.9156ZM12 5.9748C9.79 5.9748 8 7.75724 8 9.9579H10C10 8.86255 10.9 7.96635 12 7.96635C13.1 7.96635 14 8.86255 14 9.9579C14 11.9494 11 11.7005 11 14.9368H13C13 12.6963 16 12.4473 16 9.9579C16 7.75724 14.21 5.9748 12 5.9748Z" fill="white"/>
</g>
<defs>
<clipPath id="clip0_2079_468">
<rect width="24" height="23.8986" fill="white"/>
</clipPath>
</defs>
</svg>
