<svg width="26" height="26" viewBox="0 0 26 26" fill="none" xmlns="http://www.w3.org/2000/svg">
<path d="M24.9259 8.17972V14.1612C24.9259 18.9464 22.5333 21.339 17.7481 21.339H17.15C16.7791 21.339 16.4202 21.5184 16.1929 21.8175L14.3985 24.2101C13.6089 25.2628 12.3169 25.2628 11.5274 24.2101L9.73295 21.8175C9.54154 21.5543 9.09891 21.339 8.77591 21.339H8.17777C3.39259 21.339 1 20.1427 1 14.1612V8.17972C1 3.39454 3.39259 1.00195 8.17777 1.00195H12.9629" stroke="#FA6B25" stroke-width="2" stroke-miterlimit="10" stroke-linecap="round" stroke-linejoin="round"/>
<path d="M16.791 4.13516C16.3963 2.95083 16.8628 1.49135 18.1548 1.08461C18.8247 0.881242 19.6622 1.04872 20.1407 1.68276C20.5953 1.0248 21.4566 0.881242 22.1265 1.08461C23.4185 1.47939 23.8851 2.95083 23.4903 4.13516C22.8802 6.01334 20.7388 6.98234 20.1407 6.98234C19.5425 6.98234 17.4251 6.02531 16.791 4.13516Z" stroke="#FA6B25" stroke-width="2" stroke-linecap="round" stroke-linejoin="round"/>
<path d="M17.7439 11.7681H17.7546" stroke="#FA6B25" stroke-width="2" stroke-linecap="round" stroke-linejoin="round"/>
<path d="M12.9575 11.7681H12.9683" stroke="#FA6B25" stroke-width="2" stroke-linecap="round" stroke-linejoin="round"/>
<path d="M8.17123 11.7681H8.18197" stroke="#FA6B25" stroke-width="2" stroke-linecap="round" stroke-linejoin="round"/>
</svg>
