<svg width="20" height="20" viewBox="0 0 20 20" fill="none" xmlns="http://www.w3.org/2000/svg">
<path opacity="0.4" d="M7.49998 8.33333C8.42045 8.33333 9.16665 7.58714 9.16665 6.66667C9.16665 5.74619 8.42045 5 7.49998 5C6.57951 5 5.83331 5.74619 5.83331 6.66667C5.83331 7.58714 6.57951 8.33333 7.49998 8.33333Z" stroke="white" stroke-width="1.25" stroke-linecap="round" stroke-linejoin="round"/>
<path d="M10.8334 1.66699H7.50002C3.33335 1.66699 1.66669 3.33366 1.66669 7.50033V12.5003C1.66669 16.667 3.33335 18.3337 7.50002 18.3337H12.5C16.6667 18.3337 18.3334 16.667 18.3334 12.5003V8.33366" stroke="white" stroke-width="1.25" stroke-linecap="round" stroke-linejoin="round"/>
<g opacity="0.8">
<path d="M15.9507 2.15854L12.9257 5.18354C12.8091 5.30021 12.6924 5.52521 12.6757 5.69187L12.5091 6.85021C12.4507 7.26687 12.7424 7.55854 13.1591 7.50021L14.3174 7.33354C14.4757 7.30854 14.7091 7.20021 14.8257 7.08354L17.8507 4.05854C18.3757 3.53354 18.6174 2.93354 17.8507 2.16687C17.0757 1.38354 16.4757 1.63354 15.9507 2.15854Z" stroke="white" stroke-width="1.25" stroke-miterlimit="10" stroke-linecap="round" stroke-linejoin="round"/>
<path d="M15.516 2.5918C15.7743 3.50846 16.491 4.22513 17.4077 4.48346" stroke="white" stroke-width="1.25" stroke-miterlimit="10" stroke-linecap="round" stroke-linejoin="round"/>
</g>
<path opacity="0.4" d="M2.22504 15.7918L6.33337 13.0335C6.9917 12.5918 7.9417 12.6418 8.53337 13.1501L8.80837 13.3918C9.45837 13.9501 10.5084 13.9501 11.1584 13.3918L14.625 10.4168C15.275 9.85846 16.325 9.85846 16.975 10.4168L18.3334 11.5835" stroke="white" stroke-width="1.25" stroke-linecap="round" stroke-linejoin="round"/>
</svg>
