<svg width="47" height="46" viewBox="0 0 47 46" fill="none" xmlns="http://www.w3.org/2000/svg">
<path d="M29.365 18.8401C30.4456 18.4804 31.6137 18.4804 32.6943 18.8401C33.3996 19.0758 33.9823 19.4879 34.5477 19.9824C35.0882 20.4577 35.7015 21.0922 36.4356 21.8512C37.3121 22.7622 38.19 23.672 39.0691 24.5805C39.9278 25.466 40.2728 26.4013 40.2689 27.651C40.2574 30.8307 40.1903 33.0119 39.278 34.8002C38.4048 36.5127 37.0119 37.9049 35.299 38.7772C32.7211 40.0921 29.4244 39.7701 26.6299 39.7701H20.3701C18.2771 39.7701 16.6173 39.7701 15.2813 39.6608C13.9128 39.5497 12.7571 39.3158 11.701 38.7792C9.98777 37.9063 8.59488 36.5134 7.722 34.8002C7.15659 33.6904 6.93617 32.4829 6.82117 31.0128C6.6525 28.7895 8.5385 26.9897 9.98942 25.5273C10.5778 24.9332 11.1988 24.4348 11.9693 24.1512C13.1383 23.7237 14.4209 23.7237 15.5899 24.1512C16.3604 24.4348 16.9814 24.9332 17.5698 25.5273C18.141 26.1023 18.7812 26.869 19.5555 27.7986C19.6226 27.881 19.728 27.9577 19.8258 27.8561L25.6237 21.8512C26.3597 21.0922 26.9711 20.4577 27.5116 19.9824C28.077 19.4879 28.6616 19.0758 29.365 18.8401ZM29.4091 22.1425C28.9683 22.5297 28.4373 23.0778 27.6515 23.8924L21.8938 29.8532C21.5984 30.1594 21.2418 30.3998 20.8473 30.5589C20.4528 30.718 20.0291 30.7922 19.604 30.7767C19.1789 30.7611 18.7618 30.6562 18.3799 30.4686C17.9981 30.2811 17.66 30.0153 17.3878 29.6884C16.5617 28.6994 16.0001 28.0267 15.5286 27.5532C15.0686 27.0875 14.8003 26.9246 14.6028 26.8517C14.0713 26.6573 13.488 26.6573 12.9564 26.8517C12.759 26.9246 12.4926 27.0875 12.0307 27.5532C11.3215 28.2662 10.6948 29.0617 10.0527 29.8341C9.74409 30.204 9.65975 30.3995 9.69425 30.8691C9.79009 32.1264 9.976 32.8912 10.2827 33.4949C10.8798 34.6667 11.8325 35.6194 13.0043 36.2166C13.5889 36.5137 14.3268 36.6977 15.5152 36.7954C16.7227 36.8932 18.2637 36.8951 20.4333 36.8951H26.5667C28.8513 36.8951 31.8663 37.3014 33.9957 36.2166C35.1675 35.6194 36.1202 34.6667 36.7173 33.4949C37.2578 32.4312 37.3805 30.9975 37.3939 27.6414C37.3958 27.1162 37.3153 26.9016 36.9378 26.5125L34.4078 23.8924C33.6219 23.0778 33.0929 22.5316 32.6502 22.1425C31.6631 21.2762 30.4383 21.2378 29.4091 22.1425Z" fill="#E8E8E8"/>
<path d="M20.3701 6.22852H26.6299C28.7229 6.22852 30.3828 6.22852 31.7187 6.33777C33.0872 6.44893 34.2429 6.68277 35.3009 7.21943C37.0137 8.09313 38.406 9.48669 39.278 11.2003C39.8166 12.2545 40.0504 13.4122 40.1616 14.7807C40.2709 16.1166 40.2709 17.7764 40.2709 19.8694V26.1293C40.2709 28.2223 40.2709 29.8821 40.1616 31.218C40.0504 32.5865 39.8166 33.7423 39.2799 34.8003C38.4062 36.5131 37.0127 37.9053 35.299 38.7773C34.2449 39.3159 33.0872 39.5498 31.7187 39.6609C30.3828 39.7702 28.7229 39.7702 26.6299 39.7702H20.3701C18.2771 39.7702 16.6173 39.7702 15.2814 39.6609C13.9129 39.5498 12.7571 39.3159 11.701 38.7793C9.98779 37.9064 8.5949 36.5135 7.72202 34.8003C7.18344 33.7423 6.9496 32.5865 6.83844 31.218C6.72919 29.8821 6.72919 28.2223 6.72919 26.1293V19.8694C6.72919 17.7764 6.72919 16.1166 6.83844 14.7807C6.9496 13.4122 7.18344 12.2564 7.7201 11.2003C8.59348 9.48682 9.98707 8.0939 11.701 7.22135C12.7552 6.68277 13.9129 6.44893 15.2814 6.33777C16.6173 6.22852 18.2771 6.22852 20.3701 6.22852ZM15.5152 9.20318C14.3269 9.29902 13.5889 9.48493 13.0044 9.78202C11.8326 10.3792 10.8798 11.3319 10.2827 12.5037C9.9856 13.0883 9.8016 13.8262 9.70385 15.0145C9.6061 16.222 9.60419 17.763 9.60419 19.9327V26.066C9.60419 28.2376 9.60419 29.7786 9.70385 30.9842C9.79969 32.1725 9.9856 32.9104 10.2827 33.495C10.8798 34.6668 11.8326 35.6195 13.0044 36.2167C13.5889 36.5138 14.3269 36.6978 15.5152 36.7955C16.7227 36.8933 18.2637 36.8952 20.4334 36.8952H26.5667C28.7383 36.8952 30.2793 36.8952 31.4849 36.7955C32.6732 36.6997 33.4111 36.5138 33.9957 36.2167C35.1675 35.6195 36.1202 34.6668 36.7174 33.495C37.0144 32.9104 37.1984 32.1725 37.2962 30.9842C37.3939 29.7767 37.3959 28.2357 37.3959 26.066V19.9327C37.3959 17.763 37.3959 16.2201 37.2962 15.0145C37.2004 13.8262 37.0144 13.0883 36.7174 12.5037C36.1202 11.3319 35.1675 10.3792 33.9957 9.78202C33.4111 9.48493 32.6732 9.30093 31.4849 9.20318C30.2774 9.10543 28.7364 9.10352 26.5667 9.10352H20.4334C18.2637 9.10352 16.7208 9.10352 15.5152 9.20318Z" fill="#E8E8E8"/>
<path d="M19.6666 14.8535C19.0312 14.8535 18.4218 15.1059 17.9725 15.5552C17.5232 16.0045 17.2708 16.6139 17.2708 17.2493C17.2708 17.8848 17.5232 18.4942 17.9725 18.9435C18.4218 19.3928 19.0312 19.6452 19.6666 19.6452C20.3021 19.6452 20.9114 19.3928 21.3608 18.9435C21.8101 18.4942 22.0625 17.8848 22.0625 17.2493C22.0625 16.6139 21.8101 16.0045 21.3608 15.5552C20.9114 15.1059 20.3021 14.8535 19.6666 14.8535ZM14.3958 17.2493C14.3958 15.8514 14.9511 14.5108 15.9396 13.5223C16.9281 12.5338 18.2687 11.9785 19.6666 11.9785C21.0646 11.9785 22.4052 12.5338 23.3937 13.5223C24.3822 14.5108 24.9375 15.8514 24.9375 17.2493C24.9375 18.6473 24.3822 19.9879 23.3937 20.9764C22.4052 21.9649 21.0646 22.5202 19.6666 22.5202C18.2687 22.5202 16.9281 21.9649 15.9396 20.9764C14.9511 19.9879 14.3958 18.6473 14.3958 17.2493Z" fill="#E8E8E8"/>
</svg>
