<svg width="25" height="23" viewBox="0 0 25 23" fill="none" xmlns="http://www.w3.org/2000/svg">
<circle cx="12.1234" cy="11.2809" r="10.6363" fill="#FA6B25"/>
<path d="M14.9188 11.281C14.9188 14.3415 14.5279 17.0824 13.9148 19.0329C13.6069 20.0126 13.2559 20.7509 12.9014 21.2281C12.5364 21.7193 12.2651 21.8119 12.1233 21.8119C11.9816 21.8119 11.7103 21.7193 11.3453 21.2281C10.9907 20.7509 10.6397 20.0126 10.3318 19.0329C9.71878 17.0824 9.32788 14.3415 9.32788 11.281C9.32788 8.22042 9.71878 5.47954 10.3318 3.52899C10.6397 2.54928 10.9907 1.811 11.3453 1.33383C11.7103 0.842608 11.9816 0.75 12.1233 0.75C12.2651 0.75 12.5364 0.842608 12.9014 1.33383C13.2559 1.811 13.6069 2.54928 13.9148 3.52899C14.5279 5.47954 14.9188 8.22042 14.9188 11.281Z" stroke="#F2F8FD" stroke-width="1.5"/>
<line x1="1.48706" y1="10.209" x2="22.7597" y2="10.209" stroke="#F2F8FD" stroke-width="1.5"/>
<path d="M19.2142 2.74852C20.1275 2.4349 20.897 2.29845 21.4704 2.36353C21.8539 2.40705 22.1497 2.54073 22.3421 2.77184C23.595 4.2766 19.9921 9.34217 14.2946 14.0861C8.5972 18.8301 2.96281 21.4559 1.70988 19.9512C1.23758 19.3839 1.45529 18.3107 2.21508 16.9395C2.24797 16.8802 2.28187 16.8203 2.31678 16.7598" stroke="#F2F8FD" stroke-width="1.5" stroke-linecap="round"/>
</svg>
