<svg width="43" height="43" viewBox="0 0 43 43" fill="none" xmlns="http://www.w3.org/2000/svg">
<g clip-path="url(#clip0_6167_6749)" filter="url(#filter0_d_6167_6749)">
<path d="M36.4202 0H6.58759C5.90235 0 5.24518 0.272209 4.76065 0.756743C4.27612 1.24128 4.00391 1.89845 4.00391 2.58368V32.4163C4.00391 33.1016 4.27612 33.7587 4.76065 34.2433C5.24518 34.7278 5.90235 35 6.58759 35H36.4202C37.1055 35 37.7626 34.7278 38.2472 34.2433C38.7317 33.7587 39.0039 33.1016 39.0039 32.4163V2.58368C39.0039 1.89845 38.7317 1.24128 38.2472 0.756743C37.7626 0.272209 37.1055 0 36.4202 0ZM14.4359 29.8156H9.1737V13.1007H14.4359V29.8156ZM11.8011 10.7844C11.2042 10.781 10.6217 10.6009 10.1271 10.2668C9.63242 9.93268 9.24784 9.45952 9.02185 8.90705C8.79587 8.35457 8.7386 7.74753 8.85729 7.16254C8.97597 6.57755 9.26528 6.04082 9.68872 5.6201C10.1121 5.19938 10.6507 4.91351 11.2365 4.79859C11.8222 4.68366 12.4289 4.74482 12.9799 4.97435C13.5309 5.20388 14.0016 5.59149 14.3325 6.08827C14.6634 6.58504 14.8398 7.16872 14.8393 7.76563C14.845 8.16526 14.7701 8.56193 14.6191 8.93201C14.4682 9.30208 14.2443 9.63798 13.9608 9.91968C13.6773 10.2014 13.3399 10.4231 12.9689 10.5717C12.5979 10.7202 12.2007 10.7926 11.8011 10.7844ZM33.8317 29.8302H28.572V20.6986C28.572 18.0056 27.4272 17.1743 25.9494 17.1743C24.389 17.1743 22.8577 18.3507 22.8577 20.7667V29.8302H17.5956V13.1128H22.656V15.4292H22.724C23.232 14.401 25.0112 12.6438 27.7261 12.6438C30.6622 12.6438 33.8341 14.3865 33.8341 19.4906L33.8317 29.8302Z" fill="#0A66C2"/>
</g>
<defs>
<filter id="filter0_d_6167_6749" x="0.00390625" y="0" width="43" height="43" filterUnits="userSpaceOnUse" color-interpolation-filters="sRGB">
<feFlood flood-opacity="0" result="BackgroundImageFix"/>
<feColorMatrix in="SourceAlpha" type="matrix" values="0 0 0 0 0 0 0 0 0 0 0 0 0 0 0 0 0 0 127 0" result="hardAlpha"/>
<feOffset dy="4"/>
<feGaussianBlur stdDeviation="2"/>
<feComposite in2="hardAlpha" operator="out"/>
<feColorMatrix type="matrix" values="0 0 0 0 0 0 0 0 0 0 0 0 0 0 0 0 0 0 0.15 0"/>
<feBlend mode="normal" in2="BackgroundImageFix" result="effect1_dropShadow_6167_6749"/>
<feBlend mode="normal" in="SourceGraphic" in2="effect1_dropShadow_6167_6749" result="shape"/>
</filter>
<clipPath id="clip0_6167_6749">
<rect width="35" height="35" fill="white" transform="translate(4.00391)"/>
</clipPath>
</defs>
</svg>
