<svg width="18" height="18" viewBox="0 0 18 18" fill="none" xmlns="http://www.w3.org/2000/svg">
<path d="M7.03448 16.5C7.03448 17.3284 6.36291 18 5.53448 18H1.5C0.671573 18 0 17.3284 0 16.5C0 15.6716 0.671573 15 1.5 15H5.53448C6.36291 15 7.03448 15.6716 7.03448 16.5ZM10.5517 9C10.5517 9.82843 9.88015 10.5 9.05172 10.5H1.5C0.671573 10.5 0 9.82843 0 9C0 8.17157 0.671573 7.5 1.5 7.5H9.05172C9.88015 7.5 10.5517 8.17157 10.5517 9ZM18 1.5C18 2.32843 17.3284 3 16.5 3H1.5C0.671573 3 0 2.32843 0 1.5C0 0.671573 0.671573 0 1.5 0H16.5C17.3284 0 18 0.671573 18 1.5Z" fill="#FA6B25"/>
<path d="M14.9644 16.1875V6.1875M14.9644 16.1875L13.1024 13.1875M14.9644 16.1875L16.8265 13.1875" stroke="#FA6B25" stroke-width="2" stroke-linecap="round" stroke-linejoin="round"/>
</svg>
