<svg width="110" height="110" viewBox="0 0 110 110" fill="none" xmlns="http://www.w3.org/2000/svg">
<rect width="110" height="110" rx="20" fill="white"/>
<path d="M55 9C48.9592 9 42.9775 10.1898 37.3966 12.5015C31.8156 14.8133 26.7446 18.2016 22.4731 22.4731C18.2016 26.7446 14.8133 31.8156 12.5015 37.3966C10.1898 42.9775 9 48.9592 9 55C9 61.0408 10.1898 67.0225 12.5015 72.6034C14.8133 78.1844 18.2016 83.2554 22.4731 87.5269C26.7446 91.7984 31.8156 95.1867 37.3966 97.4985C42.9776 99.8102 48.9592 101 55 101C61.0408 101 67.0225 99.8102 72.6035 97.4985C78.1844 95.1867 83.2554 91.7984 87.5269 87.5269C91.7984 83.2554 95.1868 78.1844 97.4985 72.6034C99.8102 67.0224 101 61.0408 101 55C101 48.9592 99.8102 42.9775 97.4984 37.3965C95.1867 31.8156 91.7984 26.7446 87.5269 22.4731C83.2554 18.2016 78.1844 14.8132 72.6034 12.5015C67.0224 10.1898 61.0408 9 55 9L55 9Z" stroke="#DED9DA" stroke-width="3" stroke-linecap="round" stroke-dasharray="16 16"/>
<path d="M53.3946 9.02802C62.8662 8.69726 72.2088 11.3001 80.1449 16.4807C88.081 21.6613 94.2232 29.1667 97.7318 37.9708C101.24 46.7748 101.944 56.4476 99.7462 65.6666C97.5486 74.8857 92.557 83.2009 85.4541 89.4753" stroke="#FF7514" stroke-width="4" stroke-linecap="round"/>
</svg>
