<svg width="20" height="18" viewBox="0 0 20 18" fill="none" xmlns="http://www.w3.org/2000/svg">
<path d="M0.611283 8.64492C0.940568 8.94128 1.26985 9.03452 1.91959 9.03452L9.04418 9.06849C9.11004 9.06849 9.16626 9.06849 9.19477 9.1021C9.22288 9.1274 9.23212 9.17836 9.23212 9.22932L9.26023 15.6501C9.26986 16.2345 9.37347 16.5309 9.70275 16.8272C10.1453 17.2338 10.7665 17.1662 11.2275 16.7597C11.4725 16.5392 11.67 16.1753 11.8487 15.8363L19.0488 1.86017C19.4251 1.14892 19.3781 0.623426 18.9926 0.276111C18.6155 -0.0625303 18.032 -0.104815 17.2418 0.233826L1.71238 6.71391C1.33571 6.87473 0.931332 7.05255 0.686376 7.27301C0.234614 7.68791 0.159521 8.2387 0.611283 8.64528" fill="#00205C"/>
</svg>
