<svg width="18" height="16" viewBox="0 0 18 16" fill="none" xmlns="http://www.w3.org/2000/svg">
<path d="M7.125 4.5V2.75C7.125 2.28587 7.30937 1.84075 7.63756 1.51256C7.96575 1.18437 8.41087 1 8.875 1H15C15.4641 1 15.9092 1.18437 16.2374 1.51256C16.5656 1.84075 16.75 2.28587 16.75 2.75V13.25C16.75 13.7141 16.5656 14.1592 16.2374 14.4874C15.9092 14.8156 15.4641 15 15 15H8.875C8.41087 15 7.96575 14.8156 7.63756 14.4874C7.30937 14.1592 7.125 13.7141 7.125 13.25V11.5" stroke="#EA0029" stroke-linecap="round" stroke-linejoin="round"/>
<path d="M11.5 8H1M1 8L3.625 5.375M1 8L3.625 10.625" stroke="#EA0029" stroke-linecap="round" stroke-linejoin="round"/>
</svg>
