<svg width="25" height="24" viewBox="0 0 25 24" fill="none" xmlns="http://www.w3.org/2000/svg">
<path d="M14.291 10.2006L14.7971 12.6265C14.9972 13.5856 15.0972 14.0651 15.3518 14.1629C15.4299 14.1928 15.5143 14.2028 15.5972 14.1917C15.8675 14.1556 16.0759 13.7122 16.4926 12.8255L17.1173 11.4966C17.2457 11.2233 17.3099 11.0867 17.4233 11.0097C17.4602 10.9847 17.5003 10.9646 17.5425 10.9502C17.6722 10.9059 17.82 10.9368 18.1156 10.9984L19.5281 11.2931C20.5868 11.5139 21.1162 11.6244 21.3082 11.4189C21.3669 11.3562 21.4084 11.2794 21.4287 11.196C21.4954 10.9228 21.113 10.5404 20.3483 9.77565L19.1477 8.57505C18.9563 8.38367 18.8606 8.28798 18.8242 8.1684C18.8123 8.1293 18.8052 8.08888 18.8032 8.04806C18.7969 7.92323 18.8544 7.80075 18.9695 7.55581L19.7113 5.9777C20.1016 5.14741 20.2967 4.73227 20.1595 4.50363C20.1173 4.43326 20.0584 4.37437 19.988 4.33215C19.7594 4.19496 19.3442 4.39009 18.5139 4.78034L16.9358 5.5221C16.6909 5.63723 16.5684 5.69479 16.4436 5.68848C16.4028 5.68641 16.3623 5.67935 16.3232 5.66745C16.2037 5.63105 16.108 5.53536 15.9166 5.34398L14.716 4.14337C13.9512 3.37862 13.5689 2.99624 13.2956 3.06291C13.2122 3.08327 13.1355 3.12476 13.0727 3.1834C12.8673 3.37545 12.9777 3.90482 13.1986 4.96356L13.4932 6.37608C13.5549 6.67167 13.5857 6.81947 13.5414 6.9491C13.527 6.99134 13.507 7.03146 13.4819 7.06838C13.4049 7.18171 13.2683 7.24593 12.995 7.37438L11.6661 7.999C10.7794 8.41577 10.3361 8.62416 10.3 8.89446C10.2889 8.97738 10.2988 9.06175 10.3288 9.13985C10.4265 9.39444 10.9061 9.49447 11.8652 9.69455L14.291 10.2006ZM14.291 10.2006L4.50977 19.9819M19.5 19.25C18.5 19.5 18 20 17.75 21C17.5 20 17 19.5 16 19.25C17 19 17.5 18.5 17.75 17.5C18 18.5 18.5 19 19.5 19.25ZM9 4.75C8 5 7.5 5.5 7.25 6.5C7 5.5 6.5 5 5.5 4.75C6.5 4.5 7 4 7.25 3C7.5 4 8 4.5 9 4.75Z" stroke="black" stroke-width="1.5" stroke-linecap="round" stroke-linejoin="round"/>
</svg>
