<svg width="28" height="28" viewBox="0 0 28 28" fill="none" xmlns="http://www.w3.org/2000/svg">
<path d="M3.49998 4.41666C2.71807 4.41666 2.08331 5.04993 2.08331 5.83333C2.08331 6.61673 2.71807 7.25 3.49998 7.25H18.6666C19.4486 7.25 20.0833 6.61673 20.0833 5.83333C20.0833 5.04993 19.4486 4.41666 18.6666 4.41666H3.49998ZM24.5 12.5833H3.49998C2.71807 12.5833 2.08331 13.2166 2.08331 14C2.08331 14.7834 2.71807 15.4167 3.49998 15.4167H24.5C25.2819 15.4167 25.9166 14.7834 25.9166 14C25.9166 13.2166 25.2819 12.5833 24.5 12.5833ZM14 20.75H3.49998C2.71807 20.75 2.08331 21.3833 2.08331 22.1667C2.08331 22.9501 2.71807 23.5833 3.49998 23.5833H14C14.7819 23.5833 15.4166 22.9501 15.4166 22.1667C15.4166 21.3833 14.7819 20.75 14 20.75Z" fill="white" stroke="white" stroke-width="0.5"/>
</svg>
