<svg width="24" height="24" viewBox="0 0 24 24" fill="none" xmlns="http://www.w3.org/2000/svg">
<path d="M2.99997 12C2.99997 9.67029 2.99997 8.50544 3.38057 7.58658C3.88804 6.36144 4.86141 5.38807 6.08655 4.8806C7.00541 4.5 8.17026 4.5 10.5 4.5H13.5C15.8297 4.5 16.9945 4.5 17.9134 4.8806C19.1385 5.38807 20.1119 6.36144 20.6194 7.58658C21 8.50544 21 9.67029 21 12V12C21 14.3297 21 15.4946 20.6194 16.4134C20.1119 17.6386 19.1385 18.6119 17.9134 19.1194C16.9945 19.5 15.8297 19.5 13.5 19.5H10.5C8.17026 19.5 7.00541 19.5 6.08655 19.1194C4.86141 18.6119 3.88804 17.6386 3.38057 16.4134C2.99997 15.4946 2.99997 14.3297 2.99997 12V12Z" stroke="#292556" stroke-width="1.5" stroke-linejoin="round"/>
<path d="M17.7458 9.60162C17.42 9.85738 17.3632 10.3289 17.619 10.6547C17.8748 10.9805 18.3462 11.0373 18.6721 10.7815L17.7458 9.60162ZM15.5022 13.2269C15.8292 12.9726 15.8881 12.5014 15.6338 12.1745C15.3795 11.8475 14.9083 11.7886 14.5813 12.0429L15.5022 13.2269ZM8.96037 12.6351L8.49993 13.2271L8.96037 12.6351ZM2.54026 8.59202L8.49993 13.2271L9.42081 12.0431L3.46114 7.40798L2.54026 8.59202ZM18.6721 10.7815L21.4638 8.58994L20.5376 7.41006L17.7458 9.60162L18.6721 10.7815ZM8.49993 13.2271C10.5593 14.8288 13.4429 14.8287 15.5022 13.2269L14.5813 12.0429C13.0637 13.2234 10.9385 13.2234 9.42081 12.0431L8.49993 13.2271Z" fill="#292556"/>
</svg>
