<svg width="28" height="28" viewBox="0 0 28 28" fill="none" xmlns="http://www.w3.org/2000/svg">
<g clip-path="url(#clip0_6080_1489)">
<path d="M23.3333 16.3331C23.7828 16.3333 24.2149 16.5065 24.5401 16.8166C24.8654 17.1267 25.0589 17.5501 25.0805 17.999C25.1021 18.4479 24.9501 18.8879 24.6561 19.2279C24.3622 19.5678 23.9487 19.7816 23.5013 19.8249L23.3333 19.8331H8.89118L10.5712 21.5131C10.8894 21.8302 11.0735 22.2575 11.0854 22.7066C11.0972 23.1557 10.9359 23.5921 10.6349 23.9255C10.3338 24.259 9.91608 24.4639 9.46813 24.4978C9.02018 24.5317 8.57634 24.3921 8.22851 24.1078L8.09551 23.9876L3.62834 19.5193C2.49201 18.383 3.23168 16.4661 4.78451 16.3401L4.94784 16.3331H23.3333ZM17.43 4.01312C17.7361 3.70674 18.1449 3.52476 18.5774 3.50235C19.0099 3.47993 19.4354 3.61869 19.7715 3.89178L19.9045 4.01195L24.3717 8.48028C25.508 9.61662 24.7683 11.5334 23.2155 11.6594L23.0522 11.6664H4.66668C4.21726 11.6662 3.78515 11.4931 3.45989 11.183C3.13464 10.8728 2.94116 10.4494 2.91957 10.0005C2.89797 9.55165 3.0499 9.11164 3.34388 8.77171C3.63786 8.43178 4.05135 8.21798 4.49868 8.17462L4.66668 8.16645H19.1088L17.4288 6.48645C17.1011 6.15832 16.917 5.71353 16.917 5.24978C16.917 4.78603 17.1023 4.34124 17.43 4.01312Z" fill="#FA6B25"/>
</g>
<defs>
<clipPath id="clip0_6080_1489">
<rect width="28" height="28" fill="white"/>
</clipPath>
</defs>
</svg>
