<svg width="24" height="25" viewBox="0 0 24 25" fill="none" xmlns="http://www.w3.org/2000/svg">
<path d="M4.02513 4.57258L3.4949 4.04214H3.4949L4.02513 4.57258ZM8.97487 4.57258L9.5051 4.04214L8.97487 4.57258ZM8.97487 9.52039L8.44465 8.98996L8.97487 9.52039ZM14.9853 15.5285L14.4551 14.998L14.9853 15.5285ZM19.935 20.4763L19.4048 19.9458L19.935 20.4763ZM7.56066 16.9421L7.03043 17.4725L7.56066 16.9421ZM3.01853 7.40713L3.76852 7.40288C3.76838 7.37861 3.76707 7.35437 3.76458 7.33024L3.01853 7.40713ZM17.0994 21.4825L17.1762 20.7364C17.1521 20.7339 17.1279 20.7326 17.1036 20.7325L17.0994 21.4825ZM7.05559 10.501L6.9372 9.76042C6.69728 9.79877 6.49081 9.95097 6.38319 10.1688C6.27556 10.3866 6.28013 10.6431 6.39544 10.857L7.05559 10.501ZM14.0043 17.447L13.6486 18.1073C13.8624 18.2225 14.1188 18.227 14.3366 18.1194C14.5543 18.0117 14.7065 17.8053 14.7449 17.5655L14.0043 17.447ZM8.11244 13.4431C8.37099 13.7667 8.84292 13.8194 9.16654 13.5609C9.49015 13.3023 9.54289 12.8304 9.28434 12.5068L8.11244 13.4431ZM11.9948 15.2173C11.6712 14.9588 11.1992 15.0117 10.9408 15.3353C10.6823 15.659 10.7351 16.1309 11.0588 16.3894L11.9948 15.2173ZM4.55535 5.10301C5.62932 4.02946 7.37068 4.02946 8.44465 5.10301L9.5051 4.04214C7.8454 2.38309 5.1546 2.38309 3.4949 4.04214L4.55535 5.10301ZM8.44465 5.10301C9.51845 6.1764 9.51845 7.91657 8.44465 8.98996L9.5051 10.0508C11.165 8.39161 11.165 5.70136 9.5051 4.04214L8.44465 5.10301ZM15.5155 16.0589C16.5895 14.9853 18.3308 14.9853 19.4048 16.0589L20.4653 14.998C18.8055 13.339 16.1148 13.339 14.4551 14.998L15.5155 16.0589ZM19.4048 16.0589C20.4786 17.1323 20.4786 18.8725 19.4048 19.9458L20.4653 21.0067C22.1251 19.3475 22.1251 16.6572 20.4653 14.998L19.4048 16.0589ZM8.09089 16.4117C5.26504 13.5869 3.78435 10.1925 3.76852 7.40288L2.26854 7.41139C2.28711 10.6823 3.99291 14.4362 7.03043 17.4725L8.09089 16.4117ZM3.76458 7.33024C3.6825 6.53384 3.94644 5.71168 4.55535 5.10301L3.4949 4.04214C2.5532 4.98348 2.14608 6.2576 2.27248 7.48403L3.76458 7.33024ZM19.4048 19.9458C18.7959 20.5545 17.9732 20.8185 17.1762 20.7364L17.0225 22.2285C18.2491 22.3548 19.5236 21.948 20.4653 21.0067L19.4048 19.9458ZM17.1036 20.7325C14.3127 20.7167 10.9167 19.2364 8.09089 16.4117L7.03043 17.4725C10.068 20.5089 13.8232 22.2139 17.0951 22.2325L17.1036 20.7325ZM8.44465 8.98996C8.01844 9.416 7.48913 9.67219 6.9372 9.76042L7.17398 11.2416C8.02737 11.1052 8.84804 10.7076 9.5051 10.0508L8.44465 8.98996ZM14.7449 17.5655C14.8331 17.0139 15.0893 16.4849 15.5155 16.0589L14.4551 14.998C13.798 15.6548 13.4002 16.4753 13.2637 17.3285L14.7449 17.5655ZM9.28434 12.5068C8.67114 11.7393 8.14722 10.9453 7.71575 10.1451L6.39544 10.857C6.87072 11.7384 7.4447 12.6073 8.11244 13.4431L9.28434 12.5068ZM14.36 16.7867C13.5585 16.3549 12.7631 15.8309 11.9948 15.2173L11.0588 16.3894C11.8958 17.0578 12.7661 17.6318 13.6486 18.1073L14.36 16.7867Z" fill="#292556"/>
</svg>
