<svg width="17" height="19" viewBox="0 0 17 19" fill="none" xmlns="http://www.w3.org/2000/svg">
<path d="M3.26479 4.41715L2.95956 3.46507C2.62234 2.41319 3.20182 1.28712 4.25377 0.950112V0.950112C5.30557 0.613148 6.43139 1.19264 6.76835 2.24444L7.07351 3.19695M10.8872 15.101L14.1574 14.0533C15.6748 13.5672 15.9195 11.5233 14.5597 10.6927L13.6299 10.1247C12.4797 9.4221 11.6688 8.27756 11.3875 6.95941V6.95941C10.781 4.11824 7.85385 2.42192 5.08717 3.30828L4.94678 3.35325C2.17991 4.23968 0.78319 7.32122 1.94037 9.98623V9.98623C2.47715 11.2224 2.48232 12.6249 1.95468 13.865L1.5282 14.8674C0.904343 16.3336 2.29134 17.8548 3.80882 17.3687L7.0779 16.3214L10.8872 15.101Z" stroke="#FA6B25" stroke-width="1.5" stroke-linejoin="round"/>
</svg>
