<svg width="20" height="20" viewBox="0 0 20 20" fill="none" xmlns="http://www.w3.org/2000/svg">
<path d="M5.41857 5.812C5.65393 3.45837 7.63447 1.66602 9.99984 1.66602C12.3652 1.66602 14.3457 3.45837 14.5811 5.812L14.8199 8.20046C14.9381 9.38166 15.3442 10.5159 16.0027 11.5036L16.7203 12.58C17.247 13.3702 17.5104 13.7652 17.4891 14.0929C17.4709 14.3721 17.3329 14.6298 17.1107 14.7998C16.85 14.9993 16.3751 14.9993 15.4255 14.9993H4.57419C3.62455 14.9993 3.14972 14.9993 2.88894 14.7998C2.66674 14.6298 2.52881 14.3721 2.51061 14.0929C2.48925 13.7652 2.75263 13.3702 3.2794 12.58L3.99701 11.5036C4.6555 10.5159 5.06161 9.38166 5.17973 8.20046L5.41857 5.812Z" fill="white" stroke="white"/>
<path d="M8.3902 17.1912C8.48516 17.2798 8.6944 17.3581 8.98548 17.4139C9.27655 17.4697 9.63319 17.5 10.0001 17.5C10.367 17.5 10.7236 17.4697 11.0147 17.4139C11.3058 17.3581 11.515 17.2798 11.61 17.1912" stroke="white" stroke-linecap="round"/>
</svg>
