<svg width="22" height="24" viewBox="0 0 22 24" fill="none" xmlns="http://www.w3.org/2000/svg">
<path d="M8.8212 3.58337L9.55411 3.38013L9.55386 2.61953L9.55376 2.28818C9.55355 1.6457 10.1411 1.00285 10.9971 1.00267C11.1144 1.00265 11.227 1.01552 11.3334 1.03924C10.5017 2.20153 9.9979 3.61139 9.9984 5.14461C9.99974 9.2211 13.5307 12.4282 17.721 12.4274C18.0015 12.4273 18.2793 12.4107 18.5538 12.3806L18.5553 17.1403L18.5555 17.5742L18.8725 17.8706L20.6883 19.5676L1.31797 19.5715L3.13257 17.8738L3.44945 17.5773L3.44931 17.1433L3.44707 10.2877C3.44608 7.23177 5.58923 4.47961 8.8212 3.58337ZM20.9951 5.1424C20.9956 6.73323 19.5897 8.1418 17.7196 8.14218C15.8495 8.14255 14.4426 6.73455 14.4421 5.14371C14.4416 3.55287 15.8475 2.14431 17.7176 2.14393C19.5878 2.14356 20.9946 3.55156 20.9951 5.1424ZM11.9171 22.712C11.6774 22.8875 11.3663 22.9973 11.0042 22.9974C10.6465 22.9975 10.3364 22.8876 10.0963 22.7124L11.9171 22.712Z" stroke="#FA6B25" stroke-width="2"/>
</svg>
