<svg width="46" height="28" viewBox="0 0 46 28" fill="none" xmlns="http://www.w3.org/2000/svg">
<path d="M44.6126 21.3784H43.5739V26.0423H42.4029V21.3784H41.741V20.4313H42.4029V20.0342C42.4029 19.3893 42.5726 18.9208 42.912 18.6289C43.2583 18.3302 43.798 18.1808 44.5312 18.1808V19.1482C44.1781 19.1482 43.9303 19.2161 43.7878 19.3519C43.6452 19.4809 43.5739 19.7083 43.5739 20.0342V20.4313H44.6126V21.3784Z" fill="#FA6B25"/>
<path d="M41.2316 21.3784H40.1929V26.0423H39.0218V21.3784H38.3599V20.4313H39.0218V20.0342C39.0218 19.3893 39.1916 18.9208 39.531 18.6289C39.8772 18.3302 40.4169 18.1808 41.1501 18.1808V19.1482C40.7971 19.1482 40.5493 19.2161 40.4067 19.3519C40.2642 19.4809 40.1929 19.7083 40.1929 20.0342V20.4313H41.2316V21.3784Z" fill="#FA6B25"/>
<path d="M34.1217 26.1135C33.4632 26.1135 32.8556 25.9608 32.299 25.6553C31.7491 25.343 31.3112 24.9119 30.9853 24.362C30.6663 23.8053 30.5067 23.1808 30.5067 22.4883C30.5067 21.7959 30.6663 21.1747 30.9853 20.6248C31.3112 20.0749 31.7491 19.6472 32.299 19.3417C32.8556 19.0294 33.4632 18.8733 34.1217 18.8733C34.787 18.8733 35.3946 19.0294 35.9445 19.3417C36.5012 19.6472 36.9391 20.0749 37.2582 20.6248C37.5772 21.1747 37.7368 21.7959 37.7368 22.4883C37.7368 23.1808 37.5772 23.8053 37.2582 24.362C36.9391 24.9119 36.5012 25.343 35.9445 25.6553C35.3946 25.9608 34.787 26.1135 34.1217 26.1135ZM34.1217 25.1054C34.5902 25.1054 35.0077 25.0002 35.3743 24.7897C35.7409 24.5725 36.026 24.267 36.2297 23.8732C36.4401 23.4727 36.5453 23.0111 36.5453 22.4883C36.5453 21.9656 36.4401 21.5073 36.2297 21.1136C36.026 20.7198 35.7409 20.4177 35.3743 20.2073C35.0077 19.9968 34.5902 19.8916 34.1217 19.8916C33.6533 19.8916 33.2358 19.9968 32.8692 20.2073C32.5026 20.4177 32.2141 20.7198 32.0036 21.1136C31.8 21.5073 31.6981 21.9656 31.6981 22.4883C31.6981 23.0111 31.8 23.4727 32.0036 23.8732C32.2141 24.267 32.5026 24.5725 32.8692 24.7897C33.2358 25.0002 33.6533 25.1054 34.1217 25.1054Z" fill="#FA6B25"/>
<path d="M34.2276 8.32757C34.2276 5.71766 34.6651 3.68103 35.5401 2.21767C36.4302 0.739223 37.9539 0 40.1112 0C42.2685 0 43.7847 0.739223 44.6597 2.21767C45.5498 3.68103 45.9948 5.71766 45.9948 8.32757C45.9948 10.9677 45.5498 13.0345 44.6597 14.528C43.7847 16.0064 42.2685 16.7457 40.1112 16.7457C37.9539 16.7457 36.4302 16.0064 35.5401 14.528C34.6651 13.0345 34.2276 10.9677 34.2276 8.32757ZM43.4603 8.32757C43.4603 7.10559 43.3774 6.07219 43.2114 5.22736C43.0606 4.38254 42.7438 3.69612 42.261 3.1681C41.7782 2.625 41.0616 2.35345 40.1112 2.35345C39.1608 2.35345 38.4442 2.625 37.9614 3.1681C37.4787 3.69612 37.1543 4.38254 36.9884 5.22736C36.8375 6.07219 36.7621 7.10559 36.7621 8.32757C36.7621 9.59481 36.8375 10.6584 36.9884 11.5183C37.1392 12.3782 37.456 13.0722 37.9388 13.6002C38.4366 14.1282 39.1608 14.3922 40.1112 14.3922C41.0616 14.3922 41.7782 14.1282 42.261 13.6002C42.7588 13.0722 43.0832 12.3782 43.2341 11.5183C43.3849 10.6584 43.4603 9.59481 43.4603 8.32757Z" fill="#FA6B25"/>
<path d="M19.2594 13.3513V11.4052L26.8628 0.497864H29.9857V11.111H32.0902V13.3513H29.9857V16.7909H27.4512V13.3513H19.2594ZM27.5643 3.12286L22.2238 11.111H27.5643V3.12286Z" fill="#FA6B25"/>
<path d="M0 6.75774C0 4.98022 0.50321 3.59229 1.50963 2.59396C2.54001 1.57128 3.85794 1.05994 5.46342 1.05994C7.0689 1.05994 8.37485 1.57128 9.38127 2.59396C10.4117 3.59229 10.9268 4.98022 10.9268 6.75774C10.9268 8.53526 10.4117 9.93536 9.38127 10.958C8.37485 11.9807 7.0689 12.4921 5.46342 12.4921C3.85794 12.4921 2.54001 11.9807 1.50963 10.958C0.50321 9.93536 0 8.53526 0 6.75774ZM21.9256 1.53475L7.5841 26.9557H3.55841L17.8999 1.53475H21.9256ZM5.46342 3.58012C3.95379 3.58012 3.19898 4.63933 3.19898 6.75774C3.19898 8.9005 3.95379 9.97189 5.46342 9.97189C6.1823 9.97189 6.73343 9.71622 7.11683 9.20487C7.52419 8.66918 7.72787 7.85347 7.72787 6.75774C7.72787 4.63933 6.97305 3.58012 5.46342 3.58012ZM14.629 21.6962C14.629 19.9187 15.1322 18.5308 16.1387 17.5324C17.1691 16.5098 18.487 15.9984 20.0925 15.9984C21.674 15.9984 22.9679 16.5098 23.9744 17.5324C25.0047 18.5308 25.5199 19.9187 25.5199 21.6962C25.5199 23.4737 25.0047 24.8738 23.9744 25.8965C22.9679 26.9192 21.674 27.4305 20.0925 27.4305C18.487 27.4305 17.1691 26.9192 16.1387 25.8965C15.1322 24.8738 14.629 23.4737 14.629 21.6962ZM20.0565 18.5186C18.5469 18.5186 17.7921 19.5778 17.7921 21.6962C17.7921 23.8146 18.5469 24.8738 20.0565 24.8738C21.5661 24.8738 22.321 23.8146 22.321 21.6962C22.321 19.5778 21.5661 18.5186 20.0565 18.5186Z" fill="#522452"/>
</svg>
