<svg width="28" height="28" viewBox="0 0 28 28" fill="none" xmlns="http://www.w3.org/2000/svg">
<path d="M14 25.25C13.0797 25.25 12.2 24.8787 10.4416 24.1385C6.06425 22.2946 3.875 21.3732 3.875 19.8219V8.98475M14 25.25C14.9203 25.25 15.8 24.8787 17.5584 24.1385C21.9358 22.2946 24.125 21.3732 24.125 19.8219V8.98475M14 25.25V14.0337C15.0913 14.0337 16.1049 13.5444 18.1344 12.5656L21.4194 10.9794C23.2227 10.1097 24.125 9.67437 24.125 8.98475M3.875 8.98475C3.875 9.67437 4.77725 10.1086 6.58063 10.9782L9.86562 12.5645C11.8951 13.5432 12.9087 14.0315 14 14.0315M3.875 8.98475C3.875 8.29625 4.77725 7.86087 6.58063 6.99125L8.375 6.125M24.125 8.98475C24.125 8.29625 23.2227 7.86087 21.4194 6.99125L19.6756 6.14975M7.25 15.1542L9.5 16.2759" stroke="#FFAF2A" stroke-width="2" stroke-linecap="round" stroke-linejoin="round"/>
<path d="M13.9955 2.74993V10.6249M13.9955 10.6249C13.6996 10.6294 13.4082 10.4224 13.1922 10.1693L11.75 8.44468M13.9955 10.6249C14.2813 10.6216 14.5704 10.4157 14.7987 10.1693L16.25 8.44468" stroke="#FFAF2A" stroke-width="2" stroke-linecap="round" stroke-linejoin="round"/>
</svg>
