<svg width="26" height="26" viewBox="0 0 26 26" fill="none" xmlns="http://www.w3.org/2000/svg">
<path d="M10.8791 1.27806L3.91628 3.53434C2.31163 4.0504 1 5.68261 1 7.14679L1 16.0639C1 17.4801 2.08837 19.3403 3.41395 20.1924L9.41395 24.0449C11.3814 25.3171 14.6186 25.3171 16.586 24.0449L22.586 20.1924C23.9116 19.3403 25 17.4801 25 16.0639L25 7.14679C25 5.67061 23.6884 4.0384 22.0837 3.52234L15.1209 1.27806C13.9349 0.906012 12.0372 0.906012 10.8791 1.27806Z" stroke="#FA6B25" stroke-width="2" stroke-linecap="round" stroke-linejoin="round"/>
<path d="M15.7183 16.4917L10.2532 16.4917C10.009 16.4917 9.73577 16.3267 9.65437 16.1267L7.24739 10.336C6.90437 9.50585 7.30553 9.25082 8.13112 9.76089L10.3986 11.1561C10.7765 11.3811 11.2067 11.2661 11.3695 10.901L12.3927 8.55573C12.7183 7.80564 13.259 7.80564 13.5846 8.55573L14.6079 10.901C14.7707 11.2661 15.2009 11.3811 15.573 11.1561L17.7009 9.8509C18.6079 9.29083 19.0439 9.57586 18.6718 10.481L16.323 16.1367C16.2358 16.3267 15.9625 16.4917 15.7183 16.4917Z" stroke="#FA6B25" stroke-linecap="round" stroke-linejoin="round"/>
<path d="M9.78802 18.0049L16.1834 18.0049" stroke="#FA6B25" stroke-linecap="round" stroke-linejoin="round"/>
<path d="M11.5322 14.0029L14.4392 14.0029" stroke="#FA6B25" stroke-linecap="round" stroke-linejoin="round"/>
</svg>
