<svg width="16" height="21" viewBox="0 0 16 21" fill="none" xmlns="http://www.w3.org/2000/svg">
<path d="M1 17.5V8.7C1 5.70021 1 4.20032 1.76393 3.14886C2.01065 2.80928 2.30928 2.51065 2.64886 2.26393C3.70032 1.5 5.20021 1.5 8.2 1.5H13.2C13.9499 1.5 14.3249 1.5 14.5878 1.69098C14.6727 1.75266 14.7473 1.82732 14.809 1.91221C15 2.17508 15 2.55005 15 3.3V7.5M15 17.5V11.5M5 5.5H11M5 8.5H9M2.5 19.5H13.5C13.9659 19.5 14.1989 19.5 14.3827 19.4239C14.6277 19.3224 14.8224 19.1277 14.9239 18.8827C15 18.6989 15 18.4659 15 18V18C15 17.5341 15 17.3011 14.9239 17.1173C14.8224 16.8723 14.6277 16.6776 14.3827 16.5761C14.1989 16.5 13.9659 16.5 13.5 16.5H2.5C1.67157 16.5 1 17.1716 1 18V18C1 18.8284 1.67157 19.5 2.5 19.5Z" stroke="#292556" stroke-width="1.5" stroke-linecap="round" stroke-linejoin="round"/>
</svg>
