<svg width="26" height="26" viewBox="0 0 26 26" fill="none" xmlns="http://www.w3.org/2000/svg">
<path d="M21.5021 7.22893L21.5021 14.5208C21.5021 18.8818 19.4508 20.7507 16.3737 20.7507L6.12844 20.7507C5.60394 20.7507 5.10275 20.6942 4.63653 20.5668C4.34514 20.5101 4.06542 20.411 3.80899 20.2977C2.06066 19.5048 1 17.6641 1 14.5208L1 7.22893C1 2.86796 3.05137 0.999023 6.12844 0.999023L16.3737 0.999023C18.9845 0.999023 20.8611 2.34412 21.3623 5.41662C21.4439 5.98298 21.5021 6.56346 21.5021 7.22893Z" stroke="#FA6B25" stroke-width="2" stroke-miterlimit="10" stroke-linecap="round" stroke-linejoin="round"/>
<path d="M25 11.477L25 18.7689C25 23.1299 22.9486 24.9988 19.8715 24.9988L9.62627 24.9988C8.76376 24.9988 7.98285 24.8573 7.30683 24.5458C5.91982 23.9228 4.97571 22.6343 4.6377 20.5671C5.10392 20.6946 5.60511 20.7511 6.12961 20.7511L16.3749 20.7511C19.4519 20.7511 21.5033 18.8822 21.5033 14.5212L21.5033 7.2293C21.5033 6.56383 21.4567 5.96919 21.3634 5.41699C23.578 5.98335 25 7.88061 25 11.477Z" stroke="#FA6B25" stroke-width="2" stroke-miterlimit="10" stroke-linecap="round" stroke-linejoin="round"/>
<path d="M11.2433 14.6186C12.9427 14.6186 14.3204 12.945 14.3204 10.8806C14.3204 8.81615 12.9427 7.14258 11.2433 7.14258C9.54387 7.14258 8.1662 8.81615 8.1662 10.8806C8.1662 12.945 9.54387 14.6186 11.2433 14.6186Z" stroke="#FA6B25" stroke-width="2" stroke-miterlimit="10" stroke-linecap="round" stroke-linejoin="round"/>
<path d="M4.57819 7.7666L4.57819 13.9966" stroke="#FA6B25" stroke-width="2" stroke-miterlimit="10" stroke-linecap="round" stroke-linejoin="round"/>
<path d="M17.9141 7.76855L17.9141 13.9985" stroke="#FA6B25" stroke-width="2" stroke-miterlimit="10" stroke-linecap="round" stroke-linejoin="round"/>
</svg>
