<svg width="40" height="40" viewBox="0 0 40 40" fill="none" xmlns="http://www.w3.org/2000/svg">
<rect width="40" height="40" rx="20" fill="white"/>
<path d="M20 2C17.6362 2 15.2956 2.46558 13.1117 3.37017C10.9278 4.27475 8.94353 5.60062 7.27208 7.27208C5.60062 8.94353 4.27475 10.9278 3.37017 13.1117C2.46558 15.2956 2 17.6362 2 20C2 22.3638 2.46558 24.7044 3.37017 26.8883C4.27476 29.0722 5.60063 31.0565 7.27208 32.7279C8.94354 34.3994 10.9278 35.7252 13.1117 36.6298C15.2956 37.5344 17.6362 38 20 38C22.3638 38 24.7044 37.5344 26.8883 36.6298C29.0722 35.7252 31.0565 34.3994 32.7279 32.7279C34.3994 31.0565 35.7253 29.0722 36.6298 26.8883C37.5344 24.7044 38 22.3638 38 20C38 17.6362 37.5344 15.2955 36.6298 13.1117C35.7252 10.9278 34.3994 8.94352 32.7279 7.27207C31.0565 5.60062 29.0722 4.27475 26.8883 3.37016C24.7044 2.46558 22.3638 2 20 2L20 2Z" stroke="#DED9DA" stroke-width="2" stroke-linecap="round"/>
<path d="M20 2C23.0353 2 26.0213 2.76757 28.6804 4.23132C31.3394 5.69508 33.5851 7.80748 35.2087 10.3721C36.8322 12.9367 37.7808 15.8702 37.9663 18.8999C38.1519 21.9295 37.5682 24.9568 36.2697 27.7004" stroke="#FF7514" stroke-width="2" stroke-linecap="round"/>
<path d="M11.654 19.67C12.434 19.7567 13.0623 20.0167 13.539 20.45C14.0243 20.8747 14.267 21.4423 14.267 22.153C14.267 22.725 14.1153 23.2363 13.812 23.687C13.5173 24.129 13.097 24.4757 12.551 24.727C12.005 24.9697 11.3593 25.091 10.614 25.091C9.964 25.091 9.327 24.9957 8.703 24.805C8.08767 24.6057 7.56333 24.3457 7.13 24.025L7.923 22.556C8.29567 22.868 8.69867 23.1063 9.132 23.271C9.56533 23.4357 10.0073 23.518 10.458 23.518C10.8393 23.518 11.1643 23.466 11.433 23.362C11.7017 23.2493 11.9053 23.0933 12.044 22.894C12.1827 22.686 12.252 22.4477 12.252 22.179C12.252 21.7543 12.0917 21.4337 11.771 21.217C11.459 21.0003 11.017 20.892 10.445 20.892H8.976V19.748L11.953 16.849L12.226 17.499H7.598L7.585 15.887H13.812V17.083L10.51 20.216L10.276 19.475L11.654 19.67ZM14.6785 15.9H18.5655V25H16.5115V16.68L17.4085 17.577H14.6785V15.9ZM22.733 15.848C23.4957 15.848 24.098 16.095 24.54 16.589C24.9907 17.0743 25.216 17.7417 25.216 18.591C25.216 19.4403 24.9907 20.112 24.54 20.606C24.098 21.0913 23.4957 21.334 22.733 21.334C22.2217 21.334 21.7797 21.2257 21.407 21.009C21.0344 20.7837 20.744 20.4673 20.536 20.06C20.3367 19.644 20.237 19.1543 20.237 18.591C20.237 17.7417 20.458 17.0743 20.9 16.589C21.3507 16.095 21.9617 15.848 22.733 15.848ZM22.733 16.94C22.3517 16.94 22.0527 17.0873 21.836 17.382C21.628 17.668 21.524 18.071 21.524 18.591C21.524 19.111 21.628 19.5183 21.836 19.813C22.0527 20.1077 22.3517 20.255 22.733 20.255C23.1057 20.255 23.4004 20.1077 23.617 19.813C23.8337 19.5183 23.942 19.111 23.942 18.591C23.942 18.071 23.8337 17.668 23.617 17.382C23.4004 17.0873 23.1057 16.94 22.733 16.94ZM28.791 15.9H30.221L23.669 25H22.213L28.791 15.9ZM29.792 19.553C30.5547 19.553 31.157 19.8 31.599 20.294C32.0497 20.7793 32.275 21.4467 32.275 22.296C32.275 23.1453 32.0497 23.817 31.599 24.311C31.157 24.7963 30.5547 25.039 29.792 25.039C29.2807 25.039 28.8387 24.9307 28.466 24.714C28.0934 24.4887 27.803 24.1723 27.595 23.765C27.3957 23.349 27.296 22.8593 27.296 22.296C27.296 21.4467 27.517 20.7793 27.959 20.294C28.4097 19.8 29.0207 19.553 29.792 19.553ZM29.792 20.645C29.4107 20.645 29.1117 20.7923 28.895 21.087C28.687 21.373 28.583 21.776 28.583 22.296C28.583 22.816 28.687 23.2233 28.895 23.518C29.1117 23.8127 29.4107 23.96 29.792 23.96C30.1647 23.96 30.4594 23.8127 30.676 23.518C30.8927 23.2233 31.001 22.816 31.001 22.296C31.001 21.776 30.8927 21.373 30.676 21.087C30.4594 20.7923 30.1647 20.645 29.792 20.645Z" fill="#FA6B25"/>
</svg>
