<svg width="13" height="16" viewBox="0 0 13 16" fill="none" xmlns="http://www.w3.org/2000/svg">
<path d="M9.06843 10.6216C10.6359 9.57676 11.4197 9.05432 11.5614 8.34257C11.6064 8.11695 11.6064 7.88467 11.5615 7.65904C11.4198 6.94727 10.6361 6.42476 9.0687 5.37972L5.89744 3.26532C3.99908 1.99961 3.04991 1.36676 2.27397 1.58609C2.03066 1.65487 1.80514 1.77556 1.61294 1.93985C1 2.46377 1 3.60457 1 5.88619L1 10.1145C1 12.3959 1 13.5366 1.61288 14.0605C1.80507 14.2248 2.03057 14.3455 2.27387 14.4143C3.04975 14.6337 3.99889 14.001 5.89717 12.7356L9.06843 10.6216Z" stroke="#292556" stroke-width="1.5" stroke-linejoin="round"/>
</svg>
