<svg width="24" height="24" viewBox="0 0 24 24" fill="none" xmlns="http://www.w3.org/2000/svg">
<path d="M10.5 17.999L13.5 17.999L13.5 10.799L10.5 10.799L10.5 17.999ZM12 8.39902C12.425 8.39902 12.7815 8.28382 13.0695 8.05342C13.3575 7.82302 13.501 7.53822 13.5 7.19902C13.499 6.85982 13.355 6.57502 13.068 6.34462C12.781 6.11422 12.425 5.99902 12 5.99902C11.575 5.99902 11.219 6.11422 10.932 6.34462C10.645 6.57502 10.501 6.85982 10.5 7.19902C10.499 7.53822 10.643 7.82342 10.932 8.05462C11.221 8.28582 11.577 8.40062 12 8.39902ZM12 23.999C8.525 23.299 5.656 21.7038 3.393 19.2134C1.13 16.723 -0.000999337 13.9582 6.62695e-07 10.919L6.62594e-07 3.59902L12 -0.000976563L24 3.59902L24 10.919C24 13.959 22.869 16.7242 20.607 19.2146C18.345 21.705 15.476 23.2998 12 23.999ZM12 21.479C14.6 20.819 16.75 19.499 18.45 17.519C20.15 15.539 21 13.339 21 10.919L21 5.24902L12 2.54902L3 5.24902L3 10.919C3 13.339 3.85 15.539 5.55 17.519C7.25 19.499 9.4 20.819 12 21.479Z" fill="#FA6B25"/>
</svg>
