<svg width="24" height="25" viewBox="0 0 24 25" fill="none" xmlns="http://www.w3.org/2000/svg">
<path d="M12 13.5C15.033 13.5 17.5 11.032 17.5 8C17.5 4.968 15.033 2.5 12 2.5C8.967 2.5 6.5 4.968 6.5 8C6.5 11.032 8.967 13.5 12 13.5ZM12 4.5C13.93 4.5 15.5 6.07 15.5 8C15.5 9.93 13.93 11.5 12 11.5C10.07 11.5 8.5 9.93 8.5 8C8.5 6.07 10.07 4.5 12 4.5ZM20 18.467V19.478C20 20.474 19.636 21.429 18.975 22.167C18.777 22.388 18.504 22.5 18.229 22.5C17.992 22.5 17.753 22.416 17.562 22.245C17.15 21.877 17.116 21.244 17.484 20.833C17.816 20.462 17.999 19.98 17.999 19.478V18.467C17.999 17.068 17.072 15.858 15.746 15.525C15.554 15.477 15.349 15.501 15.185 15.595C13.204 16.697 10.786 16.691 8.82397 15.601C8.65097 15.502 8.447 15.477 8.255 15.525C6.926 15.858 6 17.068 6 18.467V19.478C6 19.981 6.18301 20.462 6.51501 20.833C6.88301 21.244 6.84801 21.877 6.43701 22.245C6.02501 22.614 5.39302 22.578 5.02502 22.167C4.36402 21.429 4 20.474 4 19.478V18.467C4 16.15 5.54903 14.142 7.76703 13.585C8.45403 13.41 9.19803 13.511 9.80603 13.858C11.155 14.606 12.836 14.6121 14.204 13.8521C14.803 13.5091 15.547 13.409 16.235 13.584C18.451 14.142 20 16.149 20 18.467Z" fill="#787878"/>
</svg>
