<svg width="20" height="13" viewBox="0 0 20 13" fill="none" xmlns="http://www.w3.org/2000/svg">
<path d="M3.928 10.14C3.33067 10.14 2.79867 9.99067 2.332 9.692C1.86533 9.39333 1.49667 9.01533 1.226 8.558V12.982H-0.00599997V2.692H1.086V4.064C1.37533 3.616 1.75333 3.25667 2.22 2.986C2.68667 2.706 3.19533 2.566 3.746 2.566C4.25 2.566 4.712 2.66867 5.132 2.874C5.552 3.07933 5.916 3.35933 6.224 3.714C6.532 4.06867 6.77 4.47467 6.938 4.932C7.11533 5.38 7.204 5.85133 7.204 6.346C7.204 7.03667 7.064 7.67133 6.784 8.25C6.51333 8.82867 6.13067 9.29067 5.636 9.636C5.14133 9.972 4.572 10.14 3.928 10.14ZM3.55 9.076C3.914 9.076 4.24067 9.00133 4.53 8.852C4.82867 8.69333 5.08067 8.488 5.286 8.236C5.50067 7.97467 5.664 7.68067 5.776 7.354C5.888 7.02733 5.944 6.69133 5.944 6.346C5.944 5.982 5.87867 5.63667 5.748 5.31C5.62667 4.98333 5.44933 4.694 5.216 4.442C4.992 4.19 4.726 3.994 4.418 3.854C4.11933 3.70467 3.79267 3.63 3.438 3.63C3.214 3.63 2.98067 3.672 2.738 3.756C2.50467 3.84 2.28067 3.96133 2.066 4.12C1.85133 4.26933 1.66933 4.442 1.52 4.638C1.37067 4.834 1.27267 5.044 1.226 5.268V7.354C1.366 7.67133 1.55267 7.96067 1.786 8.222C2.01933 8.48333 2.29 8.69333 2.598 8.852C2.906 9.00133 3.22333 9.076 3.55 9.076ZM12.8073 9.636C12.7046 9.68267 12.5646 9.74333 12.3873 9.818C12.2099 9.89267 12.0046 9.958 11.7713 10.014C11.5379 10.07 11.2906 10.098 11.0293 10.098C10.7306 10.098 10.4553 10.0467 10.2033 9.944C9.95128 9.832 9.75061 9.664 9.60128 9.44C9.45195 9.20667 9.37728 8.91733 9.37728 8.572V3.658H8.38328V2.692H9.37728V0.255999H10.6093V2.692H12.2473V3.658H10.6093V8.194C10.6279 8.45533 10.7166 8.65133 10.8753 8.782C11.0339 8.90333 11.2206 8.964 11.4353 8.964C11.6779 8.964 11.9019 8.922 12.1073 8.838C12.3126 8.754 12.4479 8.69333 12.5133 8.656L12.8073 9.636ZM16.8752 10.14C16.2685 10.14 15.6992 10.042 15.1672 9.846C14.6352 9.64067 14.1778 9.33733 13.7952 8.936L14.2712 8.068C14.6912 8.46 15.1112 8.74 15.5312 8.908C15.9512 9.076 16.3805 9.16 16.8192 9.16C17.3232 9.16 17.7338 9.06667 18.0512 8.88C18.3685 8.684 18.5272 8.39933 18.5272 8.026C18.5272 7.75533 18.4432 7.55467 18.2752 7.424C18.1165 7.29333 17.8878 7.186 17.5892 7.102C17.2905 7.00867 16.9358 6.906 16.5252 6.794C16.0212 6.64467 15.5965 6.486 15.2512 6.318C14.9058 6.15 14.6445 5.94 14.4672 5.688C14.2898 5.436 14.2012 5.11867 14.2012 4.736C14.2012 4.26933 14.3225 3.87733 14.5652 3.56C14.8078 3.23333 15.1392 2.986 15.5592 2.818C15.9885 2.65 16.4738 2.566 17.0152 2.566C17.5565 2.566 18.0465 2.65 18.4852 2.818C18.9238 2.986 19.3018 3.23333 19.6192 3.56L19.0592 4.414C18.7698 4.11533 18.4525 3.896 18.1072 3.756C17.7618 3.60667 17.3745 3.532 16.9452 3.532C16.6932 3.532 16.4458 3.56467 16.2032 3.63C15.9605 3.686 15.7598 3.79333 15.6012 3.952C15.4425 4.10133 15.3632 4.316 15.3632 4.596C15.3632 4.82933 15.4238 5.016 15.5452 5.156C15.6758 5.28667 15.8625 5.39867 16.1052 5.492C16.3572 5.58533 16.6605 5.688 17.0152 5.8C17.5658 5.95867 18.0418 6.11733 18.4432 6.276C18.8538 6.43467 19.1712 6.64 19.3952 6.892C19.6192 7.144 19.7312 7.494 19.7312 7.942C19.7312 8.63267 19.4698 9.174 18.9472 9.566C18.4245 9.94867 17.7338 10.14 16.8752 10.14Z" fill="white"/>
</svg>
