<svg width="45" height="44" viewBox="0 0 45 44" fill="none" xmlns="http://www.w3.org/2000/svg">
<ellipse cx="22.3973" cy="21.9768" rx="21.9768" ry="21.9768" fill="#FF4500"/>
<path d="M33.4811 22.5447C33.4844 22.7697 33.4562 22.9943 33.3966 23.2115C33.3369 23.4287 33.2466 23.6369 33.1281 23.8291C33.0101 24.0212 32.8651 24.1961 32.6977 24.3485C32.5304 24.5008 32.3423 24.6289 32.1389 24.7291C32.1435 24.789 32.1472 24.8494 32.1493 24.9098C32.1542 25.0301 32.1542 25.1507 32.1493 25.2711C32.1472 25.3314 32.1435 25.3918 32.1389 25.4517C32.1389 29.1306 27.8141 32.1198 22.4785 32.1198C17.143 32.1198 12.8182 29.1306 12.8182 25.4517C12.8136 25.3918 12.8099 25.3314 12.8078 25.2711C12.8029 25.1507 12.8029 25.0301 12.8078 24.9098C12.8099 24.8494 12.8136 24.789 12.8182 24.7291C12.4995 24.5839 12.2165 24.3718 11.9887 24.1075C11.7609 23.8432 11.5937 23.533 11.4988 23.1984C11.404 22.8636 11.3839 22.5124 11.4396 22.1691C11.4954 21.8258 11.6259 21.4987 11.8219 21.2103C12.0178 20.922 12.2746 20.6794 12.5745 20.4993C12.8745 20.3192 13.2104 20.206 13.5589 20.1674C13.9074 20.1287 14.2603 20.1655 14.5931 20.2754C14.9258 20.3853 15.2305 20.5656 15.486 20.8038C15.9602 20.4852 16.4571 20.201 16.9727 19.9535C17.4885 19.7063 18.0216 19.4961 18.568 19.3253C19.1144 19.1545 19.6728 19.0235 20.2383 18.9327C20.8037 18.842 21.3754 18.7923 21.9483 18.7837L23.1745 13.0847C23.1882 13.0186 23.2151 12.9562 23.2536 12.9003C23.2917 12.8449 23.341 12.7973 23.3978 12.7607C23.4549 12.7242 23.5187 12.6991 23.5858 12.6868C23.6525 12.6749 23.7213 12.6761 23.7876 12.6905L27.8472 13.4953C28.2569 12.7977 29.1169 12.4988 29.8763 12.7895C30.6356 13.0802 31.0697 13.8746 30.8999 14.6638C30.7304 15.453 30.0072 16.0032 29.1944 15.9617C28.3812 15.9202 27.7188 15.2994 27.6318 14.4971L24.0858 13.758L23.0088 18.8822C23.5747 18.8942 24.1393 18.9467 24.6977 19.0391C25.8159 19.2238 26.9014 19.5676 27.9206 20.0598C28.4296 20.3054 28.9201 20.5869 29.3883 20.9024C29.7249 20.582 30.1479 20.3651 30.6062 20.2779C31.0645 20.1903 31.5385 20.236 31.9711 20.4097C32.4038 20.5832 32.7766 20.8771 33.0445 21.2559C33.3124 21.6347 33.4641 22.0824 33.4811 22.5447ZM17.0369 24.8157C17.1206 25.0149 17.2424 25.1959 17.3965 25.3483C17.5502 25.501 17.7329 25.6217 17.9338 25.7047C18.1349 25.7871 18.3504 25.8295 18.568 25.8295C19.2383 25.8295 19.8423 25.4292 20.0991 24.8157C20.3555 24.2019 20.2134 23.4957 19.7395 23.026C19.2656 22.5562 18.5531 22.4154 17.9338 22.6696C17.3149 22.9241 16.911 23.5228 16.911 24.1871C16.911 24.4027 16.9537 24.6162 17.0369 24.8157ZM26.5274 28.7582C26.6124 28.6761 26.6608 28.564 26.6625 28.4466C26.6641 28.3288 26.6182 28.2154 26.5353 28.1313C26.4525 28.0471 26.3394 27.9991 26.2209 27.9974C26.102 27.9958 25.9877 28.0413 25.892 28.1124C25.6428 28.2895 25.379 28.4454 25.1032 28.5784C24.8275 28.7115 24.5409 28.8212 24.2466 28.9065C23.9525 28.9915 23.6513 29.0518 23.3468 29.0867C23.0419 29.1216 22.735 29.1306 22.4288 29.1142C22.1231 29.1278 21.8166 29.1155 21.5129 29.0777C21.2092 29.0403 20.9093 28.9771 20.6165 28.8888C20.3232 28.8009 20.0386 28.6884 19.7648 28.5529C19.491 28.4174 19.2292 28.259 18.9823 28.0795C18.8965 28.0097 18.7876 27.974 18.6765 27.9793C18.5655 27.9847 18.4607 28.0311 18.382 28.1087C18.3037 28.1867 18.2569 28.2906 18.2515 28.4006C18.2461 28.5107 18.2822 28.6186 18.3526 28.7036C18.6438 28.9212 18.9533 29.1134 19.2776 29.2785C19.602 29.4435 19.9404 29.5802 20.2884 29.6878C20.6364 29.7954 20.993 29.873 21.3547 29.9202C21.7163 29.967 22.0813 29.983 22.4454 29.9683C22.8095 29.983 23.1745 29.967 23.5361 29.9202C24.2605 29.8258 24.963 29.6087 25.6132 29.2785C25.9376 29.1134 26.247 28.9212 26.5382 28.7036L26.5274 28.7582ZM26.2234 25.9609C26.4479 25.9633 26.6708 25.9202 26.8783 25.8348C27.0859 25.749 27.2735 25.6225 27.4301 25.4628C27.5867 25.3031 27.7085 25.1134 27.7888 24.9052C27.8693 24.6973 27.9061 24.4753 27.897 24.2528C27.897 23.5885 27.4931 22.9898 26.8742 22.7353C26.2549 22.4811 25.5424 22.6219 25.0685 23.0916C24.5945 23.5614 24.4525 24.2676 24.7089 24.8814C24.9657 25.4948 25.5697 25.8952 26.24 25.8952L26.2234 25.9609Z" fill="white"/>
</svg>
