<svg width="24" height="25" viewBox="0 0 24 25" fill="none" xmlns="http://www.w3.org/2000/svg">
<path d="M15.5366 4.22121C14.8522 3.92846 14.51 3.78208 14.1237 3.93897C14.0161 3.98265 13.8786 4.0734 13.7962 4.15511C13.5 4.44856 13.5 4.88281 13.5 5.75133V10.9998H18.7484C19.6169 10.9998 20.0512 10.9998 20.3446 10.7036C20.4264 10.6211 20.5171 10.4836 20.5608 10.3761C20.7177 9.98979 20.5713 9.64759 20.2785 8.96319C19.3688 6.83636 17.6634 5.13097 15.5366 4.22121Z" stroke="#292556" stroke-width="1.5" stroke-linejoin="round"/>
<path d="M3 12.4998C3 17.4703 7.02944 21.4998 12 21.4998C15.9348 21.4998 19.2798 18.9747 20.503 15.4565C20.7364 14.7853 20.8531 14.4497 20.687 14.0851C20.6404 13.9829 20.5487 13.854 20.4675 13.7764C20.1776 13.4998 19.7635 13.4998 18.9351 13.4998H12.8C12.0501 13.4998 11.6751 13.4998 11.4122 13.3088C11.3273 13.2471 11.2527 13.1724 11.191 13.0875C11 12.8247 11 12.4497 11 11.6998V5.56463C11 4.73629 11 4.32212 10.7233 4.0323C10.6458 3.95105 10.5169 3.85937 10.4146 3.8128C10.05 3.64667 9.71445 3.76335 9.04325 3.99671C5.5251 5.21993 3 8.56496 3 12.4998Z" stroke="#292556" stroke-width="1.5" stroke-linejoin="round"/>
</svg>
