<svg width="18" height="19" viewBox="0 0 18 19" fill="none" xmlns="http://www.w3.org/2000/svg">
<path d="M11.3415 17.6111C11.0449 17.6111 10.8103 17.5142 10.5967 17.3002C10.3821 17.0852 10.2853 16.85 10.2847 16.5548C10.2847 16.5546 10.2847 16.5545 10.2847 16.5543L10.2847 11.7813C10.2847 11.4858 10.3813 11.2514 10.5956 11.0376C10.8106 10.823 11.0458 10.7262 11.341 10.7256C11.3411 10.7256 11.3413 10.7256 11.3415 10.7256L16.1145 10.7256C16.41 10.7256 16.6444 10.8222 16.8582 11.0365C17.0729 11.2516 17.1697 11.487 17.1701 11.7824V16.5554C17.1701 16.8509 17.0735 17.0853 16.8593 17.2991C16.6441 17.5138 16.4088 17.6106 16.1133 17.6111H11.3415ZM1.09322 17.3002L0.563817 17.8285L1.09321 17.3002C0.878396 17.0849 0.781801 16.85 0.78125 16.5559V11.7824C0.78125 11.4869 0.877839 11.2525 1.0921 11.0387C1.30712 10.8242 1.54233 10.7273 1.83748 10.7268C1.83766 10.7268 1.83785 10.7268 1.83804 10.7268L6.61101 10.7268C6.90655 10.7268 7.14089 10.8233 7.3547 11.0376C7.56927 11.2526 7.6661 11.4878 7.66667 11.783V16.5565C7.66667 16.8521 7.57008 17.0864 7.35582 17.3002C7.14093 17.5146 6.90602 17.6111 6.61101 17.6111H1.83803C1.54141 17.6111 1.30678 17.5142 1.09322 17.3002ZM11.3415 8.10758C11.0449 8.10758 10.8103 8.01076 10.5967 7.79674C10.3821 7.58172 10.2853 7.3465 10.2847 7.05135C10.2847 7.05117 10.2847 7.05098 10.2847 7.0508L10.2847 2.27783C10.2847 1.98229 10.3813 1.74794 10.5956 1.53413C10.8106 1.31955 11.0458 1.22272 11.341 1.22217H16.1145C16.41 1.22217 16.6444 1.31876 16.8582 1.53301L17.3854 1.00693L16.8582 1.53302C17.0729 1.74817 17.1697 1.98355 17.1701 2.27896V7.05192C17.1701 7.34746 17.0735 7.58181 16.8593 7.79562L17.3891 8.32651L16.8593 7.79562C16.6443 8.01018 16.4091 8.10702 16.1139 8.10758H11.3415ZM1.83803 8.10758C1.54141 8.10758 1.30678 8.01076 1.09321 7.79674C0.878634 7.5817 0.781802 7.34647 0.78125 7.05129V2.27783C0.78125 1.98229 0.877839 1.74794 1.0921 1.53413C1.30713 1.31955 1.54237 1.22272 1.83754 1.22217H6.61101C6.90655 1.22217 7.14089 1.31876 7.3547 1.53302C7.56927 1.74803 7.6661 1.98325 7.66667 2.2784V7.05192C7.66667 7.34746 7.57008 7.58181 7.35582 7.79562C7.1408 8.01018 6.90558 8.10702 6.61044 8.10758H1.83803Z" fill="#FA6B25" stroke="#FA6B25" stroke-width="1.5"/>
</svg>
