<svg width="21" height="20" viewBox="0 0 21 20" fill="none" xmlns="http://www.w3.org/2000/svg">
<path d="M19.4268 1.07245C18.7239 0.36945 17.7288 0.0935111 16.7638 0.335511L3.65085 3.61347C1.90285 4.05047 0.736848 5.55451 0.749848 7.35651C0.762848 9.15851 1.94885 10.6454 3.70285 11.0584L8.34885 12.1514L9.44186 16.7974C9.85487 18.5514 11.3418 19.7374 13.1438 19.7504C13.1538 19.7504 13.1628 19.7504 13.1728 19.7504C14.9618 19.7504 16.4519 18.5874 16.8869 16.8494L20.1648 3.73651C20.4058 2.77051 20.1298 1.77545 19.4268 1.07245ZM18.7088 3.37042L15.4309 16.4835C15.1019 17.7955 13.9948 18.2345 13.1538 18.2495C12.3088 18.2435 11.2118 17.7695 10.9018 16.4525L9.79782 11.7624L14.0299 7.53046C14.3229 7.23746 14.3229 6.76242 14.0299 6.46942C13.7369 6.17642 13.2618 6.17642 12.9688 6.46942L8.73685 10.7015L4.04685 9.59747C2.72985 9.28747 2.25585 8.1904 2.24985 7.3454C2.24385 6.4994 2.70284 5.39642 4.01584 5.06842L17.1278 1.79047C17.2348 1.76347 17.3428 1.75043 17.4488 1.75043C17.7888 1.75043 18.1169 1.88451 18.3659 2.13251C18.6929 2.45951 18.8208 2.92242 18.7088 3.37042Z" fill="white"/>
</svg>
