<svg width="17" height="18" viewBox="0 0 17 18" fill="none" xmlns="http://www.w3.org/2000/svg">
<path d="M12.0238 14.388L12.021 14.3863L12.4368 14.0043C12.7689 13.6992 13.1861 13.5181 13.641 13.5181C14.6207 13.5181 15.4413 14.3335 15.4413 15.3614C15.4413 16.3894 14.6207 17.2048 13.641 17.2048C12.6614 17.2048 11.8407 16.3894 11.8407 15.3614C11.8407 15.2326 11.8581 15.0952 11.8909 14.9554L12.0238 14.388ZM4.78335 9.50237L4.66965 10.034L4.24262 10.436C3.89748 10.7609 3.45724 10.9517 2.97434 10.9517C1.95026 10.9517 1.10292 10.1093 1.10292 9.03614C1.10292 7.96298 1.95026 7.12055 2.97434 7.12055C3.45724 7.12055 3.89748 7.31143 4.24262 7.6363L4.66965 8.03826L4.78335 8.56992C4.82412 8.76056 4.84577 8.90361 4.84577 9.03614C4.84577 9.16868 4.82412 9.31173 4.78335 9.50237ZM12.3727 4.11069L11.9457 3.70874L11.832 3.17707C11.7912 2.98642 11.7696 2.84337 11.7696 2.71084C11.7696 1.63768 12.6169 0.795245 13.641 0.795245C14.6651 0.795245 15.5124 1.63768 15.5124 2.71084C15.5124 3.78401 14.6651 4.62644 13.641 4.62644C13.1581 4.62644 12.7179 4.43555 12.3727 4.11069Z" fill="white" stroke="white" stroke-width="1.59049"/>
</svg>
