<svg width="24" height="24" viewBox="0 0 24 24" fill="none" xmlns="http://www.w3.org/2000/svg">
<path d="M14.2873 6.5332C14.3611 7.05054 14.5405 7.53385 14.8029 7.96061L10.4187 10.352C10.2212 9.88271 9.9419 9.45631 9.59863 9.09068L14.2873 6.5332Z" fill="#FA6B25"/>
<path d="M9.59863 14.9074L14.2873 17.4648C14.3611 16.9475 14.5405 16.4642 14.8029 16.0374L10.4187 13.646C10.2212 14.1153 9.9419 14.5417 9.59863 14.9074Z" fill="#FA6B25"/>
<path d="M2.25 11.999C2.25 9.65181 4.15279 7.74902 6.5 7.74902C8.84721 7.74902 10.75 9.65181 10.75 11.999C10.75 14.3462 8.84721 16.249 6.5 16.249C4.15279 16.249 2.25 14.3462 2.25 11.999Z" fill="#FA6B25"/>
<path d="M14.25 5.99902C14.25 3.92796 15.9289 2.24902 18 2.24902C20.0711 2.24902 21.75 3.92796 21.75 5.99902C21.75 8.07009 20.0711 9.74902 18 9.74902C15.9289 9.74902 14.25 8.07009 14.25 5.99902Z" fill="#FA6B25"/>
<path d="M14.25 17.999C14.25 15.928 15.9289 14.249 18 14.249C20.0711 14.249 21.75 15.928 21.75 17.999C21.75 20.0701 20.0711 21.749 18 21.749C15.9289 21.749 14.25 20.0701 14.25 17.999Z" fill="#FA6B25"/>
</svg>
