<svg width="24" height="24" viewBox="0 0 24 24" fill="none" xmlns="http://www.w3.org/2000/svg">
<path d="M13.7912 10.2006L14.2972 12.6265C14.4973 13.5856 14.5973 14.0651 14.8519 14.1629C14.93 14.1928 15.0144 14.2028 15.0973 14.1917C15.3676 14.1556 15.576 13.7122 15.9928 12.8255L16.6174 11.4966C16.7458 11.2233 16.8101 11.0867 16.9234 11.0097C16.9603 10.9847 17.0004 10.9646 17.0427 10.9502C17.1723 10.9059 17.3201 10.9368 17.6157 10.9984L19.0282 11.2931C20.0869 11.5139 20.6163 11.6244 20.8084 11.4189C20.867 11.3562 20.9085 11.2794 20.9289 11.196C20.9955 10.9228 20.6131 10.5404 19.8484 9.77565L18.6478 8.57505C18.4564 8.38367 18.3607 8.28798 18.3243 8.1684C18.3124 8.1293 18.3054 8.08888 18.3033 8.04806C18.297 7.92323 18.3545 7.80075 18.4697 7.55581L19.2114 5.9777C19.6017 5.14741 19.7968 4.73227 19.6596 4.50363C19.6174 4.43326 19.5585 4.37437 19.4881 4.33215C19.2595 4.19496 18.8444 4.39009 18.0141 4.78034L16.436 5.5221C16.191 5.63723 16.0685 5.69479 15.9437 5.68848C15.9029 5.68641 15.8625 5.67935 15.8234 5.66745C15.7038 5.63105 15.6081 5.53536 15.4167 5.34398L14.2161 4.14337C13.4514 3.37862 13.069 2.99624 12.7958 3.06291C12.7123 3.08327 12.6356 3.12476 12.5728 3.1834C12.3674 3.37545 12.4778 3.90482 12.6987 4.96356L12.9933 6.37608C13.055 6.67167 13.0858 6.81947 13.0416 6.9491C13.0271 6.99134 13.0071 7.03146 12.982 7.06838C12.9051 7.18171 12.7684 7.24593 12.4952 7.37438L11.1662 7.999C10.2795 8.41577 9.8362 8.62416 9.80009 8.89446C9.78902 8.97738 9.79892 9.06175 9.8289 9.13985C9.92663 9.39444 10.4062 9.49447 11.3653 9.69455L13.7912 10.2006ZM13.7912 10.2006L10.7247 13.2671M4.00989 19.9819L7.89625 16.0955M8.49997 4.74998C7.49997 4.99998 6.99997 5.49998 6.74997 6.49998C6.49997 5.49998 5.99997 4.99998 4.99997 4.74998C5.99997 4.49998 6.49997 3.99998 6.74997 2.99998C6.99997 3.99998 7.49997 4.49998 8.49997 4.74998ZM19 19.25C18 19.5 17.5 20 17.25 21C17 20 16.5 19.5 15.5 19.25C16.5 19 17 18.5 17.25 17.5C17.5 18.5 18 19 19 19.25Z" stroke="#292556" stroke-width="1.5" stroke-linecap="round" stroke-linejoin="round"/>
</svg>
