<svg width="66" height="12" viewBox="0 0 66 12" fill="none" xmlns="http://www.w3.org/2000/svg">
<path d="M3.5332 10.833C3.81152 11.0479 4.1582 10.9795 4.53418 10.7061L7 8.89453L9.45605 10.7061C9.83691 10.9795 10.1836 11.0479 10.4619 10.833C10.7354 10.623 10.7939 10.2764 10.6475 9.84668L9.6709 6.95117L12.1562 5.17383C12.5322 4.90527 12.6982 4.59277 12.5859 4.26074C12.4736 3.93359 12.1611 3.77246 11.6973 3.77734L8.65527 3.80176L7.72754 0.891602C7.58594 0.447266 7.34668 0.198242 7 0.198242C6.64844 0.198242 6.40918 0.447266 6.26758 0.891602L5.33984 3.80176L2.29297 3.77734C1.83398 3.77246 1.52148 3.93359 1.40918 4.25586C1.29688 4.59277 1.46289 4.90527 1.83887 5.17383L4.32422 6.95117L3.34766 9.84668C3.20117 10.2764 3.25977 10.623 3.5332 10.833Z" fill="#EE8834"/>
<path d="M16.5332 10.833C16.8115 11.0479 17.1582 10.9795 17.5342 10.7061L20 8.89453L22.4561 10.7061C22.8369 10.9795 23.1836 11.0479 23.4619 10.833C23.7354 10.623 23.7939 10.2764 23.6475 9.84668L22.6709 6.95117L25.1562 5.17383C25.5322 4.90527 25.6982 4.59277 25.5859 4.26074C25.4736 3.93359 25.1611 3.77246 24.6973 3.77734L21.6553 3.80176L20.7275 0.891602C20.5859 0.447266 20.3467 0.198242 20 0.198242C19.6484 0.198242 19.4092 0.447266 19.2676 0.891602L18.3398 3.80176L15.293 3.77734C14.834 3.77246 14.5215 3.93359 14.4092 4.25586C14.2969 4.59277 14.4629 4.90527 14.8389 5.17383L17.3242 6.95117L16.3477 9.84668C16.2012 10.2764 16.2598 10.623 16.5332 10.833Z" fill="#EE8834"/>
<path d="M29.5332 10.833C29.8115 11.0479 30.1582 10.9795 30.5342 10.7061L33 8.89453L35.4561 10.7061C35.8369 10.9795 36.1836 11.0479 36.4619 10.833C36.7354 10.623 36.7939 10.2764 36.6475 9.84668L35.6709 6.95117L38.1562 5.17383C38.5322 4.90527 38.6982 4.59277 38.5859 4.26074C38.4736 3.93359 38.1611 3.77246 37.6973 3.77734L34.6553 3.80176L33.7275 0.891602C33.5859 0.447266 33.3467 0.198242 33 0.198242C32.6484 0.198242 32.4092 0.447266 32.2676 0.891602L31.3398 3.80176L28.293 3.77734C27.834 3.77246 27.5215 3.93359 27.4092 4.25586C27.2969 4.59277 27.4629 4.90527 27.8389 5.17383L30.3242 6.95117L29.3477 9.84668C29.2012 10.2764 29.2598 10.623 29.5332 10.833Z" fill="#EE8834"/>
<path d="M42.5332 10.833C42.8115 11.0479 43.1582 10.9795 43.5342 10.7061L46 8.89453L48.4561 10.7061C48.8369 10.9795 49.1836 11.0479 49.4619 10.833C49.7354 10.623 49.7939 10.2764 49.6475 9.84668L48.6709 6.95117L51.1562 5.17383C51.5322 4.90527 51.6982 4.59277 51.5859 4.26074C51.4736 3.93359 51.1611 3.77246 50.6973 3.77734L47.6553 3.80176L46.7275 0.891602C46.5859 0.447266 46.3467 0.198242 46 0.198242C45.6484 0.198242 45.4092 0.447266 45.2676 0.891602L44.3398 3.80176L41.293 3.77734C40.834 3.77246 40.5215 3.93359 40.4092 4.25586C40.2969 4.59277 40.4629 4.90527 40.8389 5.17383L43.3242 6.95117L42.3477 9.84668C42.2012 10.2764 42.2598 10.623 42.5332 10.833Z" fill="#EE8834"/>
<path d="M55.5332 10.833C55.8115 11.0479 56.1582 10.9795 56.5342 10.7061L59 8.89453L61.4561 10.7061C61.8369 10.9795 62.1836 11.0479 62.4619 10.833C62.7354 10.623 62.7939 10.2764 62.6475 9.84668L61.6709 6.95117L64.1562 5.17383C64.5322 4.90527 64.6982 4.59277 64.5859 4.26074C64.4736 3.93359 64.1611 3.77246 63.6973 3.77734L60.6553 3.80176L59.7275 0.891602C59.5859 0.447266 59.3467 0.198242 59 0.198242C58.6484 0.198242 58.4092 0.447266 58.2676 0.891602L57.3398 3.80176L54.293 3.77734C53.834 3.77246 53.5215 3.93359 53.4092 4.25586C53.2969 4.59277 53.4629 4.90527 53.8389 5.17383L56.3242 6.95117L55.3477 9.84668C55.2012 10.2764 55.2598 10.623 55.5332 10.833Z" fill="#D2D2D2"/>
</svg>
