<svg width="237" height="235" viewBox="0 0 237 235" fill="none" xmlns="http://www.w3.org/2000/svg">
<g filter="url(#filter0_f_6010_819)">
<circle cx="107.037" cy="56.6954" r="1.7217" transform="rotate(45 107.037 56.6954)" fill="#C726EF"/>
<ellipse cx="1.7217" cy="1.7217" rx="1.7217" ry="1.7217" transform="matrix(-0.707107 -0.707107 -0.707107 0.707107 166.204 101.74)" fill="#C726EF"/>
<circle cx="119.455" cy="54.991" r="1.7217" transform="rotate(45 119.455 54.991)" fill="#C726EF"/>
<ellipse cx="1.7217" cy="1.7217" rx="1.7217" ry="1.7217" transform="matrix(-0.707107 -0.707107 -0.707107 0.707107 178.865 102.714)" fill="#C726EF"/>
<circle cx="122.133" cy="41.5992" r="1.7217" transform="rotate(45 122.133 41.5992)" fill="#C726EF"/>
<ellipse cx="1.7217" cy="1.7217" rx="1.7217" ry="1.7217" transform="matrix(-0.707107 -0.707107 -0.707107 0.707107 175.456 92.4878)" fill="#C726EF"/>
<ellipse cx="132.359" cy="46.9559" rx="1.7217" ry="1.7217" transform="rotate(45 132.359 46.9559)" fill="#C726EF"/>
<circle cx="1.7217" cy="1.7217" r="1.7217" transform="matrix(0.707107 0.707107 0.707107 -0.707107 109.228 71.5479)" fill="#C726EF"/>
<ellipse cx="1.7217" cy="1.7217" rx="1.7217" ry="1.7217" transform="matrix(-0.707107 -0.707107 -0.707107 0.707107 187.63 86.157)" fill="#C726EF"/>
<ellipse cx="155.734" cy="120.488" rx="1.7217" ry="1.7217" transform="rotate(-135 155.734 120.488)" fill="#C726EF"/>
<ellipse cx="139.907" cy="34.5381" rx="1.7217" ry="1.7217" transform="rotate(45 139.907 34.5381)" fill="#C726EF"/>
<circle cx="1.7217" cy="1.7217" r="1.7217" transform="matrix(0.707107 0.707107 0.707107 -0.707107 95.593 80.3135)" fill="#C726EF"/>
<ellipse cx="1.7217" cy="1.7217" rx="1.7217" ry="1.7217" transform="matrix(-0.707107 -0.707107 -0.707107 0.707107 178.865 74.9568)" fill="#C726EF"/>
<ellipse cx="146.481" cy="111.236" rx="1.7217" ry="1.7217" transform="rotate(-135 146.481 111.236)" fill="#C726EF"/>
<ellipse cx="146.968" cy="45.4949" rx="1.7217" ry="1.7217" transform="rotate(45 146.968 45.4949)" fill="#C726EF"/>
<ellipse cx="1.7217" cy="1.7217" rx="1.7217" ry="1.7217" transform="matrix(0.707107 0.707107 0.707107 -0.707107 110.932 88.3484)" fill="#C726EF"/>
<circle cx="1.7217" cy="1.7217" r="1.7217" transform="matrix(-0.707107 -0.707107 -0.707107 0.707107 187.387 67.8958)" fill="#C726EF"/>
<ellipse cx="136.255" cy="124.384" rx="1.7217" ry="1.72171" transform="rotate(-135 136.255 124.384)" fill="#C726EF"/>
<ellipse cx="157.195" cy="37.7034" rx="1.7217" ry="1.7217" transform="rotate(45 157.195 37.7034)" fill="#C726EF"/>
<circle cx="1.7217" cy="1.7217" r="1.7217" transform="matrix(0.707107 0.707107 0.707107 -0.707107 102.411 97.8445)" fill="#C726EF"/>
<ellipse cx="1.7217" cy="1.7217" rx="1.7217" ry="1.7217" transform="matrix(-0.707107 -0.707107 -0.707107 0.707107 173.995 60.3477)" fill="#C726EF"/>
<circle cx="131.872" cy="107.827" r="1.7217" transform="rotate(-135 131.872 107.827)" fill="#C726EF"/>
<ellipse cx="160.847" cy="49.6343" rx="1.7217" ry="1.7217" transform="rotate(45 160.847 49.6343)" fill="#C726EF"/>
<circle cx="1.7217" cy="1.7217" r="1.7217" transform="matrix(0.707107 0.707107 0.707107 -0.707107 117.02 99.3052)" fill="#C726EF"/>
<ellipse cx="170.83" cy="51.3387" rx="1.7217" ry="1.7217" transform="rotate(45 170.83 51.3387)" fill="#C726EF"/>
<circle cx="1.7217" cy="1.7217" r="1.7217" transform="matrix(0.707107 0.707107 0.707107 -0.707107 116.046 112.454)" fill="#C726EF"/>
<ellipse cx="1.24665" cy="1.24117" rx="1.24665" ry="1.24117" transform="matrix(-0.262494 0.964934 -0.966908 -0.255124 145.846 65.9146)" fill="#EAA800"/>
<ellipse cx="1.24665" cy="1.24117" rx="1.24665" ry="1.24117" transform="matrix(0.262494 -0.964934 -0.966908 -0.255124 138.451 93.1008)" fill="#EAA800"/>
<ellipse cx="1.24665" cy="1.24117" rx="1.24665" ry="1.24117" transform="matrix(-0.262494 0.964934 -0.966908 -0.255124 148.639 66.5227)" fill="#EAA800"/>
<ellipse cx="1.24665" cy="1.24117" rx="1.24665" ry="1.24117" transform="matrix(0.262494 -0.964934 -0.966908 -0.255124 141.178 93.9495)" fill="#EAA800"/>
<ellipse cx="1.24665" cy="1.24117" rx="1.24665" ry="1.24117" transform="matrix(-0.262494 0.964934 -0.966908 -0.255124 151.389 67.7637)" fill="#EAA800"/>
<ellipse cx="1.24665" cy="1.24117" rx="1.24665" ry="1.24117" transform="matrix(0.262494 -0.964934 -0.966908 -0.255124 144.189 94.2283)" fill="#EAA800"/>
<ellipse cx="1.24665" cy="1.24117" rx="1.24665" ry="1.24117" transform="matrix(-0.262494 0.964934 -0.966908 -0.255124 153.854 69.5747)" fill="#EAA800"/>
<ellipse cx="1.24665" cy="1.24117" rx="1.24665" ry="1.24117" transform="matrix(-0.262494 0.964934 0.966908 0.255124 140.031 65.5408)" fill="#EAA800"/>
<ellipse cx="1.24665" cy="1.24117" rx="1.24665" ry="1.24117" transform="matrix(0.262494 -0.964934 -0.966908 -0.255124 147.244 93.8738)" fill="#EAA800"/>
<ellipse cx="1.24665" cy="1.24117" rx="1.24665" ry="1.24117" transform="matrix(0.262494 -0.964934 0.966908 0.255124 133.159 90.8022)" fill="#EAA800"/>
<ellipse cx="1.24665" cy="1.24117" rx="1.24665" ry="1.24117" transform="matrix(-0.262494 0.964934 -0.966908 -0.255124 155.764 72.0125)" fill="#EAA800"/>
<ellipse cx="1.24665" cy="1.24117" rx="1.24665" ry="1.24117" transform="matrix(-0.262494 0.964934 0.966908 0.255124 136.748 66.7371)" fill="#EAA800"/>
<ellipse cx="1.24665" cy="1.24117" rx="1.24665" ry="1.24117" transform="matrix(0.262494 -0.964934 -0.966908 -0.255124 150.135 92.7029)" fill="#EAA800"/>
<ellipse cx="1.24665" cy="1.24117" rx="1.24665" ry="1.24117" transform="matrix(0.262494 -0.964934 0.966908 0.255124 130.89 88.2695)" fill="#EAA800"/>
<ellipse cx="1.24665" cy="1.24117" rx="1.24665" ry="1.24117" transform="matrix(-0.262494 0.964934 -0.966908 -0.255124 156.942 74.7729)" fill="#EAA800"/>
<ellipse cx="1.24665" cy="1.24117" rx="1.24665" ry="1.24117" transform="matrix(-0.262494 0.964934 0.966908 0.255124 133.9 68.6931)" fill="#EAA800"/>
<ellipse cx="1.24665" cy="1.24117" rx="1.24665" ry="1.24117" transform="matrix(0.262494 -0.964934 -0.966908 -0.255124 152.557 90.8921)" fill="#EAA800"/>
<ellipse cx="1.24665" cy="1.24117" rx="1.24665" ry="1.24117" transform="matrix(0.262494 -0.964934 0.966908 0.255124 129.45 85.053)" fill="#EAA800"/>
<ellipse cx="1.24665" cy="1.24117" rx="1.24665" ry="1.24117" transform="matrix(-0.262494 0.964934 -0.966908 -0.255124 157.728 77.5588)" fill="#EAA800"/>
<ellipse cx="1.24665" cy="1.24117" rx="1.24665" ry="1.24117" transform="matrix(-0.262494 0.964934 0.966908 0.255124 131.806 70.719)" fill="#EAA800"/>
<ellipse cx="1.24665" cy="1.24117" rx="1.24665" ry="1.24117" transform="matrix(0.262494 -0.964934 -0.966908 -0.255124 154.652 88.8662)" fill="#EAA800"/>
<ellipse cx="1.24665" cy="1.24117" rx="1.24665" ry="1.24117" transform="matrix(0.262494 -0.964934 0.966908 0.255124 128.729 82.0266)" fill="#EAA800"/>
<ellipse cx="1.24665" cy="1.24117" rx="1.24665" ry="1.24117" transform="matrix(-0.262494 0.964934 -0.966908 -0.255124 157.575 80.4839)" fill="#EAA800"/>
<ellipse cx="1.24665" cy="1.24117" rx="1.24665" ry="1.24117" transform="matrix(-0.262494 0.964934 0.966908 0.255124 130.453 73.3276)" fill="#EAA800"/>
<ellipse cx="1.24665" cy="1.24117" rx="1.24665" ry="1.24117" transform="matrix(-0.262494 0.964934 -0.966908 -0.255124 156.79 83.3708)" fill="#EAA800"/>
<ellipse cx="1.24665" cy="1.24117" rx="1.24665" ry="1.24117" transform="matrix(-0.262494 0.964934 0.966908 0.255124 129.667 76.2146)" fill="#EAA800"/>
</g>
<g filter="url(#filter1_f_6010_819)">
<circle cx="207.816" cy="126.16" r="1.78211" transform="rotate(-180 207.816 126.16)" fill="#3762A3"/>
<circle cx="1.78211" cy="1.78211" r="1.78211" transform="matrix(1 0 0 -1 169.322 127.942)" fill="#3762A3"/>
<ellipse cx="207.994" cy="130.259" rx="1.78211" ry="1.78211" transform="rotate(-180 207.994 130.259)" fill="#3762A3"/>
<ellipse cx="1.78211" cy="1.78211" rx="1.78211" ry="1.78211" transform="matrix(1 -1.88652e-07 1.5885e-07 -1 169.144 132.041)" fill="#3762A3"/>
<circle cx="207.281" cy="134.536" r="1.78211" transform="rotate(180 207.281 134.536)" fill="#3762A3"/>
<ellipse cx="1.78211" cy="1.78211" rx="1.78211" ry="1.78211" transform="matrix(1 -1.88652e-07 1.5885e-07 -1 169.857 136.318)" fill="#3762A3"/>
<ellipse cx="205.677" cy="138.635" rx="1.78211" ry="1.78211" transform="rotate(180 205.677 138.635)" fill="#3762A3"/>
<circle cx="1.78211" cy="1.78211" r="1.78211" transform="matrix(-1 -5.16191e-08 5.56119e-08 1 207.994 119.745)" fill="#3762A3"/>
<ellipse cx="1.78211" cy="1.78211" rx="1.78211" ry="1.78211" transform="matrix(1 -1.88652e-07 1.5885e-07 -1 171.461 140.417)" fill="#3762A3"/>
<circle cx="172.352" cy="121.527" r="1.78211" fill="#3762A3"/>
<ellipse cx="203.004" cy="142.199" rx="1.78211" ry="1.78211" transform="rotate(-180 203.004 142.199)" fill="#3762A3"/>
<ellipse cx="1.78211" cy="1.78211" rx="1.78211" ry="1.78211" transform="matrix(-1 5.56119e-08 -5.16191e-08 1 205.143 115.646)" fill="#3762A3"/>
<circle cx="1.78211" cy="1.78211" r="1.78211" transform="matrix(1 0 0 -1 174.134 143.981)" fill="#3762A3"/>
<ellipse cx="175.025" cy="117.428" rx="1.78211" ry="1.78211" fill="#3762A3"/>
<ellipse cx="199.618" cy="144.872" rx="1.78211" ry="1.78211" transform="rotate(-180 199.618 144.872)" fill="#3762A3"/>
<ellipse cx="1.78211" cy="1.78211" rx="1.78211" ry="1.78211" transform="matrix(-1 5.56119e-08 -5.16191e-08 1 201.4 112.438)" fill="#3762A3"/>
<ellipse cx="1.78211" cy="1.78211" rx="1.78211" ry="1.78211" transform="matrix(1 -3.21693e-07 3.47503e-07 -1 177.52 146.655)" fill="#3762A3"/>
<circle cx="178.946" cy="114.22" r="1.78211" fill="#3762A3"/>
<ellipse cx="196.054" cy="147.011" rx="1.78211" ry="1.78211" transform="rotate(180 196.054 147.011)" fill="#3762A3"/>
<ellipse cx="1.78211" cy="1.78211" rx="1.78211" ry="1.78211" transform="matrix(-1 5.56119e-08 -5.16191e-08 1 197.836 110.299)" fill="#3762A3"/>
<circle cx="1.78211" cy="1.78211" r="1.78211" transform="matrix(1 0 0 -1 181.084 148.793)" fill="#3762A3"/>
<ellipse cx="182.866" cy="112.081" rx="1.78211" ry="1.78211" fill="#3762A3"/>
<ellipse cx="191.955" cy="147.902" rx="1.78211" ry="1.78211" transform="rotate(-180 191.955 147.902)" fill="#3762A3"/>
<ellipse cx="1.78211" cy="1.78211" rx="1.78211" ry="1.78211" transform="matrix(-1 1.07231e-07 -7.74287e-08 1 193.737 109.408)" fill="#3762A3"/>
<ellipse cx="187.678" cy="147.902" rx="1.78211" ry="1.78211" transform="rotate(-180 187.678 147.902)" fill="#3762A3"/>
<ellipse cx="1.78211" cy="1.78211" rx="1.78211" ry="1.78211" transform="matrix(-1 5.56119e-08 -5.16191e-08 1 189.46 109.408)" fill="#3762A3"/>
<ellipse cx="0.323115" cy="0.320658" rx="0.323115" ry="0.320658" transform="matrix(0.864926 -0.501899 0.498084 0.867129 183.074 134.875)" fill="#C726EF"/>
<ellipse cx="0.323115" cy="0.320659" rx="0.323115" ry="0.320659" transform="matrix(-0.864926 0.501899 0.498084 0.867129 194.549 126.437)" fill="#C726EF"/>
<ellipse cx="0.323115" cy="0.320659" rx="0.323115" ry="0.320659" transform="matrix(0.864926 -0.501899 0.498084 0.867129 183.378 132.548)" fill="#C726EF"/>
<ellipse cx="0.323115" cy="0.320659" rx="0.323115" ry="0.320659" transform="matrix(-0.864926 0.501899 0.498084 0.867129 195.347 124.194)" fill="#C726EF"/>
<ellipse cx="0.323115" cy="0.320659" rx="0.323115" ry="0.320659" transform="matrix(0.864926 -0.501899 0.498084 0.867129 181.094 131.427)" fill="#C726EF"/>
<ellipse cx="0.323115" cy="0.320659" rx="0.323115" ry="0.320659" transform="matrix(-0.864926 0.501899 0.498084 0.867129 193.335 124.323)" fill="#C726EF"/>
<ellipse cx="0.323115" cy="0.320659" rx="0.323115" ry="0.320659" transform="matrix(0.864926 -0.501899 0.498084 0.867129 182.563 129.833)" fill="#C726EF"/>
<ellipse cx="0.323115" cy="0.320659" rx="0.323115" ry="0.320659" transform="matrix(0.864926 -0.501899 -0.498084 -0.867129 186.3 135.301)" fill="#C726EF"/>
<ellipse cx="0.323115" cy="0.320659" rx="0.323115" ry="0.320659" transform="matrix(-0.864926 0.501899 0.498084 0.867129 192.792 121.821)" fill="#C726EF"/>
<ellipse cx="0.323115" cy="0.320659" rx="0.323115" ry="0.320659" transform="matrix(-0.864926 0.501899 -0.498084 -0.867129 197.855 129.338)" fill="#C726EF"/>
<ellipse cx="0.323115" cy="0.320659" rx="0.323115" ry="0.320659" transform="matrix(0.864926 -0.501899 0.498084 0.867129 180.695 127.877)" fill="#C726EF"/>
<ellipse cx="0.323115" cy="0.320658" rx="0.323115" ry="0.320658" transform="matrix(0.864926 -0.501899 -0.498084 -0.867129 187.211 138.184)" fill="#C726EF"/>
<ellipse cx="0.323115" cy="0.320659" rx="0.323115" ry="0.320659" transform="matrix(-0.864926 0.501899 0.498084 0.867129 190.34 122.873)" fill="#C726EF"/>
<ellipse cx="0.323114" cy="0.320658" rx="0.323114" ry="0.320658" transform="matrix(-0.864926 0.501899 -0.498084 -0.867129 195.731 130.57)" fill="#C726EF"/>
<ellipse cx="0.323115" cy="0.320659" rx="0.323115" ry="0.320659" transform="matrix(0.864926 -0.501899 0.498084 0.867129 183.018 127.122)" fill="#C726EF"/>
<ellipse cx="0.323115" cy="0.320659" rx="0.323115" ry="0.320659" transform="matrix(0.864926 -0.501899 -0.498084 -0.867129 189.415 135.792)" fill="#C726EF"/>
<ellipse cx="0.323115" cy="0.320659" rx="0.323115" ry="0.320659" transform="matrix(-0.864926 0.501899 0.498084 0.867129 189.486 120.996)" fill="#C726EF"/>
<ellipse cx="0.323115" cy="0.320658" rx="0.323115" ry="0.320658" transform="matrix(-0.864926 0.501899 -0.498084 -0.867129 197.599 133.045)" fill="#C726EF"/>
<ellipse cx="0.323115" cy="0.320659" rx="0.323115" ry="0.320659" transform="matrix(0.864926 -0.501899 0.498084 0.867129 182.116 124.902)" fill="#C726EF"/>
<ellipse cx="0.323115" cy="0.320659" rx="0.323115" ry="0.320659" transform="matrix(0.864926 -0.501899 -0.498084 -0.867129 190.708 137.785)" fill="#C726EF"/>
<ellipse cx="0.323115" cy="0.320659" rx="0.323115" ry="0.320659" transform="matrix(-0.864926 0.501899 0.498084 0.867129 187.466 123.058)" fill="#C726EF"/>
<ellipse cx="0.323115" cy="0.320658" rx="0.323115" ry="0.320658" transform="matrix(-0.864926 0.501899 -0.498084 -0.867129 194.397 133.05)" fill="#C726EF"/>
<ellipse cx="0.323115" cy="0.320659" rx="0.323115" ry="0.320659" transform="matrix(0.864926 -0.501899 0.498084 0.867129 184.447 124.81)" fill="#C726EF"/>
<ellipse cx="0.323115" cy="0.320659" rx="0.323115" ry="0.320659" transform="matrix(0.864926 -0.501899 -0.498084 -0.867129 191.69 135.213)" fill="#C726EF"/>
<ellipse cx="0.323115" cy="0.320659" rx="0.323115" ry="0.320659" transform="matrix(0.864926 -0.501899 0.498084 0.867129 185.246 123.086)" fill="#C726EF"/>
<ellipse cx="0.323115" cy="0.320658" rx="0.323115" ry="0.320658" transform="matrix(0.864926 -0.501899 -0.498084 -0.867129 194.014 136.015)" fill="#C726EF"/>
</g>
<g filter="url(#filter2_f_6010_819)">
<ellipse cx="149.118" cy="138.461" rx="1.7217" ry="1.7217" transform="rotate(120 149.118 138.461)" fill="#D95656"/>
<circle cx="1.7217" cy="1.7217" r="1.7217" transform="matrix(0.5 -0.866025 -0.866025 -0.5 120.921 207.27)" fill="#D95656"/>
<ellipse cx="153.978" cy="150.014" rx="1.7217" ry="1.7217" transform="rotate(120 153.978 150.014)" fill="#D95656"/>
<ellipse cx="1.7217" cy="1.7217" rx="1.7217" ry="1.7217" transform="matrix(0.5 -0.866025 -0.866025 -0.5 123.257 219.752)" fill="#D95656"/>
<ellipse cx="167.606" cy="149.135" rx="1.7217" ry="1.7217" transform="rotate(120 167.606 149.135)" fill="#D95656"/>
<circle cx="1.7217" cy="1.7217" r="1.7217" transform="matrix(0.5 -0.866025 -0.866025 -0.5 132.253 213.812)" fill="#D95656"/>
<ellipse cx="165.079" cy="160.399" rx="1.7217" ry="1.7217" transform="rotate(120 165.079 160.399)" fill="#D95656"/>
<ellipse cx="1.7217" cy="1.7217" rx="1.7217" ry="1.7217" transform="matrix(-0.5 0.866025 0.866025 0.5 135.338 144.421)" fill="#D95656"/>
<ellipse cx="1.72171" cy="1.7217" rx="1.72171" ry="1.7217" transform="matrix(0.5 -0.866025 -0.866025 -0.5 141.519 223.933)" fill="#D95656"/>
<circle cx="100.102" cy="202.009" r="1.7217" transform="rotate(-60 100.102 202.009)" fill="#D95656"/>
<ellipse cx="179.027" cy="164.476" rx="1.7217" ry="1.7217" transform="rotate(120 179.027 164.476)" fill="#D95656"/>
<ellipse cx="1.7217" cy="1.7217" rx="1.7217" ry="1.7217" transform="matrix(-0.5 0.866025 0.866025 0.5 123.342 133.52)" fill="#D95656"/>
<ellipse cx="1.7217" cy="1.7217" rx="1.7217" ry="1.7217" transform="matrix(0.5 -0.866025 -0.866025 -0.5 150.069 212.568)" fill="#D95656"/>
<circle cx="106.644" cy="190.677" r="1.7217" transform="rotate(-60 106.644 190.677)" fill="#D95656"/>
<ellipse cx="170.271" cy="174.133" rx="1.7217" ry="1.7217" transform="rotate(120 170.271 174.133)" fill="#D95656"/>
<circle cx="1.7217" cy="1.7217" r="1.7217" transform="matrix(-0.5 0.866025 0.866025 0.5 119.551 150.416)" fill="#D95656"/>
<ellipse cx="1.7217" cy="1.7217" rx="1.7217" ry="1.7217" transform="matrix(0.5 -0.866025 -0.866025 -0.5 159.095 218.972)" fill="#D95656"/>
<circle cx="91.2972" cy="184.203" r="1.7217" transform="rotate(-60 91.2972 184.203)" fill="#D95656"/>
<ellipse cx="180.444" cy="181.994" rx="1.7217" ry="1.7217" transform="rotate(120 180.444 181.994)" fill="#D95656"/>
<circle cx="1.7217" cy="1.7217" r="1.7217" transform="matrix(-0.5 0.866025 0.866025 0.5 108.173 144.642)" fill="#D95656"/>
<ellipse cx="1.7217" cy="1.7217" rx="1.7217" ry="1.7217" transform="matrix(0.5 -0.866025 -0.866025 -0.5 162.92 204.083)" fill="#D95656"/>
<circle cx="106.156" cy="175.684" r="1.7217" transform="rotate(-60 106.156 175.684)" fill="#D95656"/>
<ellipse cx="169.865" cy="188.61" rx="1.7217" ry="1.7217" transform="rotate(120 169.865 188.61)" fill="#D95656"/>
<circle cx="1.7217" cy="1.7217" r="1.7217" transform="matrix(-0.5 0.866025 0.866025 0.5 110.543 159.132)" fill="#D95656"/>
<ellipse cx="170.803" cy="198.694" rx="1.7217" ry="1.7217" transform="rotate(120 170.803 198.694)" fill="#D95656"/>
<circle cx="1.7217" cy="1.7217" r="1.7217" transform="matrix(-0.5 0.866025 0.866025 0.5 97.5909 161.594)" fill="#D95656"/>
<ellipse cx="0.624323" cy="0.619578" rx="0.624323" ry="0.619578" transform="matrix(0.864926 -0.501899 0.498084 0.867129 125.112 188.938)" fill="#0ACF83"/>
<ellipse cx="0.624323" cy="0.619578" rx="0.624323" ry="0.619578" transform="matrix(-0.864926 0.501899 0.498084 0.867129 147.282 172.634)" fill="#0ACF83"/>
<ellipse cx="0.624323" cy="0.619577" rx="0.624323" ry="0.619577" transform="matrix(0.864926 -0.501899 0.498084 0.867129 125.698 184.443)" fill="#0ACF83"/>
<ellipse cx="0.624323" cy="0.619577" rx="0.624323" ry="0.619577" transform="matrix(-0.864926 0.501899 0.498084 0.867129 148.825 168.301)" fill="#0ACF83"/>
<ellipse cx="0.624323" cy="0.619578" rx="0.624323" ry="0.619578" transform="matrix(0.864926 -0.501899 0.498084 0.867129 121.285 182.276)" fill="#0ACF83"/>
<ellipse cx="0.624323" cy="0.619577" rx="0.624323" ry="0.619577" transform="matrix(-0.864926 0.501899 0.498084 0.867129 144.937 168.551)" fill="#0ACF83"/>
<ellipse cx="0.624323" cy="0.619577" rx="0.624323" ry="0.619577" transform="matrix(0.864926 -0.501899 0.498084 0.867129 124.124 179.196)" fill="#0ACF83"/>
<ellipse cx="0.624323" cy="0.619578" rx="0.624323" ry="0.619578" transform="matrix(0.864926 -0.501899 -0.498084 -0.867129 131.345 189.762)" fill="#0ACF83"/>
<ellipse cx="0.624323" cy="0.619578" rx="0.624323" ry="0.619578" transform="matrix(-0.864926 0.501899 0.498084 0.867129 143.887 163.716)" fill="#0ACF83"/>
<ellipse cx="0.624323" cy="0.619578" rx="0.624323" ry="0.619578" transform="matrix(-0.864926 0.501899 -0.498084 -0.867129 153.67 178.24)" fill="#0ACF83"/>
<ellipse cx="0.624323" cy="0.619578" rx="0.624323" ry="0.619578" transform="matrix(0.864926 -0.501899 0.498084 0.867129 120.513 175.417)" fill="#0ACF83"/>
<ellipse cx="0.624323" cy="0.619578" rx="0.624323" ry="0.619578" transform="matrix(0.864926 -0.501899 -0.498084 -0.867129 133.104 195.331)" fill="#0ACF83"/>
<ellipse cx="0.624323" cy="0.619577" rx="0.624323" ry="0.619577" transform="matrix(-0.864926 0.501899 0.498084 0.867129 139.151 165.748)" fill="#0ACF83"/>
<ellipse cx="0.624323" cy="0.619577" rx="0.624323" ry="0.619577" transform="matrix(-0.864926 0.501899 -0.498084 -0.867129 149.566 180.621)" fill="#0ACF83"/>
<ellipse cx="0.624323" cy="0.619577" rx="0.624323" ry="0.619577" transform="matrix(0.864926 -0.501899 0.498084 0.867129 125.003 173.958)" fill="#0ACF83"/>
<ellipse cx="0.624323" cy="0.619577" rx="0.624323" ry="0.619577" transform="matrix(0.864926 -0.501899 -0.498084 -0.867129 137.362 190.711)" fill="#0ACF83"/>
<ellipse cx="0.624323" cy="0.619578" rx="0.624323" ry="0.619578" transform="matrix(-0.864926 0.501899 0.498084 0.867129 137.5 162.122)" fill="#0ACF83"/>
<ellipse cx="0.624323" cy="0.619578" rx="0.624323" ry="0.619578" transform="matrix(-0.864926 0.501899 -0.498084 -0.867129 153.177 185.403)" fill="#0ACF83"/>
<ellipse cx="0.624323" cy="0.619578" rx="0.624323" ry="0.619578" transform="matrix(0.864926 -0.501899 0.498084 0.867129 123.259 169.669)" fill="#0ACF83"/>
<ellipse cx="0.624323" cy="0.619578" rx="0.624323" ry="0.619578" transform="matrix(0.864926 -0.501899 -0.498084 -0.867129 139.862 194.562)" fill="#0ACF83"/>
<ellipse cx="0.624323" cy="0.619578" rx="0.624323" ry="0.619578" transform="matrix(-0.864926 0.501899 0.498084 0.867129 133.596 166.106)" fill="#0ACF83"/>
<ellipse cx="0.624323" cy="0.619578" rx="0.624323" ry="0.619578" transform="matrix(-0.864926 0.501899 -0.498084 -0.867129 146.99 185.411)" fill="#0ACF83"/>
<ellipse cx="0.624323" cy="0.619578" rx="0.624323" ry="0.619578" transform="matrix(0.864926 -0.501899 0.498084 0.867129 127.765 169.49)" fill="#0ACF83"/>
<ellipse cx="0.624323" cy="0.619577" rx="0.624323" ry="0.619577" transform="matrix(0.864926 -0.501899 -0.498084 -0.867129 141.759 189.592)" fill="#0ACF83"/>
<ellipse cx="0.624323" cy="0.619578" rx="0.624323" ry="0.619578" transform="matrix(0.864926 -0.501899 0.498084 0.867129 129.307 166.159)" fill="#0ACF83"/>
<ellipse cx="0.624323" cy="0.619577" rx="0.624323" ry="0.619577" transform="matrix(0.864926 -0.501899 -0.498084 -0.867129 146.249 191.142)" fill="#0ACF83"/>
<ellipse cx="0.624323" cy="0.619578" rx="0.624323" ry="0.619578" transform="matrix(0.864926 -0.501899 0.498084 0.867129 60.295 116.228)" fill="#DCEF64"/>
<ellipse cx="0.624323" cy="0.619577" rx="0.624323" ry="0.619577" transform="matrix(-0.864926 0.501899 0.498084 0.867129 61.4412 115.607)" fill="#DCEF64"/>
<ellipse cx="0.624323" cy="0.619578" rx="0.624323" ry="0.619578" transform="matrix(0.864926 -0.501899 0.498084 0.867129 60.295 116.228)" fill="#DCEF64"/>
<ellipse cx="0.624323" cy="0.619577" rx="0.624323" ry="0.619577" transform="matrix(-0.864926 0.501899 0.498084 0.867129 61.4412 115.607)" fill="#DCEF64"/>
<ellipse cx="0.624323" cy="0.619578" rx="0.624323" ry="0.619578" transform="matrix(0.864926 -0.501899 0.498084 0.867129 60.295 116.228)" fill="#DCEF64"/>
<ellipse cx="0.624323" cy="0.619577" rx="0.624323" ry="0.619577" transform="matrix(-0.864926 0.501899 0.498084 0.867129 61.4412 115.607)" fill="#DCEF64"/>
<ellipse cx="0.624323" cy="0.619578" rx="0.624323" ry="0.619578" transform="matrix(0.864926 -0.501899 0.498084 0.867129 60.295 116.228)" fill="#DCEF64"/>
<ellipse cx="0.624323" cy="0.619578" rx="0.624323" ry="0.619578" transform="matrix(0.864926 -0.501899 -0.498084 -0.867129 60.9722 117.302)" fill="#DCEF64"/>
<ellipse cx="0.624323" cy="0.619577" rx="0.624323" ry="0.619577" transform="matrix(-0.864926 0.501899 0.498084 0.867129 61.4412 115.607)" fill="#DCEF64"/>
<ellipse cx="0.624323" cy="0.619577" rx="0.624323" ry="0.619577" transform="matrix(-0.864926 0.501899 -0.498084 -0.867129 61.986 116.682)" fill="#DCEF64"/>
<ellipse cx="0.624323" cy="0.619578" rx="0.624323" ry="0.619578" transform="matrix(0.864926 -0.501899 0.498084 0.867129 60.295 116.228)" fill="#DCEF64"/>
<circle cx="5" cy="5" r="5" transform="matrix(0.866025 -0.5 -0.5 -0.866025 59.5847 123.479)" fill="#DCEF64"/>
<ellipse cx="0.624323" cy="0.619577" rx="0.624323" ry="0.619577" transform="matrix(-0.864926 0.501899 0.498084 0.867129 61.4412 115.607)" fill="#DCEF64"/>
<ellipse cx="0.624323" cy="0.619577" rx="0.624323" ry="0.619577" transform="matrix(-0.864926 0.501899 -0.498084 -0.867129 61.986 116.682)" fill="#DCEF64"/>
<ellipse cx="0.624323" cy="0.619578" rx="0.624323" ry="0.619578" transform="matrix(0.864926 -0.501899 0.498084 0.867129 60.295 116.228)" fill="#DCEF64"/>
<ellipse cx="0.624323" cy="0.619578" rx="0.624323" ry="0.619578" transform="matrix(0.864926 -0.501899 -0.498084 -0.867129 60.9722 117.302)" fill="#DCEF64"/>
<ellipse cx="0.624323" cy="0.619577" rx="0.624323" ry="0.619577" transform="matrix(-0.864926 0.501899 0.498084 0.867129 61.4412 115.607)" fill="#DCEF64"/>
<ellipse cx="0.624323" cy="0.619578" rx="0.624323" ry="0.619578" transform="matrix(-0.864926 0.501899 -0.498084 -0.867129 61.9644 116.66)" fill="#DCEF64"/>
<ellipse cx="0.624323" cy="0.619578" rx="0.624323" ry="0.619578" transform="matrix(0.864926 -0.501899 0.498084 0.867129 60.295 116.228)" fill="#DCEF64"/>
<ellipse cx="0.624323" cy="0.619578" rx="0.624323" ry="0.619578" transform="matrix(0.864926 -0.501899 -0.498084 -0.867129 60.9722 117.302)" fill="#DCEF64"/>
<ellipse cx="0.624323" cy="0.619577" rx="0.624323" ry="0.619577" transform="matrix(-0.864926 0.501899 0.498084 0.867129 61.4412 115.607)" fill="#DCEF64"/>
<ellipse cx="0.624323" cy="0.619577" rx="0.624323" ry="0.619577" transform="matrix(-0.864926 0.501899 -0.498084 -0.867129 61.986 116.682)" fill="#DCEF64"/>
<ellipse cx="0.624323" cy="0.619578" rx="0.624323" ry="0.619578" transform="matrix(0.864926 -0.501899 0.498084 0.867129 60.295 116.228)" fill="#DCEF64"/>
<ellipse cx="0.624323" cy="0.619578" rx="0.624323" ry="0.619578" transform="matrix(0.864926 -0.501899 -0.498084 -0.867129 60.9722 117.302)" fill="#DCEF64"/>
<ellipse cx="0.624323" cy="0.619578" rx="0.624323" ry="0.619578" transform="matrix(0.864926 -0.501899 0.498084 0.867129 60.295 116.228)" fill="#808755"/>
<ellipse cx="0.624323" cy="0.619577" rx="0.624323" ry="0.619577" transform="matrix(0.864926 -0.501899 -0.498084 -0.867129 60.9722 117.302)" fill="#DCEF64"/>
</g>
<g filter="url(#filter3_f_6010_819)">
<ellipse cx="73.115" cy="75.8929" rx="1.7217" ry="1.7217" transform="rotate(120 73.115 75.8929)" fill="#FF7262"/>
<circle cx="1.7217" cy="1.7217" r="1.7217" transform="matrix(0.5 -0.866025 -0.866025 -0.5 44.9186 144.702)" fill="#FF7262"/>
<ellipse cx="77.9753" cy="87.4464" rx="1.7217" ry="1.7217" transform="rotate(120 77.9753 87.4464)" fill="#FF7262"/>
<ellipse cx="1.7217" cy="1.7217" rx="1.7217" ry="1.7217" transform="matrix(0.5 -0.866025 -0.866025 -0.5 47.2548 157.184)" fill="#FF7262"/>
<ellipse cx="91.6039" cy="86.5674" rx="1.7217" ry="1.7217" transform="rotate(120 91.6039 86.5674)" fill="#FF7262"/>
<circle cx="1.7217" cy="1.7217" r="1.7217" transform="matrix(0.5 -0.866025 -0.866025 -0.5 56.2505 151.245)" fill="#FF7262"/>
<ellipse cx="89.0765" cy="97.8318" rx="1.7217" ry="1.7217" transform="rotate(120 89.0765 97.8318)" fill="#FF7262"/>
<ellipse cx="1.7217" cy="1.7217" rx="1.7217" ry="1.7217" transform="matrix(-0.5 0.866025 0.866025 0.5 59.3357 81.8538)" fill="#FF7262"/>
<ellipse cx="1.72171" cy="1.7217" rx="1.72171" ry="1.7217" transform="matrix(0.5 -0.866025 -0.866025 -0.5 65.5164 161.366)" fill="#FF7262"/>
<circle cx="24.0992" cy="139.442" r="1.7217" transform="rotate(-60 24.0992 139.442)" fill="#FF7262"/>
<ellipse cx="103.025" cy="101.909" rx="1.7217" ry="1.7217" transform="rotate(120 103.025 101.909)" fill="#FF7262"/>
<ellipse cx="1.7217" cy="1.7217" rx="1.7217" ry="1.7217" transform="matrix(-0.5 0.866025 0.866025 0.5 47.3398 70.9519)" fill="#FF7262"/>
<ellipse cx="1.7217" cy="1.7217" rx="1.7217" ry="1.7217" transform="matrix(0.5 -0.866025 -0.866025 -0.5 74.0663 150)" fill="#FF7262"/>
<circle cx="30.6417" cy="128.11" r="1.7217" transform="rotate(-60 30.6417 128.11)" fill="#FF7262"/>
<ellipse cx="94.2687" cy="111.565" rx="1.7217" ry="1.7217" transform="rotate(120 94.2687 111.565)" fill="#FF7262"/>
<circle cx="1.7217" cy="1.7217" r="1.7217" transform="matrix(-0.5 0.866025 0.866025 0.5 43.5487 87.8484)" fill="#FF7262"/>
<ellipse cx="1.7217" cy="1.7217" rx="1.7217" ry="1.7217" transform="matrix(0.5 -0.866025 -0.866025 -0.5 83.0925 156.404)" fill="#FF7262"/>
<circle cx="15.2946" cy="121.635" r="1.7217" transform="rotate(-60 15.2946 121.635)" fill="#FF7262"/>
<ellipse cx="104.442" cy="119.426" rx="1.7217" ry="1.7217" transform="rotate(120 104.442 119.426)" fill="#FF7262"/>
<circle cx="1.7217" cy="1.7217" r="1.7217" transform="matrix(-0.5 0.866025 0.866025 0.5 32.1707 82.0745)" fill="#FF7262"/>
<ellipse cx="1.7217" cy="1.7217" rx="1.7217" ry="1.7217" transform="matrix(0.5 -0.866025 -0.866025 -0.5 86.9174 141.515)" fill="#FF7262"/>
<circle cx="30.1532" cy="113.116" r="1.7217" transform="rotate(-60 30.1532 113.116)" fill="#FF7262"/>
<ellipse cx="93.8626" cy="126.042" rx="1.7217" ry="1.7217" transform="rotate(120 93.8626 126.042)" fill="#FF7262"/>
<circle cx="1.7217" cy="1.7217" r="1.7217" transform="matrix(-0.5 0.866025 0.866025 0.5 34.5406 96.564)" fill="#FF7262"/>
<ellipse cx="94.8001" cy="136.126" rx="1.7217" ry="1.7217" transform="rotate(120 94.8001 136.126)" fill="#FF7262"/>
<circle cx="1.7217" cy="1.7217" r="1.7217" transform="matrix(-0.5 0.866025 0.866025 0.5 21.5884 99.0261)" fill="#FF7262"/>
<ellipse cx="0.624323" cy="0.619578" rx="0.624323" ry="0.619578" transform="matrix(0.864926 -0.501899 0.498084 0.867129 49.1091 126.37)" fill="#ECB425"/>
<ellipse cx="0.624323" cy="0.619578" rx="0.624323" ry="0.619578" transform="matrix(-0.864926 0.501899 0.498084 0.867129 71.2795 110.066)" fill="#ECB425"/>
<ellipse cx="0.624323" cy="0.619577" rx="0.624323" ry="0.619577" transform="matrix(0.864926 -0.501899 0.498084 0.867129 49.6952 121.875)" fill="#ECB425"/>
<ellipse cx="0.624323" cy="0.619577" rx="0.624323" ry="0.619577" transform="matrix(-0.864926 0.501899 0.498084 0.867129 72.8221 105.733)" fill="#ECB425"/>
<ellipse cx="0.624323" cy="0.619578" rx="0.624323" ry="0.619578" transform="matrix(0.864926 -0.501899 0.498084 0.867129 45.2825 119.708)" fill="#ECB425"/>
<ellipse cx="0.624323" cy="0.619577" rx="0.624323" ry="0.619577" transform="matrix(-0.864926 0.501899 0.498084 0.867129 68.9341 105.983)" fill="#ECB425"/>
<ellipse cx="0.624323" cy="0.619577" rx="0.624323" ry="0.619577" transform="matrix(0.864926 -0.501899 0.498084 0.867129 48.1212 116.628)" fill="#ECB425"/>
<ellipse cx="0.624323" cy="0.619578" rx="0.624323" ry="0.619578" transform="matrix(0.864926 -0.501899 -0.498084 -0.867129 55.3424 127.194)" fill="#ECB425"/>
<ellipse cx="0.624323" cy="0.619578" rx="0.624323" ry="0.619578" transform="matrix(-0.864926 0.501899 0.498084 0.867129 67.8848 101.148)" fill="#ECB425"/>
<ellipse cx="0.624323" cy="0.619578" rx="0.624323" ry="0.619578" transform="matrix(-0.864926 0.501899 -0.498084 -0.867129 77.6672 115.672)" fill="#ECB425"/>
<ellipse cx="0.624323" cy="0.619578" rx="0.624323" ry="0.619578" transform="matrix(0.864926 -0.501899 0.498084 0.867129 44.5106 112.849)" fill="#ECB425"/>
<ellipse cx="0.624323" cy="0.619578" rx="0.624323" ry="0.619578" transform="matrix(0.864926 -0.501899 -0.498084 -0.867129 57.1016 132.763)" fill="#ECB425"/>
<ellipse cx="0.624323" cy="0.619577" rx="0.624323" ry="0.619577" transform="matrix(-0.864926 0.501899 0.498084 0.867129 63.1482 103.18)" fill="#ECB425"/>
<ellipse cx="0.624323" cy="0.619577" rx="0.624323" ry="0.619577" transform="matrix(-0.864926 0.501899 -0.498084 -0.867129 73.5634 118.053)" fill="#ECB425"/>
<ellipse cx="0.624323" cy="0.619577" rx="0.624323" ry="0.619577" transform="matrix(0.864926 -0.501899 0.498084 0.867129 49.0004 111.39)" fill="#ECB425"/>
<ellipse cx="0.624323" cy="0.619577" rx="0.624323" ry="0.619577" transform="matrix(0.864926 -0.501899 -0.498084 -0.867129 61.3596 128.143)" fill="#ECB425"/>
<ellipse cx="0.624323" cy="0.619578" rx="0.624323" ry="0.619578" transform="matrix(-0.864926 0.501899 0.498084 0.867129 61.4972 99.5537)" fill="#ECB425"/>
<ellipse cx="0.624323" cy="0.619578" rx="0.624323" ry="0.619578" transform="matrix(-0.864926 0.501899 -0.498084 -0.867129 77.174 122.835)" fill="#ECB425"/>
<ellipse cx="0.624323" cy="0.619578" rx="0.624323" ry="0.619578" transform="matrix(0.864926 -0.501899 0.498084 0.867129 47.2567 107.101)" fill="#ECB425"/>
<ellipse cx="0.624323" cy="0.619578" rx="0.624323" ry="0.619578" transform="matrix(0.864926 -0.501899 -0.498084 -0.867129 63.8593 131.994)" fill="#ECB425"/>
<ellipse cx="0.624323" cy="0.619578" rx="0.624323" ry="0.619578" transform="matrix(-0.864926 0.501899 0.498084 0.867129 57.5939 103.538)" fill="#ECB425"/>
<ellipse cx="0.624323" cy="0.619578" rx="0.624323" ry="0.619578" transform="matrix(-0.864926 0.501899 -0.498084 -0.867129 70.9869 122.844)" fill="#ECB425"/>
<ellipse cx="0.624323" cy="0.619578" rx="0.624323" ry="0.619578" transform="matrix(0.864926 -0.501899 0.498084 0.867129 51.762 106.922)" fill="#ECB425"/>
<ellipse cx="0.624323" cy="0.619577" rx="0.624323" ry="0.619577" transform="matrix(0.864926 -0.501899 -0.498084 -0.867129 65.7568 127.024)" fill="#ECB425"/>
<ellipse cx="0.624323" cy="0.619578" rx="0.624323" ry="0.619578" transform="matrix(0.864926 -0.501899 0.498084 0.867129 53.3047 103.591)" fill="#ECB425"/>
<ellipse cx="0.624323" cy="0.619577" rx="0.624323" ry="0.619577" transform="matrix(0.864926 -0.501899 -0.498084 -0.867129 70.2467 128.574)" fill="#ECB425"/>
</g>
<defs>
<filter id="filter0_f_6010_819" x="87.9036" y="24.342" width="110.65" height="110.902" filterUnits="userSpaceOnUse" color-interpolation-filters="sRGB">
<feFlood flood-opacity="0" result="BackgroundImageFix"/>
<feBlend mode="normal" in="SourceGraphic" in2="BackgroundImageFix" result="shape"/>
<feGaussianBlur stdDeviation="1" result="effect1_foregroundBlur_6010_819"/>
</filter>
<filter id="filter1_f_6010_819" x="159.862" y="99.8828" width="59.1959" height="59.3264" filterUnits="userSpaceOnUse" color-interpolation-filters="sRGB">
<feFlood flood-opacity="0" result="BackgroundImageFix"/>
<feBlend mode="normal" in="SourceGraphic" in2="BackgroundImageFix" result="shape"/>
<feGaussianBlur stdDeviation="1" result="effect1_foregroundBlur_6010_819"/>
</filter>
<filter id="filter2_f_6010_819" x="39.208" y="94.4338" width="153.566" height="139.659" filterUnits="userSpaceOnUse" color-interpolation-filters="sRGB">
<feFlood flood-opacity="0" result="BackgroundImageFix"/>
<feBlend mode="normal" in="SourceGraphic" in2="BackgroundImageFix" result="shape"/>
<feGaussianBlur stdDeviation="1" result="effect1_foregroundBlur_6010_819"/>
</filter>
<filter id="filter3_f_6010_819" x="6.12207" y="60.6235" width="110.65" height="110.902" filterUnits="userSpaceOnUse" color-interpolation-filters="sRGB">
<feFlood flood-opacity="0" result="BackgroundImageFix"/>
<feBlend mode="normal" in="SourceGraphic" in2="BackgroundImageFix" result="shape"/>
<feGaussianBlur stdDeviation="1" result="effect1_foregroundBlur_6010_819"/>
</filter>
</defs>
</svg>
