<svg width="24" height="18" viewBox="0 0 24 18" fill="none" xmlns="http://www.w3.org/2000/svg">
<g clip-path="url(#clip0_6128_1025)">
<mask id="mask0_6128_1025" style="mask-type:alpha" maskUnits="userSpaceOnUse" x="0" y="0" width="24" height="18">
<path d="M21.7143 0.428711H2.28571C1.02335 0.428711 0 1.45206 0 2.71443V15.2859C0 16.5482 1.02335 17.5716 2.28571 17.5716H21.7143C22.9767 17.5716 24 16.5482 24 15.2859V2.71443C24 1.45206 22.9767 0.428711 21.7143 0.428711Z" fill="white"/>
</mask>
<g mask="url(#mask0_6128_1025)">
<path d="M21.7143 0.428711H2.28571C1.02335 0.428711 0 1.45206 0 2.71443V15.2859C0 16.5482 1.02335 17.5716 2.28571 17.5716H21.7143C22.9767 17.5716 24 16.5482 24 15.2859V2.71443C24 1.45206 22.9767 0.428711 21.7143 0.428711Z" fill="white"/>
<path fill-rule="evenodd" clip-rule="evenodd" d="M0 0.428711H10.2857V8.42871H0V0.428711Z" fill="#444379"/>
<path fill-rule="evenodd" clip-rule="evenodd" d="M1.14286 1.57178V2.71463H2.28571V1.57178H1.14286ZM3.42857 1.57178V2.71463H4.57143V1.57178H3.42857ZM5.71428 1.57178V2.71463H6.85714V1.57178H5.71428ZM8 1.57178V2.71463H9.14286V1.57178H8ZM6.85714 2.71463V3.85749H8V2.71463H6.85714ZM4.57143 2.71463V3.85749H5.71428V2.71463H4.57143ZM2.28571 2.71463V3.85749H3.42857V2.71463H2.28571ZM1.14286 3.85749V5.00035H2.28571V3.85749H1.14286ZM3.42857 3.85749V5.00035H4.57143V3.85749H3.42857ZM5.71428 3.85749V5.00035H6.85714V3.85749H5.71428ZM8 3.85749V5.00035H9.14286V3.85749H8ZM1.14286 6.14321V7.28606H2.28571V6.14321H1.14286ZM3.42857 6.14321V7.28606H4.57143V6.14321H3.42857ZM5.71428 6.14321V7.28606H6.85714V6.14321H5.71428ZM8 6.14321V7.28606H9.14286V6.14321H8ZM6.85714 5.00035V6.14321H8V5.00035H6.85714ZM4.57143 5.00035V6.14321H5.71428V5.00035H4.57143ZM2.28571 5.00035V6.14321H3.42857V5.00035H2.28571Z" fill="#A7B6E7"/>
<path fill-rule="evenodd" clip-rule="evenodd" d="M10.2857 0.428711V1.57157H24V0.428711H10.2857ZM10.2857 2.71443V3.85728H24V2.71443H10.2857ZM10.2857 5.00014V6.143H24V5.00014H10.2857ZM10.2857 7.28585V8.42871H24V7.28585H10.2857ZM0 9.57157V10.7144H24V9.57157H0ZM0 11.8573V13.0001H24V11.8573H0ZM0 14.143V15.2859H24V14.143H0ZM0 16.4287V17.5716H24V16.4287H0Z" fill="#ED4C49"/>
<path d="M21.7143 1H2.28571C1.33894 1 0.571428 1.76751 0.571428 2.71429V15.2857C0.571428 16.2325 1.33894 17 2.28571 17H21.7143C22.6611 17 23.4286 16.2325 23.4286 15.2857V2.71429C23.4286 1.76751 22.6611 1 21.7143 1Z" stroke="black" stroke-opacity="0.1"/>
</g>
</g>
<defs>
<clipPath id="clip0_6128_1025">
<rect width="24" height="17.1429" fill="white" transform="translate(0 0.428711)"/>
</clipPath>
</defs>
</svg>
