<svg width="52" height="52" viewBox="0 0 52 52" fill="none" xmlns="http://www.w3.org/2000/svg">
<path d="M16.7916 14.6247C16.7916 9.54632 20.9216 5.41634 26 5.41634C31.0777 5.41634 35.2073 9.54534 35.2083 14.6229C35.1877 19.6051 31.3013 23.6276 26.3488 23.8113H26.3488H26.3487H26.3486H26.3486H26.3485H26.3484H26.3484H26.3483H26.3482H26.3482H26.3481H26.348H26.348H26.3479H26.3479H26.3478H26.3477H26.3477H26.3476H26.3475H26.3475H26.3474H26.3473H26.3473H26.3472H26.3472H26.3471H26.347H26.347H26.3469H26.3468H26.3468H26.3467H26.3466H26.3466H26.3465H26.3465H26.3464H26.3463H26.3463H26.3462H26.3461H26.3461H26.346H26.3459H26.3459H26.3458H26.3458H26.3457H26.3456H26.3456H26.3455H26.3454H26.3454H26.3453H26.3452H26.3452H26.3451H26.3451H26.345H26.3449H26.3449H26.3448H26.3447H26.3447H26.3446H26.3445H26.3445H26.3444H26.3443H26.3443H26.3442H26.3442H26.3441H26.344H26.344H26.3439H26.3438H26.3438H26.3437H26.3436H26.3436H26.3435H26.3434H26.3434H26.3433H26.3432H26.3432H26.3431H26.343H26.343H26.3429H26.3428H26.3428H26.3427H26.3426H26.3426H26.3425H26.3424H26.3424H26.3423H26.3422H26.3422H26.3421H26.342H26.342H26.3419H26.3418H26.3417H26.3417H26.3416H26.3415H26.3415H26.3414H26.3413H26.3413H26.3412H26.3411H26.3411H26.341H26.3409H26.3408H26.3408H26.3407H26.3406H26.3406H26.3405H26.3404H26.3403H26.3403H26.3402H26.3401H26.34H26.34H26.3399H26.3398H26.3398H26.3397H26.3396H26.3395H26.3395H26.3394H26.3393H26.3392H26.3392H26.3391H26.339H26.3389H26.3389H26.3388H26.3387H26.3386H26.3385H26.3385H26.3384H26.3383H26.3382H26.3382H26.3381H26.338H26.3379H26.3378H26.3378H26.3377H26.3376H26.3375H26.3374H26.3374H26.3373H26.3372H26.3371H26.337H26.337H26.3369H26.3368H26.3367H26.3366H26.3365H26.3365H26.3364H26.3363H26.3362H26.3361H26.336H26.3359H26.3359H26.3358H26.3357H26.3356H26.3355H26.3354H26.3353H26.3353H26.3352H26.3351H26.335H26.3349H26.3348H26.3347H26.3346H26.3345H26.3344H26.3344H26.3343H26.3342H26.3341H26.334H26.3339H26.3338H26.3337H26.3336H26.3335H26.3334H26.3333H26.3332H26.3331H26.333H26.333H26.3329H26.3328H26.3327H26.3326H26.3325H26.3324H26.3323H26.3322H26.3321H26.332H26.3319H26.3318H26.3317H26.3316H26.3315H26.3314H26.3313H26.3312H26.3311H26.331H26.3309H26.3307H26.3306H26.3305H26.3304H26.3303H26.3302H26.3301H26.33H26.3299H26.3298H26.3297H26.3296H26.3295H26.3294H26.3292H26.3291H26.329H26.3289H26.3288H26.3287H26.3286H26.3285H26.3283H26.3282H26.3281H26.328H26.3279H26.3278H26.3277H26.3275H26.3274H26.3273H26.3272H26.3271H26.3269H26.3268H26.3267H26.3266H26.3265H26.3263H26.3262H26.3261H26.326H26.3259H26.3257H26.3256H26.3255H26.3254H26.3252H26.3251H26.325H26.3247H26.3245H26.3242H26.324H26.3237H26.3235H26.3232H26.323H26.3227H26.3225H26.3222H26.322H26.3217H26.3215H26.3212H26.321H26.3207H26.3205H26.3202H26.32H26.3198H26.3195H26.3193H26.319H26.3188H26.3185H26.3183H26.3181H26.3178H26.3176H26.3173H26.3171H26.3169H26.3166H26.3164H26.3161H26.3159H26.3157H26.3154H26.3152H26.315H26.3147H26.3145H26.3143H26.314H26.3138H26.3136H26.3133H26.3131H26.3129H26.3126H26.3124H26.3122H26.3119H26.3117H26.3115H26.3113H26.311H26.3108H26.3106H26.3103H26.3101H26.3099H26.3097H26.3094H26.3092H26.309H26.3088H26.3085H26.3083H26.3081H26.3079H26.3076H26.3074H26.3072H26.307H26.3068H26.3065H26.3063H26.3061H26.3059H26.3056H26.3054H26.3052H26.305H26.3048H26.3046H26.3043H26.3041H26.3039H26.3037H26.3035H26.3032H26.303H26.3028H26.3026H26.3024H26.3022H26.302H26.3017H26.3015H26.3013H26.3011H26.3009H26.3007H26.3005H26.3003H26.3H26.2998H26.2996H26.2994H26.2992H26.299H26.2988H26.2986H26.2984H26.2981H26.2979H26.2977H26.2975H26.2973H26.2971H26.2969H26.2967H26.2965H26.2963H26.2961H26.2959H26.2957H26.2955H26.2952H26.295H26.2948H26.2946H26.2944H26.2942H26.294H26.2938H26.2936H26.2934H26.2932H26.293H26.2928H26.2926H26.2924H26.2922H26.292H26.2918H26.2916H26.2914H26.2912H26.291H26.2908H26.2906H26.2904H26.2902H26.29H26.2898C26.0937 23.7887 25.8899 23.7914 25.7021 23.8091C20.6383 23.5971 16.7916 19.5771 16.7916 14.6247Z" fill="#DED9DA" stroke="#DED9DA" stroke-width="2.16667"/>
<path d="M15.5973 43.7122L15.5943 43.7102C13.0832 42.0361 11.83 39.8704 11.83 37.6566C11.83 35.442 13.084 33.2551 15.6153 31.5601C18.4462 29.6871 22.2123 28.7191 26.0271 28.7191C29.8433 28.7191 33.5979 29.6877 36.4058 31.5596C38.909 33.2285 40.1503 35.3936 40.17 37.6176C40.1684 39.8525 38.9141 42.0178 36.4017 43.7129C33.5832 45.6049 29.8193 46.5832 26 46.5832C22.1803 46.5832 18.4158 45.6047 15.5973 43.7122Z" fill="#DED9DA" stroke="#DED9DA" stroke-width="2.16667"/>
</svg>
