<svg width="28" height="26" viewBox="0 0 28 26" fill="none" xmlns="http://www.w3.org/2000/svg">
<path d="M20.7298 20.9864V21.7048C20.7298 22.943 20.2722 24.1288 19.4421 25.0453C19.2324 25.2763 18.9434 25.3938 18.6544 25.3938C18.3994 25.3938 18.1444 25.3032 17.9404 25.119C17.5055 24.7252 17.4729 24.0536 17.8667 23.6173C18.3413 23.0931 18.6048 22.4132 18.6048 21.7034V20.985C18.6048 19.0598 17.3085 17.3924 15.4513 16.932C15.1325 16.8527 14.7926 16.8952 14.5192 17.0496C11.9919 18.4365 8.91342 18.4295 6.40734 17.0553C6.12259 16.8938 5.78395 16.8513 5.4652 16.9306C3.60653 17.3925 2.3103 19.0584 2.3103 20.9837V21.7019C2.3103 22.4102 2.57238 23.0903 3.04838 23.6159C3.44221 24.0508 3.40962 24.7222 2.97471 25.1161C2.53979 25.5113 1.86976 25.4787 1.47451 25.0424C0.644346 24.1258 0.186768 22.94 0.186768 21.7019V20.9837C0.186768 18.0795 2.14595 15.5649 4.95237 14.8679C5.79245 14.6596 6.69918 14.7801 7.44009 15.1966C9.29876 16.2166 11.6036 16.2223 13.485 15.1909C14.2174 14.7787 15.1255 14.6596 15.9641 14.8679C18.7705 15.5691 20.7298 18.0837 20.7298 20.9864ZM23.0475 14.8722C22.478 14.732 21.9014 15.079 21.7597 15.6471C21.6181 16.2166 21.9665 16.7931 22.5346 16.9348C24.3919 17.3952 25.6882 19.0627 25.6882 20.988V21.7062C25.6882 22.4159 25.4261 23.0944 24.9501 23.62C24.5562 24.0549 24.5888 24.7265 25.0237 25.1218C25.2277 25.3059 25.4827 25.3966 25.7377 25.3966C26.0267 25.3966 26.3157 25.279 26.5254 25.0481C27.3556 24.1315 27.8132 22.9457 27.8132 21.7076V20.9894C27.8132 18.0838 25.8539 15.5692 23.0475 14.8722ZM3.72982 7.33268C3.72982 3.62243 6.74873 0.603516 10.459 0.603516C14.1692 0.603516 17.1882 3.62243 17.1882 7.33268C17.1882 11.0429 14.1692 14.0618 10.459 14.0618C6.74873 14.0618 3.72982 11.0429 3.72982 7.33268ZM5.85482 7.33268C5.85482 9.87135 7.92032 11.9368 10.459 11.9368C12.9977 11.9368 15.0632 9.87135 15.0632 7.33268C15.0632 4.79402 12.9977 2.72852 10.459 2.72852C7.92032 2.72852 5.85482 4.79402 5.85482 7.33268ZM24.2715 7.33268C24.2715 3.94402 21.7399 1.07383 18.3824 0.655914C17.803 0.586498 17.2689 0.995916 17.1966 1.57817C17.1244 2.16042 17.5366 2.69172 18.1189 2.76397C20.4153 3.05013 22.1465 5.01502 22.1465 7.33268C22.1465 8.7366 21.5175 10.047 20.4196 10.9281C19.962 11.295 19.8883 11.9638 20.2552 12.4214C20.4649 12.6835 20.7737 12.8195 21.084 12.8195C21.3177 12.8195 21.5529 12.7429 21.7484 12.5857C23.3521 11.2994 24.2715 9.38402 24.2715 7.33268Z" fill="white"/>
</svg>
