<svg width="121" height="75" viewBox="0 0 121 75" fill="none" xmlns="http://www.w3.org/2000/svg">
<rect width="121" height="75" fill="#D1D1D1"/>
<path d="M-235 -277C-235 -278.105 -234.105 -279 -233 -279H1219C1220.1 -279 1221 -278.105 1221 -277V731C1221 732.105 1220.1 733 1219 733H-233C-234.105 733 -235 732.105 -235 731V-277Z" fill="#C6C6C6"/>
<path d="M-233 -278H1219V-280H-233V-278ZM1220 -277V731H1222V-277H1220ZM1219 732H-233V734H1219V732ZM-234 731V-277H-236V731H-234ZM-233 732C-233.552 732 -234 731.552 -234 731H-236C-236 732.657 -234.657 734 -233 734V732ZM1220 731C1220 731.552 1219.55 732 1219 732V734C1220.66 734 1222 732.657 1222 731H1220ZM1219 -278C1219.55 -278 1220 -277.552 1220 -277H1222C1222 -278.657 1220.66 -280 1219 -280V-278ZM-233 -280C-234.657 -280 -236 -278.657 -236 -277H-234C-234 -277.552 -233.552 -278 -233 -278V-280Z" fill="black" fill-opacity="0.1"/>
<rect x="-135" y="-179" width="375" height="812" rx="24" fill="white"/>
<path d="M115.656 92.1658C112.762 95.1973 110.02 97.1562 107.854 98.7021C82.4113 116.871 52.3089 111.578 45.9089 110.284C36.4583 108.376 18.1995 104.685 4.99484 89.225C-14.979 65.8444 -11.8727 29.0035 3.62379 4.68628C6.45696 0.239784 21.4273 -24.4501 51.8586 -28.4081C70.2742 -30.8051 91.7406 -25.9709 107.288 -13.0091C139.92 14.2037 137.598 69.178 115.656 92.1658Z" fill="#D8E0F0"/>
<path d="M115.333 0.426758H6.21088C3.27349 0.426758 0.892273 2.80798 0.892273 5.74536V69.4422C0.892273 72.3795 3.27349 74.7608 6.21088 74.7608H115.333C118.271 74.7608 120.652 72.3795 120.652 69.4422V5.74536C120.652 2.80798 118.271 0.426758 115.333 0.426758Z" fill="#FF897E"/>
<path d="M109.297 37.1807H12.2498V43.7877H109.297V37.1807Z" fill="#D6D6E3"/>
<circle cx="19.2448" cy="58.1702" r="9.64681" fill="#011A51"/>
<rect x="0.808716" y="13.5811" width="119.835" height="13.7199" fill="#011A51"/>
<circle cx="136.291" cy="-13.6739" r="15.3261" fill="#FB847C"/>
</svg>
