<svg width="161" height="160" viewBox="0 0 161 160" fill="none" xmlns="http://www.w3.org/2000/svg">
<path d="M61.53 12.2852H56.1275V17.6876H61.53V12.2852Z" fill="#F8F7F8"/>
<path d="M72.3655 12.2852H66.9631V17.6876H72.3655V12.2852Z" fill="#F8F7F8"/>
<path d="M83.2014 12.2852H77.799V17.6876H83.2014V12.2852Z" fill="#F8F7F8"/>
<path d="M88.6037 17.7188H61.5299V23.1212H88.6037V17.7188Z" fill="#F8F7F8"/>
<path d="M104.873 17.7188H99.47V23.1212H104.873V17.7188Z" fill="#F8F7F8"/>
<path d="M99.4699 23.1211H88.6343V28.5236H99.4699V23.1211Z" fill="#F8F7F8"/>
<path d="M72.3656 28.5527H56.1275V33.9552H72.3656V28.5527Z" fill="#F8F7F8"/>
<path d="M83.2014 28.5527H77.799V33.9552H83.2014V28.5527Z" fill="#F8F7F8"/>
<path d="M104.873 28.5527H94.0369V33.9552H104.873V28.5527Z" fill="#F8F7F8"/>
<path d="M61.53 33.9551H56.1275V39.3576H61.53V33.9551Z" fill="#F8F7F8"/>
<path d="M83.2013 33.9551H72.3656V39.3576H83.2013V33.9551Z" fill="#F8F7F8"/>
<path d="M88.6036 39.3887H83.2012V44.7911H88.6036V39.3887Z" fill="#F8F7F8"/>
<path d="M104.873 39.3887H99.47V44.7911H104.873V39.3887Z" fill="#F8F7F8"/>
<path d="M61.53 44.791H56.1275V50.1935H61.53V44.791Z" fill="#F8F7F8"/>
<path d="M72.3655 44.791H66.9631V50.1935H72.3655V44.791Z" fill="#F8F7F8"/>
<path d="M83.2014 44.791H77.799V50.1935H83.2014V44.791Z" fill="#F8F7F8"/>
<path d="M94.0368 44.791H88.6343V50.1935H94.0368V44.791Z" fill="#F8F7F8"/>
<path d="M104.873 44.791H99.47V50.1935H104.873V44.791Z" fill="#F8F7F8"/>
<path d="M72.3655 50.2256H66.9631V55.628H72.3655V50.2256Z" fill="#F8F7F8"/>
<path d="M104.872 50.2256H88.6343V55.628H104.872V50.2256Z" fill="#F8F7F8"/>
<path d="M34.4561 55.627H12.7849V61.0294H34.4561V55.627Z" fill="#F8F7F8"/>
<path d="M50.6941 55.627H45.2917V61.0294H50.6941V55.627Z" fill="#F8F7F8"/>
<path d="M61.53 55.627H56.1275V61.0294H61.53V55.627Z" fill="#F8F7F8"/>
<path d="M110.306 55.627H99.47V61.0294H110.306V55.627Z" fill="#F8F7F8"/>
<path d="M137.349 55.627H121.111V61.0294H137.349V55.627Z" fill="#F8F7F8"/>
<path d="M148.184 55.627H142.782V61.0294H148.184V55.627Z" fill="#F8F7F8"/>
<path d="M45.2918 61.0303H29.0537V66.4327H45.2918V61.0303Z" fill="#F8F7F8"/>
<path d="M126.513 61.0303H121.111V66.4327H126.513V61.0303Z" fill="#F8F7F8"/>
<path d="M142.782 61.0303H137.379V66.4327H142.782V61.0303Z" fill="#F8F7F8"/>
<path d="M56.1273 66.4619H45.2917V71.8644H56.1273V66.4619Z" fill="#F8F7F8"/>
<path d="M88.6037 66.4619H61.5299V71.8644H88.6037V66.4619Z" fill="#F8F7F8"/>
<path d="M104.873 66.4619H99.47V71.8644H104.873V66.4619Z" fill="#F8F7F8"/>
<path d="M121.111 66.4619H115.708V71.8644H121.111V66.4619Z" fill="#F8F7F8"/>
<path d="M142.782 66.4619H137.379V71.8644H142.782V66.4619Z" fill="#F8F7F8"/>
<path d="M23.6205 71.8652H18.218V77.2677H23.6205V71.8652Z" fill="#F8F7F8"/>
<path d="M34.4562 71.8652H29.0537V77.2677H34.4562V71.8652Z" fill="#F8F7F8"/>
<path d="M99.4393 71.8652H94.0369V77.2677H99.4393V71.8652Z" fill="#F8F7F8"/>
<path d="M110.275 71.8652H104.872V77.2677H110.275V71.8652Z" fill="#F8F7F8"/>
<path d="M121.111 71.8652H115.708V77.2677H121.111V71.8652Z" fill="#F8F7F8"/>
<path d="M131.946 71.8652H126.544V77.2677H131.946V71.8652Z" fill="#F8F7F8"/>
<path d="M142.782 71.8652H137.379V77.2677H142.782V71.8652Z" fill="#F8F7F8"/>
<path d="M23.6205 77.2988H12.7849V82.7013H23.6205V77.2988Z" fill="#F8F7F8"/>
<path d="M50.6944 77.2988H34.4563V82.7013H50.6944V77.2988Z" fill="#F8F7F8"/>
<path d="M72.3656 77.2988H61.5299V82.7013H72.3656V77.2988Z" fill="#F8F7F8"/>
<path d="M83.2014 77.2988H77.799V82.7013H83.2014V77.2988Z" fill="#F8F7F8"/>
<path d="M148.215 77.2988H137.379V82.7013H148.215V77.2988Z" fill="#F8F7F8"/>
<path d="M66.963 82.7012H50.725V88.1036H66.963V82.7012Z" fill="#F8F7F8"/>
<path d="M83.2013 82.7012H72.3656V88.1036H83.2013V82.7012Z" fill="#F8F7F8"/>
<path d="M131.946 82.7012H115.708V88.1036H131.946V82.7012Z" fill="#F8F7F8"/>
<path d="M23.6205 88.1338H18.218V93.5363H23.6205V88.1338Z" fill="#F8F7F8"/>
<path d="M39.8588 88.1338H34.4563V93.5363H39.8588V88.1338Z" fill="#F8F7F8"/>
<path d="M61.53 88.1338H56.1275V93.5363H61.53V88.1338Z" fill="#F8F7F8"/>
<path d="M88.6036 88.1338H83.2012V93.5363H88.6036V88.1338Z" fill="#F8F7F8"/>
<path d="M110.275 88.1338H94.0369V93.5363H110.275V88.1338Z" fill="#F8F7F8"/>
<path d="M18.1873 93.5361H12.7849V98.9386H18.1873V93.5361Z" fill="#F8F7F8"/>
<path d="M39.8588 93.5361H34.4563V98.9386H39.8588V93.5361Z" fill="#F8F7F8"/>
<path d="M104.873 93.5361H99.47V98.9386H104.873V93.5361Z" fill="#F8F7F8"/>
<path d="M131.946 93.5361H126.544V98.9386H131.946V93.5361Z" fill="#F8F7F8"/>
<path d="M148.215 93.5361H137.379V98.9386H148.215V93.5361Z" fill="#F8F7F8"/>
<path d="M29.0232 98.9697H23.6208V104.372H29.0232V98.9697Z" fill="#F8F7F8"/>
<path d="M50.6944 98.9697H34.4563V104.372H50.6944V98.9697Z" fill="#F8F7F8"/>
<path d="M94.0368 98.9697H88.6343V104.372H94.0368V98.9697Z" fill="#F8F7F8"/>
<path d="M72.3656 104.373H56.1275V109.775H72.3656V104.373Z" fill="#F8F7F8"/>
<path d="M104.873 104.373H99.47V109.775H104.873V104.373Z" fill="#F8F7F8"/>
<path d="M137.349 104.373H121.111V109.775H137.349V104.373Z" fill="#F8F7F8"/>
<path d="M72.3655 109.774H66.9631V115.177H72.3655V109.774Z" fill="#F8F7F8"/>
<path d="M104.872 109.774H83.2012V115.177H104.872V109.774Z" fill="#F8F7F8"/>
<path d="M115.678 109.774H110.275V115.177H115.678V109.774Z" fill="#F8F7F8"/>
<path d="M126.513 109.774H121.111V115.177H126.513V109.774Z" fill="#F8F7F8"/>
<path d="M148.215 109.774H137.379V115.177H148.215V109.774Z" fill="#F8F7F8"/>
<path d="M66.9324 115.209H61.5299V120.611H66.9324V115.209Z" fill="#F8F7F8"/>
<path d="M77.7681 115.209H72.3656V120.611H77.7681V115.209Z" fill="#F8F7F8"/>
<path d="M104.873 115.209H99.47V120.611H104.873V115.209Z" fill="#F8F7F8"/>
<path d="M131.946 115.209H121.111V120.611H131.946V115.209Z" fill="#F8F7F8"/>
<path d="M148.215 115.209H137.379V120.611H148.215V115.209Z" fill="#F8F7F8"/>
<path d="M72.3655 120.609H66.9631V126.012H72.3655V120.609Z" fill="#F8F7F8"/>
<path d="M94.0368 120.609H83.2012V126.012H94.0368V120.609Z" fill="#F8F7F8"/>
<path d="M137.348 120.609H131.946V126.012H137.348V120.609Z" fill="#F8F7F8"/>
<path d="M148.184 120.609H142.782V126.012H148.184V120.609Z" fill="#F8F7F8"/>
<path d="M72.3656 126.043H56.1275V131.445H72.3656V126.043Z" fill="#F8F7F8"/>
<path d="M115.708 126.043H99.47V131.445H115.708V126.043Z" fill="#F8F7F8"/>
<path d="M126.513 126.043H121.111V131.445H126.513V126.043Z" fill="#F8F7F8"/>
<path d="M148.215 126.043H137.379V131.445H148.215V126.043Z" fill="#F8F7F8"/>
<path d="M61.53 131.446H56.1275V136.849H61.53V131.446Z" fill="#F8F7F8"/>
<path d="M72.3655 131.446H66.9631V136.849H72.3655V131.446Z" fill="#F8F7F8"/>
<path d="M99.4699 131.446H88.6343V136.849H99.4699V131.446Z" fill="#F8F7F8"/>
<path d="M142.782 131.446H137.379V136.849H142.782V131.446Z" fill="#F8F7F8"/>
<path d="M66.9632 136.878H56.1275V142.28H66.9632V136.878Z" fill="#F8F7F8"/>
<path d="M110.275 136.878H72.3656V142.28H110.275V136.878Z" fill="#F8F7F8"/>
<path d="M131.946 136.878H121.111V142.28H131.946V136.878Z" fill="#F8F7F8"/>
<path d="M148.215 136.878H137.379V142.28H148.215V136.878Z" fill="#F8F7F8"/>
<path d="M77.7988 142.283H56.1275V147.686H77.7988V142.283Z" fill="#F8F7F8"/>
<path d="M104.873 142.283H99.47V147.686H104.873V142.283Z" fill="#F8F7F8"/>
<path d="M148.184 142.283H131.946V147.686H148.184V142.283Z" fill="#F8F7F8"/>
<path d="M4.82777 30.1116V4.32712H30.6123V-0.000976562H0.499664V30.1116H4.82777Z" fill="#FA6B25"/>
<path d="M130.387 4.32713H156.172V30.1116H160.5V-0.000976562H130.387V4.32713Z" fill="#FA6B25"/>
<path d="M156.172 129.889V155.673H130.387V160.001H160.5V129.889H156.172Z" fill="#FA6B25"/>
<path d="M30.6123 155.673H4.82777V129.889H0.499664V160.001H30.6123V155.673Z" fill="#FA6B25"/>
<path d="M147.878 49.9179H110.766V12.8066H147.878V49.9179ZM115.708 44.9452H142.905V17.7487H115.708V44.9452Z" fill="#FA6B25"/>
<path d="M136.888 23.7949H121.755V38.928H136.888V23.7949Z" fill="#FA6B25"/>
<path d="M50.6944 49.9179H13.5831V12.8066H50.6944V49.9179ZM18.5252 44.9452H45.7217V17.7487H18.5252V44.9452Z" fill="#FA6B25"/>
<path d="M39.7054 23.7949H24.5724V38.928H39.7054V23.7949Z" fill="#FA6B25"/>
<path d="M50.6944 146.733H13.5831V109.622H50.6944V146.733ZM18.5252 141.761H45.7217V114.564H18.5252V141.761Z" fill="#FA6B25"/>
<path d="M39.7054 120.61H24.5724V135.743H39.7054V120.61Z" fill="#FA6B25"/>
</svg>
