<svg width="44" height="44" viewBox="0 0 44 44" fill="none" xmlns="http://www.w3.org/2000/svg">
<ellipse cx="22.0214" cy="21.9768" rx="21.9768" ry="21.9768" fill="#65D072"/>
<path d="M10.1878 33.8109L11.8872 27.5027C10.5167 25.0453 10.0812 22.1777 10.6608 19.4262C11.2404 16.6746 12.7961 14.2237 15.0425 12.5231C17.2889 10.8225 20.0753 9.98631 22.8904 10.168C25.7055 10.3497 28.3604 11.537 30.368 13.5121C32.3756 15.4873 33.6012 18.1177 33.8199 20.9208C34.0385 23.7238 33.2357 26.5115 31.5586 28.7722C29.8815 31.0329 27.4426 32.615 24.6896 33.2282C21.9365 33.8414 19.0539 33.4446 16.5708 32.1105L10.1878 33.8109ZM16.8785 29.7499L17.2733 29.9833C19.0719 31.0458 21.1726 31.4855 23.2482 31.2338C25.3237 30.9822 27.2574 30.0533 28.7479 28.592C30.2385 27.1307 31.2021 25.219 31.4887 23.1548C31.7753 21.0907 31.3687 18.99 30.3323 17.1802C29.296 15.3704 27.688 13.9531 25.759 13.1492C23.8301 12.3452 21.6885 12.1998 19.6679 12.7357C17.6474 13.2715 15.8615 14.4584 14.5884 16.1114C13.3154 17.7644 12.6268 19.7908 12.6299 21.8746C12.6282 23.6024 13.1077 25.2968 14.0149 26.7691L14.2624 27.1759L13.3124 30.6968L16.8785 29.7499Z" fill="white"/>
<path fill-rule="evenodd" clip-rule="evenodd" d="M26.5402 23.6225C26.2989 23.4426 26.0162 23.316 25.7139 23.2523C25.4115 23.1886 25.0974 23.1895 24.7955 23.2549C24.3418 23.4291 24.0487 24.0868 23.7556 24.4157C23.6938 24.4946 23.603 24.5499 23.5002 24.5713C23.3974 24.5926 23.2897 24.5786 23.1973 24.5318C21.5365 23.9308 20.1444 22.8285 19.2471 21.4041C19.1706 21.3152 19.1344 21.2023 19.1461 21.0893C19.1578 20.9762 19.2165 20.8717 19.3099 20.7979C19.6369 20.4988 19.8769 20.1284 20.0078 19.7209C20.0369 19.2714 19.9255 18.8237 19.6868 18.4311C19.5023 17.8807 19.1511 17.3906 18.6748 17.0188C18.4292 16.9167 18.1568 16.8824 17.8905 16.9202C17.6243 16.958 17.3756 17.0661 17.1743 17.2316C16.825 17.5101 16.5478 17.8574 16.363 18.2481C16.1782 18.6387 16.0905 19.0627 16.1065 19.4887C16.1076 19.728 16.1404 19.9662 16.2043 20.1981C16.3663 20.7552 16.6155 21.2875 16.944 21.7781C17.181 22.1539 17.4396 22.5177 17.7187 22.868C18.6257 24.0185 19.7657 24.9953 21.0756 25.7442C21.733 26.1248 22.4355 26.4343 23.1694 26.6664C23.9317 26.9858 24.7734 27.1083 25.6051 27.0211C26.0789 26.9549 26.5279 26.782 26.9124 26.5177C27.297 26.2534 27.6054 25.9059 27.8104 25.5056C27.9309 25.2638 27.9675 24.9935 27.9151 24.7317C27.7895 24.1965 27.0148 23.8805 26.5402 23.6225Z" fill="white"/>
</svg>
