<svg width="45" height="44" viewBox="0 0 45 44" fill="none" xmlns="http://www.w3.org/2000/svg">
<ellipse cx="22.1319" cy="21.9768" rx="21.9768" ry="21.9768" fill="#4D9FEB"/>
<path d="M33.8601 15.0244C33.0946 15.3542 32.2897 15.5839 31.4655 15.7077C31.8508 15.6416 32.4178 14.9473 32.6435 14.6663C32.9864 14.2424 33.2478 13.7585 33.4142 13.2392C33.4142 13.2007 33.4528 13.1456 33.4142 13.118C33.3948 13.1074 33.3731 13.1018 33.3509 13.1018C33.3288 13.1018 33.307 13.1074 33.2876 13.118C32.3926 13.6031 31.4401 13.9734 30.4525 14.22C30.4181 14.2305 30.3815 14.2315 30.3466 14.2227C30.3117 14.214 30.2798 14.1959 30.2544 14.1704C30.1775 14.0788 30.0947 13.9923 30.0066 13.9114C29.6038 13.5502 29.1469 13.2546 28.6524 13.0354C27.9849 12.7613 27.264 12.6426 26.544 12.6882C25.8454 12.7324 25.1633 12.92 24.5402 13.2392C23.9265 13.5758 23.3873 14.0331 22.9547 14.5837C22.4997 15.1503 22.1712 15.8078 21.9913 16.5121C21.843 17.182 21.8262 17.8744 21.9418 18.5508C21.9418 18.6665 21.9418 18.683 21.8427 18.6665C17.9176 18.088 14.6972 16.6939 12.0658 13.7021C11.9502 13.5698 11.8896 13.5698 11.796 13.7021C10.651 15.4432 11.207 18.1982 12.6383 19.5591C12.831 19.7409 13.0292 19.9172 13.2384 20.0825C12.5821 20.0359 11.9419 19.8579 11.3556 19.5591C11.2455 19.4875 11.185 19.526 11.1795 19.6583C11.1639 19.8416 11.1639 20.0259 11.1795 20.2093C11.2943 21.0879 11.6403 21.9202 12.1819 22.6211C12.7236 23.322 13.4415 23.8663 14.2623 24.1984C14.4624 24.2842 14.6709 24.3489 14.8844 24.3913C14.2768 24.511 13.6538 24.5296 13.0402 24.4464C12.9081 24.4188 12.8585 24.4905 12.9081 24.6172C13.7173 26.8212 15.4734 27.4934 16.7616 27.868C16.9377 27.8956 17.1139 27.8956 17.3121 27.9397C17.3121 27.9397 17.3121 27.9397 17.279 27.9727C16.8992 28.667 15.3633 29.1353 14.6587 29.3778C13.3725 29.8401 12.0012 30.0169 10.64 29.8957C10.4253 29.8626 10.3758 29.8681 10.3207 29.8957C10.2657 29.9232 10.3207 29.9838 10.3813 30.0389C10.6565 30.2208 10.9318 30.3806 11.218 30.5348C12.0702 31.0001 12.9712 31.3696 13.9045 31.6368C18.7379 32.9702 24.1768 31.9895 27.8046 28.3805C30.6562 25.5484 31.6581 21.6418 31.6581 17.7298C31.6581 17.581 31.8398 17.4929 31.9444 17.4157C32.6658 16.8531 33.3019 16.1887 33.8326 15.4432C33.9245 15.3321 33.9717 15.1906 33.9647 15.0465C33.9647 14.9638 33.9647 14.9804 33.8601 15.0244Z" fill="white"/>
</svg>
